<?xml version="1.0" standalone="no"?>
<!DOCTYPE svg PUBLIC "-//W3C//DTD SVG 20010904//EN"
 "http://www.w3.org/TR/2001/REC-SVG-20010904/DTD/svg10.dtd">
<svg version="1.0" xmlns="http://www.w3.org/2000/svg"
 width="190.000000pt" height="190.000000pt" viewBox="0 0 190.000000 190.000000"
 preserveAspectRatio="xMidYMid meet">
<metadata>
Created by potrace 1.11, written by Peter Selinger 2001-2013
</metadata>
<g transform="translate(0.000000,190.000000) scale(0.100000,-0.100000)"
fill="#000000" stroke="none">
<path d="M1093 1503 c-35 -2 -63 -8 -63 -12 0 -5 -28 -11 -61 -15 -34 -3 -67
-10 -73 -15 -6 -5 -27 -12 -46 -16 -19 -4 -39 -11 -45 -15 -5 -4 -25 -11 -42
-15 -18 -3 -33 -11 -33 -16 0 -5 -9 -9 -20 -9 -23 0 -100 -38 -100 -50 0 -4
-12 -11 -26 -14 -27 -7 -28 -8 -85 -56 -20 -16 -40 -30 -44 -30 -10 0 -85 -75
-85 -85 0 -4 -13 -23 -30 -42 -16 -18 -30 -40 -30 -48 0 -8 -6 -15 -14 -15
-15 0 -54 -19 -76 -37 -8 -7 -31 -26 -51 -43 -20 -16 -41 -30 -46 -30 -5 0
-16 -9 -26 -20 -19 -22 -25 -140 -7 -140 6 0 10 -20 10 -44 0 -78 10 -106 36
-106 13 0 24 -4 24 -9 0 -5 19 -12 43 -16 23 -4 45 -12 49 -19 4 -6 38 -11 78
-12 50 -1 76 -6 89 -18 9 -9 23 -16 29 -16 7 0 12 -4 12 -10 0 -5 6 -10 14
-10 7 0 19 -6 25 -14 7 -8 27 -17 46 -20 19 -4 35 -11 35 -16 0 -5 21 -12 48
-16 26 -3 52 -11 59 -16 7 -5 49 -12 93 -15 44 -3 83 -10 86 -14 7 -12 181
-12 188 -1 3 5 49 12 102 15 53 4 102 11 108 16 6 4 34 12 61 16 28 4 55 10
60 15 6 4 25 11 43 15 17 3 32 11 32 16 0 5 8 9 19 9 16 0 142 59 196 93 37
23 102 93 110 117 4 14 13 28 19 32 6 4 11 36 11 76 0 52 -4 73 -17 86 -10 10
-18 32 -18 52 0 19 -6 44 -12 55 -10 17 -10 23 0 26 15 6 17 160 1 165 -5 2
-13 22 -16 46 -3 23 -10 42 -14 42 -5 0 -9 11 -9 25 0 13 -6 28 -12 32 -7 4
-18 17 -24 27 -6 11 -19 24 -30 30 -10 6 -22 15 -25 19 -12 16 -62 37 -103 44
-22 3 -44 10 -47 15 -6 10 -296 18 -396 11z"/>
</g>
</svg>
