ply
format ascii 1.0
comment Author: CloudCompare (TELECOM PARISTECH/EDF R&D)
obj_info Generated by CloudCompare!
element vertex 721
property float x
property float y
property float z
element face 904
property list uchar int vertex_indices
end_header
19.3203 -29.3881 -22.8866 
19.3203 -28.2571 -22.8866 
20.798 -29.3881 -21.606 
20.798 -28.2571 -21.606 
20.0592 -28.2571 -22.2463 
20.0592 -29.3881 -22.2463 
20.798 -29.3881 -21.606 
20.0592 -29.3881 -22.2463 
19.3203 -29.3881 -22.8866 
20.1604 -28.388 -20.8703 
18.6827 -28.388 -22.1509 
19.5794 -27.338 -20.2 
18.1018 -27.338 -21.4806 
19.0566 -26.2431 -19.5968 
17.579 -26.2431 -20.8774 
18.5935 -25.1084 -19.0623 
17.1158 -25.1084 -20.343 
18.1897 -23.9409 -18.5965 
16.7121 -23.9409 -19.8772 
17.8387 -22.7485 -18.1915 
16.3611 -22.7485 -19.4722 
17.5321 -21.5372 -17.8377 
16.0544 -21.5372 -19.1184 
17.2614 -20.3132 -17.5254 
15.7838 -20.3132 -18.8061 
16.2963 -15.3821 -16.4119 
14.8187 -15.3821 -17.6925 
15.7257 -12.9444 -15.7534 
14.248 -12.9444 -17.0341 
15.3875 -11.7463 -15.3633 
13.9099 -11.7463 -16.6439 
15.0033 -10.5691 -14.92 
13.5257 -10.5691 -16.2006 
14.5644 -9.42014 -14.4136 
13.0868 -9.42014 -15.6942 
14.0672 -8.30742 -13.8398 
12.5895 -8.30742 -15.1205 
13.5109 -7.23784 -13.198 
12.0332 -7.23784 -14.4786 
12.8948 -6.21825 -12.4871 
11.4171 -6.21825 -13.7678 
12.2201 -5.25492 -11.7086 
10.7424 -5.25492 -12.9893 
11.4905 -4.35355 -10.8668 
10.0128 -4.35355 -12.1474 
10.7089 -3.52014 -9.96495 
9.23122 -3.52014 -11.2456 
9.87821 -2.76066 -9.00654 
8.40057 -2.76066 -10.2872 
9.00225 -2.08127 -7.99584 
7.52461 -2.08127 -9.27649 
8.08643 -1.48566 -6.93915 
6.60879 -1.48566 -8.2198 
7.13634 -0.976143 -5.84292 
5.6587 -0.976143 -7.12357 
6.15755 -0.555036 -4.71357 
4.67991 -0.555036 -5.99422 
5.15619 -0.223361 -3.55818 
3.67855 -0.223361 -4.83883 
4.13819 0.0213274 -2.3836 
2.66055 0.0213274 -3.66425 
3.10879 0.181922 -1.19585 
1.63115 0.181922 -2.4765 
2.07323 0.261314 -0.000999642 
1.33441 0.261314 -0.641325 
0.595587 0.261314 -1.28165 
18.3178 -26.2431 -20.2371 
18.8406 -27.338 -20.8403 
17.8546 -25.1084 -19.7027 
17.4509 -23.9409 -19.2369 
17.0999 -22.7485 -18.8319 
16.7933 -21.5372 -18.478 
16.5226 -20.3132 -18.1658 
15.5575 -15.3821 -17.0522 
14.9868 -12.9444 -16.3938 
14.6487 -11.7463 -16.0036 
14.2645 -10.5691 -15.5603 
13.8256 -9.42014 -15.0539 
13.3284 -8.30742 -14.4802 
12.772 -7.23784 -13.8383 
12.156 -6.21825 -13.1274 
10.7516 -4.35355 -11.5071 
11.4813 -5.25492 -12.349 
9.97003 -3.52014 -10.6053 
9.13939 -2.76066 -9.64686 
8.26343 -2.08127 -8.63616 
7.34761 -1.48566 -7.57948 
6.39752 -0.976143 -6.48325 
5.41873 -0.555036 -5.35389 
4.41737 -0.223361 -4.19851 
3.39937 0.0213274 -3.02392 
2.36997 0.181922 -1.83618 
19.3203 -28.2571 -22.8866 
19.3203 -29.3881 -22.8866 
18.6827 -28.388 -22.1509 
18.1018 -27.338 -21.4806 
17.579 -26.2431 -20.8774 
17.1158 -25.1084 -20.343 
16.7121 -23.9409 -19.8772 
16.3611 -22.7485 -19.4722 
16.0544 -21.5372 -19.1184 
15.7838 -20.3132 -18.8061 
14.8187 -15.3821 -17.6925 
14.248 -12.9444 -17.0341 
13.9099 -11.7463 -16.6439 
13.5257 -10.5691 -16.2006 
13.0868 -9.42014 -15.6942 
12.5895 -8.30742 -15.1205 
12.0332 -7.23784 -14.4786 
11.4171 -6.21825 -13.7678 
10.7424 -5.25492 -12.9893 
10.0128 -4.35355 -12.1474 
9.23122 -3.52014 -11.2456 
8.40057 -2.76066 -10.2872 
7.52461 -2.08127 -9.27649 
6.60879 -1.48566 -8.2198 
5.6587 -0.976143 -7.12357 
4.67991 -0.555036 -5.99422 
3.67855 -0.223361 -4.83883 
2.66055 0.0213274 -3.66425 
1.63115 0.181922 -2.4765 
0.595587 0.261314 -1.28165 
0.595587 0.826803 -1.28165 
0.595587 1.39229 -1.28165 
1.63115 1.3129 -2.4765 
2.66055 1.1523 -3.66425 
3.67855 0.907616 -4.83883 
4.67991 0.575942 -5.99422 
5.6587 0.154834 -7.12357 
6.60879 -0.354685 -8.2198 
7.52461 -0.950297 -9.27649 
8.40057 -1.62969 -10.2872 
9.23122 -2.38916 -11.2456 
10.0128 -3.22258 -12.1474 
10.7424 -4.12394 -12.9893 
11.4171 -5.08727 -13.7678 
12.0332 -6.10686 -14.4786 
12.5895 -7.17644 -15.1205 
13.0868 -8.28916 -15.6942 
13.5257 -9.43817 -16.2006 
13.9099 -10.6153 -16.6439 
14.248 -11.8134 -17.0341 
14.8187 -14.2512 -17.6925 
15.7838 -19.1822 -18.8061 
16.0544 -20.4062 -19.1184 
16.3611 -21.6175 -19.4722 
16.7121 -22.8099 -19.8772 
17.1158 -23.9774 -20.343 
17.579 -25.1121 -20.8774 
18.1018 -26.207 -21.4806 
18.6827 -27.257 -22.1509 
0.40792 0.261314 -1.06641 
0.40792 1.39229 -1.06641 
0.595587 0.261314 -1.28165 
0.595587 1.39229 -1.28165 
0.501966 1.39229 -1.17384 
0.595587 0.826803 -1.28165 
0.501966 0.261314 -1.17384 
0.40792 0.826803 -1.06641 
-1.06526 0.261314 0.63338 
-1.06526 0.826803 0.63338 
-1.06526 1.39229 0.63338 
-0.765779 0.261314 0.584888 
-0.765779 0.826803 0.584888 
-0.765779 1.39229 0.584888 
-0.510015 0.261314 0.439128 
-0.510015 0.826803 0.439128 
-0.510015 1.39229 0.439128 
-0.310718 0.261314 0.210662 
-0.310718 0.826803 0.210662 
-0.310718 1.39229 0.210662 
-0.113491 0.261314 -0.0184285 
-0.113491 0.826803 -0.0184285 
-0.113491 1.39229 -0.0184285 
0.0867988 0.261314 -0.245672 
0.0867988 0.826803 -0.245672 
0.0867988 1.39229 -0.245672 
0.267717 0.261314 -0.486434 
0.267717 0.826803 -0.486434 
0.267717 1.39229 -0.486434 
0.378508 0.261314 -0.766454 
0.378508 0.826803 -0.766454 
0.378508 1.39229 -0.766454 
0.40792 0.261314 -1.06641 
0.40792 0.826803 -1.06641 
0.40792 1.39229 -1.06641 
0.413653 0.261314 1.91514 
0.413653 0.826803 1.91514 
0.413653 1.39229 1.91514 
0.419093 0.261314 1.6118 
0.419093 1.39229 1.6118 
0.527028 0.261314 1.33792 
0.527028 1.39229 1.33792 
0.724853 0.261314 1.10818 
0.724853 1.39229 1.10818 
0.923591 0.261314 0.880397 
0.923591 1.39229 0.880397 
1.12006 0.261314 0.649846 
1.12006 1.39229 0.649846 
1.33267 0.261314 0.436551 
1.33267 1.39229 0.436551 
1.59411 0.261314 0.28709 
1.59411 1.39229 0.28709 
1.88683 0.261314 0.215351 
1.88683 0.826803 0.215351 
1.88683 1.39229 0.215351 
0.527028 0.826803 1.33792 
0.724853 0.826803 1.10818 
0.923591 0.826803 0.880397 
1.12006 0.826803 0.649846 
1.33267 0.826803 0.436551 
1.59411 0.826803 0.28709 
-1.67067 1.39229 1.33191 
-1.67067 0.261314 1.33191 
-1.06526 1.39229 0.63338 
-1.06526 0.261314 0.63338 
-1.54959 1.39229 1.19221 
-1.42851 1.39229 1.0525 
-1.30743 1.39229 0.912793 
-1.18634 1.39229 0.773086 
-1.67067 0.826803 1.33191 
-1.18634 0.261314 0.773086 
-1.30743 0.261314 0.912793 
-1.42851 0.261314 1.0525 
-1.54959 0.261314 1.19221 
-1.06526 0.826803 0.63338 
-1.34179 0.261314 1.30355 
-1.15323 0.261314 1.46698 
-0.964668 0.261314 1.6304 
-0.776106 0.261314 1.79382 
-0.587544 0.261314 1.95725 
-0.398983 0.261314 2.12067 
-0.210421 0.261314 2.2841 
-1.16403 0.261314 1.09844 
-0.975465 0.261314 1.26187 
-0.786904 0.261314 1.42529 
-0.598342 0.261314 1.58872 
-0.40978 0.261314 1.75214 
-0.221219 0.261314 1.91556 
-0.0326568 0.261314 2.07899 
-0.986263 0.261314 0.893337 
-0.797701 0.261314 1.05676 
-0.60914 0.261314 1.22019 
-0.420578 0.261314 1.38361 
-0.232016 0.261314 1.54703 
-0.0434545 0.261314 1.71046 
0.145107 0.261314 1.87388 
-0.808499 0.261314 0.68823 
-0.619937 0.261314 0.851654 
-0.431376 0.261314 1.01508 
-0.0542522 0.261314 1.34193 
0.13431 0.261314 1.50535 
0.322871 0.261314 1.66877 
-0.442173 0.261314 0.646546 
-0.253612 0.261314 0.80997 
-0.0650498 0.261314 0.973394 
0.123512 0.261314 1.13682 
0.312073 0.261314 1.30024 
-0.264409 0.261314 0.441439 
-0.0758475 0.261314 0.604863 
0.112714 0.261314 0.768287 
0.301276 0.261314 0.931711 
0.489838 0.261314 1.09513 
-0.0866452 0.261314 0.236331 
0.101916 0.261314 0.399755 
0.290478 0.261314 0.563179 
0.47904 0.261314 0.726603 
0.667602 0.261314 0.890027 
0.0911188 0.261314 0.0312239 
0.27968 0.261314 0.194648 
0.656804 0.261314 0.521496 
0.845366 0.261314 0.68492 
0.268883 0.261314 -0.173884 
0.457444 0.261314 -0.0104596 
0.646006 0.261314 0.152964 
0.834568 0.261314 0.316388 
1.02313 0.261314 0.479812 
0.446647 0.261314 -0.378991 
0.635208 0.261314 -0.215567 
0.82377 0.261314 -0.0521432 
1.01233 0.261314 0.111281 
1.20089 0.261314 0.274705 
0.435849 0.261314 -0.747523 
0.624411 0.261314 -0.584099 
0.812972 0.261314 -0.420675 
1.00153 0.261314 -0.257251 
1.1901 0.261314 -0.0938267 
1.37866 0.261314 0.0695972 
0.613613 0.261314 -0.95263 
0.802175 0.261314 -0.789206 
0.990737 0.261314 -0.625782 
1.1793 0.261314 -0.462358 
1.36786 0.261314 -0.298934 
1.55642 0.261314 -0.13551 
1.74498 0.261314 0.0279137 
0.408345 0.261314 -1.06604 
0.501966 0.261314 -1.17384 
0.595587 0.261314 -1.28165 
1.88683 0.261314 0.215351 
1.59411 0.261314 0.28709 
1.33267 0.261314 0.436551 
1.12006 0.261314 0.649846 
0.923591 0.261314 0.880397 
0.724853 0.261314 1.10818 
0.527028 0.261314 1.33792 
0.419093 0.261314 1.6118 
0.413653 0.261314 1.91514 
-1.67067 0.261314 1.33191 
-1.54959 0.261314 1.19221 
-1.42851 0.261314 1.0525 
-1.30743 0.261314 0.912793 
-1.18634 0.261314 0.773086 
-1.06526 0.261314 0.63338 
1.33441 0.261314 -0.641325 
2.07323 0.261314 -0.000999642 
-0.22184 0.261314 1.1543 
-0.25574 0.261314 1.13464 
-0.297785 0.261314 1.12902 
-0.338605 0.261314 1.14056 
-0.369367 0.261314 1.16484 
-0.389031 0.261314 1.19874 
-0.394653 0.261314 1.24078 
-0.383113 0.261314 1.2816 
-0.358831 0.261314 1.31236 
-0.324931 0.261314 1.33203 
-0.282885 0.261314 1.33765 
-0.242066 0.261314 1.32611 
-0.211304 0.261314 1.30183 
-0.19164 0.261314 1.26793 
-0.186018 0.261314 1.22588 
-0.197558 0.261314 1.18506 
0.533639 0.261314 0.282616 
0.499739 0.261314 0.262952 
0.457693 0.261314 0.25733 
0.416873 0.261314 0.26887 
0.386111 0.261314 0.293152 
0.366448 0.261314 0.327052 
0.360826 0.261314 0.369097 
0.372366 0.261314 0.409917 
0.396647 0.261314 0.440679 
0.430548 0.261314 0.460343 
0.472593 0.261314 0.465965 
0.513413 0.261314 0.454425 
0.544175 0.261314 0.430143 
0.563839 0.261314 0.396243 
0.569461 0.261314 0.354197 
0.557921 0.261314 0.313377 
-0.888506 0.261314 0.589935 
-0.712522 0.261314 0.534179 
-0.568729 0.261314 0.472179 
-0.48643 0.261314 0.413944 
-0.412115 0.261314 0.328241 
-0.339591 0.261314 0.244604 
-0.266913 0.261314 0.16079 
-0.192475 0.261314 0.074945 
-0.114828 0.261314 -0.0146 
-0.0325519 0.261314 -0.109484 
0.0558508 0.261314 -0.211433 
0.15205 0.261314 -0.322374 
0.267643 0.261314 -0.483685 
0.348889 0.261314 -0.661399 
0.39579 0.261314 -0.855516 
0.406361 0.261314 -0.958726 
-0.191756 0.261314 2.61367 
-0.339648 0.261314 2.48549 
-0.487539 0.261314 2.35732 
-0.635431 0.261314 2.22914 
-0.783322 0.261314 2.10097 
-0.931214 0.261314 1.97279 
-1.07911 0.261314 1.84461 
-1.227 0.261314 1.71644 
-1.37489 0.261314 1.58826 
-1.52278 0.261314 1.46009 
0.292571 0.261314 2.05484 
0.171489 0.261314 2.19455 
0.0504075 0.261314 2.33426 
-0.0706743 0.261314 2.47396 
1.98003 0.261314 0.107176 
-1.34179 1.39229 1.30355 
-1.15323 1.39229 1.46698 
-0.964668 1.39229 1.6304 
-0.776106 1.39229 1.79382 
-0.587544 1.39229 1.95725 
-0.398983 1.39229 2.12067 
-0.210421 1.39229 2.2841 
-1.16403 1.39229 1.09844 
-0.975465 1.39229 1.26187 
-0.786904 1.39229 1.42529 
-0.598342 1.39229 1.58872 
-0.40978 1.39229 1.75214 
-0.221219 1.39229 1.91556 
-0.0326568 1.39229 2.07899 
-0.986263 1.39229 0.893337 
-0.797701 1.39229 1.05676 
-0.60914 1.39229 1.22019 
-0.420578 1.39229 1.38361 
-0.232016 1.39229 1.54703 
-0.0434545 1.39229 1.71046 
0.145107 1.39229 1.87388 
-0.808499 1.39229 0.68823 
-0.619937 1.39229 0.851654 
-0.431376 1.39229 1.01508 
-0.0542522 1.39229 1.34193 
0.13431 1.39229 1.50535 
0.322871 1.39229 1.66877 
-0.442173 1.39229 0.646546 
-0.253612 1.39229 0.80997 
-0.0650498 1.39229 0.973394 
0.123512 1.39229 1.13682 
0.312073 1.39229 1.30024 
-0.264409 1.39229 0.441439 
-0.0758475 1.39229 0.604863 
0.112714 1.39229 0.768287 
0.301276 1.39229 0.931711 
0.489838 1.39229 1.09513 
-0.0866452 1.39229 0.236331 
0.101916 1.39229 0.399755 
0.290478 1.39229 0.563179 
0.47904 1.39229 0.726603 
0.667602 1.39229 0.890027 
0.0911188 1.39229 0.0312239 
0.27968 1.39229 0.194648 
0.656804 1.39229 0.521496 
0.845366 1.39229 0.68492 
0.268883 1.39229 -0.173884 
0.457444 1.39229 -0.0104596 
0.646006 1.39229 0.152964 
0.834568 1.39229 0.316388 
1.02313 1.39229 0.479812 
0.446647 1.39229 -0.378991 
0.635208 1.39229 -0.215567 
0.82377 1.39229 -0.0521432 
1.01233 1.39229 0.111281 
1.20089 1.39229 0.274705 
0.435849 1.39229 -0.747523 
0.624411 1.39229 -0.584099 
0.812972 1.39229 -0.420675 
1.00153 1.39229 -0.257251 
1.1901 1.39229 -0.0938267 
1.37866 1.39229 0.0695972 
0.613613 1.39229 -0.95263 
0.802175 1.39229 -0.789206 
0.990737 1.39229 -0.625782 
1.1793 1.39229 -0.462358 
1.36786 1.39229 -0.298934 
1.55642 1.39229 -0.13551 
1.74498 1.39229 0.0279137 
0.408345 1.39229 -1.06604 
0.501966 1.39229 -1.17384 
0.595587 1.39229 -1.28165 
1.88683 1.39229 0.215351 
1.59411 1.39229 0.28709 
1.33267 1.39229 0.436551 
1.12006 1.39229 0.649846 
0.923591 1.39229 0.880397 
0.724853 1.39229 1.10818 
0.527028 1.39229 1.33792 
0.419093 1.39229 1.6118 
0.413653 1.39229 1.91514 
-1.67067 1.39229 1.33191 
-1.54959 1.39229 1.19221 
-1.42851 1.39229 1.0525 
-1.30743 1.39229 0.912793 
-1.18634 1.39229 0.773086 
-1.06526 1.39229 0.63338 
-0.22184 1.39229 1.1543 
-0.25574 1.39229 1.13464 
-0.297785 1.39229 1.12902 
-0.338605 1.39229 1.14056 
-0.369367 1.39229 1.16484 
-0.389031 1.39229 1.19874 
-0.394653 1.39229 1.24078 
-0.383113 1.39229 1.2816 
-0.358831 1.39229 1.31236 
-0.324931 1.39229 1.33203 
-0.282885 1.39229 1.33765 
-0.242066 1.39229 1.32611 
-0.211304 1.39229 1.30183 
-0.19164 1.39229 1.26793 
-0.186018 1.39229 1.22588 
-0.197558 1.39229 1.18506 
0.533639 1.39229 0.282616 
0.499739 1.39229 0.262952 
0.457693 1.39229 0.25733 
0.416873 1.39229 0.26887 
0.386111 1.39229 0.293152 
0.366448 1.39229 0.327052 
0.360826 1.39229 0.369097 
0.372366 1.39229 0.409917 
0.396647 1.39229 0.440679 
0.430548 1.39229 0.460343 
0.472593 1.39229 0.465965 
0.513413 1.39229 0.454425 
0.544175 1.39229 0.430143 
0.563839 1.39229 0.396243 
0.569461 1.39229 0.354197 
0.557921 1.39229 0.313377 
-0.888506 1.39229 0.589935 
-0.712522 1.39229 0.534179 
-0.568729 1.39229 0.472179 
-0.48643 1.39229 0.413944 
-0.412115 1.39229 0.328241 
-0.339591 1.39229 0.244604 
-0.266913 1.39229 0.16079 
-0.192475 1.39229 0.074945 
-0.114828 1.39229 -0.0146 
-0.0325519 1.39229 -0.109484 
0.0558508 1.39229 -0.211433 
0.15205 1.39229 -0.322374 
0.267643 1.39229 -0.483685 
0.348889 1.39229 -0.661399 
0.39579 1.39229 -0.855516 
0.406361 1.39229 -0.958726 
-0.191756 1.39229 2.61367 
-0.339648 1.39229 2.48549 
-0.487539 1.39229 2.35732 
-0.635431 1.39229 2.22914 
-0.783322 1.39229 2.10097 
-0.931214 1.39229 1.97279 
-1.07911 1.39229 1.84461 
-1.227 1.39229 1.71644 
-1.37489 1.39229 1.58826 
-1.52278 1.39229 1.46009 
0.292571 1.39229 2.05484 
0.171489 1.39229 2.19455 
0.0504075 1.39229 2.33426 
-0.0706743 1.39229 2.47396 
2.07323 1.39229 -0.000999642 
1.98003 1.39229 0.107176 
1.33441 1.39229 -0.641325 
-0.191756 0.261314 2.61367 
-1.67067 0.261314 1.33191 
-0.191756 1.39229 2.61367 
-1.67067 1.39229 1.33191 
-1.67067 0.826803 1.33191 
-0.339648 1.39229 2.48549 
-0.487539 1.39229 2.35732 
-0.635431 1.39229 2.22914 
-0.783322 1.39229 2.10097 
-0.931214 1.39229 1.97279 
-1.07911 1.39229 1.84461 
-1.227 1.39229 1.71644 
-1.37489 1.39229 1.58826 
-1.52278 1.39229 1.46009 
-0.191756 0.826803 2.61367 
-1.52278 0.261314 1.46009 
-1.37489 0.261314 1.58826 
-1.227 0.261314 1.71644 
-1.07911 0.261314 1.84461 
-0.931214 0.261314 1.97279 
-0.783322 0.261314 2.10097 
-0.635431 0.261314 2.22914 
-0.487539 0.261314 2.35732 
-0.339648 0.261314 2.48549 
-0.191756 1.39229 2.61367 
-0.191756 0.261314 2.61367 
0.413653 1.39229 1.91514 
0.413653 0.261314 1.91514 
-0.191756 0.826803 2.61367 
-0.0706743 1.39229 2.47396 
0.0504075 1.39229 2.33426 
0.171489 1.39229 2.19455 
0.292571 1.39229 2.05484 
0.292571 0.261314 2.05484 
0.171489 0.261314 2.19455 
0.0504075 0.261314 2.33426 
-0.0706743 0.261314 2.47396 
0.413653 0.826803 1.91514 
1.88683 0.261314 0.215351 
1.88683 1.39229 0.215351 
2.07323 0.261314 -0.000999642 
2.07323 1.39229 -0.000999642 
1.98003 1.39229 0.107176 
2.07323 0.826803 -0.000999642 
1.98003 0.261314 0.107176 
1.88683 0.826803 0.215351 
20.798 -28.2571 -21.606 
20.798 -29.3881 -21.606 
20.1604 -28.388 -20.8703 
19.5794 -27.338 -20.2 
19.0566 -26.2431 -19.5968 
18.5935 -25.1084 -19.0623 
18.1897 -23.9409 -18.5965 
17.8387 -22.7485 -18.1915 
17.5321 -21.5372 -17.8377 
17.2614 -20.3132 -17.5254 
16.2963 -15.3821 -16.4119 
15.7257 -12.9444 -15.7534 
15.3875 -11.7463 -15.3633 
15.0033 -10.5691 -14.92 
14.5644 -9.42014 -14.4136 
14.0672 -8.30742 -13.8398 
13.5109 -7.23784 -13.198 
12.8948 -6.21825 -12.4871 
12.2201 -5.25492 -11.7086 
11.4905 -4.35355 -10.8668 
10.7089 -3.52014 -9.96495 
9.87821 -2.76066 -9.00654 
9.00225 -2.08127 -7.99584 
8.08643 -1.48566 -6.93915 
7.13634 -0.976143 -5.84292 
6.15755 -0.555036 -4.71357 
5.15619 -0.223361 -3.55818 
4.13819 0.0213274 -2.3836 
3.10879 0.181922 -1.19585 
2.07323 0.261314 -0.000999642 
2.07323 0.826803 -0.000999642 
2.07323 1.39229 -0.000999642 
3.10879 1.3129 -1.19585 
4.13819 1.1523 -2.3836 
5.15619 0.907616 -3.55818 
6.15755 0.575942 -4.71357 
7.13634 0.154834 -5.84292 
8.08643 -0.354685 -6.93915 
9.00225 -0.950297 -7.99584 
9.87821 -1.62969 -9.00654 
10.7089 -2.38916 -9.96495 
11.4905 -3.22258 -10.8668 
12.2201 -4.12394 -11.7086 
12.8948 -5.08727 -12.4871 
13.5109 -6.10686 -13.198 
14.0672 -7.17644 -13.8398 
14.5644 -8.28916 -14.4136 
15.0033 -9.43817 -14.92 
15.3875 -10.6153 -15.3633 
15.7257 -11.8134 -15.7534 
16.2963 -14.2512 -16.4119 
17.2614 -19.1822 -17.5254 
17.5321 -20.4062 -17.8377 
17.8387 -21.6175 -18.1915 
18.1897 -22.8099 -18.5965 
18.5935 -23.9774 -19.0623 
19.0566 -25.1121 -19.5968 
19.5794 -26.207 -20.2 
20.1604 -27.257 -20.8703 
20.798 -28.2571 -21.606 
20.0592 -28.2571 -22.2463 
19.3203 -28.2571 -22.8866 
20.1604 -27.257 -20.8703 
18.6827 -27.257 -22.1509 
19.5794 -26.207 -20.2 
18.1018 -26.207 -21.4806 
19.0566 -25.1121 -19.5968 
17.579 -25.1121 -20.8774 
18.5935 -23.9774 -19.0623 
17.1158 -23.9774 -20.343 
18.1897 -22.8099 -18.5965 
16.7121 -22.8099 -19.8772 
17.8387 -21.6175 -18.1915 
16.3611 -21.6175 -19.4722 
17.5321 -20.4062 -17.8377 
16.0544 -20.4062 -19.1184 
17.2614 -19.1822 -17.5254 
15.7838 -19.1822 -18.8061 
16.2963 -14.2512 -16.4119 
14.8187 -14.2512 -17.6925 
15.7257 -11.8134 -15.7534 
14.248 -11.8134 -17.0341 
15.3875 -10.6153 -15.3633 
13.9099 -10.6153 -16.6439 
15.0033 -9.43817 -14.92 
13.5257 -9.43817 -16.2006 
14.5644 -8.28916 -14.4136 
13.0868 -8.28916 -15.6942 
14.0672 -7.17644 -13.8398 
12.5895 -7.17644 -15.1205 
13.5109 -6.10686 -13.198 
12.0332 -6.10686 -14.4786 
12.8948 -5.08727 -12.4871 
11.4171 -5.08727 -13.7678 
12.2201 -4.12394 -11.7086 
10.7424 -4.12394 -12.9893 
11.4905 -3.22258 -10.8668 
10.0128 -3.22258 -12.1474 
10.7089 -2.38916 -9.96495 
9.23122 -2.38916 -11.2456 
9.87821 -1.62969 -9.00654 
8.40057 -1.62969 -10.2872 
9.00225 -0.950297 -7.99584 
7.52461 -0.950297 -9.27649 
8.08643 -0.354685 -6.93915 
6.60879 -0.354685 -8.2198 
7.13634 0.154834 -5.84292 
5.6587 0.154834 -7.12357 
6.15755 0.575942 -4.71357 
4.67991 0.575942 -5.99422 
5.15619 0.907616 -3.55818 
3.67855 0.907616 -4.83883 
4.13819 1.1523 -2.3836 
2.66055 1.1523 -3.66425 
3.10879 1.3129 -1.19585 
1.63115 1.3129 -2.4765 
2.07323 1.39229 -0.000999642 
1.33441 1.39229 -0.641325 
0.595587 1.39229 -1.28165 
18.3178 -25.1121 -20.2371 
18.8406 -26.207 -20.8403 
17.8546 -23.9774 -19.7027 
17.4509 -22.8099 -19.2369 
17.0999 -21.6175 -18.8319 
16.7933 -20.4062 -18.478 
16.5226 -19.1822 -18.1658 
15.5575 -14.2512 -17.0522 
14.9868 -11.8134 -16.3938 
14.6487 -10.6153 -16.0036 
14.2645 -9.43817 -15.5603 
13.8256 -8.28916 -15.0539 
13.3284 -7.17644 -14.4802 
12.772 -6.10686 -13.8383 
12.156 -5.08727 -13.1274 
10.7516 -3.22258 -11.5071 
11.4813 -4.12394 -12.349 
9.97003 -2.38916 -10.6053 
9.13939 -1.62969 -9.64686 
8.26343 -0.950297 -8.63616 
7.34761 -0.354685 -7.57948 
6.39752 0.154834 -6.48325 
5.41873 0.575942 -5.35389 
4.41737 0.907616 -4.19851 
3.39937 1.1523 -3.02392 
2.36997 1.3129 -1.83618 
3 4 1 0 
3 4 0 5 
3 5 2 3 
3 5 3 4 
3 7 9 6 
3 13 11 67 
3 13 67 66 
3 15 13 66 
3 15 66 68 
3 67 11 9 
3 10 67 7 
3 67 9 7 
3 17 15 68 
3 17 68 69 
3 68 66 14 
3 68 14 16 
3 66 67 12 
3 66 12 14 
3 70 71 21 
3 70 21 19 
3 23 21 71 
3 23 71 72 
3 25 23 72 
3 25 72 73 
3 19 17 69 
3 19 69 70 
3 27 25 73 
3 27 73 74 
3 29 27 74 
3 29 74 75 
3 70 69 18 
3 70 18 20 
3 31 29 75 
3 31 75 76 
3 33 31 76 
3 33 76 77 
3 35 33 77 
3 35 77 78 
3 69 68 16 
3 69 16 18 
3 10 7 8 
3 67 10 12 
3 72 71 22 
3 72 22 24 
3 20 22 71 
3 20 71 70 
3 24 26 73 
3 24 73 72 
3 74 73 26 
3 74 26 28 
3 76 75 30 
3 76 30 32 
3 77 76 32 
3 77 32 34 
3 75 74 28 
3 75 28 30 
3 78 77 34 
3 78 34 36 
3 78 79 37 
3 78 37 35 
3 39 37 79 
3 39 79 80 
3 43 41 82 
3 43 82 81 
3 45 43 81 
3 45 81 83 
3 41 39 80 
3 41 80 82 
3 80 79 38 
3 80 38 40 
3 81 82 42 
3 81 42 44 
3 83 81 44 
3 83 44 46 
3 82 80 40 
3 82 40 42 
3 83 84 47 
3 83 47 45 
3 36 38 79 
3 36 79 78 
3 49 47 84 
3 49 84 85 
3 51 49 85 
3 51 85 86 
3 53 51 86 
3 53 86 87 
3 55 53 87 
3 55 87 88 
3 57 55 88 
3 57 88 89 
3 85 84 48 
3 85 48 50 
3 59 57 89 
3 59 89 90 
3 61 59 90 
3 61 90 91 
3 63 61 91 
3 63 91 64 
3 84 83 46 
3 84 46 48 
3 52 54 87 
3 52 87 86 
3 50 52 86 
3 50 86 85 
3 89 88 56 
3 89 56 58 
3 91 90 60 
3 91 60 62 
3 64 91 62 
3 64 62 65 
3 90 89 58 
3 90 58 60 
3 88 87 54 
3 88 54 56 
3 124 123 122 
3 120 119 125 
3 120 125 124 
3 120 122 121 
3 124 122 120 
3 119 118 126 
3 119 126 125 
3 127 126 118 
3 128 127 117 
3 117 127 118 
3 116 115 129 
3 116 129 128 
3 116 128 117 
3 130 129 115 
3 114 131 130 
3 115 114 130 
3 113 131 114 
3 113 112 132 
3 133 132 112 
3 113 132 131 
3 112 111 133 
3 134 133 111 
3 110 134 111 
3 135 134 110 
3 109 135 110 
3 109 108 136 
3 137 136 108 
3 109 136 135 
3 107 138 137 
3 106 138 107 
3 108 107 137 
3 105 139 106 
3 138 106 139 
3 104 140 105 
3 139 105 140 
3 103 141 104 
3 140 104 141 
3 102 142 103 
3 141 103 142 
3 101 143 102 
3 142 102 143 
3 100 144 101 
3 143 101 144 
3 99 145 100 
3 144 100 145 
3 146 145 99 
3 99 98 146 
3 147 146 98 
3 98 97 147 
3 148 147 97 
3 97 96 148 
3 149 148 96 
3 95 149 96 
3 150 149 95 
3 94 150 95 
3 94 93 92 
3 94 92 150 
3 158 151 157 
3 158 155 152 
3 155 158 157 
3 157 156 155 
3 156 154 155 
3 153 156 157 
3 166 163 162 
3 166 162 165 
3 167 164 163 
3 167 163 166 
3 169 166 165 
3 169 165 168 
3 170 167 166 
3 170 166 169 
3 172 169 168 
3 172 168 171 
3 173 170 169 
3 173 169 172 
3 175 172 171 
3 175 171 174 
3 176 173 172 
3 176 172 175 
3 178 175 174 
3 178 174 177 
3 179 176 175 
3 179 175 178 
3 181 178 177 
3 181 177 180 
3 182 179 178 
3 182 178 181 
3 160 159 162 
3 160 162 163 
3 163 164 161 
3 163 161 160 
3 181 180 183 
3 181 183 184 
3 184 185 182 
3 184 182 181 
3 187 189 186 
3 189 187 206 
3 191 189 206 
3 193 191 206 
3 193 206 207 
3 195 193 207 
3 195 207 208 
3 188 190 187 
3 206 187 190 
3 192 206 190 
3 194 196 208 
3 194 208 207 
3 207 206 192 
3 207 192 194 
3 208 209 197 
3 208 197 195 
3 209 210 199 
3 209 199 197 
3 196 198 209 
3 196 209 208 
3 201 199 210 
3 201 210 211 
3 203 201 211 
3 203 211 204 
3 210 209 198 
3 210 198 200 
3 204 211 202 
3 204 202 205 
3 211 210 200 
3 211 200 202 
3 220 216 212 
3 220 217 216 
3 224 220 213 
3 220 224 223 
3 225 220 223 
3 218 217 220 
3 225 219 218 
3 225 214 219 
3 225 222 221 
3 221 215 225 
3 222 225 223 
3 218 220 225 
3 234 233 226 
3 234 226 227 
3 235 234 227 
3 235 227 228 
3 236 235 228 
3 236 228 229 
3 237 236 229 
3 237 229 230 
3 238 237 230 
3 238 230 231 
3 239 238 231 
3 239 231 232 
3 241 240 233 
3 241 233 234 
3 242 241 234 
3 242 234 235 
3 243 242 235 
3 243 235 236 
3 244 243 236 
3 244 236 237 
3 245 244 237 
3 245 237 238 
3 246 245 238 
3 246 238 239 
3 248 247 240 
3 248 240 241 
3 249 248 241 
3 249 241 242 
3 251 250 244 
3 251 244 245 
3 252 251 245 
3 252 245 246 
3 254 253 248 
3 254 248 249 
3 257 256 250 
3 257 250 251 
3 259 258 253 
3 259 253 254 
3 260 259 254 
3 260 254 255 
3 261 260 255 
3 261 255 256 
3 262 261 256 
3 262 256 257 
3 264 263 258 
3 264 258 259 
3 265 264 259 
3 265 259 260 
3 266 265 260 
3 266 260 261 
3 267 266 261 
3 267 261 262 
3 269 268 263 
3 269 263 264 
3 271 270 266 
3 271 266 267 
3 273 272 268 
3 273 268 269 
3 276 275 270 
3 276 270 271 
3 278 277 272 
3 278 272 273 
3 279 278 273 
3 279 273 274 
3 280 279 274 
3 280 274 275 
3 281 280 275 
3 281 275 276 
3 284 283 277 
3 284 277 278 
3 285 284 278 
3 285 278 279 
3 286 285 279 
3 286 279 280 
3 287 286 280 
3 287 280 281 
3 289 288 282 
3 289 282 283 
3 290 289 283 
3 290 283 284 
3 291 290 284 
3 291 284 285 
3 292 291 285 
3 292 285 286 
3 293 292 286 
3 293 286 287 
3 287 294 293 
3 372 308 307 
3 371 227 226 
3 371 226 372 
3 308 372 226 
3 226 309 308 
3 233 310 309 
3 310 233 240 
3 310 240 311 
3 226 233 309 
3 370 227 371 
3 370 369 228 
3 228 227 370 
3 243 321 242 
3 243 322 321 
3 228 369 368 
3 228 368 229 
3 240 312 311 
3 247 347 312 
3 247 248 348 
3 348 347 247 
3 253 349 348 
3 349 253 350 
3 248 253 348 
3 249 320 319 
3 318 249 319 
3 320 242 321 
3 317 254 249 
3 254 317 316 
3 316 315 255 
3 255 254 316 
3 318 317 249 
3 242 320 249 
3 247 312 240 
3 367 230 229 
3 367 229 368 
3 231 366 365 
3 366 230 367 
3 244 325 243 
3 366 231 230 
3 231 365 364 
3 231 364 232 
3 376 232 364 
3 364 363 376 
3 376 375 232 
3 239 374 373 
3 239 373 246 
3 239 375 374 
3 373 306 246 
3 232 375 239 
3 324 243 325 
3 244 250 326 
3 244 326 325 
3 256 330 329 
3 329 328 250 
3 255 330 256 
3 330 255 315 
3 250 328 327 
3 306 252 246 
3 250 327 326 
3 257 251 305 
3 262 257 304 
3 251 252 305 
3 304 257 305 
3 306 305 252 
3 250 256 329 
3 323 243 324 
3 323 322 243 
3 253 258 350 
3 263 353 352 
3 263 352 258 
3 352 351 258 
3 268 355 263 
3 355 354 263 
3 353 263 354 
3 268 356 355 
3 335 269 336 
3 264 336 269 
3 264 337 336 
3 338 337 264 
3 334 273 269 
3 334 333 273 
3 333 332 273 
3 335 334 269 
3 357 356 268 
3 288 361 282 
3 283 282 360 
3 361 360 282 
3 288 362 361 
3 288 296 295 
3 289 297 288 
3 296 288 297 
3 362 288 295 
3 272 358 357 
3 277 358 272 
3 357 268 272 
3 358 277 359 
3 277 360 359 
3 283 360 277 
3 289 290 313 
3 274 273 332 
3 313 297 289 
3 339 338 265 
3 264 265 338 
3 265 340 339 
3 340 265 266 
3 275 345 344 
3 341 340 266 
3 342 341 266 
3 302 267 303 
3 262 303 267 
3 304 303 262 
3 270 344 343 
3 302 271 267 
3 344 270 275 
3 301 271 302 
3 270 342 266 
3 270 343 342 
3 346 345 275 
3 346 275 274 
3 271 301 276 
3 292 313 291 
3 292 293 313 
3 332 331 274 
3 300 281 276 
3 301 300 276 
3 287 281 300 
3 287 300 299 
3 299 294 287 
3 299 298 294 
3 314 293 294 
3 294 298 377 
3 294 377 314 
3 314 313 293 
3 346 274 331 
3 291 313 290 
3 351 350 258 
3 386 379 378 
3 386 378 385 
3 387 380 379 
3 387 379 386 
3 388 381 380 
3 388 380 387 
3 389 382 381 
3 389 381 388 
3 390 383 382 
3 390 382 389 
3 391 384 383 
3 391 383 390 
3 393 386 385 
3 393 385 392 
3 394 387 386 
3 394 386 393 
3 395 388 387 
3 395 387 394 
3 396 389 388 
3 396 388 395 
3 397 390 389 
3 397 389 396 
3 398 391 390 
3 398 390 397 
3 400 393 392 
3 400 392 399 
3 401 394 393 
3 401 393 400 
3 403 397 396 
3 403 396 402 
3 404 398 397 
3 404 397 403 
3 406 401 400 
3 406 400 405 
3 409 403 402 
3 409 402 408 
3 411 406 405 
3 411 405 410 
3 412 407 406 
3 412 406 411 
3 413 408 407 
3 413 407 412 
3 414 409 408 
3 414 408 413 
3 416 411 410 
3 416 410 415 
3 417 412 411 
3 417 411 416 
3 418 413 412 
3 418 412 417 
3 419 414 413 
3 419 413 418 
3 421 416 415 
3 421 415 420 
3 423 419 418 
3 423 418 422 
3 425 421 420 
3 425 420 424 
3 428 423 422 
3 428 422 427 
3 430 425 424 
3 430 424 429 
3 431 426 425 
3 431 425 430 
3 432 427 426 
3 432 426 431 
3 433 428 427 
3 433 427 432 
3 436 430 429 
3 436 429 435 
3 437 431 430 
3 437 430 436 
3 438 432 431 
3 438 431 437 
3 439 433 432 
3 439 432 438 
3 441 435 434 
3 441 434 440 
3 442 436 435 
3 442 435 441 
3 443 437 436 
3 443 436 442 
3 444 438 437 
3 444 437 443 
3 445 439 438 
3 445 438 444 
3 439 445 446 
3 522 459 460 
3 521 522 378 
3 521 378 379 
3 460 378 522 
3 378 460 461 
3 385 461 462 
3 462 463 392 
3 462 392 385 
3 378 461 385 
3 520 521 379 
3 520 380 519 
3 380 520 379 
3 395 394 471 
3 395 471 472 
3 380 381 518 
3 380 518 519 
3 392 463 464 
3 399 464 497 
3 399 498 400 
3 498 399 497 
3 405 498 499 
3 499 500 405 
3 400 498 405 
3 401 469 470 
3 468 469 401 
3 470 471 394 
3 467 401 406 
3 406 466 467 
3 466 407 465 
3 407 466 406 
3 468 401 467 
3 394 401 470 
3 399 392 464 
3 517 518 381 
3 517 381 382 
3 383 515 516 
3 516 517 382 
3 396 395 475 
3 516 382 383 
3 383 384 514 
3 383 514 515 
3 526 514 384 
3 514 526 513 
3 526 384 525 
3 391 398 523 
3 391 523 524 
3 391 524 525 
3 523 398 458 
3 384 391 525 
3 474 475 395 
3 396 476 402 
3 396 475 476 
3 408 479 480 
3 479 402 478 
3 407 408 480 
3 473 395 472 
3 402 477 478 
3 458 398 404 
3 402 476 477 
3 409 457 403 
3 414 456 409 
3 403 457 404 
3 456 457 409 
3 458 404 457 
3 402 479 408 
3 473 474 395 
3 465 407 480 
3 405 500 410 
3 502 415 410 
3 501 502 410 
3 415 502 503 
3 415 504 505 
3 506 420 505 
3 415 505 420 
3 503 504 415 
3 485 486 421 
3 416 421 486 
3 416 486 487 
3 488 416 487 
3 484 421 425 
3 484 425 483 
3 483 425 482 
3 485 421 484 
3 507 420 506 
3 440 434 511 
3 435 510 434 
3 511 434 510 
3 440 511 512 
3 440 447 448 
3 441 440 449 
3 448 449 440 
3 512 447 440 
3 424 507 508 
3 429 424 508 
3 507 424 420 
3 508 509 429 
3 429 509 510 
3 435 429 510 
3 441 529 442 
3 426 482 425 
3 529 441 449 
3 489 417 488 
3 416 488 417 
3 417 489 490 
3 490 418 417 
3 427 494 495 
3 491 418 490 
3 492 418 491 
3 454 455 419 
3 414 419 455 
3 456 414 455 
3 422 493 494 
3 454 419 423 
3 494 427 422 
3 453 454 423 
3 422 418 492 
3 422 492 493 
3 496 427 495 
3 496 426 427 
3 423 428 453 
3 444 443 529 
3 426 481 482 
3 444 529 445 
3 452 428 433 
3 453 428 452 
3 439 452 433 
3 439 451 452 
3 451 439 446 
3 451 446 450 
3 527 446 445 
3 446 528 450 
3 446 527 528 
3 527 445 529 
3 496 481 426 
3 443 442 529 
3 501 410 500 
3 553 552 544 
3 552 551 544 
3 550 549 544 
3 539 549 534 
3 544 551 550 
3 534 548 547 
3 534 547 546 
3 531 534 545 
3 546 545 534 
3 534 549 548 
3 544 530 553 
3 535 532 544 
3 536 535 544 
3 544 537 536 
3 544 538 537 
3 539 538 544 
3 539 534 540 
3 540 534 541 
3 542 534 543 
3 543 534 533 
3 541 534 542 
3 539 544 549 
3 558 554 559 
3 558 559 560 
3 566 555 558 
3 558 565 566 
3 567 565 558 
3 561 558 560 
3 567 561 562 
3 567 562 556 
3 567 563 564 
3 563 567 557 
3 564 565 567 
3 561 567 558 
3 574 575 572 
3 575 569 572 
3 574 568 575 
3 573 570 574 
3 573 572 571 
3 574 572 573 
3 608 606 607 
3 604 608 609 
3 604 609 603 
3 604 605 606 
3 608 604 606 
3 603 609 610 
3 603 610 602 
3 602 610 611 
3 602 611 601 
3 601 611 612 
3 601 612 600 
3 600 612 613 
3 600 613 599 
3 614 599 613 
3 598 614 615 
3 599 614 598 
3 597 598 615 
3 597 616 596 
3 617 596 616 
3 597 615 616 
3 596 617 595 
3 618 595 617 
3 594 595 618 
3 619 594 618 
3 593 594 619 
3 593 620 592 
3 621 592 620 
3 593 619 620 
3 622 591 621 
3 592 621 591 
3 590 591 622 
3 589 590 623 
3 622 623 590 
3 588 589 624 
3 623 624 589 
3 587 588 625 
3 624 625 588 
3 586 587 626 
3 625 626 587 
3 585 586 627 
3 626 627 586 
3 584 585 628 
3 627 628 585 
3 583 584 629 
3 628 629 584 
3 630 583 629 
3 583 630 582 
3 631 582 630 
3 582 631 581 
3 632 581 631 
3 633 580 632 
3 581 632 580 
3 579 580 633 
3 634 579 633 
3 578 579 634 
3 578 576 577 
3 578 634 576 
3 636 635 638 
3 642 695 696 
3 642 696 640 
3 644 697 695 
3 644 695 642 
3 696 638 640 
3 639 636 696 
3 696 636 638 
3 646 698 697 
3 646 697 644 
3 697 645 643 
3 697 643 695 
3 695 643 641 
3 695 641 696 
3 699 648 650 
3 699 650 700 
3 652 701 700 
3 652 700 650 
3 654 702 701 
3 654 701 652 
3 648 699 698 
3 648 698 646 
3 656 703 702 
3 656 702 654 
3 658 704 703 
3 658 703 656 
3 699 649 647 
3 699 647 698 
3 660 705 704 
3 660 704 658 
3 662 706 705 
3 662 705 660 
3 664 707 706 
3 664 706 662 
3 698 647 645 
3 698 645 697 
3 639 637 636 
3 696 641 639 
3 701 653 651 
3 701 651 700 
3 649 699 700 
3 649 700 651 
3 653 701 702 
3 653 702 655 
3 703 657 655 
3 703 655 702 
3 705 661 659 
3 705 659 704 
3 706 663 661 
3 706 661 705 
3 704 659 657 
3 704 657 703 
3 707 665 663 
3 707 663 706 
3 707 664 666 
3 707 666 708 
3 668 709 708 
3 668 708 666 
3 672 710 711 
3 672 711 670 
3 674 712 710 
3 674 710 672 
3 670 711 709 
3 670 709 668 
3 709 669 667 
3 709 667 708 
3 710 673 671 
3 710 671 711 
3 712 675 673 
3 712 673 710 
3 711 671 669 
3 711 669 709 
3 712 674 676 
3 712 676 713 
3 665 707 708 
3 665 708 667 
3 678 714 713 
3 678 713 676 
3 680 715 714 
3 680 714 678 
3 682 716 715 
3 682 715 680 
3 684 717 716 
3 684 716 682 
3 686 718 717 
3 686 717 684 
3 714 679 677 
3 714 677 713 
3 688 719 718 
3 688 718 686 
3 690 720 719 
3 690 719 688 
3 692 693 720 
3 692 720 690 
3 713 677 675 
3 713 675 712 
3 681 715 716 
3 681 716 683 
3 679 714 715 
3 679 715 681 
3 718 687 685 
3 718 685 717 
3 720 691 689 
3 720 689 719 
3 693 694 691 
3 693 691 720 
3 719 689 687 
3 719 687 718 
3 717 685 683 
3 717 683 716 
