ply
format ascii 1.0
comment Author: CloudCompare (TELECOM PARISTECH/EDF R&D)
obj_info Generated by CloudCompare!
element vertex 532
property float x
property float y
property float z
element face 1060
property list uchar int vertex_indices
end_header
0.188301 -1.16041 0.022627 
0.164949 -1.16661 -0.214675 
0.143283 -1.16449 -0.508848 
0.105577 -1.16438 -0.803022 
-0.359541 -0.866114 -0.645858 
-0.370153 -0.701629 -0.628676 
-0.393573 -0.904878 -0.803022 
-0.448097 -0.701629 -0.803022 
-0.371253 -0.407456 -0.627212 
-0.361008 -0.175346 -0.643907 
-0.450317 -0.407456 -0.803022 
-0.412077 -0.091686 -0.774711 
-0.097888 -0.915506 0.022627 
-0.1204 -0.701629 0.067734 
-0.127097 -0.952158 -0.214675 
-0.203579 -0.701629 -0.214675 
0.089249 -1.00646 0.094798 
0.087758 -0.701629 0.203056 
0.017862 -1.09924 -0.214675 
-0.117713 -0.407456 0.067734 
-0.105881 -0.113282 0.067734 
-0.200166 -0.407456 -0.214675 
-0.17592 -0.113282 -0.214675 
0.087758 -0.407456 0.203056 
0.087758 -0.113282 0.203056 
-0.208077 -0.955945 -0.53222 
-0.289594 -0.701629 -0.481589 
-0.206415 -1.04587 -0.803022 
-0.003804 -1.11679 -0.508848 
-0.041509 -1.1368 -0.803022 
-0.288868 -0.407456 -0.480125 
-0.291174 -0.091686 -0.531049 
-0.352351 0.020769 -0.65778 
-0.363125 -1.14463 -2.10967 
-0.081132 -1.14745 -1.15228 
-0.08124 -1.14757 -1.39137 
0.059021 -1.16242 -1.07141 
0.087758 -1.16809 -1.39137 
-0.105553 -1.15046 -1.68554 
-0.20953 -1.15382 -1.99885 
0.087758 -1.16644 -1.68554 
0.101038 -1.15757 -1.9879 
-0.44408 -0.946075 -1.0972 
-0.54775 -0.701629 -1.0972 
-0.435658 -0.945185 -1.39137 
-0.528968 -0.701629 -1.39137 
-0.549343 -0.407456 -1.0972 
-0.52657 -0.113282 -1.0972 
-0.529844 -0.407456 -1.39137 
-0.509216 -0.113282 -1.39137 
-0.651561 -0.859664 -1.82753 
-0.659312 -0.701629 -1.81731 
-0.692096 -0.907782 -1.97972 
-0.74601 -0.701629 -1.97972 
-0.492868 -0.94083 -1.7119 
-0.559751 -0.701629 -1.67022 
-0.476945 -1.0654 -1.99885 
-0.658632 -0.407456 -1.81808 
-0.650653 -0.226278 -1.82856 
-0.743009 -0.407456 -1.97972 
-0.707249 -0.122245 -1.95474 
-0.560154 -0.407456 -1.671 
-0.566856 -0.122245 -1.71252 
-0.642112 -0.030162 -1.84003 
-0.190081 -1.10296 -1.07141 
-0.228327 -1.09227 -1.39137 
-0.058196 -1.14264 -0.956165 
-0.25264 -1.10273 -1.68554 
-0.309665 -1.13111 -1.91356 
0.207948 -1.13649 -2.0914 
-0.362862 0.250781 -0.640754 
-0.375205 0.475065 -0.620574 
-0.414148 0.163991 -0.774711 
-0.457679 0.475065 -0.803022 
-0.372883 0.769239 -0.624113 
-0.359766 0.933886 -0.645472 
-0.453189 0.769239 -0.803022 
-0.393891 0.972718 -0.803022 
-0.107058 0.180892 0.067734 
-0.121723 0.475065 0.067734 
-0.178335 0.180892 -0.214675 
-0.208084 0.475065 -0.214675 
0.087758 0.180892 0.203056 
0.087758 0.475065 0.203056 
-0.123475 0.769239 0.067734 
-0.098209 0.983208 0.022627 
-0.20953 0.769239 -0.214675 
-0.127545 1.01977 -0.214675 
0.087758 0.769239 0.203056 
0.089204 1.07413 0.094798 
0.017829 1.16685 -0.214675 
-0.292164 0.163991 -0.529157 
-0.292777 0.475065 -0.473487 
-0.352351 0.054666 -0.65778 
-0.29247 0.769239 -0.477026 
-0.208242 1.02368 -0.531988 
-0.206415 1.1139 -0.803022 
-0.003902 1.18444 -0.508848 
-0.041984 1.20459 -0.803022 
0.188225 1.22806 0.022627 
0.164916 1.23424 -0.214675 
0.143185 1.23215 -0.508848 
0.105103 1.23211 -0.803022 
-0.529042 0.180892 -1.0972 
-0.556268 0.475065 -1.0972 
-0.510864 0.180892 -1.39137 
-0.534603 0.475065 -1.39137 
-0.552515 0.769239 -1.0972 
-0.444392 1.01388 -1.0972 
-0.532381 0.769239 -1.39137 
-0.435961 1.01292 -1.39137 
-0.652489 0.287982 -1.8263 
-0.662845 0.475065 -1.8128 
-0.709204 0.186311 -1.95474 
-0.751195 0.475065 -1.97972 
-0.567155 0.186311 -1.71116 
-0.561397 0.475065 -1.66572 
-0.642112 0.091866 -1.84003 
-0.662375 0.769239 -1.81343 
-0.651861 0.92779 -1.82714 
-0.752245 0.769239 -1.97972 
-0.692588 0.975879 -1.97972 
-0.560761 0.769239 -1.66635 
-0.49298 1.00885 -1.71166 
-0.477421 1.13347 -1.99803 
-0.190356 1.17078 -1.06988 
-0.228952 1.16001 -1.39137 
-0.058666 1.21035 -0.953613 
-0.253331 1.17047 -1.68554 
-0.310212 1.19884 -1.91219 
0.209324 1.2044 -2.09247 
-0.363917 1.21239 -2.1083 
-0.081592 1.21516 -1.14973 
-0.081865 1.21532 -1.39137 
0.058739 1.2302 -1.06988 
0.087758 1.23598 -1.39137 
-0.106244 1.21819 -1.68554 
-0.209859 1.22169 -1.99803 
0.087758 1.23431 -1.68554 
0.101863 1.2254 -1.98853 
-0.977155 -0.908493 -2.63293 
-0.98277 -0.721488 -2.55684 
-0.983674 -0.407456 -2.6074 
-0.968646 -0.113282 -2.64442 
-1.00231 -0.932272 -2.86224 
-1.06579 -0.701629 -2.86224 
-1.00249 -0.907453 -3.15641 
-1.08103 -0.701629 -3.15641 
-1.05385 -0.407456 -2.86224 
-1.02372 -0.113282 -2.86224 
-1.08356 -0.407456 -3.15641 
-1.05262 -0.113282 -3.15641 
-0.977399 -0.875402 -3.38529 
-1.01504 -0.723689 -3.47024 
-0.975324 -0.640338 -3.68917 
-1.0555 -0.407456 -3.45059 
-1.02346 -0.113282 -3.45059 
-0.975546 -0.433216 -3.76625 
-0.967754 -0.113282 -3.6994 
-0.408011 -1.15004 -2.27389 
-0.411691 -1.14874 -2.56032 
-0.177813 -1.15345 -2.30245 
-0.256803 -1.15068 -2.5087 
0.011833 -1.15096 -2.22343 
-0.757778 -0.965797 -2.27389 
-0.886012 -0.721488 -2.30331 
-0.820221 -0.995322 -2.54815 
-0.934323 -0.721488 -2.43917 
-0.555098 -1.11288 -2.27389 
-0.490353 -1.13604 -2.61193 
-0.863145 -0.407456 -2.27389 
-0.836785 -0.113282 -2.27389 
-0.925854 -0.407456 -2.46031 
-0.911638 -0.113282 -2.49733 
-0.794763 -1.05916 -2.86224 
-0.794763 -0.995289 -3.15641 
-0.479889 -1.10196 -2.83282 
-0.500589 -0.995945 -3.15641 
-0.060687 -1.14267 -2.41955 
-0.177813 -1.11846 -2.59128 
0.101038 -1.1101 -2.30245 
0.0854 -0.973264 -2.56078 
0.164866 -0.701629 -2.63296 
0.162589 -0.407456 -2.62941 
0.128971 -0.113282 -2.59778 
-0.191725 -0.977445 -2.86962 
-0.080904 -0.701629 -2.97546 
-0.279299 -0.908109 -3.15641 
-0.165025 -0.701629 -3.15641 
-0.01423 -0.908431 -2.77649 
0.017779 -0.701629 -2.82837 
-0.075962 -0.407456 -2.97681 
-0.110656 -0.113282 -2.92184 
-0.144108 -0.407456 -3.15641 
-0.21075 -0.113282 -3.15641 
0.015502 -0.407456 -2.82972 
-0.018116 -0.113282 -2.77476 
-0.809414 -0.897925 -3.47024 
-0.917239 -0.836453 -3.58141 
-0.721123 -0.859851 -3.61565 
-0.829945 -0.719025 -3.75047 
-0.488155 -0.894071 -3.46258 
-0.381808 -0.835399 -3.56863 
-0.577924 -0.859851 -3.61565 
-0.488155 -0.771093 -3.72613 
-0.939185 -0.433216 -3.88392 
-0.931817 -0.113282 -3.84648 
-0.742652 -0.601597 -3.98409 
-0.500589 -0.614589 -4.01312 
-0.838164 -0.450325 -4.03603 
-0.914125 -0.113282 -4.03893 
-0.73892 -0.352203 -4.26331 
-0.777072 -0.113282 -4.31164 
-0.500589 -0.528577 -4.16021 
-0.500589 -0.38149 -4.27047 
-0.500589 -0.113282 -4.35758 
-0.328078 -0.868979 -3.37251 
-0.275905 -0.723056 -3.46258 
-0.29446 -0.642853 -3.74476 
-0.214712 -0.407456 -3.45059 
-0.273096 -0.113282 -3.45059 
-0.244977 -0.407456 -3.74476 
-0.285188 -0.113282 -3.74476 
-0.320154 -0.58755 -3.9613 
-0.304111 -0.419835 -4.05119 
-0.299303 -0.113282 -4.03893 
-0.336085 -0.330029 -4.22133 
-0.334203 -0.113282 -4.23196 
-0.969945 0.180892 -2.64248 
-0.988902 0.475065 -2.59641 
-0.986347 0.755458 -2.54873 
-0.97788 0.976173 -2.6315 
-1.02611 0.180892 -2.86224 
-1.06383 0.475065 -2.86224 
-1.0551 0.180892 -3.15641 
-1.09248 0.475065 -3.15641 
-1.07428 0.769239 -2.86224 
-1.0032 0.99996 -2.86224 
-1.08795 0.769239 -3.15641 
-1.00296 0.975162 -3.15641 
-1.02637 0.180892 -3.45059 
-1.06223 0.475065 -3.45059 
-0.963958 0.209108 -3.74187 
-0.977753 0.500333 -3.76994 
-1.01819 0.791363 -3.47035 
-0.977561 0.943109 -3.38546 
-0.976692 0.708054 -3.68867 
-0.942117 0.325976 -3.8931 
-0.942117 0.419121 -3.8931 
-0.839045 0.180892 -2.27389 
-0.872034 0.475065 -2.27389 
-0.912831 0.180892 -2.4954 
-0.930771 0.475065 -2.44932 
-0.891879 0.755458 -2.30331 
-0.758482 1.0336 -2.27389 
-0.937652 0.755458 -2.43107 
-0.820572 1.06311 -2.54729 
-0.556079 1.18069 -2.27389 
-0.524969 1.20383 -2.61238 
-0.794763 1.12694 -2.86224 
-0.794763 1.06309 -3.15641 
-0.52112 1.16977 -2.83282 
-0.500589 1.06376 -3.15641 
0.128981 0.180892 -2.59783 
0.162598 0.475065 -2.62951 
-0.060026 1.21038 -2.42022 
-0.177416 1.18632 -2.59183 
0.101863 1.17819 -2.30286 
0.165009 0.769239 -2.63314 
0.085516 1.04128 -2.56088 
-0.110686 0.180892 -2.9218 
-0.076004 0.475065 -2.97675 
-0.210805 0.180892 -3.15641 
-0.144144 0.475065 -3.15641 
-0.018106 0.180892 -2.77471 
0.015512 0.475065 -2.82966 
-0.080842 0.769239 -2.97546 
-0.191665 1.04529 -2.86964 
-0.164851 0.769239 -3.15641 
-0.279143 0.975838 -3.15641 
0.017922 0.769239 -2.82838 
-0.014037 0.976219 -2.77652 
-0.408992 1.21785 -2.27389 
-0.463616 1.21644 -2.561 
-0.177416 1.22135 -2.30286 
-0.256142 1.21842 -2.50962 
0.013209 1.21878 -2.22411 
-0.929832 0.12986 -3.83801 
-0.938554 0.615237 -3.88478 
-0.917778 0.90417 -3.58158 
-0.809737 0.965763 -3.47035 
-0.830108 0.786926 -3.75036 
-0.721662 0.927649 -3.61594 
-0.381577 0.903012 -3.56876 
-0.488017 0.961906 -3.46266 
-0.488017 0.838943 -3.7263 
-0.577693 0.927649 -3.61594 
-0.921187 0.209108 -4.01026 
-0.839321 0.517722 -4.03684 
-0.777948 0.180892 -4.31171 
-0.740088 0.420206 -4.2634 
-0.500589 0.596556 -4.16049 
-0.500589 0.180892 -4.35776 
-0.500589 0.44947 -4.27065 
-0.742439 0.669682 -3.98447 
-0.500589 0.682496 -4.0134 
-0.273086 0.180892 -3.45059 
-0.214597 0.475065 -3.45059 
-0.285044 0.180892 -3.74476 
-0.244719 0.475065 -3.74476 
-0.275756 0.790668 -3.46266 
-0.327971 0.93668 -3.37264 
-0.294346 0.710407 -3.74476 
-0.299046 0.180892 -4.03893 
-0.303874 0.487504 -4.05118 
-0.334056 0.180892 -4.23207 
-0.335889 0.397739 -4.22148 
-0.320101 0.655082 -3.96129 
0.381932 -1.18219 0.067734 
0.381932 -1.21272 -0.214675 
0.676106 -1.19543 0.067734 
0.676106 -1.23106 -0.214675 
0.381932 -1.197 -0.508848 
0.381932 -1.18564 -0.803022 
0.676106 -1.19131 -0.508848 
0.687859 -1.16009 -0.774641 
0.970279 -1.18243 0.067734 
0.989991 -1.18706 -0.232479 
1.16646 -1.16043 0.022627 
1.16646 -1.16043 -0.146291 
0.88545 -1.1588 -0.508848 
0.82432 -1.14321 -0.657663 
0.381932 -0.995803 0.203056 
0.381932 -0.701629 0.203056 
0.676106 -0.995803 0.203056 
0.676106 -0.701629 0.203056 
0.381932 -0.407456 0.203056 
0.381932 -0.113282 0.203056 
0.676106 -0.407456 0.203056 
0.676106 -0.113282 0.203056 
0.793752 -1.13485 -0.853779 
0.970279 -0.995803 0.203056 
0.970279 -0.701629 0.203056 
1.10119 -1.13622 -0.342407 
1.26449 -1.00732 0.094798 
1.26445 -0.701629 0.203056 
1.28775 -1.02658 -0.252231 
1.40905 -0.839692 -0.35817 
0.970279 -0.407456 0.203056 
0.970279 -0.113282 0.203056 
1.26445 -0.407456 0.203056 
1.26445 -0.113282 0.203056 
1.40204 -0.324197 -0.347694 
1.39065 -0.113282 -0.330069 
1.03254 -1.10168 -0.508848 
0.941538 -1.0699 -0.774641 
1.21715 -0.954593 -0.508848 
1.34298 -0.725632 -0.483222 
1.16093 -0.910599 -0.803022 
1.21994 -0.701629 -0.803022 
1.33671 -0.416335 -0.483222 
1.28812 -0.113282 -0.508848 
1.21732 -0.407456 -0.803022 
1.18716 -0.113282 -0.803022 
0.381932 -1.1788 -1.0972 
0.381932 -1.17372 -1.39137 
0.614028 -1.15781 -1.0972 
0.581831 -1.1532 -1.39137 
0.383795 -1.15895 -1.68157 
0.286979 -1.15087 -1.89529 
0.554707 -1.14834 -1.58086 
0.761115 -1.12444 -1.0972 
0.728918 -1.11039 -1.39137 
0.483095 -1.13005 -1.77698 
0.383795 -1.09505 -1.9879 
0.662101 -1.06697 -1.68157 
0.662081 -0.929066 -1.954 
0.723081 -0.701629 -1.99902 
0.814938 -0.0615 -1.82089 
0.721097 -0.407456 -1.9948 
0.719776 -0.141047 -1.95062 
0.999135 -0.971267 -1.12475 
1.11643 -0.84591 -1.24118 
0.944968 -0.963305 -1.39137 
1.08112 -0.729363 -1.37979 
1.13798 -0.881448 -1.04506 
1.1547 -0.729363 -1.12475 
1.12715 -0.649794 -1.27401 
1.11644 -0.268369 -1.24127 
1.11131 -0.113282 -1.22278 
1.0768 -0.382838 -1.37979 
1.04616 -0.113282 -1.39137 
1.15466 -0.382838 -1.12481 
1.1426 -0.113282 -1.07569 
1.12715 -0.464485 -1.27401 
0.875558 -0.910528 -1.68554 
0.939322 -0.701629 -1.68554 
0.827769 -0.859847 -1.83879 
0.836838 -0.701629 -1.85193 
0.930755 -0.407456 -1.68554 
0.888971 -0.141047 -1.70792 
0.833686 -0.407456 -1.84771 
0.823566 -0.257616 -1.83317 
1.45838 -0.916942 0.022627 
1.48613 -0.701629 0.067734 
1.45838 -0.916942 -0.162054 
1.47378 -0.725632 -0.241937 
1.48052 -0.407456 0.067734 
1.46439 -0.113282 0.067734 
1.46928 -0.416335 -0.235652 
1.46439 -0.113282 -0.182982 
1.41581 -0.643577 -0.368081 
1.41581 -0.520313 -0.368081 
0.381932 0.180892 0.203056 
0.381932 0.475065 0.203056 
0.676106 0.180892 0.203056 
0.676106 0.475065 0.203056 
0.381932 0.769239 0.203056 
0.381932 1.06341 0.203056 
0.676106 0.769239 0.203056 
0.676106 1.06341 0.203056 
0.794013 1.20254 -0.854239 
0.970279 0.180892 0.203056 
0.970279 0.475065 0.203056 
1.26445 0.180892 0.203056 
1.26445 0.475065 0.203056 
1.39098 0.180892 -0.330631 
1.40248 0.386489 -0.348443 
0.970279 0.769239 0.203056 
0.970279 1.06341 0.203056 
1.10264 1.20445 -0.344399 
1.26445 0.769239 0.203056 
1.2653 1.07559 0.094798 
1.41029 0.911769 -0.35999 
1.28905 1.09505 -0.254137 
1.28846 0.180892 -0.508848 
1.33703 0.480754 -0.483939 
1.18714 0.180892 -0.803022 
1.21732 0.475065 -0.803022 
1.03383 1.1699 -0.508848 
0.941703 1.13769 -0.774917 
1.34386 0.795922 -0.483939 
1.2182 1.02281 -0.508848 
1.22007 0.769239 -0.803022 
1.16104 0.97838 -0.803022 
0.381932 1.2499 0.067734 
0.381932 1.2805 -0.214675 
0.676106 1.26324 0.067734 
0.676106 1.29912 -0.214675 
0.381932 1.26479 -0.508848 
0.381932 1.25349 -0.803022 
0.676106 1.25929 -0.508848 
0.688015 1.22784 -0.774917 
0.970279 1.25046 0.067734 
0.990858 1.25514 -0.233674 
1.16781 1.22843 0.022627 
1.16781 1.22843 -0.148283 
0.886739 1.22665 -0.508848 
0.824594 1.2109 -0.658123 
0.761513 1.19214 -1.0972 
0.729388 1.17807 -1.39137 
0.814938 0.129006 -1.82089 
0.719803 0.208595 -1.95064 
0.721197 0.475065 -1.99484 
0.483595 1.1978 -1.77747 
0.384095 1.16332 -1.98853 
0.662316 1.13487 -1.68186 
0.723311 0.769239 -1.99928 
0.662212 0.997332 -1.95419 
1.11126 0.180892 -1.22258 
1.11637 0.336649 -1.24101 
1.04607 0.180892 -1.39137 
1.07667 0.45085 -1.37966 
1.14257 0.180892 -1.07549 
1.15454 0.45085 -1.12465 
1.12703 0.532764 -1.27379 
1.11634 0.9131 -1.24087 
0.999081 1.03897 -1.12456 
1.08099 0.796721 -1.37966 
0.944864 1.03098 -1.39137 
1.15459 0.796721 -1.12456 
1.13796 0.949095 -1.04475 
1.12703 0.716984 -1.27379 
0.888944 0.208595 -1.70792 
0.930655 0.475065 -1.68554 
0.82358 0.325122 -1.83319 
0.833693 0.475065 -1.84775 
0.939309 0.769239 -1.68554 
0.875612 0.978405 -1.68554 
0.836924 0.769239 -1.8522 
0.827888 0.927765 -1.83912 
0.381932 1.24668 -1.0972 
0.381932 1.24159 -1.39137 
0.614426 1.22555 -1.0972 
0.582301 1.22094 -1.39137 
0.384095 1.22672 -1.68186 
0.28748 1.21858 -1.89635 
0.555064 1.21603 -1.58135 
1.46472 0.180892 0.067734 
1.48147 0.475065 0.067734 
1.46472 0.180892 -0.183544 
1.47057 0.480754 -0.236101 
1.48762 0.769239 0.067734 
1.45952 0.985653 0.022627 
1.47549 0.795922 -0.243029 
1.45952 0.985653 -0.163875 
1.41668 0.582605 -0.369275 
1.41668 0.715653 -0.369275 
0.372867 -0.956269 -2.26216 
0.441583 -0.701629 -2.32743 
0.268766 -0.898743 -2.45786 
0.294496 -0.701629 -2.48587 
0.554673 -0.886282 -2.15629 
0.575994 -0.701629 -2.18034 
0.438689 -0.407456 -2.32473 
0.410246 -0.113282 -2.30039 
0.291602 -0.407456 -2.48232 
0.263159 -0.113282 -2.45069 
0.57401 -0.407456 -2.17764 
0.553026 -0.113282 -2.15331 
0.410292 0.180892 -2.30043 
0.438805 0.475065 -2.32485 
0.263206 0.180892 -2.45074 
0.291718 0.475065 -2.48243 
0.553061 0.180892 -2.15334 
0.57411 0.475065 -2.17777 
0.441884 0.769239 -2.32769 
0.373052 1.02469 -2.2623 
0.294797 0.769239 -2.48605 
0.269074 0.966758 -2.45803 
0.576224 0.769239 -2.1806 
0.554892 0.954538 -2.15651 
3 4 5 7 
3 4 7 6 
3 8 9 11 
3 8 11 10 
3 12 13 15 
3 12 15 14 
3 12 16 17 
3 12 17 13 
3 12 14 18 
3 12 18 16 
3 19 20 22 
3 19 22 21 
3 19 23 24 
3 19 24 20 
3 25 27 29 
3 25 29 28 
3 4 25 26 
3 4 26 5 
3 4 6 27 
3 4 27 25 
3 8 30 31 
3 8 31 9 
3 31 32 11 
3 31 11 9 
3 14 15 26 
3 14 26 25 
3 14 25 28 
3 14 28 18 
3 21 22 31 
3 21 31 30 
3 5 8 10 
3 5 10 7 
3 13 19 21 
3 13 21 15 
3 13 17 23 
3 13 23 19 
3 15 21 30 
3 15 30 26 
3 5 26 30 
3 5 30 8 
3 34 35 37 
3 34 37 36 
3 38 39 41 
3 38 41 40 
3 35 38 40 
3 35 40 37 
3 42 43 45 
3 42 45 44 
3 46 47 49 
3 46 49 48 
3 50 51 53 
3 50 53 52 
3 50 54 55 
3 50 55 51 
3 50 52 56 
3 50 56 54 
3 57 58 60 
3 57 60 59 
3 57 61 62 
3 57 62 58 
3 62 63 60 
3 62 60 58 
3 42 44 65 
3 42 65 64 
3 54 56 68 
3 54 68 67 
3 44 45 55 
3 44 55 54 
3 48 49 62 
3 48 62 61 
3 43 46 48 
3 43 48 45 
3 51 57 59 
3 51 59 53 
3 51 55 61 
3 51 61 57 
3 45 48 61 
3 45 61 55 
3 44 54 67 
3 44 67 65 
3 6 7 43 
3 6 43 42 
3 27 64 66 
3 27 66 29 
3 10 11 47 
3 10 47 46 
3 7 10 46 
3 7 46 43 
3 6 42 64 
3 6 64 27 
3 0 16 18 
3 0 18 1 
3 2 28 29 
3 2 29 3 
3 1 18 28 
3 1 28 2 
3 34 64 65 
3 34 65 35 
3 34 36 66 
3 34 66 64 
3 38 67 68 
3 38 68 39 
3 35 65 67 
3 35 67 38 
3 33 39 68 
3 33 68 56 
3 3 29 66 
3 3 66 36 
3 70 71 73 
3 70 73 72 
3 74 75 77 
3 74 77 76 
3 78 79 81 
3 78 81 80 
3 78 82 83 
3 78 83 79 
3 84 85 87 
3 84 87 86 
3 84 88 89 
3 84 89 85 
3 89 90 87 
3 89 87 85 
3 97 98 96 
3 97 96 95 
3 70 91 92 
3 70 92 71 
3 70 72 93 
3 70 93 91 
3 74 94 95 
3 74 95 75 
3 95 96 77 
3 95 77 75 
3 80 81 92 
3 80 92 91 
3 86 87 95 
3 86 95 94 
3 90 97 95 
3 90 95 87 
3 71 74 76 
3 71 76 73 
3 79 84 86 
3 79 86 81 
3 79 83 88 
3 79 88 84 
3 81 86 94 
3 81 94 92 
3 71 92 94 
3 71 94 74 
3 103 104 106 
3 103 106 105 
3 107 108 110 
3 107 110 109 
3 111 112 114 
3 111 114 113 
3 111 115 116 
3 111 116 112 
3 111 113 117 
3 111 117 115 
3 118 119 121 
3 118 121 120 
3 118 122 123 
3 118 123 119 
3 123 124 121 
3 123 121 119 
3 125 126 110 
3 125 110 108 
3 128 129 124 
3 128 124 123 
3 105 106 116 
3 105 116 115 
3 109 110 123 
3 109 123 122 
3 104 107 109 
3 104 109 106 
3 112 118 120 
3 112 120 114 
3 112 116 122 
3 112 122 118 
3 106 109 122 
3 106 122 116 
3 126 128 123 
3 126 123 110 
3 134 135 133 
3 134 133 132 
3 138 139 137 
3 138 137 136 
3 135 138 136 
3 135 136 133 
3 72 73 104 
3 72 104 103 
3 76 77 108 
3 76 108 107 
3 98 127 125 
3 98 125 96 
3 73 76 107 
3 73 107 104 
3 96 125 108 
3 96 108 77 
3 89 99 100 
3 89 100 90 
3 97 101 102 
3 97 102 98 
3 90 100 101 
3 90 101 97 
3 125 132 133 
3 125 133 126 
3 125 127 134 
3 125 134 132 
3 128 136 137 
3 128 137 129 
3 126 133 136 
3 126 136 128 
3 124 129 137 
3 124 137 131 
3 98 102 134 
3 98 134 127 
3 144 145 147 
3 144 147 146 
3 148 149 151 
3 148 151 150 
3 140 141 145 
3 140 145 144 
3 142 143 149 
3 142 149 148 
3 145 148 150 
3 145 150 147 
3 141 142 148 
3 141 148 145 
3 155 156 158 
3 155 158 157 
3 153 155 157 
3 153 157 154 
3 159 160 162 
3 159 162 161 
3 164 165 167 
3 164 167 166 
3 164 166 169 
3 164 169 168 
3 170 171 173 
3 170 173 172 
3 174 175 177 
3 174 177 176 
3 178 179 181 
3 178 181 180 
3 187 188 186 
3 187 186 185 
3 186 190 189 
3 186 189 185 
3 193 194 192 
3 193 192 191 
3 192 196 195 
3 192 195 191 
3 176 177 187 
3 176 187 185 
3 166 174 176 
3 166 176 169 
3 189 190 182 
3 189 182 181 
3 179 185 189 
3 179 189 181 
3 195 196 184 
3 195 184 183 
3 165 170 172 
3 165 172 167 
3 188 193 191 
3 188 191 186 
3 191 195 190 
3 191 190 186 
3 190 195 183 
3 190 183 182 
3 169 176 185 
3 169 185 179 
3 197 198 200 
3 197 200 199 
3 203 204 202 
3 203 202 201 
3 200 204 203 
3 200 203 199 
3 197 199 203 
3 197 203 201 
3 209 210 212 
3 209 212 211 
3 212 215 214 
3 212 214 211 
3 209 211 214 
3 209 214 213 
3 221 222 220 
3 221 220 219 
3 226 227 225 
3 226 225 224 
3 202 217 216 
3 202 216 201 
3 202 204 218 
3 202 218 217 
3 215 227 226 
3 215 226 214 
3 213 214 226 
3 213 226 224 
3 200 207 208 
3 200 208 204 
3 205 206 210 
3 205 210 209 
3 224 225 222 
3 224 222 221 
3 209 213 208 
3 209 208 207 
3 218 221 219 
3 218 219 217 
3 200 205 209 
3 200 209 207 
3 223 224 221 
3 223 221 218 
3 213 224 223 
3 213 223 208 
3 204 208 223 
3 204 223 218 
3 140 166 167 
3 140 167 141 
3 142 172 173 
3 142 173 143 
3 144 146 175 
3 144 175 174 
3 141 167 172 
3 141 172 142 
3 140 144 174 
3 140 174 166 
3 153 198 197 
3 153 197 152 
3 153 154 200 
3 153 200 198 
3 158 206 205 
3 158 205 157 
3 157 205 200 
3 157 200 154 
3 146 147 153 
3 146 153 152 
3 150 151 156 
3 150 156 155 
3 147 150 155 
3 147 155 153 
3 175 197 201 
3 175 201 177 
3 216 217 188 
3 216 188 187 
3 219 220 194 
3 219 194 193 
3 217 219 193 
3 217 193 188 
3 177 201 216 
3 177 216 187 
3 159 168 169 
3 159 169 160 
3 162 179 178 
3 162 178 161 
3 178 180 163 
3 178 163 161 
3 169 179 162 
3 169 162 160 
3 146 152 197 
3 146 197 175 
3 232 233 235 
3 232 235 234 
3 236 237 239 
3 236 239 238 
3 228 229 233 
3 228 233 232 
3 230 231 237 
3 230 237 236 
3 233 236 238 
3 233 238 235 
3 229 230 236 
3 229 236 233 
3 240 241 243 
3 240 243 242 
3 242 243 248 
3 242 248 247 
3 241 244 246 
3 241 246 243 
3 249 250 252 
3 249 252 251 
3 253 254 256 
3 253 256 255 
3 257 258 256 
3 257 256 254 
3 261 262 260 
3 261 260 259 
3 267 269 266 
3 267 266 265 
3 272 273 271 
3 272 271 270 
3 271 275 274 
3 271 274 270 
3 278 279 277 
3 278 277 276 
3 277 281 280 
3 277 280 276 
3 277 279 262 
3 277 262 261 
3 274 275 264 
3 274 264 263 
3 258 261 259 
3 258 259 256 
3 280 281 269 
3 280 269 268 
3 269 281 277 
3 269 277 266 
3 250 253 255 
3 250 255 252 
3 273 278 276 
3 273 276 271 
3 276 280 275 
3 276 275 271 
3 275 280 268 
3 275 268 264 
3 266 277 261 
3 266 261 258 
3 284 285 283 
3 284 283 282 
3 289 290 292 
3 289 292 291 
3 295 296 294 
3 295 294 293 
3 292 296 295 
3 292 295 291 
3 294 296 292 
3 294 292 290 
3 297 298 300 
3 297 300 299 
3 300 303 302 
3 300 302 299 
3 301 303 300 
3 301 300 298 
3 308 309 307 
3 308 307 306 
3 315 316 314 
3 315 314 313 
3 294 311 310 
3 294 310 293 
3 310 312 295 
3 310 295 293 
3 303 316 315 
3 303 315 302 
3 314 316 303 
3 314 303 301 
3 313 314 309 
3 313 309 308 
3 295 305 304 
3 295 304 291 
3 304 305 301 
3 304 301 298 
3 309 312 310 
3 309 310 307 
3 288 291 304 
3 288 304 298 
3 314 317 312 
3 314 312 309 
3 305 317 314 
3 305 314 301 
3 312 317 305 
3 312 305 295 
3 228 251 252 
3 228 252 229 
3 230 255 256 
3 230 256 231 
3 259 260 239 
3 259 239 237 
3 229 252 255 
3 229 255 230 
3 256 259 237 
3 256 237 231 
3 245 290 289 
3 245 289 244 
3 289 291 246 
3 289 246 244 
3 248 298 297 
3 248 297 247 
3 246 291 288 
3 246 288 243 
3 242 247 297 
3 242 297 287 
3 288 298 248 
3 288 248 243 
3 234 235 241 
3 234 241 240 
3 238 239 245 
3 238 245 244 
3 235 238 244 
3 235 244 241 
3 306 307 273 
3 306 273 272 
3 262 294 290 
3 262 290 260 
3 310 311 279 
3 310 279 278 
3 307 310 278 
3 307 278 273 
3 279 311 294 
3 279 294 262 
3 257 282 283 
3 257 283 258 
3 266 285 284 
3 266 284 265 
3 284 286 267 
3 284 267 265 
3 283 285 266 
3 283 266 258 
3 260 290 245 
3 260 245 239 
3 318 319 321 
3 318 321 320 
3 322 323 325 
3 322 325 324 
3 326 327 329 
3 326 329 328 
3 320 321 327 
3 320 327 326 
3 324 325 331 
3 324 331 330 
3 319 322 324 
3 319 324 321 
3 321 324 330 
3 321 330 327 
3 332 334 335 
3 332 335 333 
3 336 338 339 
3 336 339 337 
3 341 344 345 
3 341 345 342 
3 348 350 351 
3 348 351 349 
3 358 359 357 
3 358 357 356 
3 354 355 358 
3 354 358 356 
3 362 363 361 
3 362 361 360 
3 334 341 342 
3 334 342 335 
3 338 348 349 
3 338 349 339 
3 356 357 347 
3 356 347 346 
3 343 354 356 
3 343 356 346 
3 360 361 353 
3 360 353 352 
3 333 335 338 
3 333 338 336 
3 342 345 350 
3 342 350 348 
3 359 362 360 
3 359 360 357 
3 335 342 348 
3 335 348 338 
3 364 365 367 
3 364 367 366 
3 365 368 370 
3 365 370 367 
3 373 374 376 
3 373 376 375 
3 383 384 382 
3 383 382 381 
3 382 386 385 
3 382 385 381 
3 382 384 387 
3 382 387 386 
3 390 391 389 
3 390 389 388 
3 389 393 392 
3 389 392 388 
3 392 394 390 
3 392 390 388 
3 397 398 396 
3 397 396 395 
3 401 402 400 
3 401 400 399 
3 371 372 383 
3 371 383 381 
3 377 398 397 
3 377 397 376 
3 375 376 397 
3 375 397 395 
3 380 402 401 
3 380 401 379 
3 400 402 380 
3 400 380 378 
3 395 396 384 
3 395 384 383 
3 399 400 391 
3 399 391 390 
3 387 394 392 
3 387 392 386 
3 390 394 387 
3 390 387 384 
3 398 401 399 
3 398 399 396 
3 396 399 390 
3 396 390 384 
3 379 401 398 
3 379 398 377 
3 372 375 395 
3 372 395 383 
3 405 406 404 
3 405 404 403 
3 409 410 408 
3 409 408 407 
3 406 409 407 
3 406 407 404 
3 411 412 409 
3 411 409 406 
3 344 403 404 
3 344 404 345 
3 347 406 405 
3 347 405 346 
3 344 346 405 
3 344 405 403 
3 350 407 408 
3 350 408 351 
3 353 410 409 
3 353 409 352 
3 345 404 407 
3 345 407 350 
3 360 412 411 
3 360 411 357 
3 347 357 411 
3 347 411 406 
3 409 412 360 
3 409 360 352 
3 323 364 366 
3 323 366 325 
3 385 386 359 
3 385 359 358 
3 355 381 385 
3 355 385 358 
3 392 393 363 
3 392 363 362 
3 386 392 362 
3 386 362 359 
3 340 371 381 
3 340 381 355 
3 318 320 334 
3 318 334 332 
3 329 346 344 
3 329 344 328 
3 326 328 344 
3 326 344 341 
3 343 346 329 
3 343 329 327 
3 331 355 354 
3 331 354 330 
3 330 354 343 
3 330 343 327 
3 320 326 341 
3 320 341 334 
3 340 355 331 
3 340 331 325 
3 367 372 371 
3 367 371 366 
3 369 374 373 
3 369 373 368 
3 373 375 370 
3 373 370 368 
3 370 375 372 
3 370 372 367 
3 366 371 340 
3 366 340 325 
3 413 415 416 
3 413 416 414 
3 417 419 420 
3 417 420 418 
3 422 424 425 
3 422 425 423 
3 428 431 432 
3 428 432 429 
3 437 438 436 
3 437 436 435 
3 443 444 442 
3 443 442 441 
3 442 444 440 
3 442 440 439 
3 415 422 423 
3 415 423 416 
3 419 428 429 
3 419 429 420 
3 435 436 427 
3 435 427 426 
3 441 442 434 
3 441 434 433 
3 434 442 439 
3 434 439 430 
3 414 416 419 
3 414 419 417 
3 423 425 431 
3 423 431 428 
3 438 443 441 
3 438 441 436 
3 416 423 428 
3 416 428 419 
3 447 448 446 
3 447 446 445 
3 451 452 450 
3 451 450 449 
3 455 456 454 
3 455 454 453 
3 453 454 448 
3 453 448 447 
3 457 458 452 
3 457 452 451 
3 448 451 449 
3 448 449 446 
3 454 457 451 
3 454 451 448 
3 466 468 465 
3 466 465 464 
3 471 472 470 
3 471 470 469 
3 470 474 473 
3 470 473 469 
3 470 472 475 
3 470 475 474 
3 478 479 477 
3 478 477 476 
3 477 481 480 
3 477 480 476 
3 480 482 478 
3 480 478 476 
3 485 486 484 
3 485 484 483 
3 489 490 488 
3 489 488 487 
3 477 479 460 
3 477 460 459 
3 463 486 485 
3 463 485 462 
3 461 462 485 
3 461 485 483 
3 468 490 489 
3 468 489 467 
3 488 490 468 
3 488 468 466 
3 483 484 472 
3 483 472 471 
3 487 488 479 
3 487 479 478 
3 475 482 480 
3 475 480 474 
3 478 482 475 
3 478 475 472 
3 486 489 487 
3 486 487 484 
3 484 487 478 
3 484 478 472 
3 467 489 486 
3 467 486 463 
3 479 488 466 
3 479 466 460 
3 493 494 492 
3 493 492 491 
3 494 497 495 
3 494 495 492 
3 500 501 499 
3 500 499 498 
3 504 505 503 
3 504 503 502 
3 501 504 502 
3 501 502 499 
3 506 507 504 
3 506 504 501 
3 424 498 499 
3 424 499 425 
3 427 501 500 
3 427 500 426 
3 431 502 503 
3 431 503 432 
3 434 505 504 
3 434 504 433 
3 503 505 434 
3 503 434 432 
3 425 499 502 
3 425 502 431 
3 441 507 506 
3 441 506 436 
3 427 436 506 
3 427 506 501 
3 504 507 441 
3 504 441 433 
3 473 474 438 
3 473 438 437 
3 480 481 444 
3 480 444 443 
3 444 481 477 
3 444 477 440 
3 474 480 443 
3 474 443 438 
3 440 477 459 
3 440 459 421 
3 452 493 491 
3 452 491 450 
3 418 420 447 
3 418 447 445 
3 434 456 455 
3 434 455 432 
3 429 432 455 
3 429 455 453 
3 454 456 434 
3 454 434 430 
3 440 458 457 
3 440 457 439 
3 439 457 454 
3 439 454 430 
3 420 429 453 
3 420 453 447 
3 452 458 440 
3 452 440 421 
3 460 494 493 
3 460 493 459 
3 465 496 495 
3 465 495 464 
3 495 497 466 
3 495 466 464 
3 466 497 494 
3 466 494 460 
3 459 493 452 
3 459 452 421 
3 510 511 509 
3 510 509 508 
3 509 513 512 
3 509 512 508 
3 516 517 515 
3 516 515 514 
3 515 519 518 
3 515 518 514 
3 511 516 514 
3 511 514 509 
3 514 518 513 
3 514 513 509 
3 522 523 521 
3 522 521 520 
3 521 525 524 
3 521 524 520 
3 528 529 527 
3 528 527 526 
3 527 531 530 
3 527 530 526 
3 523 528 526 
3 523 526 521 
3 526 530 525 
3 526 525 521 
3 0 1 319 
3 0 319 318 
3 2 3 323 
3 2 323 322 
3 1 2 322 
3 1 322 319 
3 16 332 333 
3 16 333 17 
3 23 336 337 
3 23 337 24 
3 17 333 336 
3 17 336 23 
3 36 37 365 
3 36 365 364 
3 40 41 369 
3 40 369 368 
3 37 40 368 
3 37 368 365 
3 0 318 332 
3 0 332 16 
3 69 374 369 
3 69 369 41 
3 3 36 364 
3 3 364 323 
3 82 413 414 
3 82 414 83 
3 88 417 418 
3 88 418 89 
3 83 414 417 
3 83 417 88 
3 445 446 100 
3 445 100 99 
3 449 450 102 
3 449 102 101 
3 446 449 101 
3 446 101 100 
3 491 492 135 
3 491 135 134 
3 495 496 139 
3 495 139 138 
3 492 495 138 
3 492 138 135 
3 89 418 445 
3 89 445 99 
3 139 496 465 
3 139 465 130 
3 450 491 134 
3 450 134 102 
3 182 511 510 
3 182 510 181 
3 180 181 510 
3 180 510 508 
3 184 517 516 
3 184 516 183 
3 183 516 511 
3 183 511 182 
3 264 523 522 
3 264 522 263 
3 269 529 528 
3 269 528 268 
3 527 529 269 
3 527 269 267 
3 268 528 523 
3 268 523 264 
3 39 161 163 
3 39 163 41 
3 33 159 161 
3 33 161 39 
3 52 53 165 
3 52 165 164 
3 52 164 168 
3 52 168 56 
3 59 60 171 
3 59 171 170 
3 53 59 170 
3 53 170 165 
3 33 56 168 
3 33 168 159 
3 163 180 69 
3 163 69 41 
3 512 513 377 
3 512 377 376 
3 374 508 512 
3 374 512 376 
3 518 519 380 
3 518 380 379 
3 513 518 379 
3 513 379 377 
3 113 114 250 
3 113 250 249 
3 120 121 254 
3 120 254 253 
3 124 257 254 
3 124 254 121 
3 114 120 253 
3 114 253 250 
3 139 286 284 
3 139 284 137 
3 137 284 282 
3 137 282 131 
3 124 131 282 
3 124 282 257 
3 267 286 139 
3 267 139 130 
3 524 525 463 
3 524 463 462 
3 530 531 468 
3 530 468 467 
3 468 531 527 
3 468 527 465 
3 525 530 467 
3 525 467 463 
3 20 78 80 
3 20 80 22 
3 20 24 82 
3 20 82 78 
3 31 91 93 
3 31 93 32 
3 22 80 91 
3 22 91 31 
3 11 32 93 
3 11 93 72 
3 47 103 105 
3 47 105 49 
3 62 115 117 
3 62 117 63 
3 60 63 117 
3 60 117 113 
3 49 105 115 
3 49 115 62 
3 11 72 103 
3 11 103 47 
3 149 232 234 
3 149 234 151 
3 143 228 232 
3 143 232 149 
3 156 240 242 
3 156 242 158 
3 171 249 251 
3 171 251 173 
3 194 272 270 
3 194 270 192 
3 270 274 196 
3 270 196 192 
3 196 274 263 
3 196 263 184 
3 210 297 299 
3 210 299 212 
3 299 302 215 
3 299 215 212 
3 222 308 306 
3 222 306 220 
3 227 315 313 
3 227 313 225 
3 206 287 297 
3 206 297 210 
3 225 313 308 
3 225 308 222 
3 302 315 227 
3 302 227 215 
3 151 234 240 
3 151 240 156 
3 220 306 272 
3 220 272 194 
3 143 173 251 
3 143 251 228 
3 242 287 206 
3 242 206 158 
3 337 339 415 
3 337 415 413 
3 349 351 424 
3 349 424 422 
3 363 437 435 
3 363 435 361 
3 361 435 426 
3 361 426 353 
3 339 349 422 
3 339 422 415 
3 380 462 461 
3 380 461 378 
3 391 471 469 
3 391 469 389 
3 469 473 393 
3 469 393 389 
3 400 483 471 
3 400 471 391 
3 461 483 400 
3 461 400 378 
3 410 500 498 
3 410 498 408 
3 393 473 437 
3 393 437 363 
3 351 408 498 
3 351 498 424 
3 426 500 410 
3 426 410 353 
3 517 522 520 
3 517 520 515 
3 520 524 519 
3 520 519 515 
3 60 113 249 
3 60 249 171 
3 519 524 462 
3 519 462 380 
3 24 337 413 
3 24 413 82 
3 263 522 517 
3 263 517 184 
3 69 180 508 
3 69 508 374 
3 465 527 267 
3 465 267 130 
