ply
format ascii 1.0
comment Author: CloudCompare (TELECOM PARISTECH/EDF R&D)
obj_info Generated by CloudCompare!
element vertex 308
property float x
property float y
property float z
property float nx
property float ny
property float nz
element face 612
property list uchar int vertex_indices
end_header
-2.78585 -0.637803 -3.73654 -0.405827 -0.720016 -0.562922 
-2.00077 -0.801841 -3.87849 -0.159213 -0.698087 -0.698087 
-2.8529 -0.674482 -3.04802 -0.405957 -0.910659 0.0768026 
-2.70326 -0.597044 -2.09666 -0.390818 -0.918951 0.0528133 
-2.00077 -1.03584 -3.04802 -0.281103 -0.959629 -0.00969322 
-2.00077 -0.879661 -2.09666 -0.278085 -0.957847 0.072096 
-0.954275 -1.01752 -3.83799 -0.105114 -0.642364 -0.759157 
-0.078463 -1.45294 -3.68034 -0.284951 -0.854854 -0.433621 
-0.243552 -1.10753 -3.88675 -0.245266 -0.36206 -0.899309 
-1.04941 -1.24822 -3.04802 -0.15685 -0.987234 -0.0276795 
-1.04941 -1.07295 -2.09666 -0.143575 -0.985883 0.0861451 
0.086626 -1.462 -3.37782 -0.171142 -0.976516 0.130873 
-0.177517 -1.34465 -3.05563 -0.181199 -0.98229 0.047684 
-0.098051 -1.15121 -2.09666 -0.122213 -0.987102 0.103411 
-2.70324 -0.597054 -1.1453 -0.405177 -0.908911 -0.0985566 
-2.85288 -0.674493 -0.193944 -0.458308 -0.883081 0.100604 
-2.00077 -0.879672 -1.1453 -0.277614 -0.956226 -0.092538 
-2.00077 -1.03585 -0.193944 -0.296925 -0.952207 0.0716715 
-2.78585 -0.637805 0.494568 -0.515169 -0.752939 0.409493 
-2.00077 -0.801843 0.636519 -0.241086 -0.723259 0.647127 
-1.04941 -1.07289 -1.1453 -0.143575 -0.985883 -0.0861451 
-1.04941 -1.24816 -0.193944 -0.174769 -0.984223 0.027595 
0.086617 -1.462 0.135844 -0.257924 -0.959477 -0.113487 
-0.098051 -1.15114 -1.1453 -0.12019 -0.989258 -0.0832086 
-0.177523 -1.3446 -0.186344 -0.143575 -0.985883 -0.0861451 
-0.954275 -1.01752 0.596017 -0.130629 -0.676895 0.724396 
-0.078471 -1.45294 0.438363 -0.336163 -0.859084 0.385965 
-0.243557 -1.10753 0.644771 -0.210229 -0.556489 0.803818 
-6.2993 1.37047 -2.6267 -0.75452 -0.436828 -0.489776 
-6.33768 1.28471 -2.09666 -0.882785 -0.468639 -0.0326957 
-5.37376 0.442016 -2.7408 -0.591952 -0.723496 -0.355171 
-5.40264 0.432684 -2.09666 -0.527065 -0.849757 -0.0107564 
-5.66926 0.989624 -2.97603 -0.564873 -0.180279 -0.805244 
-5.87831 0.809028 -2.09666 -0.688649 -0.712812 -0.132897 
-6.2993 1.54752 -2.6267 -0.618689 0.671343 -0.408071 
-6.33768 1.66414 -2.09666 -0.777176 0.609784 -0.155435 
-5.80621 1.7028 -2.81369 -0.326609 0.614025 -0.71854 
-5.80621 2.062 -2.09666 -0.281718 0.935304 -0.214106 
-4.62316 0.339018 -3.60073 -0.44181 -0.548916 -0.709574 
-4.8 0.730844 -3.58147 -0.271435 0.184576 -0.944593 
-3.90349 0.138598 -3.71259 -0.253713 -0.447018 -0.857791 
-3.90349 0.827156 -3.71259 -0.138431 0.287511 -0.947721 
-4.90611 0.260009 -3.05396 -0.489659 -0.847946 -0.203029 
-4.85485 0.181795 -2.09666 -0.358809 -0.932904 -0.0307551 
-4.97684 0.963334 -3.38302 -0.380805 0.307101 -0.872167 
-3.90349 -0.20234 -3.04802 -0.366689 -0.922279 -0.12223 
-3.90349 -0.141873 -2.09666 -0.328119 -0.944584 0.00994299 
-3.90349 1.30283 -3.37135 -0.0339792 0.781522 -0.622952 
-4.85485 1.72588 -2.9485 -0.0568659 0.739257 -0.671018 
-4.85485 2.07614 -2.09666 0.128349 0.977423 -0.16784 
-3.90349 1.57509 -2.89567 0.12764 0.870271 -0.475748 
-3.90349 1.75885 -2.09666 0.253432 0.963041 -0.0912355 
-3.04263 -0.091515 -3.86293 -0.293426 -0.141279 -0.945485 
-2.95213 0.828752 -3.78811 -0.0317163 0.391168 -0.919773 
-2.00077 0.001273 -4.15233 -0.140915 0.084549 -0.986405 
-2.00077 0.794645 -3.79754 -0.033059 0.562003 -0.826474 
-3.32857 -0.433044 -3.04802 -0.468724 -0.853319 -0.228353 
-3.17894 -0.366663 -2.09666 -0.372193 -0.925166 0.0744386 
-2.95213 1.30443 -3.21135 0.0559752 0.862018 -0.503777 
-2.00077 1.27032 -3.14624 -0.0107564 0.849757 -0.527065 
-2.95213 1.46539 -2.73567 0.113487 0.959477 -0.257924 
-2.95213 1.53457 -2.09666 0.136189 0.989642 -0.0453964 
-2.00077 1.4529 -2.67056 -0.00947495 0.97592 -0.217924 
-2.00077 1.52695 -2.09666 -0.0433571 0.997214 -0.0607 
-1.04941 0.001273 -4.16857 -0.0081231 0.0406155 -0.999142 
-1.04941 0.790116 -3.78517 -0.0109402 0.601713 -0.798637 
-0.098051 0.001273 -4.16752 -0.0255571 0.0766714 -0.996729 
-0.098051 0.80749 -3.77958 -0.011025 0.562276 -0.826876 
-1.04941 1.2658 -3.24271 -0.0571028 0.81086 -0.582448 
-0.098051 1.28317 -3.3148 -0.0339792 0.781522 -0.622952 
-1.04941 1.49672 -2.76702 -0.072096 0.957847 -0.278085 
-1.04941 1.63583 -2.09666 -0.101734 0.989596 -0.101734 
-0.098051 1.5447 -2.83912 -0.0515848 0.938843 -0.34046 
-0.098051 1.73978 -2.09666 -0.063639 0.99095 -0.118187 
-6.33785 1.28508 -1.1453 -0.82698 -0.547438 0.128124 
-6.29952 1.37097 -0.615275 -0.723496 -0.591952 0.355171 
-5.40262 0.432826 -1.1453 -0.555564 -0.827677 0.0793663 
-5.37374 0.442203 -0.501175 -0.68691 -0.68691 0.237296 
-5.8783 0.809401 -1.1453 -0.66718 -0.73741 0.105344 
-5.66926 0.989886 -0.265945 -0.662223 -0.473016 0.581134 
-6.33785 1.6642 -1.1453 -0.819294 0.572384 0.0336696 
-6.29952 1.54759 -0.615275 -0.663679 0.501145 0.555323 
-5.80621 2.062 -1.1453 -0.217584 0.963588 0.155417 
-5.80621 1.7028 -0.428281 -0.237296 0.68691 0.68691 
-4.85485 0.181935 -1.1453 -0.376631 -0.926308 0.0101792 
-4.9061 0.260122 -0.188011 -0.494543 -0.798878 0.342376 
-4.97684 0.963342 0.141046 -0.339443 0.269213 0.901279 
-3.90349 -0.141837 -1.1453 -0.31608 -0.948239 -0.0305884 
-3.90349 -0.202306 -0.193944 -0.378064 -0.905062 0.19476 
-3.90349 1.30283 0.129376 -0.0335851 0.660508 0.750068 
-4.62315 0.339019 0.358755 -0.494301 -0.601177 0.627896 
-4.8 0.730858 0.3395 -0.352205 0.170422 0.920276 
-3.90349 0.138598 0.470616 -0.294509 -0.550604 0.781089 
-3.90349 0.827147 0.470616 -0.0962746 0.353007 0.930654 
-4.85485 2.07613 -1.1453 0.153005 0.969035 0.193807 
-4.85485 1.72587 -0.293475 0.0336696 0.819294 0.572384 
-3.90349 1.75902 -1.1453 0.242725 0.960345 0.137192 
-3.90349 1.57525 -0.346304 0.162478 0.942373 0.292461 
-3.17892 -0.366627 -1.1453 -0.365796 -0.930167 -0.0313539 
-3.32856 -0.433009 -0.193944 -0.397988 -0.914296 0.0752949 
-2.95213 1.30443 -0.031292 0.0793663 0.827677 0.555564 
-2.00077 1.27032 -0.096398 0.0108779 0.859356 0.511262 
-3.04263 -0.091516 0.620905 -0.33207 -0.356668 0.873222 
-2.95213 0.828747 0.546073 -0.0782477 0.503021 0.860725 
-2.00077 0.001272 0.910278 -0.0968534 -0.0264146 0.994948 
-2.00077 0.794638 0.555496 -0.0109402 0.601713 0.798637 
-2.95213 1.53458 -1.1453 0.100203 0.992922 0.0637656 
-2.95213 1.4654 -0.506973 0.0690032 0.975902 0.20701 
-2.00077 1.52682 -1.1453 -0.059668 0.997308 0.04262 
-2.00077 1.45278 -0.572077 -0.0495974 0.96219 0.267826 
-1.04941 1.26579 0.00073 -0.0557244 0.835865 0.546099 
-0.098051 1.28316 0.072826 -0.0338406 0.800893 0.59785 
-1.04941 0.001272 0.926589 -0.0251799 0.0419665 0.998802 
-1.04941 0.79011 0.543198 -0.0108882 0.577076 0.816618 
-0.098051 0.001272 0.925535 -0.0832086 0.12019 0.989258 
-0.098051 0.807483 0.537608 -0.011025 0.562276 0.826876 
-1.04941 1.63565 -1.1453 -0.10007 0.991606 0.0818757 
-1.04941 1.49654 -0.474949 -0.074071 0.941759 0.328029 
-0.098051 1.73968 -1.1453 -0.0447805 0.994127 0.0985171 
-0.098051 1.5446 -0.402853 -0.0309773 0.939644 0.34075 
0.85331 -1.54428 -3.86285 -0.178331 -0.86788 -0.463662 
0.85331 -0.950088 -4.2697 -0.150581 -0.170658 -0.973756 
1.80467 -1.67714 -3.9375 -0.26544 -0.796321 -0.543521 
1.80467 -0.950088 -4.34636 -0.105366 -0.124523 -0.986606 
0.887977 -1.53837 -3.05563 -0.217584 -0.963588 0.155417 
1.22821 -1.45541 -2.4578 -0.281718 -0.935304 0.214106 
0.593967 -1.37487 -2.74358 -0.179086 -0.958639 0.221224 
0.887977 -1.31931 -2.12308 -0.187367 -0.976282 0.108476 
1.80467 -1.80392 -3.04802 -0.322027 -0.945305 0.0519398 
1.75465 -1.58369 -2.12308 -0.386628 -0.916861 0.0994187 
1.40418 -1.40142 -1.82356 -0.283177 -0.954411 0.0943923 
3.14798 -2.4586 -3.79233 -0.564873 -0.805244 -0.180279 
4.02865 -2.47914 -4.49685 -0.15343 -0.483896 -0.861571 
3.70987 -2.66024 -4.06542 -0.39013 -0.886659 -0.248264 
3.14798 -2.4586 -3.21095 -0.577076 -0.816618 0.0108882 
3.6129 -2.77205 -2.95551 -0.485615 -0.874106 -0.0107914 
3.74332 -2.80968 -2.09666 -0.552167 -0.833663 0.0108268 
3.01367 -1.69126 -4.55539 -0.298548 -0.16586 -0.939872 
2.7637 -1.98233 -4.12301 -0.51917 -0.678915 -0.51917 
3.0285 -0.950088 -4.54647 -0.16784 0.128349 -0.977423 
2.55282 -0.950088 -4.42291 -0.292461 -0.162478 -0.942373 
3.70987 -1.96561 -4.56353 0.00838856 -0.05872 -0.998239 
3.39441 -2.3255 -4.42657 -0.408071 -0.618689 -0.671343 
3.70739 -0.950088 -4.58638 0.0247647 0.0412744 -0.998841 
2.80093 -2.20744 -2.95551 -0.459979 -0.887866 -0.0106972 
2.75603 -2.0328 -2.09666 -0.431658 -0.89652 0.0996134 
3.23278 -2.37578 -2.57671 -0.564873 -0.805244 0.180279 
3.26764 -2.33331 -2.09666 -0.608152 -0.791745 0.0573728 
4.65875 -2.66991 -4.49167 0.0108779 -0.511262 -0.859356 
4.65875 -3.10246 -3.99938 -0.0974412 -0.920278 -0.378938 
5.13586 -2.66549 -4.47542 0.317015 -0.469182 -0.824239 
5.51583 -2.89619 -4.02641 0.408355 -0.645464 -0.645464 
4.65875 -3.24223 -3.04802 -0.23015 -0.970631 -0.0700455 
4.65875 -3.24223 -2.09666 -0.217924 -0.97592 0.00947495 
5.61011 -3.24223 -3.04802 0.197713 -0.967753 -0.156089 
5.61011 -3.24223 -2.09666 0.131584 -0.991266 0.00877227 
4.70525 -1.99095 -4.51554 0.05872 -0.00838856 -0.998239 
5.05337 -1.73349 -4.44784 0.379662 0.172573 -0.908887 
4.38259 -0.950088 -4.51498 0.138539 0.0646515 -0.988244 
4.85827 -0.950088 -4.34637 0.45953 0.310493 -0.832122 
5.13586 -2.36773 -4.47542 0.391168 -0.0317163 -0.919773 
5.51583 -1.99095 -4.26129 0.529361 0.078841 -0.844725 
5.64463 -0.955819 -3.86223 0.517579 0.315597 -0.795305 
5.98476 -0.64252 -3.40745 0.676998 0.464606 -0.570802 
6.28527 -2.66549 -3.72732 0.66811 -0.327505 -0.66811 
6.58602 -2.89619 -2.97253 0.618689 -0.671343 -0.408071 
6.69793 -2.95386 -1.96138 0.477336 -0.876966 0.0555042 
7.04383 -2.66549 -2.60507 0.820553 -0.416588 -0.391341 
7.04216 -2.80968 -2.13157 0.824027 -0.504255 0.258277 
6.29916 -1.90145 -3.75258 0.707062 -0.0112232 -0.707062 
6.17081 -1.27676 -3.62526 0.68224 0.321811 -0.656495 
6.77993 -1.97633 -2.97253 0.900785 0.198875 -0.386051 
6.86762 -1.97633 -2.02945 0.97557 0.217846 0.0284146 
6.3348 -0.955819 -3.07341 0.904257 0.364051 -0.223128 
6.47612 -0.950088 -2.09666 0.929355 0.365477 -0.052211 
7.04383 -2.34337 -2.60507 0.916029 0.147017 -0.373197 
7.04383 -2.34337 -2.30177 0.968172 0.176978 0.176978 
1.22821 -1.45542 -0.784178 -0.281718 -0.935304 -0.214106 
0.887977 -1.53837 -0.186344 -0.20701 -0.975902 -0.0690032 
0.887977 -1.31931 -1.1189 -0.181199 -0.98229 -0.047684 
0.593969 -1.37487 -0.498397 -0.158582 -0.962061 -0.222014 
1.75465 -1.58372 -1.1189 -0.393606 -0.910918 -0.123705 
1.80467 -1.80396 -0.193944 -0.334393 -0.942379 -0.0101331 
1.40418 -1.40142 -1.41842 -0.291594 -0.95522 -0.0502747 
0.85331 -1.54428 0.620875 -0.178331 -0.86788 0.463662 
0.85331 -0.950089 1.02772 -0.160165 -0.266941 0.95031 
1.80467 -1.67715 0.695524 -0.235106 -0.829058 0.507334 
1.80467 -0.950089 1.10438 -0.105096 -0.143313 0.984081 
3.14798 -2.4586 -0.031201 -0.577076 -0.816618 0.0108882 
3.74331 -2.80968 -1.1453 -0.511021 -0.858949 -0.0326183 
3.61288 -2.77205 -0.286569 -0.477336 -0.876966 0.0555042 
3.14798 -2.4586 0.550358 -0.564873 -0.805244 0.180279 
3.70989 -2.66022 0.823453 -0.411889 -0.83626 0.361963 
4.02867 -2.47912 1.25487 -0.346867 -0.552418 0.757969 
2.75603 -2.03286 -1.1453 -0.442243 -0.895272 -0.0539321 
2.80093 -2.20748 -0.286569 -0.442243 -0.895272 -0.0539321 
3.26763 -2.33333 -1.1453 -0.612056 -0.790109 -0.0333849 
3.23276 -2.37581 -0.665441 -0.585202 -0.800175 -0.131372 
2.76371 -1.98232 0.881044 -0.462978 -0.70108 0.542345 
3.01369 -1.69126 1.31342 -0.398459 -0.253565 0.881439 
2.55285 -0.950089 1.18094 -0.154043 0.0271841 0.98769 
3.02853 -0.950089 1.30449 -0.221945 -0.0289494 0.974629 
3.39443 -2.3255 1.1846 -0.346867 -0.552418 0.757969 
3.70989 -1.96561 1.32155 -0.0875356 -0.165345 0.982343 
3.70739 -0.950089 1.3444 0.0251799 0.0419665 0.998802 
4.65875 -3.24223 -1.1453 -0.23586 -0.971741 -0.00943438 
4.65875 -3.24223 -0.193944 -0.187367 -0.976282 0.108476 
5.61011 -3.24223 -1.1453 0.154094 -0.988015 0.00906435 
5.61011 -3.24223 -0.193944 0.176978 -0.968172 0.176978 
4.65875 -3.10245 0.757416 -0.19118 -0.93341 0.303639 
4.65875 -2.66989 1.24969 -0.100604 -0.458308 0.883081 
5.51582 -2.89619 0.784444 0.322025 -0.785741 0.528121 
5.13584 -2.6655 1.23344 0.314 -0.4396 0.84152 
5.98476 -0.642525 0.16548 0.674624 0.436522 0.595257 
5.05336 -1.73362 1.20587 0.307693 0.116711 0.9443 
4.70524 -1.99103 1.27357 0.13387 0.026774 0.990637 
4.85824 -0.950089 1.10541 0.424593 0.279019 0.861318 
4.38257 -0.950089 1.27301 0.246941 0.161048 0.955554 
5.51582 -1.99103 1.01931 0.503777 0.0559752 0.862018 
5.13584 -2.36786 1.23344 0.287511 0.138431 0.947721 
5.64463 -0.955822 0.621064 0.552418 0.346867 0.757969 
6.69793 -2.95386 -1.27897 0.622952 -0.781522 -0.0339792 
6.58602 -2.89619 -0.269444 0.521585 -0.801459 0.292596 
7.04154 -2.80968 -1.10797 0.886102 -0.327737 -0.327737 
7.043 -2.6655 -0.636897 0.773974 -0.485374 0.406665 
6.28527 -2.6655 0.485343 0.633345 -0.444689 0.633345 
6.86746 -1.97719 -1.21057 0.969145 0.244734 -0.029368 
6.77976 -1.97719 -0.269444 0.912761 0.196417 0.358172 
6.47511 -0.950088 -1.1453 0.915568 0.398541 0.0538569 
6.33399 -0.955822 -0.168562 0.859084 0.385965 0.336163 
7.043 -2.34481 -0.936965 0.921228 0.238837 -0.307076 
7.043 -2.34481 -0.636897 0.938954 0.231977 0.25407 
6.29916 -1.90145 0.510603 0.707052 0.186066 0.682243 
6.17081 -1.27676 0.383284 0.682309 0.414737 0.602037 
0.85331 0.001273 -4.20134 -0.0677 0.2031 -0.976815 
0.85331 0.822571 -3.79449 0.0108268 0.552167 -0.833663 
1.80467 0.001273 -4.16675 -0.0300075 0.310078 -0.950238 
1.80467 0.758139 -3.75788 0.0563436 0.597242 -0.800079 
0.85331 1.29825 -3.33784 0.0801953 0.790497 -0.607193 
1.80467 1.23382 -3.20947 0.0808776 0.82033 -0.566143 
0.85331 1.55612 -2.86215 0.0309773 0.939644 -0.34075 
0.85331 1.75162 -2.09666 0.0447805 0.994127 -0.0985171 
1.80467 1.49492 -2.73379 0.0969875 0.937546 -0.334068 
1.80467 1.6208 -2.09666 0.120355 0.990613 -0.0648065 
3.17881 -0.427085 -4.48994 -0.139255 0.267797 -0.953359 
2.81943 -0.06547 -4.25519 -0.0985566 0.405177 -0.908911 
2.75603 0.724598 -3.76067 -0.0110143 0.649844 -0.759987 
3.70739 -0.413558 -4.49214 -0.0300075 0.310078 -0.950238 
3.70739 0.062122 -4.26719 0.104376 0.521882 -0.846608 
3.70739 0.745916 -3.79151 0.0112176 0.684271 -0.729141 
2.75603 1.20028 -3.11566 0.010956 0.843611 -0.536843 
3.70739 1.2216 -3.14603 0.105114 0.829233 -0.548929 
2.75603 1.45023 -2.63998 0.0509383 0.947452 -0.315817 
2.75603 1.52678 -2.09666 0.0426572 0.998179 -0.0426572 
3.70739 1.46065 -2.67036 -0.00987681 0.958051 -0.286428 
3.70739 1.53924 -2.09666 0.00825713 0.999113 -0.0412857 
4.21303 -0.440598 -4.48296 0.245266 0.36206 -0.899309 
4.6525 -0.005283 -4.01332 0.403346 0.455391 -0.793682 
4.45773 0.657397 -3.69595 0.293357 0.675996 -0.675996 
5.35052 -0.204208 -3.69646 0.538589 0.433498 -0.722497 
5.09197 0.430032 -3.48026 0.559027 0.586297 -0.586297 
4.67682 0.969417 -3.06414 0.424791 0.78522 -0.450536 
4.84158 1.25241 -2.09666 0.564873 0.805244 -0.180279 
5.64387 0.045051 -3.12674 0.696224 0.591134 -0.407225 
5.89581 0.161166 -2.09666 0.789 0.600582 -0.129537 
5.30297 0.647198 -2.84602 0.66178 0.687732 -0.29845 
5.42013 0.776731 -2.09666 0.717253 0.694483 -0.0569249 
4.26167 1.45364 -2.64803 0.275001 0.896742 -0.34674 
4.3659 1.48683 -2.09666 0.240174 0.970302 -0.0288208 
6.17763 -0.339931 -2.77321 0.836563 0.497088 -0.230358 
6.17919 -0.314514 -2.09666 0.887866 0.459979 -0.0106972 
0.85331 1.29825 0.095858 0.0333849 0.790109 0.612056 
1.80467 1.23381 -0.032501 0.10432 0.799788 0.591148 
0.85331 0.001272 0.959361 -0.00969322 0.281103 0.959629 
0.85331 0.822567 0.552517 0.0336696 0.572384 0.819294 
1.80467 0.001272 0.924768 -0.0101331 0.334393 0.942379 
1.80467 0.758132 0.515909 0.0335013 0.636524 0.770529 
0.85331 1.75168 -1.1453 0.063639 0.99095 0.118187 
0.85331 1.55618 -0.379821 0.0735458 0.935082 0.346716 
1.80467 1.62077 -1.1453 0.101909 0.991293 0.0833798 
1.80467 1.49489 -0.508181 0.0950639 0.940077 0.327442 
2.75603 1.20027 -0.126314 0.033059 0.826474 0.562003 
3.70739 1.22159 -0.095939 0.0564009 0.846014 0.530169 
2.81943 -0.065473 1.01322 -0.0761094 0.424038 0.90244 
3.17882 -0.42709 1.24797 -0.138431 0.287511 0.947721 
2.75603 0.724591 0.518697 -0.0336358 0.683927 0.728775 
3.70739 0.062107 1.02521 0.0553408 0.520203 0.852248 
3.70739 -0.413573 1.25017 0.0962746 0.353007 0.930654 
3.70739 0.745909 0.549535 0.132897 0.688649 0.712812 
2.75603 1.52676 -1.1453 0.04262 0.997308 0.059668 
2.75603 1.45021 -0.601994 0.00981951 0.952492 0.304405 
3.70739 1.53924 -1.1453 0.0251586 0.997958 0.0587034 
3.70739 1.46065 -0.571619 0.0735458 0.935082 0.346716 
5.09197 0.430024 0.238288 0.530969 0.585427 0.612656 
4.84158 1.25238 -1.1453 0.548929 0.829233 0.105114 
4.67682 0.96939 -0.177829 0.433498 0.775042 0.459771 
5.89581 0.16119 -1.1453 0.818583 0.564938 0.103764 
5.64386 0.045063 -0.115237 0.699126 0.567215 0.435305 
5.42013 0.776696 -1.1453 0.698087 0.698087 0.159213 
5.30297 0.647151 -0.395953 0.635828 0.687732 0.350354 
4.65249 -0.005294 0.772028 0.398518 0.475651 0.784181 
4.21302 -0.440614 1.24099 0.275949 0.395927 0.875839 
4.45773 0.657392 0.453976 0.356655 0.647263 0.673682 
5.35052 -0.204215 0.455841 0.573639 0.493597 0.653682 
4.3659 1.48684 -1.1453 0.307693 0.9443 0.116711 
4.26167 1.45366 -0.593946 0.300638 0.877863 0.372791 
6.1784 -0.31449 -1.1453 0.870348 0.486039 0.0791226 
6.17657 -0.339898 -0.46876 0.799429 0.553451 0.233679 
3 2 4 5 
3 2 5 3 
3 9 12 13 
3 9 13 10 
3 4 9 10 
3 4 10 5 
3 0 1 4 
3 0 4 2 
3 7 11 12 
3 7 12 8 
3 6 8 12 
3 6 12 9 
3 1 6 9 
3 1 9 4 
3 14 16 17 
3 14 17 15 
3 20 23 24 
3 20 24 21 
3 16 20 21 
3 16 21 17 
3 15 17 19 
3 15 19 18 
3 22 26 27 
3 22 27 24 
3 21 24 27 
3 21 27 25 
3 17 21 25 
3 17 25 19 
3 30 31 33 
3 30 33 32 
3 28 32 33 
3 28 33 29 
3 35 37 36 
3 35 36 34 
3 38 39 41 
3 38 41 40 
3 42 45 46 
3 42 46 43 
3 49 51 50 
3 49 50 48 
3 30 42 43 
3 30 43 31 
3 30 32 44 
3 30 44 42 
3 37 49 48 
3 37 48 36 
3 28 29 35 
3 28 35 34 
3 28 34 36 
3 28 36 32 
3 44 48 50 
3 44 50 47 
3 38 42 44 
3 38 44 39 
3 38 40 45 
3 38 45 42 
3 44 47 41 
3 44 41 39 
3 32 36 48 
3 32 48 44 
3 52 53 55 
3 52 55 54 
3 61 63 62 
3 61 62 60 
3 64 65 67 
3 64 67 66 
3 71 73 72 
3 71 72 70 
3 54 55 65 
3 54 65 64 
3 63 71 70 
3 63 70 62 
3 58 60 62 
3 58 62 59 
3 68 70 72 
3 68 72 69 
3 58 59 55 
3 58 55 53 
3 68 69 67 
3 68 67 65 
3 59 68 65 
3 59 65 55 
3 59 62 70 
3 59 70 68 
3 40 41 53 
3 40 53 52 
3 45 56 57 
3 45 57 46 
3 51 61 60 
3 51 60 50 
3 40 52 56 
3 40 56 45 
3 47 58 53 
3 47 53 41 
3 47 50 60 
3 47 60 58 
3 76 77 79 
3 76 79 78 
3 74 78 79 
3 74 79 75 
3 81 83 82 
3 81 82 80 
3 84 87 88 
3 84 88 85 
3 92 93 91 
3 92 91 90 
3 95 97 96 
3 95 96 94 
3 76 84 85 
3 76 85 77 
3 85 86 79 
3 85 79 77 
3 83 95 94 
3 83 94 82 
3 74 75 81 
3 74 81 80 
3 79 83 81 
3 79 81 75 
3 89 97 95 
3 89 95 86 
3 85 90 91 
3 85 91 86 
3 85 88 92 
3 85 92 90 
3 91 93 89 
3 91 89 86 
3 86 95 83 
3 86 83 79 
3 104 105 103 
3 104 103 102 
3 107 109 108 
3 107 108 106 
3 114 115 113 
3 114 113 112 
3 117 119 118 
3 117 118 116 
3 112 113 105 
3 112 105 104 
3 109 117 116 
3 109 116 108 
3 101 109 107 
3 101 107 100 
3 111 119 117 
3 111 117 110 
3 103 105 101 
3 103 101 100 
3 113 115 111 
3 113 111 110 
3 105 113 110 
3 105 110 101 
3 110 117 109 
3 110 109 101 
3 87 98 99 
3 87 99 88 
3 102 103 93 
3 102 93 92 
3 97 107 106 
3 97 106 96 
3 88 99 102 
3 88 102 92 
3 93 103 100 
3 93 100 89 
3 100 107 97 
3 100 97 89 
3 120 121 123 
3 120 123 122 
3 124 125 127 
3 124 127 126 
3 124 128 129 
3 124 129 125 
3 129 130 127 
3 129 127 125 
3 137 138 140 
3 137 140 139 
3 137 141 142 
3 137 142 138 
3 137 139 143 
3 137 143 141 
3 144 146 147 
3 144 147 145 
3 122 123 140 
3 122 140 138 
3 128 144 145 
3 128 145 129 
3 132 133 142 
3 132 142 141 
3 131 138 142 
3 131 142 133 
3 135 136 147 
3 135 147 146 
3 135 146 144 
3 135 144 134 
3 120 122 128 
3 120 128 124 
3 131 133 135 
3 131 135 134 
3 131 134 144 
3 131 144 138 
3 122 138 144 
3 122 144 128 
3 148 150 151 
3 148 151 149 
3 152 154 155 
3 152 155 153 
3 158 159 157 
3 158 157 156 
3 157 161 160 
3 157 160 156 
3 157 159 162 
3 157 162 161 
3 165 167 168 
3 165 168 166 
3 173 174 172 
3 173 172 171 
3 172 176 175 
3 172 175 171 
3 154 165 166 
3 154 166 155 
3 161 162 170 
3 161 170 169 
3 160 161 151 
3 160 151 150 
3 148 156 160 
3 148 160 150 
3 175 176 168 
3 175 168 167 
3 165 171 175 
3 165 175 167 
3 168 176 172 
3 168 172 166 
3 149 151 154 
3 149 154 152 
3 170 173 171 
3 170 171 169 
3 169 171 165 
3 169 165 164 
3 151 164 165 
3 151 165 154 
3 163 173 170 
3 163 170 162 
3 151 161 169 
3 151 169 164 
3 132 148 149 
3 132 149 133 
3 135 152 153 
3 135 153 136 
3 141 143 158 
3 141 158 156 
3 133 149 152 
3 133 152 135 
3 132 141 156 
3 132 156 148 
3 177 178 180 
3 177 180 179 
3 177 181 182 
3 177 182 178 
3 177 179 183 
3 177 183 181 
3 186 187 185 
3 186 185 184 
3 194 196 197 
3 194 197 195 
3 198 199 201 
3 198 201 200 
3 198 202 203 
3 198 203 199 
3 203 204 201 
3 203 201 199 
3 181 194 195 
3 181 195 182 
3 198 200 187 
3 198 187 186 
3 189 190 197 
3 189 197 196 
3 188 195 197 
3 188 197 190 
3 192 193 203 
3 192 203 202 
3 192 202 198 
3 192 198 191 
3 178 182 186 
3 178 186 184 
3 188 190 192 
3 188 192 191 
3 188 191 198 
3 188 198 195 
3 182 195 198 
3 182 198 186 
3 205 207 208 
3 205 208 206 
3 209 211 212 
3 209 212 210 
3 216 217 215 
3 216 215 214 
3 215 219 218 
3 215 218 214 
3 218 220 216 
3 218 216 214 
3 221 223 224 
3 221 224 222 
3 228 229 227 
3 228 227 226 
3 227 231 230 
3 227 230 226 
3 207 221 222 
3 207 222 208 
3 232 233 220 
3 232 220 218 
3 230 231 224 
3 230 224 223 
3 221 226 230 
3 221 230 223 
3 224 231 227 
3 224 227 222 
3 218 219 212 
3 218 212 211 
3 212 219 215 
3 212 215 210 
3 206 208 211 
3 206 211 209 
3 229 233 232 
3 229 232 227 
3 227 232 225 
3 227 225 222 
3 208 222 225 
3 208 225 211 
3 220 233 229 
3 220 229 213 
3 225 232 218 
3 225 218 211 
3 189 205 206 
3 189 206 190 
3 192 209 210 
3 192 210 193 
3 215 217 204 
3 215 204 203 
3 190 206 209 
3 190 209 192 
3 210 215 203 
3 210 203 193 
3 234 235 237 
3 234 237 236 
3 241 243 242 
3 241 242 240 
3 245 248 247 
3 245 247 244 
3 245 246 249 
3 245 249 248 
3 253 255 254 
3 253 254 252 
3 236 237 246 
3 236 246 245 
3 243 253 252 
3 243 252 242 
3 238 240 242 
3 238 242 239 
3 250 252 254 
3 250 254 251 
3 238 239 237 
3 238 237 235 
3 250 251 249 
3 250 249 246 
3 239 250 246 
3 239 246 237 
3 239 242 252 
3 239 252 250 
3 265 266 264 
3 265 264 263 
3 262 266 265 
3 262 265 261 
3 260 261 265 
3 260 265 263 
3 264 270 269 
3 264 269 263 
3 267 268 262 
3 267 262 261 
3 258 261 260 
3 258 260 257 
3 260 263 259 
3 260 259 257 
3 248 257 256 
3 248 256 247 
3 248 249 258 
3 248 258 257 
3 255 268 267 
3 255 267 254 
3 251 261 258 
3 251 258 249 
3 251 254 267 
3 251 267 261 
3 275 276 274 
3 275 274 273 
3 278 280 279 
3 278 279 277 
3 284 287 286 
3 284 286 283 
3 286 288 285 
3 286 285 283 
3 290 292 291 
3 290 291 289 
3 283 285 276 
3 283 276 275 
3 280 290 289 
3 280 289 279 
3 272 280 278 
3 272 278 271 
3 282 292 290 
3 282 290 281 
3 274 276 272 
3 274 272 271 
3 285 288 282 
3 285 282 281 
3 276 285 281 
3 276 281 272 
3 281 290 280 
3 281 280 272 
3 298 299 297 
3 298 297 296 
3 295 299 298 
3 295 298 294 
3 297 299 295 
3 297 295 293 
3 297 307 306 
3 297 306 296 
3 304 305 295 
3 304 295 294 
3 295 302 300 
3 295 300 293 
3 300 303 297 
3 300 297 293 
3 287 301 300 
3 287 300 286 
3 300 302 288 
3 300 288 286 
3 292 305 304 
3 292 304 291 
3 288 302 295 
3 288 295 282 
3 295 305 292 
3 295 292 282 
3 7 8 121 
3 7 121 120 
3 12 126 127 
3 12 127 13 
3 124 126 12 
3 124 12 11 
3 7 120 124 
3 7 124 11 
3 23 179 180 
3 23 180 24 
3 22 24 180 
3 22 180 178 
3 184 185 27 
3 184 27 26 
3 22 178 184 
3 22 184 26 
3 66 67 235 
3 66 235 234 
3 73 241 240 
3 73 240 72 
3 69 238 235 
3 69 235 67 
3 69 72 240 
3 69 240 238 
3 273 274 115 
3 273 115 114 
3 119 278 277 
3 119 277 118 
3 115 274 271 
3 115 271 111 
3 271 278 119 
3 271 119 111 
3 0 52 54 
3 0 54 1 
3 6 64 66 
3 6 66 8 
3 2 3 57 
3 2 57 56 
3 0 2 56 
3 0 56 52 
3 1 54 64 
3 1 64 6 
3 121 234 236 
3 121 236 123 
3 139 140 245 
3 139 245 244 
3 139 244 247 
3 139 247 143 
3 123 236 245 
3 123 245 140 
3 256 257 159 
3 256 159 158 
3 159 257 259 
3 159 259 162 
3 269 270 174 
3 269 174 173 
3 259 263 163 
3 259 163 162 
3 163 263 269 
3 163 269 173 
3 143 247 256 
3 143 256 158 
3 14 15 99 
3 14 99 98 
3 19 104 102 
3 19 102 18 
3 27 114 112 
3 27 112 25 
3 15 18 102 
3 15 102 99 
3 25 112 104 
3 25 104 19 
3 187 275 273 
3 187 273 185 
3 200 201 284 
3 200 284 283 
3 204 287 284 
3 204 284 201 
3 200 283 275 
3 200 275 187 
3 306 307 229 
3 306 229 228 
3 300 301 217 
3 300 217 216 
3 220 303 300 
3 220 300 216 
3 297 303 220 
3 297 220 213 
3 229 307 297 
3 229 297 213 
3 217 301 287 
3 217 287 204 
3 3 5 16 
3 3 16 14 
3 10 13 23 
3 10 23 20 
3 5 10 20 
3 5 20 16 
3 31 76 78 
3 31 78 33 
3 29 33 78 
3 29 78 74 
3 80 82 37 
3 80 37 35 
3 43 46 87 
3 43 87 84 
3 94 96 51 
3 94 51 49 
3 29 74 80 
3 29 80 35 
3 31 43 84 
3 31 84 76 
3 82 94 49 
3 82 49 37 
3 106 108 63 
3 106 63 61 
3 116 118 73 
3 116 73 71 
3 108 116 71 
3 108 71 63 
3 46 57 98 
3 46 98 87 
3 96 106 61 
3 96 61 51 
3 129 181 183 
3 129 183 130 
3 127 130 183 
3 127 183 179 
3 145 147 196 
3 145 196 194 
3 136 189 196 
3 136 196 147 
3 129 145 194 
3 129 194 181 
3 153 155 207 
3 153 207 205 
3 174 228 226 
3 174 226 172 
3 172 226 221 
3 172 221 166 
3 155 166 221 
3 155 221 207 
3 136 153 205 
3 136 205 189 
3 277 279 243 
3 277 243 241 
3 289 291 255 
3 289 255 253 
3 279 289 253 
3 279 253 243 
3 266 298 296 
3 266 296 264 
3 294 298 266 
3 294 266 262 
3 268 304 294 
3 268 294 262 
3 296 306 270 
3 296 270 264 
3 291 304 268 
3 291 268 255 
3 3 14 98 
3 3 98 57 
3 270 306 228 
3 270 228 174 
3 13 127 179 
3 13 179 23 
3 118 277 241 
3 118 241 73 
3 8 66 234 
3 8 234 121 
3 185 273 114 
3 185 114 27 
