ply
format ascii 1.0
comment Author: CloudCompare (TELECOM PARISTECH/EDF R&D)
obj_info Generated by CloudCompare!
element vertex 658
property float x
property float y
property float z
property float nx
property float ny
property float nz
element face 766
property list uchar int vertex_indices
end_header
142.768 -8 8 0.0406155 0.0081231 0.999142 
142.768 -10 8 0.0406155 -0.0081231 0.999142 
144.531 -8.09794 7.91345 0.0754122 -0.00837914 0.997117 
144.532 -10 7.91332 0.112324 -0.0086403 0.993634 
146.277 -8.19494 7.65471 0.171716 -0.00903766 0.985105 
146.279 -10 7.65419 0.213965 -0.00930283 0.976797 
147.989 -8.29008 7.22602 0.281103 0.00969322 0.959629 
147.993 -10 7.22491 0.304405 -0.00981951 0.952492 
149.652 -8.38243 6.63174 0.376631 -0.0101792 0.926308 
149.656 -10 6.62988 0.401337 -0.0102907 0.915872 
151.248 -8.47111 5.8773 0.451383 -0.0104973 0.892269 
151.253 -10 5.87458 0.476598 -0.0105911 0.879058 
152.763 -8.55527 4.9701 0.552167 -0.0108268 0.833663 
152.768 -10 4.96652 0.577076 -0.0108882 0.816618 
154.182 -8.6341 3.9185 0.625996 -0.0109824 0.779749 
154.187 -10 3.91418 0.649844 -0.0110143 0.759987 
155.491 -8.70684 2.73284 0.695931 0.0110465 0.718024 
155.496 -10 2.72793 0.718024 -0.0110465 0.695931 
156.678 -8.77277 1.42435 0.759987 -0.0110143 0.649844 
156.682 -10 1.41907 0.779749 -0.0109824 0.625996 
157.731 -8.83127 0.00566531 0.816618 -0.0108882 0.577076 
157.734 -10 0.000333769 0.833663 -0.0108268 0.552167 
158.64 -8.88177 -1.50975 0.879058 -0.0105911 0.476598 
158.642 -10 -1.51482 0.892269 -0.0104973 0.451383 
159.396 -8.92378 -3.10715 0.915872 -0.0102907 0.401337 
159.398 -10 -3.11168 0.926308 -0.0101792 0.376631 
159.992 -8.95688 -4.77119 0.952492 0.00981951 0.304405 
159.993 -10 -4.77486 0.959629 0.00969322 0.281103 
160.421 -8.98076 -6.48571 0.976797 0.00930283 0.213965 
160.422 -10 -6.48829 0.985105 0.00903766 0.171716 
160.681 -8.99518 -8.2343 0.993634 0.0086403 0.112324 
160.681 -10 -8.23564 0.997117 -0.00837914 0.0754122 
160.768 -9 -10 0.99968 -0.00799744 0.0239923 
160.768 -10 -9.99995 0.99968 -0.00799744 -0.0239923 
160.681 -8.99518 -11.7656 0.997117 -0.00837914 -0.0754122 
160.681 -10 -11.7643 0.993634 0.0086403 -0.112324 
160.421 -8.98076 -13.5142 0.985105 0.00903766 -0.171716 
160.422 -10 -13.5116 0.976797 0.00930283 -0.213965 
159.992 -8.95688 -15.2288 0.959629 0.00969322 -0.281103 
159.993 -10 -15.2251 0.952492 0.00981951 -0.304405 
159.396 -8.92378 -16.8928 0.926308 -0.0101792 -0.376631 
159.398 -10 -16.8883 0.915872 -0.0102907 -0.401337 
158.64 -8.88177 -18.4902 0.892269 -0.0104973 -0.451383 
158.642 -10 -18.4851 0.879058 -0.0105911 -0.476598 
157.731 -8.83127 -20.0056 0.833663 -0.0108268 -0.552167 
157.734 -10 -20.0003 0.816618 -0.0108882 -0.577076 
156.678 -8.77277 -21.4243 0.779749 -0.0109824 -0.625996 
156.682 -10 -21.4191 0.759987 0.0110143 -0.649844 
155.491 -8.70684 -22.7329 0.718024 -0.0110465 -0.695931 
155.496 -10 -22.728 0.695931 0.0110465 -0.718024 
154.182 -8.6341 -23.9185 0.649844 -0.0110143 -0.759987 
154.187 -10 -23.9142 0.625996 -0.0109824 -0.779749 
152.763 -8.55528 -24.97 0.577076 -0.0108882 -0.816618 
152.768 -10 -24.9665 0.552167 -0.0108268 -0.833663 
151.248 -8.47111 -25.8773 0.476598 -0.0105911 -0.879058 
151.253 -10 -25.8745 0.451383 -0.0104973 -0.892269 
149.652 -8.38243 -26.6318 0.401337 -0.0102907 -0.915872 
149.656 -10 -26.6299 0.376631 -0.0101792 -0.926308 
147.989 -8.29008 -27.226 0.304405 -0.00981951 -0.952492 
147.993 -10 -27.2249 0.281103 0.00969322 -0.959629 
146.277 -8.19495 -27.6547 0.213965 -0.00930283 -0.976797 
146.279 -10 -27.6542 0.171716 -0.00903766 -0.985105 
144.531 -8.09795 -27.9134 0.112324 -0.0086403 -0.993634 
144.532 -10 -27.9133 0.0754122 -0.00837914 -0.997117 
142.768 -8 -28 0.0406155 -0.0081231 -0.999142 
142.768 -10 -28 0.0406155 0.0081231 -0.999142 
142.768 -8 8 0.0577527 0.998297 0.00825039 
144.531 -8.09794 7.91345 0.0577527 0.998297 -0.00825039 
146.277 -8.19494 7.65471 0.0577527 0.998297 -0.00825039 
147.989 -8.29008 7.22602 0.0577527 0.998297 0.00825039 
149.652 -8.38243 6.63174 0.0577527 0.998297 0.00825039 
151.248 -8.47111 5.8773 0.0577527 0.998297 -0.00825039 
152.763 -8.55527 4.9701 0.0577527 0.998297 -0.00825039 
154.182 -8.6341 3.9185 0.0577527 0.998297 -0.00825039 
155.491 -8.70684 2.73284 0.0577527 0.998297 0.00825039 
156.678 -8.77277 1.42435 0.0577527 0.998297 0.00825039 
157.731 -8.83127 0.00566531 0.0577527 0.998297 0.00825039 
158.64 -8.88177 -1.50975 0.0577527 0.998297 0.00825039 
159.396 -8.92378 -3.10715 0.0577527 0.998297 0.00825039 
159.992 -8.95688 -4.77119 0.0577527 0.998297 0.00825039 
160.421 -8.98076 -6.48571 0.0577527 0.998297 0.00825039 
160.681 -8.99518 -8.2343 0.0577527 0.998297 0.00825039 
160.768 -9 -10 0.0577527 0.998297 0.00825039 
160.681 -8.99518 -11.7656 0.0577527 0.998297 0.00825039 
160.421 -8.98076 -13.5142 0.0577527 0.998297 0.00825039 
159.992 -8.95688 -15.2288 0.0577527 0.998297 0.00825039 
159.396 -8.92378 -16.8928 0.0577527 0.998297 0.00825039 
158.64 -8.88177 -18.4902 0.0577527 0.998297 0.00825039 
157.731 -8.83127 -20.0056 0.0577527 0.998297 0.00825039 
156.678 -8.77277 -21.4243 0.0577527 0.998297 0.00825039 
155.491 -8.70684 -22.7329 0.0577527 0.998297 0.00825039 
154.182 -8.6341 -23.9185 0.0577527 0.998297 0.00825039 
152.763 -8.55528 -24.97 0.0577527 0.998297 -0.00825039 
151.248 -8.47111 -25.8773 0.0577527 0.998297 0.00825039 
149.652 -8.38243 -26.6318 0.0577527 0.998297 -0.00825039 
147.989 -8.29008 -27.226 0.0577527 0.998297 -0.00825039 
146.277 -8.19495 -27.6547 0.0577527 0.998297 0.00825039 
144.531 -8.09795 -27.9134 0.0577527 0.998297 -0.00825039 
142.768 -8 -28 0.0577527 0.998297 0.00825039 
142.768 -8 -23.9091 0.0577527 0.998297 -0.00825039 
142.768 -8 -19.8182 0.0577527 0.998297 -0.00825039 
142.768 -8 -0.181777 0.0577527 0.998297 0.00825039 
142.768 -8 3.90911 0.0577527 0.998297 -0.00825039 
142.768 -8 -10 0.0577527 0.998297 -0.00825039 
142.768 -10 8 0.00787353 -0.999938 0.00787353 
144.532 -10 7.91332 0.00787353 -0.999938 0.00787353 
146.279 -10 7.65419 0.00787353 -0.999938 0.00787353 
147.993 -10 7.22491 0.00787353 -0.999938 0.00787353 
149.656 -10 6.62988 0.00787353 -0.999938 0.00787353 
151.253 -10 5.87458 0.00787353 -0.999938 0.00787353 
152.768 -10 4.96652 0.00787353 -0.999938 0.00787353 
154.187 -10 3.91418 0.00787353 -0.999938 0.00787353 
155.496 -10 2.72793 0.00787353 -0.999938 0.00787353 
156.682 -10 1.41907 0.00787353 -0.999938 0.00787353 
157.734 -10 0.000333769 0.00787353 -0.999938 0.00787353 
158.642 -10 -1.51482 0.00787353 -0.999938 0.00787353 
159.398 -10 -3.11168 0.00787353 -0.999938 0.00787353 
159.993 -10 -4.77486 0.00787353 -0.999938 0.00787353 
160.422 -10 -6.48829 0.00787353 -0.999938 0.00787353 
160.681 -10 -8.23564 0.00787353 -0.999938 0.00787353 
160.768 -10 -9.99995 0.00787353 -0.999938 0.00787353 
160.681 -10 -11.7643 0.00787353 -0.999938 0.00787353 
160.422 -10 -13.5116 0.00787353 -0.999938 0.00787353 
159.993 -10 -15.2251 0.00787353 -0.999938 0.00787353 
159.398 -10 -16.8883 0.00787353 -0.999938 0.00787353 
158.642 -10 -18.4851 0.00787353 -0.999938 0.00787353 
157.734 -10 -20.0003 0.00787353 -0.999938 0.00787353 
156.682 -10 -21.4191 0.00787353 -0.999938 0.00787353 
155.496 -10 -22.728 0.00787353 -0.999938 0.00787353 
154.187 -10 -23.9142 0.00787353 -0.999938 0.00787353 
152.768 -10 -24.9665 0.00787353 -0.999938 0.00787353 
151.253 -10 -25.8745 0.00787353 -0.999938 0.00787353 
149.656 -10 -26.6299 0.00787353 -0.999938 0.00787353 
147.993 -10 -27.2249 0.00787353 -0.999938 0.00787353 
146.279 -10 -27.6542 0.00787353 -0.999938 0.00787353 
144.532 -10 -27.9133 0.00787353 -0.999938 0.00787353 
142.768 -10 -28 0.00787353 -0.999938 0.00787353 
142.768 -10 -23.9091 0.00787353 -0.999938 0.00787353 
142.768 -10 -19.8182 0.00787353 -0.999938 0.00787353 
142.768 -10 -0.181777 0.00787353 -0.999938 0.00787353 
142.768 -10 3.90911 0.00787353 -0.999938 0.00787353 
142.768 -10 -19.8182 -0.999938 0.00787353 0.00787353 
142.768 -8 -19.8182 -0.999938 0.00787353 0.00787353 
142.768 -10 -28 -0.999938 0.00787353 0.00787353 
142.768 -8 -28 -0.999938 0.00787353 0.00787353 
142.768 -10 -23.9091 -0.999938 0.00787353 0.00787353 
142.768 -8 -23.9091 -0.999938 0.00787353 0.00787353 
142.768 -10 8 -0.999938 0.00787353 0.00787353 
142.768 -8 8 -0.999938 0.00787353 0.00787353 
142.768 -10 -0.181777 -0.999938 0.00787353 0.00787353 
142.768 -8 -0.181777 -0.999938 0.00787353 0.00787353 
142.768 -10 3.90911 -0.999938 0.00787353 0.00787353 
142.768 -8 3.90911 -0.999938 0.00787353 0.00787353 
2.42024 -10 -17.65 0.00787353 -0.999938 0.00787353 
2.42024 -10 -15.1 0.00787353 -0.999938 0.00787353 
2.42024 -10 -12.55 0.00787353 -0.999938 0.00787353 
2.42024 -10 -10 0.00787353 -0.999938 0.00787353 
2.42024 -10 -7.45 0.00787353 -0.999938 0.00787353 
2.42024 -10 -4.9 0.00787353 -0.999938 0.00787353 
2.42024 -10 -2.35 0.00787353 -0.999938 0.00787353 
5.19399 -10 -17.65 0.00787353 -0.999938 0.00787353 
5.19399 -10 -15.1 0.00787353 -0.999938 0.00787353 
5.19399 -10 -12.55 0.00787353 -0.999938 0.00787353 
5.19399 -10 -10 0.00787353 -0.999938 0.00787353 
5.19399 -10 -7.45 0.00787353 -0.999938 0.00787353 
5.19399 -10 -4.9 0.00787353 -0.999938 0.00787353 
5.19399 -10 -2.35 0.00787353 -0.999938 0.00787353 
7.96775 -10 -17.65 0.00787353 -0.999938 0.00787353 
7.96775 -10 -15.1 0.00787353 -0.999938 0.00787353 
7.96775 -10 -12.55 0.00787353 -0.999938 0.00787353 
7.96775 -10 -10 0.00787353 -0.999938 0.00787353 
7.96775 -10 -7.45 0.00787353 -0.999938 0.00787353 
7.96775 -10 -4.9 0.00787353 -0.999938 0.00787353 
7.96775 -10 -2.35 0.00787353 -0.999938 0.00787353 
10.7415 -10 -17.65 0.00787353 -0.999938 0.00787353 
10.7415 -10 -15.1 0.00787353 -0.999938 0.00787353 
10.7415 -10 -12.55 0.00787353 -0.999938 0.00787353 
10.7415 -10 -7.45 0.00787353 -0.999938 0.00787353 
10.7415 -10 -4.9 0.00787353 -0.999938 0.00787353 
10.7415 -10 -2.35 0.00787353 -0.999938 0.00787353 
13.5153 -10 -15.1 0.00787353 -0.999938 0.00787353 
13.5153 -10 -12.55 0.00787353 -0.999938 0.00787353 
13.5153 -10 -10 0.00787353 -0.999938 0.00787353 
13.5153 -10 -7.45 0.00787353 -0.999938 0.00787353 
13.5153 -10 -4.9 0.00787353 -0.999938 0.00787353 
16.289 -10 -15.1 0.00787353 -0.999938 0.00787353 
16.289 -10 -12.55 0.00787353 -0.999938 0.00787353 
16.289 -10 -10 0.00787353 -0.999938 0.00787353 
16.289 -10 -7.45 0.00787353 -0.999938 0.00787353 
16.289 -10 -4.9 0.00787353 -0.999938 0.00787353 
19.0628 -10 -15.1 0.00787353 -0.999938 0.00787353 
19.0628 -10 -12.55 0.00787353 -0.999938 0.00787353 
19.0628 -10 -10 0.00787353 -0.999938 0.00787353 
19.0628 -10 -7.45 0.00787353 -0.999938 0.00787353 
19.0628 -10 -4.9 0.00787353 -0.999938 0.00787353 
21.8365 -10 -15.1 0.00787353 -0.999938 0.00787353 
21.8365 -10 -12.55 0.00787353 -0.999938 0.00787353 
21.8365 -10 -7.45 0.00787353 -0.999938 0.00787353 
21.8365 -10 -4.9 0.00787353 -0.999938 0.00787353 
24.6103 -10 -15.1 0.00787353 -0.999938 0.00787353 
24.6103 -10 -12.55 0.00787353 -0.999938 0.00787353 
24.6103 -10 -10 0.00787353 -0.999938 0.00787353 
24.6103 -10 -7.45 0.00787353 -0.999938 0.00787353 
24.6103 -10 -4.9 0.00787353 -0.999938 0.00787353 
27.384 -10 -15.1 0.00787353 -0.999938 0.00787353 
27.384 -10 -12.55 0.00787353 -0.999938 0.00787353 
27.384 -10 -10 0.00787353 -0.999938 0.00787353 
27.384 -10 -7.45 0.00787353 -0.999938 0.00787353 
27.384 -10 -4.9 0.00787353 -0.999938 0.00787353 
30.1578 -10 -17.65 0.00787353 -0.999938 0.00787353 
30.1578 -10 -15.1 0.00787353 -0.999938 0.00787353 
30.1578 -10 -12.55 0.00787353 -0.999938 0.00787353 
30.1578 -10 -10 0.00787353 -0.999938 0.00787353 
30.1578 -10 -7.45 0.00787353 -0.999938 0.00787353 
30.1578 -10 -4.9 0.00787353 -0.999938 0.00787353 
30.1578 -10 -2.35 0.00787353 -0.999938 0.00787353 
32.9316 -10 -17.65 0.00787353 -0.999938 0.00787353 
32.9316 -10 -15.1 0.00787353 -0.999938 0.00787353 
32.9316 -10 -12.55 0.00787353 -0.999938 0.00787353 
32.9316 -10 -10 0.00787353 -0.999938 0.00787353 
32.9316 -10 -7.45 0.00787353 -0.999938 0.00787353 
32.9316 -10 -4.9 0.00787353 -0.999938 0.00787353 
32.9316 -10 -2.35 0.00787353 -0.999938 0.00787353 
35.3518 -10 -19.9914 0.00787353 -0.999938 0.00787353 
35.3518 -10 -18.7424 0.00787353 -0.999938 0.00787353 
35.3518 -10 -17.4935 0.00787353 -0.999938 0.00787353 
35.3518 -10 -16.2446 0.00787353 -0.999938 0.00787353 
35.3518 -10 -14.9957 0.00787353 -0.999938 0.00787353 
35.3518 -10 -13.7468 0.00787353 -0.999938 0.00787353 
35.3518 -10 -12.4978 0.00787353 -0.999938 0.00787353 
35.3518 -10 -11.2489 0.00787353 -0.999938 0.00787353 
35.3518 -10 -10 0.00787353 -0.999938 0.00787353 
35.3518 -10 -8.75108 0.00787353 -0.999938 0.00787353 
35.3518 -10 -7.50216 0.00787353 -0.999938 0.00787353 
35.3518 -10 -6.25324 0.00787353 -0.999938 0.00787353 
35.3518 -10 -5.00432 0.00787353 -0.999938 0.00787353 
35.3518 -10 -3.7554 0.00787353 -0.999938 0.00787353 
35.3518 -10 -2.50648 0.00787353 -0.999938 0.00787353 
35.3518 -10 -1.25755 0.00787353 -0.999938 0.00787353 
35.3518 -10 -0.00863411 0.00787353 -0.999938 0.00787353 
32.4335 -10 -20 0.00787353 -0.999938 0.00787353 
33.8933 -10 -19.9957 0.00787353 -0.999938 0.00787353 
9.44655 -10 -20 0.00787353 -0.999938 0.00787353 
10.9651 -10 -18.9261 0.00787353 -0.999938 0.00787353 
12.5736 -10 -17.9407 0.00787353 -0.999938 0.00787353 
14.0148 -10 -17.2455 0.00787353 -0.999938 0.00787353 
15.0154 -10 -17 0.00787353 -0.999938 0.00787353 
24.9751 -10 -17 0.00787353 -0.999938 0.00787353 
26.9945 -10 -17.1875 0.00787353 -0.999938 0.00787353 
28.9107 -10 -17.75 0.00787353 -0.999938 0.00787353 
30.7237 -10 -18.6875 0.00787353 -0.999938 0.00787353 
0 -10 -20 0.00787353 -0.999938 0.00787353 
0 -10 7.10543e-15 0.00787353 -0.999938 0.00787353 
9.44655 -10 7.10543e-15 0.00787353 -0.999938 0.00787353 
32.4335 -10 7.10543e-15 0.00787353 -0.999938 0.00787353 
30.7237 -10 -1.3125 0.00787353 -0.999938 0.00787353 
28.9107 -10 -2.25 0.00787353 -0.999938 0.00787353 
26.9945 -10 -2.8125 0.00787353 -0.999938 0.00787353 
24.9751 -10 -3 0.00787353 -0.999938 0.00787353 
14.3145 -10 -3 0.00787353 -0.999938 0.00787353 
13.2674 -10 -2.75446 0.00787353 -0.999938 0.00787353 
11.9598 -10 -2.05933 0.00787353 -0.999938 0.00787353 
10.6237 -10 -1.07386 0.00787353 -0.999938 0.00787353 
33.8933 -10 -0.0043403 0.00787353 -0.999938 0.00787353 
22.857 -10 -10 0.00787353 -0.999938 0.00787353 
22.7819 -10 -10.3934 0.00787353 -0.999938 0.00787353 
22.5439 -10 -10.7557 0.00787353 -0.999938 0.00787353 
22.1816 -10 -10.9937 0.00787353 -0.999938 0.00787353 
21.7882 -10 -11.0688 0.00787353 -0.999938 0.00787353 
21.3948 -10 -10.9937 0.00787353 -0.999938 0.00787353 
21.0324 -10 -10.7557 0.00787353 -0.999938 0.00787353 
20.7944 -10 -10.3934 0.00787353 -0.999938 0.00787353 
20.7194 -10 -10 0.00787353 -0.999938 0.00787353 
20.7944 -10 -9.60659 0.00787353 -0.999938 0.00787353 
21.0324 -10 -9.24426 0.00787353 -0.999938 0.00787353 
21.3948 -10 -9.00626 0.00787353 -0.999938 0.00787353 
21.7882 -10 -8.93122 0.00787353 -0.999938 0.00787353 
22.1816 -10 -9.00626 0.00787353 -0.999938 0.00787353 
22.5439 -10 -9.24426 0.00787353 -0.999938 0.00787353 
22.7819 -10 -9.60659 0.00787353 -0.999938 0.00787353 
11.0688 -10 -10 0.00787353 -0.999938 0.00787353 
10.9937 -10 -10.3934 0.00787353 -0.999938 0.00787353 
10.7557 -10 -10.7557 0.00787353 -0.999938 0.00787353 
10.3934 -10 -10.9937 0.00787353 -0.999938 0.00787353 
10 -10 -11.0688 0.00787353 -0.999938 0.00787353 
9.60659 -10 -10.9937 0.00787353 -0.999938 0.00787353 
9.24426 -10 -10.7557 0.00787353 -0.999938 0.00787353 
9.00626 -10 -10.3934 0.00787353 -0.999938 0.00787353 
8.93122 -10 -10 0.00787353 -0.999938 0.00787353 
9.00626 -10 -9.60659 0.00787353 -0.999938 0.00787353 
9.24426 -10 -9.24426 0.00787353 -0.999938 0.00787353 
9.60659 -10 -9.00626 0.00787353 -0.999938 0.00787353 
10 -10 -8.93122 0.00787353 -0.999938 0.00787353 
10.3934 -10 -9.00626 0.00787353 -0.999938 0.00787353 
10.7557 -10 -9.24426 0.00787353 -0.999938 0.00787353 
10.9937 -10 -9.60659 0.00787353 -0.999938 0.00787353 
32.4335 -10 7.10543e-15 0.00787353 0.00787353 0.999938 
32.4335 0 7.10543e-15 0.00787353 -0.00787353 0.999938 
33.8933 -10 -0.0043403 0.00787353 0.00787353 0.999938 
33.8933 0 -0.0043403 0.00787353 -0.00787353 0.999938 
35.3518 -10 -0.00863411 0.00787353 0.00787353 0.999938 
35.3518 0 -0.00863411 0.00787353 0.00787353 0.999938 
35.3518 -5 -0.00863411 0.00787353 0.00787353 0.999938 
32.4335 -5 1.77636e-15 0.00787353 0.00787353 0.999938 
9.44655 -10 7.10543e-15 0.673181 0.0110358 0.739395 
9.44655 0 7.10543e-15 0.673181 -0.0110358 0.739395 
10.6237 -10 -1.07386 0.649844 0.0110143 0.759987 
10.6237 0 -1.07386 0.625996 -0.0109824 0.779749 
11.9598 -10 -2.05933 0.552167 0.0108268 0.833663 
11.9598 0 -2.05933 0.527065 0.0107564 0.849757 
13.2674 -10 -2.75446 0.401337 0.0102907 0.915872 
13.2674 0 -2.75446 0.328119 0.00994299 0.944584 
14.3145 -10 -3 0.0406155 0.0081231 0.999142 
14.3145 0 -3 0.00787353 0.00787353 0.999938 
24.9751 -10 -3 -0.00787353 0.00787353 0.999938 
24.9751 0 -3 -0.0239923 0.00799744 0.99968 
26.9945 -10 -2.8125 -0.151382 0.00890482 0.988435 
26.9945 0 -2.8125 -0.213965 0.00930283 0.976797 
28.9107 -10 -2.25 -0.352208 0.0100631 0.935868 
28.9107 0 -2.25 -0.401337 0.0102907 0.915872 
30.7237 -10 -1.3125 -0.527065 0.0107564 0.849757 
30.7237 0 -1.3125 -0.552167 -0.0108268 0.833663 
32.4335 -10 7.10543e-15 -0.601713 0.0109402 0.798637 
32.4335 0 7.10543e-15 -0.601713 -0.0109402 0.798637 
32.4335 -5 1.77636e-15 -0.601713 0.0109402 0.798637 
9.44655 -5 1.77636e-15 0.673181 0.0110358 0.739395 
0 -10 7.10543e-15 0.00787353 0.00787353 0.999938 
0 0 0 -0.00787353 -0.00787353 0.999938 
9.44655 -10 7.10543e-15 0.00787353 0.00787353 0.999938 
9.44655 0 7.10543e-15 -0.00787353 -0.00787353 0.999938 
9.44655 -5 1.77636e-15 -0.00787353 0.00787353 0.999938 
0 -5 1.77636e-15 0.00787353 0.00787353 0.999938 
0 -10 -20 -0.999938 0.00787353 0.00787353 
0 0 -20 -0.999938 0.00787353 0.00787353 
0 -10 7.10543e-15 -0.999938 0.00787353 0.00787353 
0 0 0 -0.999938 0.00787353 0.00787353 
0 -5 1.77636e-15 -0.999938 0.00787353 0.00787353 
0 -5 -20 -0.999938 0.00787353 0.00787353 
9.44655 -10 -20 0.00787353 0.00787353 -0.999938 
9.44655 0 -20 0.00787353 0.00787353 -0.999938 
0 -10 -20 0.00787353 0.00787353 -0.999938 
0 0 -20 0.00787353 0.00787353 -0.999938 
0 -5 -20 0.00787353 0.00787353 -0.999938 
9.44655 -5 -20 0.00787353 0.00787353 -0.999938 
32.4335 -10 -20 -0.601713 0.0109402 -0.798637 
32.4335 0 -20 -0.601713 0.0109402 -0.798637 
30.7237 -10 -18.6875 -0.552167 0.0108268 -0.833663 
30.7237 0 -18.6875 -0.527065 0.0107564 -0.849757 
28.9107 -10 -17.75 -0.401337 0.0102907 -0.915872 
28.9107 0 -17.75 -0.352208 0.0100631 -0.935868 
26.9945 -10 -17.1875 -0.213965 0.00930283 -0.976797 
26.9945 0 -17.1875 -0.151382 0.00890482 -0.988435 
24.9751 -10 -17 -0.0239923 0.00799744 -0.99968 
24.9751 0 -17 -0.00787353 0.00787353 -0.999938 
15.0154 -10 -17 0.00787353 0.00787353 -0.999938 
15.0154 0 -17 0.0406155 0.0081231 -0.999142 
14.0148 -10 -17.2455 0.328119 0.00994299 -0.944584 
14.0148 0 -17.2455 0.376631 0.0101792 -0.926308 
12.5736 -10 -17.9407 0.476598 0.0105911 -0.879058 
12.5736 0 -17.9407 0.501849 0.0106776 -0.864889 
10.9651 -10 -18.9261 0.552167 0.0108268 -0.833663 
10.9651 0 -18.9261 0.552167 0.0108268 -0.833663 
9.44655 -10 -20 0.577076 0.0108882 -0.816618 
9.44655 0 -20 0.577076 0.0108882 -0.816618 
9.44655 -5 -20 0.577076 0.0108882 -0.816618 
32.4335 -5 -20 -0.601713 0.0109402 -0.798637 
35.3518 -10 -19.9914 0.00787353 0.00787353 -0.999938 
35.3518 0 -19.9914 0.00787353 0.00787353 -0.999938 
33.8933 -10 -19.9957 0.00787353 0.00787353 -0.999938 
33.8933 0 -19.9957 0.00787353 0.00787353 -0.999938 
32.4335 -10 -20 0.00787353 0.00787353 -0.999938 
32.4335 0 -20 0.00787353 0.00787353 -0.999938 
35.3518 -5 -19.9914 0.00787353 0.00787353 -0.999938 
32.4335 -5 -20 0.00787353 0.00787353 -0.999938 
2.42024 0 -17.65 0.00787353 0.999938 0.00787353 
2.42024 0 -15.1 0.00787353 0.999938 0.00787353 
2.42024 0 -12.55 0.00787353 0.999938 0.00787353 
2.42024 0 -10 0.00787353 0.999938 0.00787353 
2.42024 0 -7.45 0.00787353 0.999938 0.00787353 
2.42024 0 -4.9 0.00787353 0.999938 0.00787353 
2.42024 0 -2.35 0.00787353 0.999938 0.00787353 
5.19399 0 -17.65 0.00787353 0.999938 0.00787353 
5.19399 0 -15.1 0.00787353 0.999938 0.00787353 
5.19399 0 -12.55 0.00787353 0.999938 0.00787353 
5.19399 0 -10 0.00787353 0.999938 0.00787353 
5.19399 0 -7.45 0.00787353 0.999938 0.00787353 
5.19399 0 -4.9 0.00787353 0.999938 0.00787353 
5.19399 0 -2.35 0.00787353 0.999938 0.00787353 
7.96775 0 -17.65 0.00787353 0.999938 0.00787353 
7.96775 0 -15.1 0.00787353 0.999938 0.00787353 
7.96775 0 -12.55 0.00787353 0.999938 0.00787353 
7.96775 0 -10 0.00787353 0.999938 0.00787353 
7.96775 0 -7.45 0.00787353 0.999938 0.00787353 
7.96775 0 -4.9 0.00787353 0.999938 0.00787353 
7.96775 0 -2.35 0.00787353 0.999938 0.00787353 
10.7415 0 -17.65 0.00787353 0.999938 0.00787353 
10.7415 0 -15.1 0.00787353 0.999938 0.00787353 
10.7415 0 -12.55 0.00787353 0.999938 0.00787353 
10.7415 0 -7.45 0.00787353 0.999938 0.00787353 
10.7415 0 -4.9 0.00787353 0.999938 0.00787353 
10.7415 0 -2.35 0.00787353 0.999938 0.00787353 
13.5153 0 -15.1 0.00787353 0.999938 0.00787353 
13.5153 0 -12.55 0.00787353 0.999938 0.00787353 
13.5153 0 -10 0.00787353 0.999938 0.00787353 
13.5153 0 -7.45 0.00787353 0.999938 0.00787353 
13.5153 0 -4.9 0.00787353 0.999938 0.00787353 
16.289 0 -15.1 0.00787353 0.999938 0.00787353 
16.289 0 -12.55 0.00787353 0.999938 0.00787353 
16.289 0 -10 0.00787353 0.999938 0.00787353 
16.289 0 -7.45 0.00787353 0.999938 0.00787353 
16.289 0 -4.9 0.00787353 0.999938 0.00787353 
19.0628 0 -15.1 0.00787353 0.999938 0.00787353 
19.0628 0 -12.55 0.00787353 0.999938 0.00787353 
19.0628 0 -10 0.00787353 0.999938 0.00787353 
19.0628 0 -7.45 0.00787353 0.999938 0.00787353 
19.0628 0 -4.9 0.00787353 0.999938 0.00787353 
21.8365 0 -15.1 0.00787353 0.999938 0.00787353 
21.8365 0 -12.55 0.00787353 0.999938 0.00787353 
21.8365 0 -7.45 0.00787353 0.999938 0.00787353 
21.8365 0 -4.9 0.00787353 0.999938 0.00787353 
24.6103 0 -15.1 0.00787353 0.999938 0.00787353 
24.6103 0 -12.55 0.00787353 0.999938 0.00787353 
24.6103 0 -10 0.00787353 0.999938 0.00787353 
24.6103 0 -7.45 0.00787353 0.999938 0.00787353 
24.6103 0 -4.9 0.00787353 0.999938 0.00787353 
27.384 0 -15.1 0.00787353 0.999938 0.00787353 
27.384 0 -12.55 0.00787353 0.999938 0.00787353 
27.384 0 -10 0.00787353 0.999938 0.00787353 
27.384 0 -7.45 0.00787353 0.999938 0.00787353 
27.384 0 -4.9 0.00787353 0.999938 0.00787353 
30.1578 0 -17.65 0.00787353 0.999938 0.00787353 
30.1578 0 -15.1 0.00787353 0.999938 0.00787353 
30.1578 0 -12.55 0.00787353 0.999938 0.00787353 
30.1578 0 -10 0.00787353 0.999938 0.00787353 
30.1578 0 -7.45 0.00787353 0.999938 0.00787353 
30.1578 0 -4.9 0.00787353 0.999938 0.00787353 
30.1578 0 -2.35 0.00787353 0.999938 0.00787353 
32.9316 0 -17.65 0.00787353 0.999938 0.00787353 
32.9316 0 -15.1 0.00787353 0.999938 0.00787353 
32.9316 0 -12.55 0.00787353 0.999938 0.00787353 
32.9316 0 -10 0.00787353 0.999938 0.00787353 
32.9316 0 -7.45 0.00787353 0.999938 0.00787353 
32.9316 0 -4.9 0.00787353 0.999938 0.00787353 
32.9316 0 -2.35 0.00787353 0.999938 0.00787353 
35.3518 0 -19.9914 0.00787353 0.999938 0.00787353 
35.3518 0 -18.7424 0.00787353 0.999938 0.00787353 
35.3518 0 -17.4935 0.00787353 0.999938 0.00787353 
35.3518 0 -16.2446 0.00787353 0.999938 0.00787353 
35.3518 0 -14.9957 0.00787353 0.999938 0.00787353 
35.3518 0 -13.7468 0.00787353 0.999938 0.00787353 
35.3518 0 -12.4978 0.00787353 0.999938 0.00787353 
35.3518 0 -11.2489 0.00787353 0.999938 0.00787353 
35.3518 0 -10 0.00787353 0.999938 0.00787353 
35.3518 0 -8.75108 0.00787353 0.999938 0.00787353 
35.3518 0 -7.50216 0.00787353 0.999938 0.00787353 
35.3518 0 -6.25324 0.00787353 0.999938 0.00787353 
35.3518 0 -5.00432 0.00787353 0.999938 0.00787353 
35.3518 0 -3.7554 0.00787353 0.999938 0.00787353 
35.3518 0 -2.50648 0.00787353 0.999938 0.00787353 
35.3518 0 -1.25755 0.00787353 0.999938 0.00787353 
35.3518 0 -0.00863411 0.00787353 0.999938 0.00787353 
33.8933 0 -0.0043403 0.00787353 0.999938 0.00787353 
32.4335 0 7.10543e-15 0.00787353 0.999938 0.00787353 
30.7237 0 -1.3125 0.00787353 0.999938 0.00787353 
28.9107 0 -2.25 0.00787353 0.999938 0.00787353 
26.9945 0 -2.8125 0.00787353 0.999938 0.00787353 
24.9751 0 -3 0.00787353 0.999938 0.00787353 
14.3145 0 -3 0.00787353 0.999938 0.00787353 
13.2674 0 -2.75446 0.00787353 0.999938 0.00787353 
11.9598 0 -2.05933 0.00787353 0.999938 0.00787353 
10.6237 0 -1.07386 0.00787353 0.999938 0.00787353 
9.44655 0 7.10543e-15 0.00787353 0.999938 0.00787353 
0 0 0 0.00787353 0.999938 0.00787353 
0 0 -20 0.00787353 0.999938 0.00787353 
9.44655 0 -20 0.00787353 0.999938 0.00787353 
10.9651 0 -18.9261 0.00787353 0.999938 0.00787353 
12.5736 0 -17.9407 0.00787353 0.999938 0.00787353 
14.0148 0 -17.2455 0.00787353 0.999938 0.00787353 
15.0154 0 -17 0.00787353 0.999938 0.00787353 
24.9751 0 -17 0.00787353 0.999938 0.00787353 
26.9945 0 -17.1875 0.00787353 0.999938 0.00787353 
28.9107 0 -17.75 0.00787353 0.999938 0.00787353 
30.7237 0 -18.6875 0.00787353 0.999938 0.00787353 
32.4335 0 -20 0.00787353 0.999938 0.00787353 
33.8933 0 -19.9957 0.00787353 0.999938 0.00787353 
22.857 0 -10 0.00787353 0.999938 0.00787353 
22.7819 0 -10.3934 0.00787353 0.999938 0.00787353 
22.5439 0 -10.7557 0.00787353 0.999938 0.00787353 
22.1816 0 -10.9937 0.00787353 0.999938 0.00787353 
21.7882 0 -11.0688 0.00787353 0.999938 0.00787353 
21.3948 0 -10.9937 0.00787353 0.999938 0.00787353 
21.0324 0 -10.7557 0.00787353 0.999938 0.00787353 
20.7944 0 -10.3934 0.00787353 0.999938 0.00787353 
20.7194 0 -10 0.00787353 0.999938 0.00787353 
20.7944 0 -9.60659 0.00787353 0.999938 0.00787353 
21.0324 0 -9.24426 0.00787353 0.999938 0.00787353 
21.3948 0 -9.00626 0.00787353 0.999938 0.00787353 
21.7882 0 -8.93122 0.00787353 0.999938 0.00787353 
22.1816 0 -9.00626 0.00787353 0.999938 0.00787353 
22.5439 0 -9.24426 0.00787353 0.999938 0.00787353 
22.7819 0 -9.60659 0.00787353 0.999938 0.00787353 
11.0688 0 -10 0.00787353 0.999938 0.00787353 
10.9937 0 -10.3934 0.00787353 0.999938 0.00787353 
10.7557 0 -10.7557 0.00787353 0.999938 0.00787353 
10.3934 0 -10.9937 0.00787353 0.999938 0.00787353 
10 0 -11.0688 0.00787353 0.999938 0.00787353 
9.60659 0 -10.9937 0.00787353 0.999938 0.00787353 
9.24426 0 -10.7557 0.00787353 0.999938 0.00787353 
9.00626 0 -10.3934 0.00787353 0.999938 0.00787353 
8.93122 0 -10 0.00787353 0.999938 0.00787353 
9.00626 0 -9.60659 0.00787353 0.999938 0.00787353 
9.24426 0 -9.24426 0.00787353 0.999938 0.00787353 
9.60659 0 -9.00626 0.00787353 0.999938 0.00787353 
10 0 -8.93122 0.00787353 0.999938 0.00787353 
10.3934 0 -9.00626 0.00787353 0.999938 0.00787353 
10.7557 0 -9.24426 0.00787353 0.999938 0.00787353 
10.9937 0 -9.60659 0.00787353 0.999938 0.00787353 
35.3518 -10 -0.00863411 0.00787353 -0.999938 0.00787353 
35.3518 -10 -1.25755 0.00787353 -0.999938 0.00787353 
35.3518 -10 -2.50648 0.00787353 -0.999938 0.00787353 
35.3518 -10 -3.7554 0.00787353 -0.999938 0.00787353 
35.3518 -10 -5.00432 0.00787353 -0.999938 0.00787353 
35.3518 -10 -6.25324 0.00787353 -0.999938 0.00787353 
35.3518 -10 -7.50216 0.00787353 -0.999938 0.00787353 
35.3518 -10 -8.75108 0.00787353 -0.999938 0.00787353 
35.3518 -10 -10 0.00787353 -0.999938 0.00787353 
35.3518 -10 -11.2489 0.00787353 -0.999938 0.00787353 
35.3518 -10 -12.4978 0.00787353 -0.999938 0.00787353 
35.3518 -10 -13.7468 0.00787353 -0.999938 0.00787353 
35.3518 -10 -14.9957 0.00787353 -0.999938 0.00787353 
35.3518 -10 -16.2446 0.00787353 -0.999938 0.00787353 
35.3518 -10 -17.4935 0.00787353 -0.999938 0.00787353 
35.3518 -10 -18.7424 0.00787353 -0.999938 0.00787353 
35.3518 -10 -19.9914 0.00787353 -0.999938 0.00787353 
91.7607 -10 -19.8615 0.00787353 -0.999938 0.00787353 
142.768 -10 -19.8182 0.00787353 -0.999938 0.00787353 
142.768 -10 -0.181777 0.00787353 -0.999938 0.00787353 
91.7607 -10 -0.138492 0.00787353 -0.999938 0.00787353 
142.768 -10 -19.8182 0.00787353 0.00787353 -0.999938 
142.768 -8 -19.8182 0.00787353 0.00787353 -0.999938 
91.7607 -10 -19.8615 0.00787353 0.00787353 -0.999938 
91.7607 -4 -19.8615 0.00787353 0.00787353 -0.999938 
35.3518 -10 -19.9914 0.00787353 0.00787353 -0.999938 
35.3518 0 -19.9914 0.00787353 0.00787353 -0.999938 
35.3518 -5 -19.9914 0.00787353 0.00787353 -0.999938 
49.9605 -1 -19.9508 0.00787353 0.00787353 -0.999938 
64.2315 -2 -19.9156 0.00787353 0.00787353 -0.999938 
78.1649 -3 -19.8859 0.00787353 0.00787353 -0.999938 
117.939 -6 -19.829 0.00787353 0.00787353 -0.999938 
35.3518 -10 -0.00863411 0.00787353 0.00787353 0.999938 
35.3518 0 -0.00863411 0.00787353 0.00787353 0.999938 
91.7607 -10 -0.138492 0.00787353 0.00787353 0.999938 
91.7607 -4 -0.138492 0.00787353 0.00787353 0.999938 
142.768 -10 -0.181777 0.00787353 0.00787353 0.999938 
142.768 -8 -0.181777 0.00787353 0.00787353 0.999938 
35.3518 -5 -0.00863411 0.00787353 0.00787353 0.999938 
117.939 -6 -0.170956 0.00787353 0.00787353 0.999938 
78.1649 -3 -0.114143 0.00787353 0.00787353 0.999938 
64.2315 -2 -0.0843843 0.00787353 0.00787353 0.999938 
49.9605 -1 -0.0492146 0.00787353 0.00787353 0.999938 
142.768 -8 -19.8182 0.0754122 0.997117 0.00837914 
142.768 -8 -10 0.0754122 0.997117 0.00837914 
142.768 -8 -0.181777 0.0754122 0.997117 0.00837914 
35.3518 0 -0.00863411 0.0754122 0.997117 0.00837914 
35.3518 0 -1.25755 0.0754122 0.997117 0.00837914 
35.3518 0 -2.50648 0.0754122 0.997117 0.00837914 
35.3518 0 -3.7554 0.0754122 0.997117 0.00837914 
35.3518 0 -5.00432 0.0754122 0.997117 0.00837914 
35.3518 0 -6.25324 0.0754122 0.997117 0.00837914 
35.3518 0 -7.50216 0.0754122 0.997117 0.00837914 
35.3518 0 -8.75108 0.0754122 0.997117 0.00837914 
35.3518 0 -10 0.0754122 0.997117 0.00837914 
35.3518 0 -11.2489 0.0754122 0.997117 0.00837914 
35.3518 0 -12.4978 0.0754122 0.997117 0.00837914 
35.3518 0 -13.7468 0.0754122 0.997117 0.00837914 
35.3518 0 -14.9957 0.0754122 0.997117 0.00837914 
35.3518 0 -16.2446 0.0754122 0.997117 0.00837914 
35.3518 0 -17.4935 0.0754122 0.997117 0.00837914 
35.3518 0 -18.7424 0.0754122 0.997117 0.00837914 
35.3518 0 -19.9914 0.0754122 0.997117 0.00837914 
49.9605 -1 -19.9508 0.0754122 0.997117 0.00837914 
64.2315 -2 -19.9156 0.0754122 0.997117 0.00837914 
78.1649 -3 -19.8859 0.0754122 0.997117 0.00837914 
91.7607 -4 -19.8615 0.0754122 0.997117 0.00837914 
117.939 -6 -19.829 0.0754122 0.997117 0.00837914 
117.939 -6 -0.170956 0.0754122 0.997117 0.00837914 
91.7607 -4 -0.138492 0.0754122 0.997117 0.00837914 
78.1649 -3 -0.114143 0.0754122 0.997117 0.00837914 
64.2315 -2 -0.0843843 0.0754122 0.997117 0.00837914 
49.9605 -1 -0.0492146 0.0754122 0.997117 0.00837914 
22.857 0 -10 -0.981239 0.00917045 -0.19258 
22.1816 -10 -9.00626 -0.451383 0.0104973 -0.892269 
21.7882 -10 -8.93122 -0.0577527 0.00825039 -0.998297 
21.0324 -10 -10.7557 0.649844 0.0110143 0.759987 
21.3948 -10 -10.9937 0.328119 0.00994299 0.944584 
22.5439 -10 -10.7557 -0.707062 0.0112232 0.707062 
22.7819 -10 -10.3934 -0.944584 0.00994299 0.328119 
22.857 -10 -10 -0.981239 0.00917045 0.19258 
22.1816 -10 -10.9937 -0.328119 0.00994299 0.944584 
21.7882 -10 -11.0688 0.00787353 0.00787353 0.999938 
20.7944 -10 -10.3934 0.892269 0.0104973 0.451383 
20.7194 -10 -10 0.998297 0.00825039 0.0577527 
20.7944 -10 -9.60659 0.944584 0.00994299 -0.328119 
21.0324 -10 -9.24426 0.695931 0.0110465 -0.718024 
21.3948 -10 -9.00626 0.328119 0.00994299 -0.944584 
22.5439 -10 -9.24426 -0.759987 0.0110143 -0.649844 
22.7819 -10 -9.60659 -0.944584 0.00994299 -0.328119 
22.857 -10 -10 -0.981239 0.00917045 -0.19258 
22.7819 0 -9.60659 -0.892269 0.0104973 -0.451383 
22.5439 0 -9.24426 -0.649844 0.0110143 -0.759987 
22.1816 0 -9.00626 -0.328119 0.00994299 -0.944584 
21.7882 0 -8.93122 0.0577527 0.00825039 -0.998297 
21.3948 0 -9.00626 0.451383 0.0104973 -0.892269 
21.0324 0 -9.24426 0.695931 0.0110465 -0.718024 
20.7944 0 -9.60659 0.892269 0.0104973 -0.451383 
20.7194 0 -10 0.998297 0.00825039 -0.0577527 
20.7944 0 -10.3934 0.944584 0.00994299 0.328119 
21.0324 0 -10.7557 0.759987 0.0110143 0.649844 
21.3948 0 -10.9937 0.451383 0.0104973 0.892269 
21.7882 0 -11.0688 0.00787353 0.00787353 0.999938 
22.1816 0 -10.9937 -0.451383 0.0104973 0.892269 
22.5439 0 -10.7557 -0.707062 0.0112232 0.707062 
22.7819 0 -10.3934 -0.892269 0.0104973 0.451383 
22.857 0 -10 -0.981239 0.00917045 0.19258 
11.0688 0 -10 -0.981239 0.00917045 -0.19258 
10 -10 -8.93122 -0.0577527 0.00825039 -0.998297 
9.24426 -10 -10.7557 0.759987 0.0110143 0.649844 
9.60659 -10 -10.9937 0.451383 0.0104973 0.892269 
10.7557 -10 -10.7557 -0.707062 0.0112232 0.707062 
10.9937 -10 -10.3934 -0.944584 0.00994299 0.328119 
11.0688 -10 -10 -0.981239 0.00917045 0.19258 
10.3934 -10 -10.9937 -0.328119 0.00994299 0.944584 
10 -10 -11.0688 0.0577527 0.00825039 0.998297 
9.00626 -10 -10.3934 0.944584 0.00994299 0.328119 
8.93122 -10 -10 0.999938 0.00787353 0.00787353 
9.00626 -10 -9.60659 0.944584 0.00994299 -0.328119 
9.24426 -10 -9.24426 0.707062 0.0112232 -0.707062 
9.60659 -10 -9.00626 0.328119 0.00994299 -0.944584 
10.3934 -10 -9.00626 -0.451383 0.0104973 -0.892269 
10.7557 -10 -9.24426 -0.759987 0.0110143 -0.649844 
10.9937 -10 -9.60659 -0.944584 0.00994299 -0.328119 
11.0688 -10 -10 -0.981239 0.00917045 -0.19258 
10.9937 0 -9.60659 -0.892269 0.0104973 -0.451383 
10.7557 0 -9.24426 -0.649844 0.0110143 -0.759987 
10.3934 0 -9.00626 -0.328119 0.00994299 -0.944584 
10 0 -8.93122 0.0577527 0.00825039 -0.998297 
9.60659 0 -9.00626 0.451383 0.0104973 -0.892269 
9.24426 0 -9.24426 0.707062 0.0112232 -0.707062 
9.00626 0 -9.60659 0.892269 0.0104973 -0.451383 
8.93122 0 -10 0.999938 0.00787353 0.00787353 
9.00626 0 -10.3934 0.892269 0.0104973 0.451383 
9.24426 0 -10.7557 0.649844 0.0110143 0.759987 
9.60659 0 -10.9937 0.328119 0.00994299 0.944584 
10 0 -11.0688 -0.0577527 0.00825039 0.998297 
10.3934 0 -10.9937 -0.451383 0.0104973 0.892269 
10.7557 0 -10.7557 -0.707062 0.0112232 0.707062 
10.9937 0 -10.3934 -0.892269 0.0104973 0.451383 
11.0688 0 -10 -0.981239 0.00917045 0.19258 
3 2 0 1 
3 2 1 3 
3 6 4 5 
3 6 5 7 
3 4 2 3 
3 4 3 5 
3 10 8 9 
3 10 9 11 
3 14 12 13 
3 14 13 15 
3 12 10 11 
3 12 11 13 
3 8 6 7 
3 8 7 9 
3 18 16 17 
3 18 17 19 
3 22 20 21 
3 22 21 23 
3 20 18 19 
3 20 19 21 
3 26 24 25 
3 26 25 27 
3 30 28 29 
3 30 29 31 
3 28 26 27 
3 28 27 29 
3 24 22 23 
3 24 23 25 
3 16 14 15 
3 16 15 17 
3 32 30 31 
3 32 31 33 
3 36 34 35 
3 36 35 37 
3 40 38 39 
3 40 39 41 
3 38 36 37 
3 38 37 39 
3 44 42 43 
3 44 43 45 
3 48 46 47 
3 48 47 49 
3 46 44 45 
3 46 45 47 
3 42 40 41 
3 42 41 43 
3 52 50 51 
3 52 51 53 
3 56 54 55 
3 56 55 57 
3 54 52 53 
3 54 53 55 
3 60 58 59 
3 60 59 61 
3 64 62 63 
3 64 63 65 
3 62 60 61 
3 62 61 63 
3 58 56 57 
3 58 57 59 
3 50 48 49 
3 50 49 51 
3 34 32 33 
3 34 33 35 
3 102 66 67 
3 102 68 101 
3 68 102 67 
3 69 70 101 
3 71 103 70 
3 70 103 101 
3 68 69 101 
3 72 103 71 
3 100 96 99 
3 98 99 97 
3 99 96 97 
3 94 100 103 
3 103 93 94 
3 100 95 96 
3 95 100 94 
3 103 92 93 
3 92 103 72 
3 92 72 73 
3 73 74 90 
3 75 90 74 
3 89 75 76 
3 78 86 77 
3 80 84 79 
3 86 78 79 
3 88 76 77 
3 81 84 80 
3 77 87 88 
3 90 75 89 
3 88 89 76 
3 73 90 91 
3 81 83 84 
3 79 85 86 
3 85 79 84 
3 77 86 87 
3 81 82 83 
3 92 73 91 
3 140 105 104 
3 140 139 106 
3 106 105 140 
3 107 139 108 
3 131 109 139 
3 109 108 139 
3 106 139 107 
3 110 109 131 
3 134 137 135 
3 137 136 135 
3 134 138 137 
3 138 132 131 
3 138 134 133 
3 133 132 138 
3 139 138 131 
3 131 130 110 
3 130 111 110 
3 111 128 112 
3 113 112 127 
3 127 114 113 
3 116 115 125 
3 118 117 123 
3 123 117 116 
3 126 115 114 
3 119 118 121 
3 115 126 125 
3 128 127 112 
3 126 114 127 
3 111 129 128 
3 118 122 121 
3 116 124 123 
3 123 122 118 
3 116 125 124 
3 119 121 120 
3 130 129 111 
3 142 146 145 
3 142 145 141 
3 143 145 146 
3 143 146 144 
3 148 152 151 
3 148 151 147 
3 149 151 152 
3 149 152 150 
3 161 154 153 
3 161 153 160 
3 162 155 154 
3 162 154 161 
3 163 156 155 
3 163 155 162 
3 164 157 156 
3 164 156 163 
3 165 158 157 
3 165 157 164 
3 166 159 158 
3 166 158 165 
3 168 161 160 
3 168 160 167 
3 169 162 161 
3 169 161 168 
3 170 163 162 
3 170 162 169 
3 171 164 163 
3 171 163 170 
3 172 165 164 
3 172 164 171 
3 173 166 165 
3 173 165 172 
3 175 168 167 
3 175 167 174 
3 176 169 168 
3 176 168 175 
3 178 172 171 
3 178 171 177 
3 179 173 172 
3 179 172 178 
3 181 176 175 
3 181 175 180 
3 184 178 177 
3 184 177 183 
3 186 181 180 
3 186 180 185 
3 187 182 181 
3 187 181 186 
3 188 183 182 
3 188 182 187 
3 189 184 183 
3 189 183 188 
3 191 186 185 
3 191 185 190 
3 192 187 186 
3 192 186 191 
3 193 188 187 
3 193 187 192 
3 194 189 188 
3 194 188 193 
3 196 191 190 
3 196 190 195 
3 198 194 193 
3 198 193 197 
3 200 196 195 
3 200 195 199 
3 203 198 197 
3 203 197 202 
3 205 200 199 
3 205 199 204 
3 206 201 200 
3 206 200 205 
3 207 202 201 
3 207 201 206 
3 208 203 202 
3 208 202 207 
3 211 205 204 
3 211 204 210 
3 212 206 205 
3 212 205 211 
3 213 207 206 
3 213 206 212 
3 214 208 207 
3 214 207 213 
3 217 210 209 
3 217 209 216 
3 218 211 210 
3 218 210 217 
3 219 212 211 
3 219 211 218 
3 220 213 212 
3 220 212 219 
3 221 214 213 
3 221 213 220 
3 222 215 214 
3 222 214 221 
3 154 251 153 
3 160 153 251 
3 155 251 154 
3 167 160 242 
3 251 242 160 
3 156 251 155 
3 287 170 286 
3 169 286 170 
3 288 170 287 
3 285 176 284 
3 176 283 284 
3 169 285 286 
3 285 169 176 
3 174 167 242 
3 252 251 156 
3 174 243 244 
3 244 175 174 
3 175 244 180 
3 242 243 174 
3 180 245 246 
3 246 185 180 
3 185 246 190 
3 244 245 180 
3 283 176 282 
3 181 281 282 
3 280 281 182 
3 176 181 282 
3 191 270 271 
3 181 182 281 
3 191 271 192 
3 190 246 247 
3 289 290 170 
3 170 290 171 
3 289 170 288 
3 171 290 291 
3 292 177 291 
3 177 171 291 
3 293 177 292 
3 252 158 159 
3 253 252 159 
3 253 159 166 
3 157 158 252 
3 179 262 173 
3 173 262 253 
3 166 173 253 
3 177 293 294 
3 156 157 252 
3 183 295 182 
3 295 183 294 
3 273 192 272 
3 271 272 192 
3 192 273 193 
3 261 178 260 
3 184 260 178 
3 262 179 261 
3 178 261 179 
3 259 184 189 
3 189 194 259 
3 260 184 259 
3 274 193 273 
3 294 183 177 
3 295 280 182 
3 258 259 194 
3 258 194 198 
3 247 199 195 
3 267 196 200 
3 196 269 191 
3 204 248 249 
3 199 247 204 
3 248 204 247 
3 247 195 190 
3 196 268 269 
3 267 268 196 
3 269 270 191 
3 265 266 200 
3 279 264 201 
3 265 201 264 
3 266 267 200 
3 200 201 265 
3 210 204 249 
3 216 250 240 
3 250 216 209 
3 216 240 241 
3 249 250 209 
3 224 241 223 
3 224 225 216 
3 241 224 216 
3 225 226 216 
3 226 217 216 
3 217 228 218 
3 227 217 226 
3 217 227 228 
3 218 229 230 
3 218 228 229 
3 249 209 210 
3 230 219 218 
3 193 275 197 
3 275 276 197 
3 277 197 276 
3 202 278 279 
3 197 277 202 
3 278 202 277 
3 258 198 203 
3 258 208 257 
3 208 258 203 
3 256 208 214 
3 255 256 215 
3 214 215 256 
3 257 208 256 
3 202 279 201 
3 275 193 274 
3 232 220 219 
3 230 231 219 
3 220 234 221 
3 231 232 219 
3 220 232 233 
3 221 234 235 
3 220 233 234 
3 236 221 235 
3 254 255 222 
3 255 215 222 
3 222 263 254 
3 263 222 238 
3 222 236 237 
3 263 238 239 
3 222 237 238 
3 222 221 236 
3 303 296 298 
3 303 299 297 
3 299 303 298 
3 298 302 299 
3 302 301 299 
3 300 302 298 
3 325 304 306 
3 310 311 309 
3 310 309 308 
3 312 313 311 
3 312 311 310 
3 308 309 307 
3 308 307 306 
3 305 325 307 
3 307 325 306 
3 313 312 314 
3 313 314 315 
3 316 317 315 
3 316 315 314 
3 320 321 319 
3 320 319 318 
3 324 320 322 
3 318 319 317 
3 318 317 316 
3 323 321 324 
3 324 321 320 
3 331 326 328 
3 331 328 330 
3 327 331 330 
3 327 330 329 
3 337 332 334 
3 337 334 336 
3 333 337 336 
3 333 336 335 
3 343 338 340 
3 343 340 342 
3 339 343 342 
3 339 342 341 
3 365 344 346 
3 350 351 349 
3 350 349 348 
3 352 353 351 
3 352 351 350 
3 348 349 347 
3 348 347 346 
3 345 365 347 
3 347 365 346 
3 353 352 354 
3 353 354 355 
3 356 357 355 
3 356 355 354 
3 360 361 359 
3 360 359 358 
3 364 360 362 
3 358 359 357 
3 358 357 356 
3 363 361 364 
3 364 361 360 
3 372 366 368 
3 372 369 367 
3 369 372 368 
3 368 373 369 
3 373 371 369 
3 370 373 368 
3 382 381 374 
3 382 374 375 
3 383 382 375 
3 383 375 376 
3 384 383 376 
3 384 376 377 
3 385 384 377 
3 385 377 378 
3 386 385 378 
3 386 378 379 
3 387 386 379 
3 387 379 380 
3 389 388 381 
3 389 381 382 
3 390 389 382 
3 390 382 383 
3 391 390 383 
3 391 383 384 
3 392 391 384 
3 392 384 385 
3 393 392 385 
3 393 385 386 
3 394 393 386 
3 394 386 387 
3 396 395 388 
3 396 388 389 
3 397 396 389 
3 397 389 390 
3 399 398 392 
3 399 392 393 
3 400 399 393 
3 400 393 394 
3 402 401 396 
3 402 396 397 
3 405 404 398 
3 405 398 399 
3 407 406 401 
3 407 401 402 
3 408 407 402 
3 408 402 403 
3 409 408 403 
3 409 403 404 
3 410 409 404 
3 410 404 405 
3 412 411 406 
3 412 406 407 
3 413 412 407 
3 413 407 408 
3 414 413 408 
3 414 408 409 
3 415 414 409 
3 415 409 410 
3 417 416 411 
3 417 411 412 
3 419 418 414 
3 419 414 415 
3 421 420 416 
3 421 416 417 
3 424 423 418 
3 424 418 419 
3 426 425 420 
3 426 420 421 
3 427 426 421 
3 427 421 422 
3 428 427 422 
3 428 422 423 
3 429 428 423 
3 429 423 424 
3 432 431 425 
3 432 425 426 
3 433 432 426 
3 433 426 427 
3 434 433 427 
3 434 427 428 
3 435 434 428 
3 435 428 429 
3 438 437 430 
3 438 430 431 
3 439 438 431 
3 439 431 432 
3 440 439 432 
3 440 432 433 
3 441 440 433 
3 441 433 434 
3 442 441 434 
3 442 434 435 
3 443 442 435 
3 443 435 436 
3 375 374 473 
3 381 473 374 
3 376 375 473 
3 388 474 381 
3 473 381 474 
3 377 376 473 
3 508 507 391 
3 390 391 507 
3 509 508 391 
3 506 505 397 
3 397 505 504 
3 390 507 506 
3 506 397 390 
3 395 474 388 
3 472 377 473 
3 395 476 475 
3 476 395 396 
3 396 401 476 
3 474 395 475 
3 401 478 477 
3 478 401 406 
3 406 411 478 
3 476 401 477 
3 504 503 397 
3 402 503 502 
3 501 403 502 
3 397 503 402 
3 412 492 491 
3 402 502 403 
3 412 413 492 
3 411 479 478 
3 510 391 511 
3 391 392 511 
3 510 509 391 
3 392 512 511 
3 513 512 398 
3 398 512 392 
3 514 513 398 
3 472 380 379 
3 471 387 380 
3 471 380 472 
3 378 472 379 
3 400 394 470 
3 394 471 470 
3 387 471 394 
3 398 515 514 
3 377 472 378 
3 404 403 516 
3 516 515 404 
3 494 493 413 
3 492 413 493 
3 413 414 494 
3 469 468 399 
3 405 399 468 
3 470 469 400 
3 399 400 469 
3 467 410 405 
3 410 467 415 
3 468 467 405 
3 495 494 414 
3 515 398 404 
3 516 403 501 
3 466 419 415 
3 466 415 467 
3 479 416 420 
3 488 421 417 
3 417 412 490 
3 425 481 480 
3 420 425 479 
3 480 479 425 
3 479 411 416 
3 417 490 489 
3 488 417 489 
3 490 412 491 
3 486 421 487 
3 500 422 485 
3 486 485 422 
3 487 421 488 
3 421 486 422 
3 431 481 425 
3 437 483 482 
3 482 430 437 
3 437 484 483 
3 481 430 482 
3 445 444 484 
3 445 437 446 
3 484 437 445 
3 446 437 447 
3 447 437 438 
3 438 439 449 
3 448 447 438 
3 438 449 448 
3 439 451 450 
3 439 450 449 
3 481 431 430 
3 451 439 440 
3 414 418 496 
3 496 418 497 
3 498 497 418 
3 423 500 499 
3 418 423 498 
3 499 498 423 
3 466 424 419 
3 466 465 429 
3 429 424 466 
3 464 435 429 
3 463 436 464 
3 435 464 436 
3 465 464 429 
3 423 422 500 
3 496 495 414 
3 453 440 441 
3 451 440 452 
3 441 442 455 
3 452 440 453 
3 441 454 453 
3 442 456 455 
3 441 455 454 
3 457 456 442 
3 462 443 463 
3 463 443 436 
3 443 462 461 
3 461 459 443 
3 443 458 457 
3 461 460 459 
3 443 459 458 
3 443 457 442 
3 532 534 531 
3 529 530 534 
3 530 531 534 
3 529 534 528 
3 534 527 528 
3 527 534 526 
3 525 526 534 
3 524 525 537 
3 534 532 533 
3 523 537 522 
3 523 524 537 
3 521 522 537 
3 535 537 534 
3 537 525 534 
3 518 519 537 
3 520 537 519 
3 518 537 517 
3 521 537 520 
3 537 535 536 
3 548 538 540 
3 538 548 539 
3 540 541 548 
3 541 540 547 
3 540 544 546 
3 542 544 540 
3 547 540 546 
3 544 545 546 
3 544 543 545 
3 551 558 555 
3 555 559 550 
3 555 558 559 
3 551 555 549 
3 551 552 557 
3 558 551 557 
3 553 556 551 
3 551 556 552 
3 553 554 556 
3 577 580 578 
3 577 576 580 
3 580 576 575 
3 574 573 580 
3 580 575 574 
3 573 572 580 
3 569 589 570 
3 568 589 569 
3 580 572 571 
3 589 568 567 
3 566 565 589 
3 570 589 571 
3 589 567 566 
3 579 578 580 
3 582 581 588 
3 581 580 589 
3 584 583 586 
3 584 561 560 
3 587 583 582 
3 561 584 585 
3 565 564 589 
3 589 588 581 
3 564 563 589 
3 585 584 586 
3 587 582 588 
3 586 583 587 
3 585 562 561 
3 580 571 589 
3 590 607 606 
3 590 606 608 
3 609 605 591 
3 609 591 610 
3 608 606 605 
3 608 605 609 
3 611 592 604 
3 611 604 612 
3 614 613 603 
3 614 603 602 
3 612 604 603 
3 612 603 613 
3 610 591 592 
3 610 592 611 
3 615 614 602 
3 615 602 601 
3 617 616 600 
3 617 600 593 
3 619 618 594 
3 619 594 599 
3 618 617 593 
3 618 593 594 
3 620 598 595 
3 620 595 621 
3 623 622 596 
3 623 596 597 
3 622 621 595 
3 622 595 596 
3 619 599 598 
3 619 598 620 
3 616 615 601 
3 616 601 600 
3 624 641 640 
3 624 640 642 
3 643 639 638 
3 643 638 644 
3 642 640 639 
3 642 639 643 
3 645 625 637 
3 645 637 646 
3 648 647 636 
3 648 636 635 
3 646 637 636 
3 646 636 647 
3 644 638 625 
3 644 625 645 
3 649 648 635 
3 649 635 634 
3 650 633 626 
3 650 626 651 
3 652 627 632 
3 652 632 653 
3 651 626 627 
3 651 627 652 
3 654 631 628 
3 654 628 655 
3 657 656 629 
3 657 629 630 
3 656 655 628 
3 656 628 629 
3 653 632 631 
3 653 631 654 
3 633 650 649 
3 633 649 634 
