ply
format ascii 1.0
comment Author: CloudCompare (TELECOM PARISTECH/EDF R&D)
comment obj_info Generated by CloudCompare!
element vertex 570
property float x
property float y
property float z
property float nx
property float ny
property float nz
element face 678
property list uchar int vertex_indices
end_header
8.66424 0.25 -6.4002 0.779749 0.0109824 0.625996 
8.66424 0 -6.4002 0.779749 -0.0109824 0.625996 
8.85085 0.225632 -6.63024 0.816618 -0.0108882 0.577076 
8.85097 0 -6.63043 0.849757 -0.0107564 0.527065 
8.98687 0.202196 -6.89493 0.915872 0.0102907 0.401337 
8.98702 0 -6.89532 0.944584 -0.00994299 0.328119 
9.06707 0.180591 -7.18413 0.976797 0.00930283 0.213965 
9.06716 0 -7.18467 0.991266 -0.00877227 0.131584 
9.08833 0.161645 -7.4868 0.999938 0.00787353 0.00787353 
9.08831 0 -7.4874 0.998297 -0.00825039 -0.0577527 
9.04979 0.146091 -7.79128 0.981239 0.00917045 -0.19258 
9.04967 0 -7.79183 0.966032 -0.00956467 -0.258246 
8.95288 0.134528 -8.0859 0.926308 0.0101792 -0.376631 
8.95271 0 -8.0863 0.904534 -0.0103969 -0.426275 
8.8013 0.127405 -8.35927 0.849757 0.0107564 -0.527065 
8.80116 0 -8.35946 0.798637 -0.0109402 -0.601713 
8.60085 0.125 -8.60085 0.739395 -0.0110358 -0.673181 
8.60085 0 -8.60084 0.673181 0.0110358 -0.739395 
8.35927 0.127405 -8.80129 0.577076 0.0108882 -0.816618 
8.35947 0 -8.80116 0.527065 0.0107564 -0.849757 
8.0859 0.134528 -8.95288 0.426275 -0.0103969 -0.904534 
8.0863 0 -8.95271 0.376631 0.0101792 -0.926308 
7.79129 0.146091 -9.04979 0.258246 -0.00956467 -0.966032 
7.79184 0 -9.04967 0.19258 0.00917045 -0.981239 
7.48679 0.161646 -9.08833 0.0577527 -0.00825039 -0.998297 
7.48739 0 -9.08832 -0.00787353 0.00787353 -0.999938 
7.18415 0.18059 -9.06707 -0.131584 -0.00877227 -0.991266 
7.18468 0 -9.06716 -0.213965 0.00930283 -0.976797 
6.89493 0.202196 -8.98687 -0.328119 -0.00994299 -0.944584 
6.89532 0 -8.98702 -0.401337 0.0102907 -0.915872 
6.63024 0.225632 -8.85085 -0.527065 -0.0107564 -0.849757 
6.63044 0 -8.85097 -0.577076 -0.0108882 -0.816618 
6.4002 0.25 -8.66424 -0.625996 -0.0109824 -0.779749 
6.4002 0 -8.66424 -0.625996 0.0109824 -0.779749 
8.66424 0.25 -6.4002 0.0606453 0.996315 -0.0606453 
8.85085 0.225632 -6.63024 0.0606453 0.996315 -0.0606453 
8.98687 0.202196 -6.89493 0.0606453 0.996315 -0.0606453 
9.06707 0.180591 -7.18413 0.0606453 0.996315 -0.0606453 
9.08833 0.161645 -7.4868 0.0606453 0.996315 -0.0606453 
9.04979 0.146091 -7.79128 0.0606453 0.996315 -0.0606453 
8.95288 0.134528 -8.0859 0.0606453 0.996315 -0.0606453 
8.8013 0.127405 -8.35927 0.0606453 0.996315 -0.0606453 
8.60085 0.125 -8.60085 0.0606453 0.996315 -0.0606453 
8.35927 0.127405 -8.80129 0.0606453 0.996315 -0.0606453 
8.0859 0.134528 -8.95288 0.0606453 0.996315 -0.0606453 
7.79129 0.146091 -9.04979 0.0606453 0.996315 -0.0606453 
7.48679 0.161646 -9.08833 0.0606453 0.996315 -0.0606453 
7.18415 0.18059 -9.06707 0.0606453 0.996315 -0.0606453 
6.89493 0.202196 -8.98687 0.0606453 0.996315 -0.0606453 
6.63024 0.225632 -8.85085 0.0606453 0.996315 -0.0606453 
6.4002 0.25 -8.66424 0.0606453 0.996315 -0.0606453 
6.65748 0.25 -8.40696 0.0606453 0.996315 -0.0606453 
6.91476 0.25 -8.14969 0.0606453 0.996315 -0.0606453 
8.14969 0.25 -6.91476 0.0606453 0.996315 -0.0606453 
8.40696 0.25 -6.65748 0.0606453 0.996315 -0.0606453 
7.53222 0.25 -7.53222 0.0606453 0.996315 -0.0606453 
8.66424 0 -6.4002 0.00787353 -0.999938 0.00787353 
8.85097 0 -6.63043 0.00787353 -0.999938 0.00787353 
8.98702 0 -6.89532 0.00787353 -0.999938 0.00787353 
9.06716 0 -7.18467 0.00787353 -0.999938 0.00787353 
9.08831 0 -7.4874 0.00787353 -0.999938 0.00787353 
9.04967 0 -7.79183 0.00787353 -0.999938 0.00787353 
8.95271 0 -8.0863 0.00787353 -0.999938 0.00787353 
8.80116 0 -8.35946 0.00787353 -0.999938 0.00787353 
8.60085 0 -8.60084 0.00787353 -0.999938 0.00787353 
8.35947 0 -8.80116 0.00787353 -0.999938 0.00787353 
8.0863 0 -8.95271 0.00787353 -0.999938 0.00787353 
7.79184 0 -9.04967 0.00787353 -0.999938 0.00787353 
7.48739 0 -9.08832 0.00787353 -0.999938 0.00787353 
7.18468 0 -9.06716 0.00787353 -0.999938 0.00787353 
6.89532 0 -8.98702 0.00787353 -0.999938 0.00787353 
6.63044 0 -8.85097 0.00787353 -0.999938 0.00787353 
6.4002 0 -8.66424 0.00787353 -0.999938 0.00787353 
6.65748 0 -8.40696 0.00787353 -0.999938 0.00787353 
6.91476 0 -8.14969 0.00787353 -0.999938 0.00787353 
8.14969 0 -6.91476 0.00787353 -0.999938 0.00787353 
8.40696 0 -6.65748 0.00787353 -0.999938 0.00787353 
6.91476 0 -8.14969 -0.695931 0.0110465 0.718024 
6.91476 0.25 -8.14969 -0.695931 0.0110465 0.718024 
6.4002 0 -8.66424 -0.718024 0.0110465 0.695931 
6.4002 0.25 -8.66424 -0.718024 0.0110465 0.695931 
6.65748 0 -8.40696 -0.695931 0.0110465 0.718024 
6.65748 0.25 -8.40696 -0.695931 0.0110465 0.718024 
8.66424 0 -6.4002 -0.695931 0.0110465 0.718024 
8.66424 0.25 -6.4002 -0.695931 0.0110465 0.718024 
8.14969 0 -6.91476 -0.718024 0.0110465 0.695931 
8.14969 0.25 -6.91476 -0.718024 0.0110465 0.695931 
8.40696 0 -6.65748 -0.718024 0.0110465 0.695931 
8.40696 0.25 -6.65748 -0.718024 0.0110465 0.695931 
-1.28102 0 0.318807 0.00787353 -0.999938 0.00787353 
-1.12065 0 0.479176 0.00787353 -0.999938 0.00787353 
-0.960284 0 0.639545 0.00787353 -0.999938 0.00787353 
-0.799914 0 0.799914 0.00787353 -0.999938 0.00787353 
-0.639545 0 0.960284 0.00787353 -0.999938 0.00787353 
-0.479176 0 1.12065 0.00787353 -0.999938 0.00787353 
-0.318807 0 1.28102 0.00787353 -0.999938 0.00787353 
-1.11635 0 0.154135 0.00787353 -0.999938 0.00787353 
-0.955981 0 0.314504 0.00787353 -0.999938 0.00787353 
-0.795611 0 0.474873 0.00787353 -0.999938 0.00787353 
-0.635242 0 0.635242 0.00787353 -0.999938 0.00787353 
-0.474873 0 0.795611 0.00787353 -0.999938 0.00787353 
-0.314504 0 0.955981 0.00787353 -0.999938 0.00787353 
-0.154135 0 1.11635 0.00787353 -0.999938 0.00787353 
-0.951678 0 -0.0105375 0.00787353 -0.999938 0.00787353 
-0.791309 0 0.149832 0.00787353 -0.999938 0.00787353 
-0.630939 0 0.310201 0.00787353 -0.999938 0.00787353 
-0.47057 0 0.47057 0.00787353 -0.999938 0.00787353 
-0.310201 0 0.630939 0.00787353 -0.999938 0.00787353 
-0.149832 0 0.791309 0.00787353 -0.999938 0.00787353 
0.0105375 0 0.951678 0.00787353 -0.999938 0.00787353 
-0.787006 0 -0.17521 0.00787353 -0.999938 0.00787353 
-0.626636 0 -0.0148404 0.00787353 -0.999938 0.00787353 
-0.466267 0 0.145529 0.00787353 -0.999938 0.00787353 
-0.145529 0 0.466267 0.00787353 -0.999938 0.00787353 
0.0148404 0 0.626636 0.00787353 -0.999938 0.00787353 
0.17521 0 0.787006 0.00787353 -0.999938 0.00787353 
-0.461964 0 -0.179513 0.00787353 -0.999938 0.00787353 
-0.301595 0 -0.0191433 0.00787353 -0.999938 0.00787353 
-0.141226 0 0.141226 0.00787353 -0.999938 0.00787353 
0.0191433 0 0.301595 0.00787353 -0.999938 0.00787353 
0.179513 0 0.461964 0.00787353 -0.999938 0.00787353 
-0.297292 0 -0.344185 0.00787353 -0.999938 0.00787353 
-0.136923 0 -0.183815 0.00787353 -0.999938 0.00787353 
0.0234462 0 -0.0234462 0.00787353 -0.999938 0.00787353 
0.183815 0 0.136923 0.00787353 -0.999938 0.00787353 
0.344185 0 0.297292 0.00787353 -0.999938 0.00787353 
-0.13262 0 -0.508857 0.00787353 -0.999938 0.00787353 
0.0277491 0 -0.348487 0.00787353 -0.999938 0.00787353 
0.188118 0 -0.188118 0.00787353 -0.999938 0.00787353 
0.348487 0 -0.0277491 0.00787353 -0.999938 0.00787353 
0.508857 0 0.13262 0.00787353 -0.999938 0.00787353 
0.032052 0 -0.673529 0.00787353 -0.999938 0.00787353 
0.192421 0 -0.51316 0.00787353 -0.999938 0.00787353 
0.51316 0 -0.192421 0.00787353 -0.999938 0.00787353 
0.673529 0 -0.032052 0.00787353 -0.999938 0.00787353 
0.196724 0 -0.838201 0.00787353 -0.999938 0.00787353 
0.357093 0 -0.677832 0.00787353 -0.999938 0.00787353 
0.517462 0 -0.517462 0.00787353 -0.999938 0.00787353 
0.677832 0 -0.357093 0.00787353 -0.999938 0.00787353 
0.838201 0 -0.196724 0.00787353 -0.999938 0.00787353 
0.361396 0 -1.00287 0.00787353 -0.999938 0.00787353 
0.521765 0 -0.842504 0.00787353 -0.999938 0.00787353 
0.682135 0 -0.682135 0.00787353 -0.999938 0.00787353 
0.842504 0 -0.521765 0.00787353 -0.999938 0.00787353 
1.00287 0 -0.361396 0.00787353 -0.999938 0.00787353 
0.365699 0 -1.32791 0.00787353 -0.999938 0.00787353 
0.526068 0 -1.16755 0.00787353 -0.999938 0.00787353 
0.686437 0 -1.00718 0.00787353 -0.999938 0.00787353 
0.846807 0 -0.846807 0.00787353 -0.999938 0.00787353 
1.00718 0 -0.686437 0.00787353 -0.999938 0.00787353 
1.16755 0 -0.526068 0.00787353 -0.999938 0.00787353 
1.32791 0 -0.365699 0.00787353 -0.999938 0.00787353 
0.530371 0 -1.49259 0.00787353 -0.999938 0.00787353 
0.69074 0 -1.33222 0.00787353 -0.999938 0.00787353 
0.85111 0 -1.17185 0.00787353 -0.999938 0.00787353 
1.01148 0 -1.01148 0.00787353 -0.999938 0.00787353 
1.17185 0 -0.85111 0.00787353 -0.999938 0.00787353 
1.33222 0 -0.69074 0.00787353 -0.999938 0.00787353 
1.49259 0 -0.530371 0.00787353 -0.999938 0.00787353 
0.526807 0 -1.78352 0.00787353 -0.999938 0.00787353 
0.605352 0 -1.70497 0.00787353 -0.999938 0.00787353 
0.683896 0 -1.62643 0.00787353 -0.999938 0.00787353 
0.762441 0 -1.54789 0.00787353 -0.999938 0.00787353 
0.840985 0 -1.46934 0.00787353 -0.999938 0.00787353 
0.91953 0 -1.3908 0.00787353 -0.999938 0.00787353 
0.998074 0 -1.31225 0.00787353 -0.999938 0.00787353 
1.07662 0 -1.23371 0.00787353 -0.999938 0.00787353 
1.15516 0 -1.15516 0.00787353 -0.999938 0.00787353 
1.23371 0 -1.07662 0.00787353 -0.999938 0.00787353 
1.31225 0 -0.998074 0.00787353 -0.999938 0.00787353 
1.3908 0 -0.91953 0.00787353 -0.999938 0.00787353 
1.46934 0 -0.840985 0.00787353 -0.999938 0.00787353 
1.54789 0 -0.762441 0.00787353 -0.999938 0.00787353 
1.62643 0 -0.683896 0.00787353 -0.999938 0.00787353 
1.70497 0 -0.605352 0.00787353 -0.999938 0.00787353 
1.78352 0 -0.526807 0.00787353 -0.999938 0.00787353 
0.35301 0 -1.61081 0.00787353 -0.999938 0.00787353 
-1.01168 0 -0.246122 0.00787353 -0.999938 0.00787353 
-0.69652 0 -0.302255 0.00787353 -0.999938 0.00787353 
-0.567241 0 -0.344101 0.00787353 -0.999938 0.00787353 
-0.492398 0 -0.38806 0.00787353 -0.999938 0.00787353 
0.0988886 0 -0.979347 0.00787353 -0.999938 0.00787353 
0.206985 0 -1.11103 0.00787353 -0.999938 0.00787353 
0.285371 0 -1.26016 0.00787353 -0.999938 0.00787353 
0.334046 0 -1.42676 0.00787353 -0.999938 0.00787353 
-1.5725 0 0.3147 0.00787353 -0.999938 0.00787353 
-0.3147 0 1.5725 0.00787353 -0.999938 0.00787353 
0.246122 0 1.01168 0.00787353 -0.999938 0.00787353 
1.61081 0 -0.35301 0.00787353 -0.999938 0.00787353 
1.42676 0 -0.334046 0.00787353 -0.999938 0.00787353 
1.26016 0 -0.285371 0.00787353 -0.999938 0.00787353 
1.11103 0 -0.206985 0.00787353 -0.999938 0.00787353 
0.979347 0 -0.0988886 0.00787353 -0.999938 0.00787353 
0.346453 0 0.534005 0.00787353 -0.999938 0.00787353 
0.299732 0 0.611611 0.00787353 -0.999938 0.00787353 
0.265818 0 0.732957 0.00787353 -0.999938 0.00787353 
0.413371 0 -0.413371 0.00787353 -0.999938 0.00787353 
0.384174 0 -0.433658 0.00787353 -0.999938 0.00787353 
0.347258 0 -0.442315 0.00787353 -0.999938 0.00787353 
0.31078 0 -0.435772 0.00787353 -0.999938 0.00787353 
0.282704 0 -0.417135 0.00787353 -0.999938 0.00787353 
0.264068 0 -0.38906 0.00787353 -0.999938 0.00787353 
0.257524 0 -0.352581 0.00787353 -0.999938 0.00787353 
0.266182 0 -0.315665 0.00787353 -0.999938 0.00787353 
0.286468 0 -0.286468 0.00787353 -0.999938 0.00787353 
0.315665 0 -0.266182 0.00787353 -0.999938 0.00787353 
0.352581 0 -0.257524 0.00787353 -0.999938 0.00787353 
0.38906 0 -0.264068 0.00787353 -0.999938 0.00787353 
0.417135 0 -0.282704 0.00787353 -0.999938 0.00787353 
0.435772 0 -0.31078 0.00787353 -0.999938 0.00787353 
0.442315 0 -0.347258 0.00787353 -0.999938 0.00787353 
0.433658 0 -0.384174 0.00787353 -0.999938 0.00787353 
-0.286468 0 0.286468 0.00787353 -0.999938 0.00787353 
-0.315665 0 0.266182 0.00787353 -0.999938 0.00787353 
-0.352581 0 0.257524 0.00787353 -0.999938 0.00787353 
-0.38906 0 0.264068 0.00787353 -0.999938 0.00787353 
-0.417135 0 0.282704 0.00787353 -0.999938 0.00787353 
-0.435772 0 0.31078 0.00787353 -0.999938 0.00787353 
-0.442315 0 0.347258 0.00787353 -0.999938 0.00787353 
-0.433658 0 0.384174 0.00787353 -0.999938 0.00787353 
-0.413371 0 0.413371 0.00787353 -0.999938 0.00787353 
-0.384174 0 0.433658 0.00787353 -0.999938 0.00787353 
-0.347258 0 0.442315 0.00787353 -0.999938 0.00787353 
-0.31078 0 0.435772 0.00787353 -0.999938 0.00787353 
-0.282704 0 0.417135 0.00787353 -0.999938 0.00787353 
-0.264068 0 0.38906 0.00787353 -0.999938 0.00787353 
-0.257524 0 0.352581 0.00787353 -0.999938 0.00787353 
-0.266182 0 0.315665 0.00787353 -0.999938 0.00787353 
1.61081 0 -0.35301 0.718024 0.0110465 0.695931 
1.61081 1.25 -0.35301 0.718024 0.0110465 0.695931 
1.78352 0 -0.526807 0.718024 0.0110465 0.695931 
1.78352 1.25 -0.526807 0.718024 0.0110465 0.695931 
1.78352 0.625 -0.526807 0.718024 0.0110465 0.695931 
1.61081 0.625 -0.35301 0.718024 0.0110465 0.695931 
0.246122 0 1.01168 0.997117 0.00837914 0.0754122 
0.246122 1.25 1.01168 0.997117 0.00837914 0.0754122 
0.265818 0 0.732957 0.993634 0.0086403 0.112324 
0.265818 1.25 0.732957 0.988435 0.00890482 0.151382 
0.299732 0 0.611611 0.944584 0.00994299 0.328119 
0.299732 1.25 0.611611 0.904534 0.0103969 0.426275 
0.346453 0 0.534005 0.739395 0.0110358 0.673181 
0.346453 1.25 0.534005 0.718024 0.0110465 0.695931 
0.979347 0 -0.0988886 0.695931 0.0110465 0.718024 
0.979347 1.25 -0.0988886 0.695931 0.0110465 0.718024 
1.11103 0 -0.206985 0.577076 0.0108882 0.816618 
1.11103 1.25 -0.206985 0.527065 0.0107564 0.849757 
1.26016 0 -0.285371 0.401337 0.0102907 0.915872 
1.26016 1.25 -0.285371 0.352208 0.0100631 0.935868 
1.42676 0 -0.334046 0.19258 0.00917045 0.981239 
1.42676 1.25 -0.334046 0.171716 0.00903766 0.985105 
1.61081 0 -0.35301 0.0936009 0.00850917 0.995573 
1.61081 1.25 -0.35301 0.0936009 0.00850917 0.995573 
1.61081 0.625 -0.35301 0.0936009 0.00850917 0.995573 
0.246122 0.625 1.01168 0.997117 0.00837914 0.0754122 
-0.3147 0 1.5725 0.695931 0.0110465 0.718024 
-0.3147 1.25 1.5725 0.695931 0.0110465 0.718024 
0.246122 0 1.01168 0.695931 0.0110465 0.718024 
0.246122 1.25 1.01168 0.695931 0.0110465 0.718024 
0.246122 0.625 1.01168 0.695931 0.0110465 0.718024 
-0.3147 0.625 1.5725 0.695931 0.0110465 0.718024 
-1.5725 0 0.3147 -0.707062 0.0112232 0.707062 
-1.5725 1.25 0.3147 -0.707062 0.0112232 0.707062 
-0.3147 0 1.5725 -0.707062 0.0112232 0.707062 
-0.3147 1.25 1.5725 -0.707062 0.0112232 0.707062 
-0.3147 0.625 1.5725 -0.707062 0.0112232 0.707062 
-1.5725 0.625 0.3147 -0.707062 0.0112232 0.707062 
-1.01168 0 -0.246122 -0.718024 0.0110465 -0.695931 
-1.01168 1.25 -0.246122 -0.718024 0.0110465 -0.695931 
-1.5725 0 0.3147 -0.718024 0.0110465 -0.695931 
-1.5725 1.25 0.3147 -0.718024 0.0110465 -0.695931 
-1.5725 0.625 0.3147 -0.718024 0.0110465 -0.695931 
-1.01168 0.625 -0.246122 -0.718024 0.0110465 -0.695931 
0.35301 0 -1.61081 -0.995573 0.00850917 -0.0936009 
0.35301 1.25 -1.61081 -0.995573 0.00850917 -0.0936009 
0.334046 0 -1.42676 -0.985105 0.00903766 -0.171716 
0.334046 1.25 -1.42676 -0.981239 0.00917045 -0.19258 
0.285371 0 -1.26016 -0.935868 0.0100631 -0.352208 
0.285371 1.25 -1.26016 -0.915872 0.0102907 -0.401337 
0.206985 0 -1.11103 -0.849757 0.0107564 -0.527065 
0.206985 1.25 -1.11103 -0.816618 0.0108882 -0.577076 
0.0988886 0 -0.979347 -0.718024 0.0110465 -0.695931 
0.0988886 1.25 -0.979347 -0.718024 0.0110465 -0.695931 
-0.492398 0 -0.38806 -0.695931 0.0110465 -0.718024 
-0.492398 1.25 -0.38806 -0.673181 0.0110358 -0.739395 
-0.567241 0 -0.344101 -0.426275 0.0103969 -0.904534 
-0.567241 1.25 -0.344101 -0.352208 0.0100631 -0.935868 
-0.69652 0 -0.302255 -0.213965 0.00930283 -0.976797 
-0.69652 1.25 -0.302255 -0.213965 0.00930283 -0.976797 
-1.01168 0 -0.246122 -0.171716 0.00903766 -0.985105 
-1.01168 1.25 -0.246122 -0.171716 0.00903766 -0.985105 
-1.01168 0.625 -0.246122 -0.171716 0.00903766 -0.985105 
0.35301 0.625 -1.61081 -0.995573 0.00850917 -0.0936009 
0.526807 0 -1.78352 -0.695931 0.0110465 -0.718024 
0.526807 1.25 -1.78352 -0.695931 0.0110465 -0.718024 
0.35301 0 -1.61081 -0.695931 0.0110465 -0.718024 
0.35301 1.25 -1.61081 -0.695931 0.0110465 -0.718024 
0.526807 0.625 -1.78352 -0.695931 0.0110465 -0.718024 
0.35301 0.625 -1.61081 -0.695931 0.0110465 -0.718024 
-1.28102 1.25 0.318807 0.00787353 0.999938 0.00787353 
-1.12065 1.25 0.479176 0.00787353 0.999938 0.00787353 
-0.960284 1.25 0.639545 0.00787353 0.999938 0.00787353 
-0.799914 1.25 0.799914 0.00787353 0.999938 0.00787353 
-0.639545 1.25 0.960284 0.00787353 0.999938 0.00787353 
-0.479176 1.25 1.12065 0.00787353 0.999938 0.00787353 
-0.318807 1.25 1.28102 0.00787353 0.999938 0.00787353 
-1.11635 1.25 0.154135 0.00787353 0.999938 0.00787353 
-0.955981 1.25 0.314504 0.00787353 0.999938 0.00787353 
-0.795611 1.25 0.474873 0.00787353 0.999938 0.00787353 
-0.635242 1.25 0.635242 0.00787353 0.999938 0.00787353 
-0.474873 1.25 0.795611 0.00787353 0.999938 0.00787353 
-0.314504 1.25 0.955981 0.00787353 0.999938 0.00787353 
-0.154135 1.25 1.11635 0.00787353 0.999938 0.00787353 
-0.951678 1.25 -0.0105375 0.00787353 0.999938 0.00787353 
-0.791309 1.25 0.149832 0.00787353 0.999938 0.00787353 
-0.630939 1.25 0.310201 0.00787353 0.999938 0.00787353 
-0.47057 1.25 0.47057 0.00787353 0.999938 0.00787353 
-0.310201 1.25 0.630939 0.00787353 0.999938 0.00787353 
-0.149832 1.25 0.791309 0.00787353 0.999938 0.00787353 
0.0105375 1.25 0.951678 0.00787353 0.999938 0.00787353 
-0.787006 1.25 -0.17521 0.00787353 0.999938 0.00787353 
-0.626636 1.25 -0.0148404 0.00787353 0.999938 0.00787353 
-0.466267 1.25 0.145529 0.00787353 0.999938 0.00787353 
-0.145529 1.25 0.466267 0.00787353 0.999938 0.00787353 
0.0148404 1.25 0.626636 0.00787353 0.999938 0.00787353 
0.17521 1.25 0.787006 0.00787353 0.999938 0.00787353 
-0.461964 1.25 -0.179513 0.00787353 0.999938 0.00787353 
-0.301595 1.25 -0.0191433 0.00787353 0.999938 0.00787353 
-0.141226 1.25 0.141226 0.00787353 0.999938 0.00787353 
0.0191433 1.25 0.301595 0.00787353 0.999938 0.00787353 
0.179513 1.25 0.461964 0.00787353 0.999938 0.00787353 
-0.297292 1.25 -0.344185 0.00787353 0.999938 0.00787353 
-0.136923 1.25 -0.183815 0.00787353 0.999938 0.00787353 
0.0234462 1.25 -0.0234462 0.00787353 0.999938 0.00787353 
0.183815 1.25 0.136923 0.00787353 0.999938 0.00787353 
0.344185 1.25 0.297292 0.00787353 0.999938 0.00787353 
-0.13262 1.25 -0.508857 0.00787353 0.999938 0.00787353 
0.0277491 1.25 -0.348487 0.00787353 0.999938 0.00787353 
0.188118 1.25 -0.188118 0.00787353 0.999938 0.00787353 
0.348487 1.25 -0.0277491 0.00787353 0.999938 0.00787353 
0.508857 1.25 0.13262 0.00787353 0.999938 0.00787353 
0.032052 1.25 -0.673529 0.00787353 0.999938 0.00787353 
0.192421 1.25 -0.51316 0.00787353 0.999938 0.00787353 
0.51316 1.25 -0.192421 0.00787353 0.999938 0.00787353 
0.673529 1.25 -0.032052 0.00787353 0.999938 0.00787353 
0.196724 1.25 -0.838201 0.00787353 0.999938 0.00787353 
0.357093 1.25 -0.677832 0.00787353 0.999938 0.00787353 
0.517462 1.25 -0.517462 0.00787353 0.999938 0.00787353 
0.677832 1.25 -0.357093 0.00787353 0.999938 0.00787353 
0.838201 1.25 -0.196724 0.00787353 0.999938 0.00787353 
0.361396 1.25 -1.00287 0.00787353 0.999938 0.00787353 
0.521765 1.25 -0.842504 0.00787353 0.999938 0.00787353 
0.682135 1.25 -0.682135 0.00787353 0.999938 0.00787353 
0.842504 1.25 -0.521765 0.00787353 0.999938 0.00787353 
1.00287 1.25 -0.361396 0.00787353 0.999938 0.00787353 
0.365699 1.25 -1.32791 0.00787353 0.999938 0.00787353 
0.526068 1.25 -1.16755 0.00787353 0.999938 0.00787353 
0.686437 1.25 -1.00718 0.00787353 0.999938 0.00787353 
0.846807 1.25 -0.846807 0.00787353 0.999938 0.00787353 
1.00718 1.25 -0.686437 0.00787353 0.999938 0.00787353 
1.16755 1.25 -0.526068 0.00787353 0.999938 0.00787353 
1.32791 1.25 -0.365699 0.00787353 0.999938 0.00787353 
0.530371 1.25 -1.49259 0.00787353 0.999938 0.00787353 
0.69074 1.25 -1.33222 0.00787353 0.999938 0.00787353 
0.85111 1.25 -1.17185 0.00787353 0.999938 0.00787353 
1.01148 1.25 -1.01148 0.00787353 0.999938 0.00787353 
1.17185 1.25 -0.85111 0.00787353 0.999938 0.00787353 
1.33222 1.25 -0.69074 0.00787353 0.999938 0.00787353 
1.49259 1.25 -0.530371 0.00787353 0.999938 0.00787353 
0.526807 1.25 -1.78352 0.00787353 0.999938 0.00787353 
0.605352 1.25 -1.70497 0.00787353 0.999938 0.00787353 
0.683896 1.25 -1.62643 0.00787353 0.999938 0.00787353 
0.762441 1.25 -1.54789 0.00787353 0.999938 0.00787353 
0.840985 1.25 -1.46934 0.00787353 0.999938 0.00787353 
0.91953 1.25 -1.3908 0.00787353 0.999938 0.00787353 
0.998074 1.25 -1.31225 0.00787353 0.999938 0.00787353 
1.07662 1.25 -1.23371 0.00787353 0.999938 0.00787353 
1.15516 1.25 -1.15516 0.00787353 0.999938 0.00787353 
1.23371 1.25 -1.07662 0.00787353 0.999938 0.00787353 
1.31225 1.25 -0.998074 0.00787353 0.999938 0.00787353 
1.3908 1.25 -0.91953 0.00787353 0.999938 0.00787353 
1.46934 1.25 -0.840985 0.00787353 0.999938 0.00787353 
1.54789 1.25 -0.762441 0.00787353 0.999938 0.00787353 
1.62643 1.25 -0.683896 0.00787353 0.999938 0.00787353 
1.70497 1.25 -0.605352 0.00787353 0.999938 0.00787353 
1.78352 1.25 -0.526807 0.00787353 0.999938 0.00787353 
1.61081 1.25 -0.35301 0.00787353 0.999938 0.00787353 
1.42676 1.25 -0.334046 0.00787353 0.999938 0.00787353 
1.26016 1.25 -0.285371 0.00787353 0.999938 0.00787353 
1.11103 1.25 -0.206985 0.00787353 0.999938 0.00787353 
0.979347 1.25 -0.0988886 0.00787353 0.999938 0.00787353 
0.346453 1.25 0.534005 0.00787353 0.999938 0.00787353 
0.299732 1.25 0.611611 0.00787353 0.999938 0.00787353 
0.265818 1.25 0.732957 0.00787353 0.999938 0.00787353 
0.246122 1.25 1.01168 0.00787353 0.999938 0.00787353 
-0.3147 1.25 1.5725 0.00787353 0.999938 0.00787353 
-1.5725 1.25 0.3147 0.00787353 0.999938 0.00787353 
-1.01168 1.25 -0.246122 0.00787353 0.999938 0.00787353 
-0.69652 1.25 -0.302255 0.00787353 0.999938 0.00787353 
-0.567241 1.25 -0.344101 0.00787353 0.999938 0.00787353 
-0.492398 1.25 -0.38806 0.00787353 0.999938 0.00787353 
0.0988886 1.25 -0.979347 0.00787353 0.999938 0.00787353 
0.206985 1.25 -1.11103 0.00787353 0.999938 0.00787353 
0.285371 1.25 -1.26016 0.00787353 0.999938 0.00787353 
0.334046 1.25 -1.42676 0.00787353 0.999938 0.00787353 
0.35301 1.25 -1.61081 0.00787353 0.999938 0.00787353 
0.413371 1.25 -0.413371 0.00787353 0.999938 0.00787353 
0.384174 1.25 -0.433658 0.00787353 0.999938 0.00787353 
0.347258 1.25 -0.442315 0.00787353 0.999938 0.00787353 
0.31078 1.25 -0.435772 0.00787353 0.999938 0.00787353 
0.282704 1.25 -0.417135 0.00787353 0.999938 0.00787353 
0.264068 1.25 -0.38906 0.00787353 0.999938 0.00787353 
0.257524 1.25 -0.352581 0.00787353 0.999938 0.00787353 
0.266182 1.25 -0.315665 0.00787353 0.999938 0.00787353 
0.286468 1.25 -0.286468 0.00787353 0.999938 0.00787353 
0.315665 1.25 -0.266182 0.00787353 0.999938 0.00787353 
0.352581 1.25 -0.257524 0.00787353 0.999938 0.00787353 
0.38906 1.25 -0.264068 0.00787353 0.999938 0.00787353 
0.417135 1.25 -0.282704 0.00787353 0.999938 0.00787353 
0.435772 1.25 -0.31078 0.00787353 0.999938 0.00787353 
0.442315 1.25 -0.347258 0.00787353 0.999938 0.00787353 
0.433658 1.25 -0.384174 0.00787353 0.999938 0.00787353 
-0.286468 1.25 0.286468 0.00787353 0.999938 0.00787353 
-0.315665 1.25 0.266182 0.00787353 0.999938 0.00787353 
-0.352581 1.25 0.257524 0.00787353 0.999938 0.00787353 
-0.38906 1.25 0.264068 0.00787353 0.999938 0.00787353 
-0.417135 1.25 0.282704 0.00787353 0.999938 0.00787353 
-0.435772 1.25 0.31078 0.00787353 0.999938 0.00787353 
-0.442315 1.25 0.347258 0.00787353 0.999938 0.00787353 
-0.433658 1.25 0.384174 0.00787353 0.999938 0.00787353 
-0.413371 1.25 0.413371 0.00787353 0.999938 0.00787353 
-0.384174 1.25 0.433658 0.00787353 0.999938 0.00787353 
-0.347258 1.25 0.442315 0.00787353 0.999938 0.00787353 
-0.31078 1.25 0.435772 0.00787353 0.999938 0.00787353 
-0.282704 1.25 0.417135 0.00787353 0.999938 0.00787353 
-0.264068 1.25 0.38906 0.00787353 0.999938 0.00787353 
-0.257524 1.25 0.352581 0.00787353 0.999938 0.00787353 
-0.266182 1.25 0.315665 0.00787353 0.999938 0.00787353 
1.78352 0 -0.526807 0.00787353 -0.999938 0.00787353 
1.70497 0 -0.605352 0.00787353 -0.999938 0.00787353 
1.62643 0 -0.683896 0.00787353 -0.999938 0.00787353 
1.54789 0 -0.762441 0.00787353 -0.999938 0.00787353 
1.46934 0 -0.840985 0.00787353 -0.999938 0.00787353 
1.3908 0 -0.91953 0.00787353 -0.999938 0.00787353 
1.31225 0 -0.998074 0.00787353 -0.999938 0.00787353 
1.23371 0 -1.07662 0.00787353 -0.999938 0.00787353 
1.15516 0 -1.15516 0.00787353 -0.999938 0.00787353 
1.07662 0 -1.23371 0.00787353 -0.999938 0.00787353 
0.998074 0 -1.31225 0.00787353 -0.999938 0.00787353 
0.91953 0 -1.3908 0.00787353 -0.999938 0.00787353 
0.840985 0 -1.46934 0.00787353 -0.999938 0.00787353 
0.762441 0 -1.54789 0.00787353 -0.999938 0.00787353 
0.683896 0 -1.62643 0.00787353 -0.999938 0.00787353 
0.605352 0 -1.70497 0.00787353 -0.999938 0.00787353 
0.526807 0 -1.78352 0.00787353 -0.999938 0.00787353 
3.88386 0 -5.12423 0.00787353 -0.999938 0.00787353 
6.91476 0 -8.14969 0.00787353 -0.999938 0.00787353 
8.14969 0 -6.91476 0.00787353 -0.999938 0.00787353 
5.12423 0 -3.88386 0.00787353 -0.999938 0.00787353 
6.91476 0 -8.14969 -0.707062 0.0112232 -0.707062 
6.91476 0.25 -8.14969 -0.695931 0.0110465 -0.718024 
3.88386 0 -5.12423 -0.695931 0.0110465 -0.718024 
3.88386 0.75 -5.12423 -0.695931 0.0110465 -0.718024 
0.526807 0 -1.78352 -0.695931 0.0110465 -0.718024 
0.526807 1.25 -1.78352 -0.695931 0.0110465 -0.718024 
0.526807 0.625 -1.78352 -0.695931 0.0110465 -0.718024 
2.2461 1 -3.49328 -0.695931 0.0110465 -0.718024 
5.44007 0.5 -6.67637 -0.695931 0.0110465 -0.718024 
1.78352 0 -0.526807 0.718024 0.0110465 0.695931 
1.78352 1.25 -0.526807 0.718024 0.0110465 0.695931 
5.12423 0 -3.88386 0.718024 0.0110465 0.695931 
5.12423 0.75 -3.88386 0.718024 0.0110465 0.695931 
8.14969 0 -6.91476 0.707062 0.0112232 0.707062 
8.14969 0.25 -6.91476 0.718024 0.0110465 0.695931 
1.78352 0.625 -0.526807 0.718024 0.0110465 0.695931 
6.67637 0.5 -5.44007 0.718024 0.0110465 0.695931 
3.49328 1 -2.2461 0.718024 0.0110465 0.695931 
6.91476 0.25 -8.14969 0.0820116 0.993251 -0.0820116 
7.53222 0.25 -7.53222 0.0820116 0.993251 -0.0820116 
8.14969 0.25 -6.91476 0.0820116 0.993251 -0.0820116 
1.78352 1.25 -0.526807 0.0805532 0.99349 -0.0805532 
1.70497 1.25 -0.605352 0.0805532 0.99349 -0.0805532 
1.62643 1.25 -0.683896 0.0805532 0.99349 -0.0805532 
1.54789 1.25 -0.762441 0.0805532 0.99349 -0.0805532 
1.46934 1.25 -0.840985 0.0805532 0.99349 -0.0805532 
1.3908 1.25 -0.91953 0.0805532 0.99349 -0.0805532 
1.31225 1.25 -0.998074 0.062733 0.994766 -0.0806567 
1.23371 1.25 -1.07662 0.0805532 0.99349 -0.0805532 
1.15516 1.25 -1.15516 0.0805532 0.99349 -0.0805532 
1.07662 1.25 -1.23371 0.0805532 0.99349 -0.0805532 
0.998074 1.25 -1.31225 0.0806567 0.994766 -0.062733 
0.91953 1.25 -1.3908 0.0805532 0.99349 -0.0805532 
0.840985 1.25 -1.46934 0.0805532 0.99349 -0.0805532 
0.762441 1.25 -1.54789 0.0805532 0.99349 -0.0805532 
0.683896 1.25 -1.62643 0.0805532 0.99349 -0.0805532 
0.605352 1.25 -1.70497 0.0805532 0.99349 -0.0805532 
0.526807 1.25 -1.78352 0.0805532 0.99349 -0.0805532 
2.2461 1 -3.49328 0.0806567 0.994766 -0.062733 
3.88386 0.75 -5.12423 0.0805532 0.99349 -0.0805532 
5.44007 0.5 -6.67637 0.0820116 0.993251 -0.0820116 
6.67637 0.5 -5.44007 0.0820116 0.993251 -0.0820116 
5.12423 0.75 -3.88386 0.0805532 0.99349 -0.0805532 
3.49328 1 -2.2461 0.062733 0.994766 -0.0806567 
0.413371 1.25 -0.413371 -0.816618 0.0108882 0.577076 
0.417135 0 -0.282704 -0.695931 0.0110465 -0.718024 
0.266182 0 -0.315665 0.935868 0.0100631 -0.352208 
0.257524 0 -0.352581 0.99968 0.00799744 -0.0239923 
0.347258 0 -0.442315 -0.0239923 0.00799744 0.99968 
0.384174 0 -0.433658 -0.451383 0.0104973 0.892269 
0.413371 0 -0.413371 -0.577076 0.0108882 0.816618 
0.31078 0 -0.435772 0.426275 0.0103969 0.904534 
0.282704 0 -0.417135 0.759987 0.0110143 0.649844 
0.264068 0 -0.38906 0.952492 0.00981951 0.304405 
0.286468 0 -0.286468 0.739395 0.0110358 -0.673181 
0.315665 0 -0.266182 0.401337 0.0102907 -0.915872 
0.352581 0 -0.257524 -0.0406155 0.0081231 -0.999142 
0.38906 0 -0.264068 -0.426275 0.0103969 -0.904534 
0.435772 0 -0.31078 -0.904534 0.0103969 -0.426275 
0.442315 0 -0.347258 -0.99968 0.00799744 0.0239923 
0.433658 0 -0.384174 -0.892269 0.0104973 0.451383 
0.413371 0 -0.413371 -0.816618 0.0108882 0.577076 
0.433658 1.25 -0.384174 -0.935868 0.0100631 0.352208 
0.442315 1.25 -0.347258 -0.99968 0.00799744 0.0239923 
0.435772 1.25 -0.31078 -0.952492 0.00981951 -0.304405 
0.417135 1.25 -0.282704 -0.695931 0.0110465 -0.718024 
0.38906 1.25 -0.264068 -0.304405 0.00981951 -0.952492 
0.352581 1.25 -0.257524 0.0936009 0.00850917 -0.995573 
0.315665 1.25 -0.266182 0.401337 0.0102907 -0.915872 
0.286468 1.25 -0.286468 0.673181 0.0110358 -0.739395 
0.266182 1.25 -0.315665 0.892269 0.0104973 -0.451383 
0.257524 1.25 -0.352581 0.99968 0.00799744 -0.0239923 
0.264068 1.25 -0.38906 0.904534 0.0103969 0.426275 
0.282704 1.25 -0.417135 0.649844 0.0110143 0.759987 
0.31078 1.25 -0.435772 0.304405 0.00981951 0.952492 
0.347258 1.25 -0.442315 -0.0239923 0.00799744 0.99968 
0.384174 1.25 -0.433658 -0.352208 0.0100631 0.935868 
0.413371 1.25 -0.413371 -0.577076 0.0108882 0.816618 
-0.286468 1.25 0.286468 -0.816618 0.0108882 0.577076 
-0.264068 0 0.38906 -0.952492 0.00981951 -0.304405 
-0.282704 0 0.417135 -0.759987 0.0110143 -0.649844 
-0.433658 0 0.384174 0.935868 0.0100631 -0.352208 
-0.442315 0 0.347258 0.99968 0.00799744 -0.0239923 
-0.38906 0 0.264068 0.426275 0.0103969 0.904534 
-0.352581 0 0.257524 -0.0239923 0.00799744 0.99968 
-0.286468 0 0.286468 -0.577076 0.0108882 0.816618 
-0.315665 0 0.266182 -0.451383 0.0104973 0.892269 
-0.417135 0 0.282704 0.759987 0.0110143 0.649844 
-0.435772 0 0.31078 0.952492 0.00981951 0.304405 
-0.413371 0 0.413371 0.739395 0.0110358 -0.673181 
-0.384174 0 0.433658 0.451383 0.0104973 -0.892269 
-0.347258 0 0.442315 0.0239923 0.00799744 -0.99968 
-0.31078 0 0.435772 -0.426275 0.0103969 -0.904534 
-0.257524 0 0.352581 -0.995573 0.00850917 0.0936009 
-0.266182 0 0.315665 -0.892269 0.0104973 0.451383 
-0.286468 0 0.286468 -0.816618 0.0108882 0.577076 
-0.266182 1.25 0.315665 -0.935868 0.0100631 0.352208 
-0.257524 1.25 0.352581 -0.999142 0.0081231 -0.0406155 
-0.264068 1.25 0.38906 -0.904534 0.0103969 -0.426275 
-0.282704 1.25 0.417135 -0.649844 0.0110143 -0.759987 
-0.31078 1.25 0.435772 -0.304405 0.00981951 -0.952492 
-0.347258 1.25 0.442315 0.0239923 0.00799744 -0.99968 
-0.384174 1.25 0.433658 0.352208 0.0100631 -0.935868 
-0.413371 1.25 0.413371 0.673181 0.0110358 -0.739395 
-0.433658 1.25 0.384174 0.892269 0.0104973 -0.451383 
-0.442315 1.25 0.347258 0.99968 0.00799744 -0.0239923 
-0.435772 1.25 0.31078 0.904534 0.0103969 0.426275 
-0.417135 1.25 0.282704 0.649844 0.0110143 0.759987 
-0.38906 1.25 0.264068 0.304405 0.00981951 0.952492 
-0.352581 1.25 0.257524 -0.0239923 0.00799744 0.99968 
-0.315665 1.25 0.266182 -0.352208 0.0100631 0.935868 
-0.286468 1.25 0.286468 -0.577076 0.0108882 0.816618 
3 2 0 1 
3 2 1 3 
3 6 4 5 
3 6 5 7 
3 4 2 3 
3 4 3 5 
3 10 8 9 
3 10 9 11 
3 14 12 13 
3 14 13 15 
3 12 10 11 
3 12 11 13 
3 8 6 7 
3 8 7 9 
3 16 14 15 
3 16 15 17 
3 20 18 19 
3 20 19 21 
3 24 22 23 
3 24 23 25 
3 22 20 21 
3 22 21 23 
3 28 26 27 
3 28 27 29 
3 32 30 31 
3 32 31 33 
3 30 28 29 
3 30 29 31 
3 26 24 25 
3 26 25 27 
3 18 16 17 
3 18 17 19 
3 35 54 34 
3 36 53 35 
3 54 35 53 
3 55 53 36 
3 48 52 55 
3 49 51 52 
3 50 51 49 
3 48 49 52 
3 47 48 55 
3 37 55 36 
3 38 47 37 
3 40 45 39 
3 46 38 39 
3 43 40 41 
3 46 39 45 
3 38 46 47 
3 44 40 43 
3 40 44 45 
3 43 41 42 
3 55 37 47 
3 57 56 76 
3 58 57 75 
3 76 75 57 
3 75 74 59 
3 71 74 73 
3 72 71 73 
3 70 74 71 
3 69 74 70 
3 59 58 75 
3 60 59 68 
3 62 61 67 
3 68 61 60 
3 66 63 62 
3 68 67 61 
3 59 69 68 
3 66 65 63 
3 62 67 66 
3 65 64 63 
3 74 69 59 
3 78 82 81 
3 78 81 77 
3 79 81 82 
3 79 82 80 
3 84 88 87 
3 84 87 83 
3 85 87 88 
3 85 88 86 
3 97 90 89 
3 97 89 96 
3 98 91 90 
3 98 90 97 
3 99 92 91 
3 99 91 98 
3 100 93 92 
3 100 92 99 
3 101 94 93 
3 101 93 100 
3 102 95 94 
3 102 94 101 
3 104 97 96 
3 104 96 103 
3 105 98 97 
3 105 97 104 
3 106 99 98 
3 106 98 105 
3 107 100 99 
3 107 99 106 
3 108 101 100 
3 108 100 107 
3 109 102 101 
3 109 101 108 
3 111 104 103 
3 111 103 110 
3 112 105 104 
3 112 104 111 
3 114 108 107 
3 114 107 113 
3 115 109 108 
3 115 108 114 
3 117 112 111 
3 117 111 116 
3 120 114 113 
3 120 113 119 
3 122 117 116 
3 122 116 121 
3 123 118 117 
3 123 117 122 
3 124 119 118 
3 124 118 123 
3 125 120 119 
3 125 119 124 
3 127 122 121 
3 127 121 126 
3 128 123 122 
3 128 122 127 
3 129 124 123 
3 129 123 128 
3 130 125 124 
3 130 124 129 
3 132 127 126 
3 132 126 131 
3 134 130 129 
3 134 129 133 
3 136 132 131 
3 136 131 135 
3 139 134 133 
3 139 133 138 
3 141 136 135 
3 141 135 140 
3 142 137 136 
3 142 136 141 
3 143 138 137 
3 143 137 142 
3 144 139 138 
3 144 138 143 
3 147 141 140 
3 147 140 146 
3 148 142 141 
3 148 141 147 
3 149 143 142 
3 149 142 148 
3 150 144 143 
3 150 143 149 
3 153 146 145 
3 153 145 152 
3 154 147 146 
3 154 146 153 
3 155 148 147 
3 155 147 154 
3 156 149 148 
3 156 148 155 
3 157 150 149 
3 157 149 156 
3 158 151 150 
3 158 150 157 
3 90 185 89 
3 96 89 185 
3 91 185 90 
3 103 96 177 
3 185 177 96 
3 92 185 91 
3 219 106 218 
3 105 218 106 
3 220 106 219 
3 217 112 216 
3 112 215 216 
3 105 217 218 
3 217 105 112 
3 110 103 177 
3 186 185 92 
3 111 110 178 
3 177 178 110 
3 116 111 178 
3 116 179 180 
3 180 121 116 
3 121 180 126 
3 178 179 116 
3 215 112 214 
3 117 213 214 
3 212 213 118 
3 112 117 214 
3 127 202 203 
3 117 118 213 
3 127 203 128 
3 181 126 180 
3 221 106 220 
3 222 106 221 
3 107 106 222 
3 224 113 223 
3 223 107 222 
3 225 113 224 
3 186 94 95 
3 187 186 95 
3 187 95 102 
3 93 94 186 
3 223 113 107 
3 102 109 187 
3 109 115 187 
3 113 225 226 
3 92 93 186 
3 119 227 118 
3 227 119 226 
3 205 128 204 
3 203 204 128 
3 128 205 129 
3 195 114 194 
3 120 194 114 
3 187 115 195 
3 114 195 115 
3 193 120 125 
3 125 130 193 
3 194 120 193 
3 206 129 205 
3 226 119 113 
3 227 212 118 
3 192 193 130 
3 192 130 134 
3 181 135 131 
3 132 201 127 
3 140 181 182 
3 140 182 183 
3 181 140 135 
3 181 131 126 
3 199 132 136 
3 132 200 201 
3 199 200 132 
3 201 202 127 
3 197 198 136 
3 211 196 137 
3 197 137 196 
3 198 199 136 
3 136 137 197 
3 152 145 184 
3 146 183 145 
3 184 145 183 
3 152 184 176 
3 176 160 152 
3 160 161 152 
3 159 160 176 
3 161 162 152 
3 162 153 152 
3 153 164 154 
3 163 153 162 
3 153 163 164 
3 154 165 166 
3 154 164 165 
3 140 183 146 
3 166 155 154 
3 133 207 208 
3 129 207 133 
3 210 138 209 
3 209 138 133 
3 208 209 133 
3 138 210 211 
3 134 139 192 
3 139 144 192 
3 190 144 150 
3 144 190 191 
3 190 150 151 
3 192 144 191 
3 138 211 137 
3 207 129 206 
3 168 156 155 
3 166 167 155 
3 156 170 157 
3 167 168 155 
3 156 168 169 
3 157 170 171 
3 156 169 170 
3 172 157 171 
3 189 151 158 
3 158 188 189 
3 188 158 174 
3 190 151 189 
3 158 172 173 
3 188 174 175 
3 158 173 174 
3 158 157 172 
3 233 228 230 
3 233 230 232 
3 229 233 232 
3 229 232 231 
3 253 234 236 
3 240 241 239 
3 240 239 238 
3 241 240 242 
3 241 242 243 
3 238 239 237 
3 238 237 236 
3 237 235 253 
3 236 237 253 
3 246 247 245 
3 246 245 244 
3 252 248 250 
3 248 249 247 
3 248 247 246 
3 248 252 249 
3 244 245 243 
3 244 243 242 
3 252 251 249 
3 259 254 256 
3 259 256 258 
3 255 259 258 
3 255 258 257 
3 265 260 262 
3 265 262 264 
3 261 265 264 
3 261 264 263 
3 271 266 268 
3 271 268 270 
3 267 271 270 
3 267 270 269 
3 291 272 274 
3 278 279 277 
3 278 277 276 
3 279 278 280 
3 279 280 281 
3 276 277 275 
3 276 275 274 
3 275 273 291 
3 274 275 291 
3 284 285 283 
3 284 283 282 
3 290 286 288 
3 286 287 285 
3 286 285 284 
3 286 290 287 
3 282 283 281 
3 282 281 280 
3 290 289 287 
3 296 292 294 
3 296 294 297 
3 293 296 297 
3 293 297 295 
3 306 305 298 
3 306 298 299 
3 307 306 299 
3 307 299 300 
3 308 307 300 
3 308 300 301 
3 309 308 301 
3 309 301 302 
3 310 309 302 
3 310 302 303 
3 311 310 303 
3 311 303 304 
3 313 312 305 
3 313 305 306 
3 314 313 306 
3 314 306 307 
3 315 314 307 
3 315 307 308 
3 316 315 308 
3 316 308 309 
3 317 316 309 
3 317 309 310 
3 318 317 310 
3 318 310 311 
3 320 319 312 
3 320 312 313 
3 321 320 313 
3 321 313 314 
3 323 322 316 
3 323 316 317 
3 324 323 317 
3 324 317 318 
3 326 325 320 
3 326 320 321 
3 329 328 322 
3 329 322 323 
3 331 330 325 
3 331 325 326 
3 332 331 326 
3 332 326 327 
3 333 332 327 
3 333 327 328 
3 334 333 328 
3 334 328 329 
3 336 335 330 
3 336 330 331 
3 337 336 331 
3 337 331 332 
3 338 337 332 
3 338 332 333 
3 339 338 333 
3 339 333 334 
3 341 340 335 
3 341 335 336 
3 343 342 338 
3 343 338 339 
3 345 344 340 
3 345 340 341 
3 348 347 342 
3 348 342 343 
3 350 349 344 
3 350 344 345 
3 351 350 345 
3 351 345 346 
3 352 351 346 
3 352 346 347 
3 353 352 347 
3 353 347 348 
3 356 355 349 
3 356 349 350 
3 357 356 350 
3 357 350 351 
3 358 357 351 
3 358 351 352 
3 359 358 352 
3 359 352 353 
3 362 361 354 
3 362 354 355 
3 363 362 355 
3 363 355 356 
3 364 363 356 
3 364 356 357 
3 365 364 357 
3 365 357 358 
3 366 365 358 
3 366 358 359 
3 367 366 359 
3 367 359 360 
3 299 298 395 
3 305 395 298 
3 300 299 395 
3 312 396 305 
3 395 305 396 
3 301 300 395 
3 428 427 315 
3 314 315 427 
3 429 428 315 
3 426 425 321 
3 321 425 424 
3 314 427 426 
3 426 321 314 
3 319 396 312 
3 394 301 395 
3 320 397 319 
3 396 319 397 
3 325 397 320 
3 325 399 398 
3 399 325 330 
3 330 335 399 
3 397 325 398 
3 424 423 321 
3 326 423 422 
3 421 327 422 
3 321 423 326 
3 336 412 411 
3 326 422 327 
3 336 337 412 
3 400 399 335 
3 430 429 315 
3 431 430 315 
3 316 431 315 
3 433 432 322 
3 432 431 316 
3 434 433 322 
3 394 304 303 
3 393 311 304 
3 393 304 394 
3 302 394 303 
3 432 316 322 
3 311 393 318 
3 318 393 324 
3 322 435 434 
3 301 394 302 
3 328 327 436 
3 436 435 328 
3 414 413 337 
3 412 337 413 
3 337 338 414 
3 392 391 323 
3 329 323 391 
3 393 392 324 
3 323 324 392 
3 390 334 329 
3 334 390 339 
3 391 390 329 
3 415 414 338 
3 435 322 328 
3 436 327 421 
3 389 343 339 
3 389 339 390 
3 400 340 344 
3 341 336 410 
3 349 401 400 
3 349 402 401 
3 400 344 349 
3 400 335 340 
3 408 345 341 
3 341 410 409 
3 408 341 409 
3 410 336 411 
3 406 345 407 
3 420 346 405 
3 406 405 346 
3 407 345 408 
3 345 406 346 
3 361 403 354 
3 355 354 402 
3 403 402 354 
3 361 404 403 
3 404 361 369 
3 369 361 370 
3 368 404 369 
3 370 361 371 
3 371 361 362 
3 362 363 373 
3 372 371 362 
3 362 373 372 
3 363 375 374 
3 363 374 373 
3 349 355 402 
3 375 363 364 
3 342 417 416 
3 338 342 416 
3 419 418 347 
3 418 342 347 
3 417 342 418 
3 347 420 419 
3 343 389 348 
3 348 389 353 
3 387 359 353 
3 353 388 387 
3 387 360 359 
3 389 388 353 
3 347 346 420 
3 416 415 338 
3 377 364 365 
3 375 364 376 
3 365 366 379 
3 376 364 377 
3 365 378 377 
3 366 380 379 
3 365 379 378 
3 381 380 366 
3 386 367 360 
3 367 386 385 
3 385 383 367 
3 387 386 360 
3 367 382 381 
3 385 384 383 
3 367 383 382 
3 367 381 366 
3 452 454 451 
3 449 450 454 
3 450 451 454 
3 449 454 448 
3 454 447 448 
3 447 455 446 
3 445 446 455 
3 444 445 456 
3 454 452 453 
3 443 457 442 
3 457 441 442 
3 456 445 455 
3 444 456 443 
3 455 447 454 
3 438 439 457 
3 440 457 439 
3 438 457 437 
3 441 457 440 
3 457 443 456 
3 466 458 460 
3 458 466 459 
3 466 460 461 
3 460 464 465 
3 465 461 460 
3 464 463 465 
3 464 460 462 
3 469 475 473 
3 473 475 468 
3 469 473 467 
3 474 469 471 
3 469 474 470 
3 471 472 474 
3 475 469 470 
3 493 496 494 
3 491 490 496 
3 491 496 492 
3 490 489 496 
3 493 492 496 
3 487 497 488 
3 489 488 497 
3 500 486 485 
3 484 483 501 
3 501 485 484 
3 487 486 500 
3 495 494 496 
3 487 500 497 
3 496 489 497 
3 501 500 485 
3 477 476 498 
3 497 477 498 
3 477 497 500 
3 479 501 480 
3 481 480 501 
3 499 477 500 
3 482 481 501 
3 501 483 482 
3 499 478 477 
3 502 519 518 
3 502 518 520 
3 522 521 517 
3 522 517 516 
3 520 518 517 
3 520 517 521 
3 523 503 515 
3 523 515 524 
3 525 514 513 
3 525 513 526 
3 524 515 514 
3 524 514 525 
3 523 522 516 
3 523 516 503 
3 527 526 513 
3 527 513 512 
3 529 528 504 
3 529 504 505 
3 530 511 510 
3 530 510 531 
3 529 505 511 
3 529 511 530 
3 532 509 506 
3 532 506 533 
3 535 534 507 
3 535 507 508 
3 534 533 506 
3 534 506 507 
3 531 510 509 
3 531 509 532 
3 528 527 512 
3 528 512 504 
3 536 553 552 
3 536 552 554 
3 555 551 537 
3 555 537 556 
3 554 552 551 
3 554 551 555 
3 557 538 550 
3 557 550 558 
3 560 559 549 
3 560 549 548 
3 558 550 549 
3 558 549 559 
3 556 537 538 
3 556 538 557 
3 561 560 548 
3 561 548 547 
3 563 562 539 
3 563 539 540 
3 564 546 545 
3 564 545 565 
3 563 540 546 
3 563 546 564 
3 566 541 542 
3 566 542 567 
3 569 568 544 
3 569 544 543 
3 568 567 542 
3 568 542 544 
3 565 545 541 
3 565 541 566 
3 562 561 547 
3 562 547 539 
