ply
format ascii 1.0
comment Author: CloudCompare (TELECOM PARISTECH/EDF R&D)
comment obj_info Generated by CloudCompare!
element vertex 526
property float x
property float y
property float z
property float nx
property float ny
property float nz
element face 642
property list uchar int vertex_indices
end_header
0.406401 0 -3.39263 0.00787353 -0.999938 0.00787353 
0.406401 0 -2.90248 0.00787353 -0.999938 0.00787353 
0.406401 0 -2.41233 0.00787353 -0.999938 0.00787353 
0.406401 0 -1.92217 0.00787353 -0.999938 0.00787353 
0.406401 0 -1.43202 0.00787353 -0.999938 0.00787353 
0.406401 0 -0.941865 0.00787353 -0.999938 0.00787353 
0.406401 0 -0.451711 0.00787353 -0.999938 0.00787353 
0.872164 0 -3.39263 0.00787353 -0.999938 0.00787353 
0.872164 0 -2.90248 0.00787353 -0.999938 0.00787353 
0.872164 0 -2.41233 0.00787353 -0.999938 0.00787353 
0.872164 0 -1.92217 0.00787353 -0.999938 0.00787353 
0.872164 0 -1.43202 0.00787353 -0.999938 0.00787353 
0.872164 0 -0.941865 0.00787353 -0.999938 0.00787353 
0.872164 0 -0.451711 0.00787353 -0.999938 0.00787353 
1.33793 0 -3.39263 0.00787353 -0.999938 0.00787353 
1.33793 0 -2.90248 0.00787353 -0.999938 0.00787353 
1.33793 0 -2.41233 0.00787353 -0.999938 0.00787353 
1.33793 0 -1.92217 0.00787353 -0.999938 0.00787353 
1.33793 0 -1.43202 0.00787353 -0.999938 0.00787353 
1.33793 0 -0.941865 0.00787353 -0.999938 0.00787353 
1.33793 0 -0.451711 0.00787353 -0.999938 0.00787353 
1.80369 0 -3.39263 0.00787353 -0.999938 0.00787353 
1.80369 0 -2.90248 0.00787353 -0.999938 0.00787353 
1.80369 0 -2.41233 0.00787353 -0.999938 0.00787353 
1.80369 0 -1.43202 0.00787353 -0.999938 0.00787353 
1.80369 0 -0.941865 0.00787353 -0.999938 0.00787353 
1.80369 0 -0.451711 0.00787353 -0.999938 0.00787353 
2.26945 0 -2.90248 0.00787353 -0.999938 0.00787353 
2.26945 0 -2.41233 0.00787353 -0.999938 0.00787353 
2.26945 0 -1.92217 0.00787353 -0.999938 0.00787353 
2.26945 0 -1.43202 0.00787353 -0.999938 0.00787353 
2.26945 0 -0.941865 0.00787353 -0.999938 0.00787353 
2.73522 0 -2.90248 0.00787353 -0.999938 0.00787353 
2.73522 0 -2.41233 0.00787353 -0.999938 0.00787353 
2.73522 0 -1.92217 0.00787353 -0.999938 0.00787353 
2.73522 0 -1.43202 0.00787353 -0.999938 0.00787353 
2.73522 0 -0.941865 0.00787353 -0.999938 0.00787353 
3.20098 0 -2.90248 0.00787353 -0.999938 0.00787353 
3.20098 0 -2.41233 0.00787353 -0.999938 0.00787353 
3.20098 0 -1.92217 0.00787353 -0.999938 0.00787353 
3.20098 0 -1.43202 0.00787353 -0.999938 0.00787353 
3.20098 0 -0.941865 0.00787353 -0.999938 0.00787353 
3.66674 0 -2.90248 0.00787353 -0.999938 0.00787353 
3.66674 0 -2.41233 0.00787353 -0.999938 0.00787353 
3.66674 0 -1.43202 0.00787353 -0.999938 0.00787353 
3.66674 0 -0.941865 0.00787353 -0.999938 0.00787353 
4.13251 0 -2.90248 0.00787353 -0.999938 0.00787353 
4.13251 0 -2.41233 0.00787353 -0.999938 0.00787353 
4.13251 0 -1.92217 0.00787353 -0.999938 0.00787353 
4.13251 0 -1.43202 0.00787353 -0.999938 0.00787353 
4.13251 0 -0.941865 0.00787353 -0.999938 0.00787353 
4.59827 0 -2.90248 0.00787353 -0.999938 0.00787353 
4.59827 0 -2.41233 0.00787353 -0.999938 0.00787353 
4.59827 0 -1.92217 0.00787353 -0.999938 0.00787353 
4.59827 0 -1.43202 0.00787353 -0.999938 0.00787353 
4.59827 0 -0.941865 0.00787353 -0.999938 0.00787353 
5.06403 0 -3.39263 0.00787353 -0.999938 0.00787353 
5.06403 0 -2.90248 0.00787353 -0.999938 0.00787353 
5.06403 0 -2.41233 0.00787353 -0.999938 0.00787353 
5.06403 0 -1.92217 0.00787353 -0.999938 0.00787353 
5.06403 0 -1.43202 0.00787353 -0.999938 0.00787353 
5.06403 0 -0.941865 0.00787353 -0.999938 0.00787353 
5.06403 0 -0.451711 0.00787353 -0.999938 0.00787353 
5.52979 0 -3.39263 0.00787353 -0.999938 0.00787353 
5.52979 0 -2.90248 0.00787353 -0.999938 0.00787353 
5.52979 0 -2.41233 0.00787353 -0.999938 0.00787353 
5.52979 0 -1.92217 0.00787353 -0.999938 0.00787353 
5.52979 0 -1.43202 0.00787353 -0.999938 0.00787353 
5.52979 0 -0.941865 0.00787353 -0.999938 0.00787353 
5.52979 0 -0.451711 0.00787353 -0.999938 0.00787353 
5.9362 0 -3.84269 0.00787353 -0.999938 0.00787353 
5.9362 0 -3.60262 0.00787353 -0.999938 0.00787353 
5.9362 0 -3.36256 0.00787353 -0.999938 0.00787353 
5.9362 0 -3.12249 0.00787353 -0.999938 0.00787353 
5.9362 0 -2.88243 0.00787353 -0.999938 0.00787353 
5.9362 0 -2.64236 0.00787353 -0.999938 0.00787353 
5.9362 0 -2.4023 0.00787353 -0.999938 0.00787353 
5.9362 0 -2.16224 0.00787353 -0.999938 0.00787353 
5.9362 0 -1.92217 0.00787353 -0.999938 0.00787353 
5.9362 0 -1.68211 0.00787353 -0.999938 0.00787353 
5.9362 0 -1.44204 0.00787353 -0.999938 0.00787353 
5.9362 0 -1.20198 0.00787353 -0.999938 0.00787353 
5.9362 0 -0.961916 0.00787353 -0.999938 0.00787353 
5.9362 0 -0.721852 0.00787353 -0.999938 0.00787353 
5.9362 0 -0.481788 0.00787353 -0.999938 0.00787353 
5.9362 0 -0.241724 0.00787353 -0.999938 0.00787353 
5.9362 0 -0.00165962 0.00787353 -0.999938 0.00787353 
5.44616 0 -3.84435 0.00787353 -0.999938 0.00787353 
5.69128 0 -3.84351 0.00787353 -0.999938 0.00787353 
1.58624 0 -3.84435 0.00787353 -0.999938 0.00787353 
1.84124 0 -3.63793 0.00787353 -0.999938 0.00787353 
2.11133 0 -3.44851 0.00787353 -0.999938 0.00787353 
2.35333 0 -3.31489 0.00787353 -0.999938 0.00787353 
2.52134 0 -3.26769 0.00787353 -0.999938 0.00787353 
4.19376 0 -3.26769 0.00787353 -0.999938 0.00787353 
4.53285 0 -3.30373 0.00787353 -0.999938 0.00787353 
4.85462 0 -3.41186 0.00787353 -0.999938 0.00787353 
5.15905 0 -3.59206 0.00787353 -0.999938 0.00787353 
-1.77636e-15 0 -3.84435 0.00787353 -0.999938 0.00787353 
0 0 0 0.00787353 -0.999938 0.00787353 
1.58624 0 0 0.00787353 -0.999938 0.00787353 
5.44616 0 0 0.00787353 -0.999938 0.00787353 
5.15905 0 -0.252285 0.00787353 -0.999938 0.00787353 
4.85462 0 -0.432489 0.00787353 -0.999938 0.00787353 
4.53285 0 -0.540611 0.00787353 -0.999938 0.00787353 
4.19376 0 -0.576652 0.00787353 -0.999938 0.00787353 
2.40366 0 -0.576652 0.00787353 -0.999938 0.00787353 
2.22784 0 -0.529454 0.00787353 -0.999938 0.00787353 
2.00827 0 -0.39584 0.00787353 -0.999938 0.00787353 
1.78391 0 -0.206414 0.00787353 -0.999938 0.00787353 
5.69128 0 -0.000834282 0.00787353 -0.999938 0.00787353 
3.83809 0 -1.92217 0.00787353 -0.999938 0.00787353 
3.82549 0 -1.99779 0.00787353 -0.999938 0.00787353 
3.78553 0 -2.06744 0.00787353 -0.999938 0.00787353 
3.72468 0 -2.11319 0.00787353 -0.999938 0.00787353 
3.65862 0 -2.12761 0.00787353 -0.999938 0.00787353 
3.59256 0 -2.11319 0.00787353 -0.999938 0.00787353 
3.53172 0 -2.06744 0.00787353 -0.999938 0.00787353 
3.49176 0 -1.99779 0.00787353 -0.999938 0.00787353 
3.47916 0 -1.92217 0.00787353 -0.999938 0.00787353 
3.49176 0 -1.84655 0.00787353 -0.999938 0.00787353 
3.53172 0 -1.77691 0.00787353 -0.999938 0.00787353 
3.59256 0 -1.73116 0.00787353 -0.999938 0.00787353 
3.65862 0 -1.71673 0.00787353 -0.999938 0.00787353 
3.72468 0 -1.73116 0.00787353 -0.999938 0.00787353 
3.78553 0 -1.77691 0.00787353 -0.999938 0.00787353 
3.82549 0 -1.84655 0.00787353 -0.999938 0.00787353 
1.85865 0 -1.92217 0.00787353 -0.999938 0.00787353 
1.84604 0 -1.99779 0.00787353 -0.999938 0.00787353 
1.80608 0 -2.06744 0.00787353 -0.999938 0.00787353 
1.74524 0 -2.11319 0.00787353 -0.999938 0.00787353 
1.67918 0 -2.12761 0.00787353 -0.999938 0.00787353 
1.61312 0 -2.11319 0.00787353 -0.999938 0.00787353 
1.55228 0 -2.06744 0.00787353 -0.999938 0.00787353 
1.51231 0 -1.99779 0.00787353 -0.999938 0.00787353 
1.49971 0 -1.92217 0.00787353 -0.999938 0.00787353 
1.51231 0 -1.84655 0.00787353 -0.999938 0.00787353 
1.55228 0 -1.77691 0.00787353 -0.999938 0.00787353 
1.61312 0 -1.73116 0.00787353 -0.999938 0.00787353 
1.67918 0 -1.71673 0.00787353 -0.999938 0.00787353 
1.74524 0 -1.73116 0.00787353 -0.999938 0.00787353 
1.80608 0 -1.77691 0.00787353 -0.999938 0.00787353 
1.84604 0 -1.84655 0.00787353 -0.999938 0.00787353 
5.44616 0 0 0.00787353 0.00787353 0.999938 
5.44616 2.5 0 0.00787353 -0.00787353 0.999938 
5.69128 0 -0.000834282 0.00787353 0.00787353 0.999938 
5.69128 2.5 -0.000834282 0.00787353 -0.00787353 0.999938 
5.9362 0 -0.00165962 0.00787353 0.00787353 0.999938 
5.9362 2.5 -0.00165962 0.00787353 0.00787353 0.999938 
5.9362 1.25 -0.00165962 0.00787353 0.00787353 0.999938 
5.44616 1.25 -3.33067e-16 0.00787353 0.00787353 0.999938 
1.58624 0 0 0.718024 0.0110465 0.695931 
1.58624 2.5 0 0.718024 -0.0110465 0.695931 
1.78391 0 -0.206414 0.695931 0.0110465 0.718024 
1.78391 2.5 -0.206414 0.673181 -0.0110358 0.739395 
2.00827 0 -0.39584 0.601713 0.0109402 0.798637 
2.00827 2.5 -0.39584 0.577076 0.0108882 0.816618 
2.22784 0 -0.529454 0.451383 0.0104973 0.892269 
2.22784 2.5 -0.529454 0.376631 0.0101792 0.926308 
2.40366 0 -0.576652 0.0406155 0.0081231 0.999142 
2.40366 2.5 -0.576652 0.00787353 0.00787353 0.999938 
4.19376 0 -0.576652 -0.00787353 0.00787353 0.999938 
4.19376 2.5 -0.576652 -0.0239923 0.00799744 0.99968 
4.53285 0 -0.540611 -0.171716 0.00903766 0.985105 
4.53285 2.5 -0.540611 -0.258246 0.00956467 0.966032 
4.85462 0 -0.432489 -0.376631 0.0101792 0.926308 
4.85462 2.5 -0.432489 -0.451383 0.0104973 0.892269 
5.15905 0 -0.252285 -0.577076 0.0108882 0.816618 
5.15905 2.5 -0.252285 -0.601713 -0.0109402 0.798637 
5.44616 0 0 -0.649844 0.0110143 0.759987 
5.44616 2.5 0 -0.649844 -0.0110143 0.759987 
5.44616 1.25 -3.33067e-16 -0.649844 0.0110143 0.759987 
1.58624 1.25 -3.33067e-16 0.718024 0.0110465 0.695931 
0 0 0 0.00787353 0.00787353 0.999938 
-1.77636e-15 2.5 0 0.00787353 -0.00787353 0.999938 
1.58624 0 0 0.00787353 0.00787353 0.999938 
1.58624 2.5 0 0.00787353 -0.00787353 0.999938 
1.58624 1.25 -3.33067e-16 0.00787353 -0.00787353 0.999938 
0 1.25 -3.33067e-16 0.00787353 0.00787353 0.999938 
-1.77636e-15 0 -3.84435 -0.999938 0.00787353 0.00787353 
-1.77636e-15 2.5 -3.84435 -0.999938 -0.00787353 0.00787353 
0 0 0 -0.999938 0.00787353 0.00787353 
-1.77636e-15 2.5 0 -0.999938 -0.00787353 0.00787353 
0 1.25 -3.33067e-16 -0.999938 -0.00787353 0.00787353 
0 1.25 -3.84435 -0.999938 0.00787353 0.00787353 
1.58624 0 -3.84435 0.00787353 0.00787353 -0.999938 
1.58624 2.5 -3.84435 0.00787353 0.00787353 -0.999938 
-1.77636e-15 0 -3.84435 0.00787353 0.00787353 -0.999938 
-1.77636e-15 2.5 -3.84435 0.00787353 0.00787353 -0.999938 
0 1.25 -3.84435 0.00787353 0.00787353 -0.999938 
1.58624 1.25 -3.84435 0.00787353 0.00787353 -0.999938 
5.44616 0 -3.84435 -0.649844 0.0110143 -0.759987 
5.44616 2.5 -3.84435 -0.649844 0.0110143 -0.759987 
5.15905 0 -3.59206 -0.601713 0.0109402 -0.798637 
5.15905 2.5 -3.59206 -0.577076 0.0108882 -0.816618 
4.85462 0 -3.41186 -0.451383 0.0104973 -0.892269 
4.85462 2.5 -3.41186 -0.376631 0.0101792 -0.926308 
4.53285 0 -3.30373 -0.258246 0.00956467 -0.966032 
4.53285 2.5 -3.30373 -0.171716 0.00903766 -0.985105 
4.19376 0 -3.26769 -0.0239923 0.00799744 -0.99968 
4.19376 2.5 -3.26769 -0.00787353 0.00787353 -0.999938 
2.52134 0 -3.26769 0.00787353 0.00787353 -0.999938 
2.52134 2.5 -3.26769 0.0406155 0.0081231 -0.999142 
2.35333 0 -3.31489 0.376631 0.0101792 -0.926308 
2.35333 2.5 -3.31489 0.426275 0.0103969 -0.904534 
2.11133 0 -3.44851 0.527065 0.0107564 -0.849757 
2.11133 2.5 -3.44851 0.552167 0.0108268 -0.833663 
1.84124 0 -3.63793 0.601713 0.0109402 -0.798637 
1.84124 2.5 -3.63793 0.601713 0.0109402 -0.798637 
1.58624 0 -3.84435 0.625996 0.0109824 -0.779749 
1.58624 2.5 -3.84435 0.625996 0.0109824 -0.779749 
1.58624 1.25 -3.84435 0.625996 0.0109824 -0.779749 
5.44616 1.25 -3.84435 -0.649844 0.0110143 -0.759987 
5.9362 0 -3.84269 0.00787353 0.00787353 -0.999938 
5.9362 2.5 -3.84269 0.00787353 0.00787353 -0.999938 
5.69128 0 -3.84351 0.00787353 0.00787353 -0.999938 
5.69128 2.5 -3.84351 0.00787353 0.00787353 -0.999938 
5.44616 0 -3.84435 0.00787353 0.00787353 -0.999938 
5.44616 2.5 -3.84435 0.00787353 0.00787353 -0.999938 
5.9362 1.25 -3.84269 0.00787353 0.00787353 -0.999938 
5.44616 1.25 -3.84435 0.00787353 0.00787353 -0.999938 
0.406401 2.5 -3.39263 0.00787353 0.999938 0.00787353 
0.406401 2.5 -2.90248 0.00787353 0.999938 0.00787353 
0.406401 2.5 -2.41233 0.00787353 0.999938 0.00787353 
0.406401 2.5 -1.92217 0.00787353 0.999938 0.00787353 
0.406401 2.5 -1.43202 0.00787353 0.999938 0.00787353 
0.406401 2.5 -0.941865 0.00787353 0.999938 0.00787353 
0.406401 2.5 -0.451711 0.00787353 0.999938 0.00787353 
0.872164 2.5 -3.39263 0.00787353 0.999938 0.00787353 
0.872164 2.5 -2.90248 0.00787353 0.999938 0.00787353 
0.872164 2.5 -2.41233 0.00787353 0.999938 0.00787353 
0.872164 2.5 -1.92217 0.00787353 0.999938 0.00787353 
0.872164 2.5 -1.43202 0.00787353 0.999938 0.00787353 
0.872164 2.5 -0.941865 0.00787353 0.999938 0.00787353 
0.872164 2.5 -0.451711 0.00787353 0.999938 0.00787353 
1.33793 2.5 -3.39263 0.00787353 0.999938 0.00787353 
1.33793 2.5 -2.90248 0.00787353 0.999938 0.00787353 
1.33793 2.5 -2.41233 0.00787353 0.999938 0.00787353 
1.33793 2.5 -1.92217 0.00787353 0.999938 0.00787353 
1.33793 2.5 -1.43202 0.00787353 0.999938 0.00787353 
1.33793 2.5 -0.941865 0.00787353 0.999938 0.00787353 
1.33793 2.5 -0.451711 0.00787353 0.999938 0.00787353 
1.80369 2.5 -3.39263 0.00787353 0.999938 0.00787353 
1.80369 2.5 -2.90248 0.00787353 0.999938 0.00787353 
1.80369 2.5 -2.41233 0.00787353 0.999938 0.00787353 
1.80369 2.5 -1.43202 0.00787353 0.999938 0.00787353 
1.80369 2.5 -0.941865 0.00787353 0.999938 0.00787353 
1.80369 2.5 -0.451711 0.00787353 0.999938 0.00787353 
2.26945 2.5 -2.90248 0.00787353 0.999938 0.00787353 
2.26945 2.5 -2.41233 0.00787353 0.999938 0.00787353 
2.26945 2.5 -1.92217 0.00787353 0.999938 0.00787353 
2.26945 2.5 -1.43202 0.00787353 0.999938 0.00787353 
2.26945 2.5 -0.941865 0.00787353 0.999938 0.00787353 
2.73522 2.5 -2.90248 0.00787353 0.999938 0.00787353 
2.73522 2.5 -2.41233 0.00787353 0.999938 0.00787353 
2.73522 2.5 -1.92217 0.00787353 0.999938 0.00787353 
2.73522 2.5 -1.43202 0.00787353 0.999938 0.00787353 
2.73522 2.5 -0.941865 0.00787353 0.999938 0.00787353 
3.20098 2.5 -2.90248 0.00787353 0.999938 0.00787353 
3.20098 2.5 -2.41233 0.00787353 0.999938 0.00787353 
3.20098 2.5 -1.92217 0.00787353 0.999938 0.00787353 
3.20098 2.5 -1.43202 0.00787353 0.999938 0.00787353 
3.20098 2.5 -0.941865 0.00787353 0.999938 0.00787353 
3.66674 2.5 -2.90248 0.00787353 0.999938 0.00787353 
3.66674 2.5 -2.41233 0.00787353 0.999938 0.00787353 
3.66674 2.5 -1.43202 0.00787353 0.999938 0.00787353 
3.66674 2.5 -0.941865 0.00787353 0.999938 0.00787353 
4.13251 2.5 -2.90248 0.00787353 0.999938 0.00787353 
4.13251 2.5 -2.41233 0.00787353 0.999938 0.00787353 
4.13251 2.5 -1.92217 0.00787353 0.999938 0.00787353 
4.13251 2.5 -1.43202 0.00787353 0.999938 0.00787353 
4.13251 2.5 -0.941865 0.00787353 0.999938 0.00787353 
4.59827 2.5 -2.90248 0.00787353 0.999938 0.00787353 
4.59827 2.5 -2.41233 0.00787353 0.999938 0.00787353 
4.59827 2.5 -1.92217 0.00787353 0.999938 0.00787353 
4.59827 2.5 -1.43202 0.00787353 0.999938 0.00787353 
4.59827 2.5 -0.941865 0.00787353 0.999938 0.00787353 
5.06403 2.5 -3.39263 0.00787353 0.999938 0.00787353 
5.06403 2.5 -2.90248 0.00787353 0.999938 0.00787353 
5.06403 2.5 -2.41233 0.00787353 0.999938 0.00787353 
5.06403 2.5 -1.92217 0.00787353 0.999938 0.00787353 
5.06403 2.5 -1.43202 0.00787353 0.999938 0.00787353 
5.06403 2.5 -0.941865 0.00787353 0.999938 0.00787353 
5.06403 2.5 -0.451711 0.00787353 0.999938 0.00787353 
5.52979 2.5 -3.39263 0.00787353 0.999938 0.00787353 
5.52979 2.5 -2.90248 0.00787353 0.999938 0.00787353 
5.52979 2.5 -2.41233 0.00787353 0.999938 0.00787353 
5.52979 2.5 -1.92217 0.00787353 0.999938 0.00787353 
5.52979 2.5 -1.43202 0.00787353 0.999938 0.00787353 
5.52979 2.5 -0.941865 0.00787353 0.999938 0.00787353 
5.52979 2.5 -0.451711 0.00787353 0.999938 0.00787353 
5.9362 2.5 -3.84269 0.00787353 0.999938 0.00787353 
5.9362 2.5 -3.60262 0.00787353 0.999938 0.00787353 
5.9362 2.5 -3.36256 0.00787353 0.999938 0.00787353 
5.9362 2.5 -3.12249 0.00787353 0.999938 0.00787353 
5.9362 2.5 -2.88243 0.00787353 0.999938 0.00787353 
5.9362 2.5 -2.64236 0.00787353 0.999938 0.00787353 
5.9362 2.5 -2.4023 0.00787353 0.999938 0.00787353 
5.9362 2.5 -2.16224 0.00787353 0.999938 0.00787353 
5.9362 2.5 -1.92217 0.00787353 0.999938 0.00787353 
5.9362 2.5 -1.68211 0.00787353 0.999938 0.00787353 
5.9362 2.5 -1.44204 0.00787353 0.999938 0.00787353 
5.9362 2.5 -1.20198 0.00787353 0.999938 0.00787353 
5.9362 2.5 -0.961916 0.00787353 0.999938 0.00787353 
5.9362 2.5 -0.721852 0.00787353 0.999938 0.00787353 
5.9362 2.5 -0.481788 0.00787353 0.999938 0.00787353 
5.9362 2.5 -0.241724 0.00787353 0.999938 0.00787353 
5.9362 2.5 -0.00165962 0.00787353 0.999938 0.00787353 
5.69128 2.5 -0.000834282 0.00787353 0.999938 0.00787353 
5.44616 2.5 0 0.00787353 0.999938 0.00787353 
5.15905 2.5 -0.252285 0.00787353 0.999938 0.00787353 
4.85462 2.5 -0.432489 0.00787353 0.999938 0.00787353 
4.53285 2.5 -0.540611 0.00787353 0.999938 0.00787353 
4.19376 2.5 -0.576652 0.00787353 0.999938 0.00787353 
2.40366 2.5 -0.576652 0.00787353 0.999938 0.00787353 
2.22784 2.5 -0.529454 0.00787353 0.999938 0.00787353 
2.00827 2.5 -0.39584 0.00787353 0.999938 0.00787353 
1.78391 2.5 -0.206414 0.00787353 0.999938 0.00787353 
1.58624 2.5 0 0.00787353 0.999938 0.00787353 
-1.77636e-15 2.5 0 0.00787353 0.999938 0.00787353 
-1.77636e-15 2.5 -3.84435 0.00787353 0.999938 0.00787353 
1.58624 2.5 -3.84435 0.00787353 0.999938 0.00787353 
1.84124 2.5 -3.63793 0.00787353 0.999938 0.00787353 
2.11133 2.5 -3.44851 0.00787353 0.999938 0.00787353 
2.35333 2.5 -3.31489 0.00787353 0.999938 0.00787353 
2.52134 2.5 -3.26769 0.00787353 0.999938 0.00787353 
4.19376 2.5 -3.26769 0.00787353 0.999938 0.00787353 
4.53285 2.5 -3.30373 0.00787353 0.999938 0.00787353 
4.85462 2.5 -3.41186 0.00787353 0.999938 0.00787353 
5.15905 2.5 -3.59206 0.00787353 0.999938 0.00787353 
5.44616 2.5 -3.84435 0.00787353 0.999938 0.00787353 
5.69128 2.5 -3.84351 0.00787353 0.999938 0.00787353 
3.83809 2.5 -1.92217 0.00787353 0.999938 0.00787353 
3.82549 2.5 -1.99779 0.00787353 0.999938 0.00787353 
3.78553 2.5 -2.06744 0.00787353 0.999938 0.00787353 
3.72468 2.5 -2.11319 0.00787353 0.999938 0.00787353 
3.65862 2.5 -2.12761 0.00787353 0.999938 0.00787353 
3.59256 2.5 -2.11319 0.00787353 0.999938 0.00787353 
3.53172 2.5 -2.06744 0.00787353 0.999938 0.00787353 
3.49176 2.5 -1.99779 0.00787353 0.999938 0.00787353 
3.47916 2.5 -1.92217 0.00787353 0.999938 0.00787353 
3.49176 2.5 -1.84655 0.00787353 0.999938 0.00787353 
3.53172 2.5 -1.77691 0.00787353 0.999938 0.00787353 
3.59256 2.5 -1.73116 0.00787353 0.999938 0.00787353 
3.65862 2.5 -1.71673 0.00787353 0.999938 0.00787353 
3.72468 2.5 -1.73116 0.00787353 0.999938 0.00787353 
3.78553 2.5 -1.77691 0.00787353 0.999938 0.00787353 
3.82549 2.5 -1.84655 0.00787353 0.999938 0.00787353 
1.85865 2.5 -1.92217 0.00787353 0.999938 0.00787353 
1.84604 2.5 -1.99779 0.00787353 0.999938 0.00787353 
1.80608 2.5 -2.06744 0.00787353 0.999938 0.00787353 
1.74524 2.5 -2.11319 0.00787353 0.999938 0.00787353 
1.67918 2.5 -2.12761 0.00787353 0.999938 0.00787353 
1.61312 2.5 -2.11319 0.00787353 0.999938 0.00787353 
1.55228 2.5 -2.06744 0.00787353 0.999938 0.00787353 
1.51231 2.5 -1.99779 0.00787353 0.999938 0.00787353 
1.49971 2.5 -1.92217 0.00787353 0.999938 0.00787353 
1.51231 2.5 -1.84655 0.00787353 0.999938 0.00787353 
1.55228 2.5 -1.77691 0.00787353 0.999938 0.00787353 
1.61312 2.5 -1.73116 0.00787353 0.999938 0.00787353 
1.67918 2.5 -1.71673 0.00787353 0.999938 0.00787353 
1.74524 2.5 -1.73116 0.00787353 0.999938 0.00787353 
1.80608 2.5 -1.77691 0.00787353 0.999938 0.00787353 
1.84604 2.5 -1.84655 0.00787353 0.999938 0.00787353 
5.9362 0 -0.00165962 0.00787353 -0.999938 0.00787353 
5.9362 0 -0.241724 0.00787353 -0.999938 0.00787353 
5.9362 0 -0.481788 0.00787353 -0.999938 0.00787353 
5.9362 0 -0.721852 0.00787353 -0.999938 0.00787353 
5.9362 0 -0.961916 0.00787353 -0.999938 0.00787353 
5.9362 0 -1.20198 0.00787353 -0.999938 0.00787353 
5.9362 0 -1.44204 0.00787353 -0.999938 0.00787353 
5.9362 0 -1.68211 0.00787353 -0.999938 0.00787353 
5.9362 0 -1.92217 0.00787353 -0.999938 0.00787353 
5.9362 0 -2.16224 0.00787353 -0.999938 0.00787353 
5.9362 0 -2.4023 0.00787353 -0.999938 0.00787353 
5.9362 0 -2.64236 0.00787353 -0.999938 0.00787353 
5.9362 0 -2.88243 0.00787353 -0.999938 0.00787353 
5.9362 0 -3.12249 0.00787353 -0.999938 0.00787353 
5.9362 0 -3.36256 0.00787353 -0.999938 0.00787353 
5.9362 0 -3.60262 0.00787353 -0.999938 0.00787353 
5.9362 0 -3.84269 0.00787353 -0.999938 0.00787353 
10.7856 0 -3.82813 0.00787353 -0.999938 0.00787353 
15.4083 0 -3.81772 0.00787353 -0.999938 0.00787353 
19.8041 0 -3.81148 0.00787353 -0.999938 0.00787353 
23.9732 0 -3.8094 0.00787353 -0.999938 0.00787353 
23.9732 0 -0.0349407 0.00787353 -0.999938 0.00787353 
19.8041 0 -0.0328607 0.00787353 -0.999938 0.00787353 
15.4083 0 -0.0266205 0.00787353 -0.999938 0.00787353 
10.7856 0 -0.0162201 0.00787353 -0.999938 0.00787353 
23.9732 0 -3.8094 0.00787353 0.00787353 -0.999938 
23.9732 0.5 -3.8094 0.00787353 0.00787353 -0.999938 
19.8041 0 -3.81148 0.00787353 0.00787353 -0.999938 
19.8041 1 -3.81148 0.00787353 0.00787353 -0.999938 
15.4083 0 -3.81772 0.00787353 0.00787353 -0.999938 
15.4083 1.5 -3.81772 0.00787353 0.00787353 -0.999938 
10.7856 0 -3.82813 0.00787353 0.00787353 -0.999938 
10.7856 2 -3.82813 0.00787353 0.00787353 -0.999938 
5.9362 0 -3.84269 0.00787353 0.00787353 -0.999938 
5.9362 2.5 -3.84269 0.00787353 0.00787353 -0.999938 
5.9362 1.25 -3.84269 0.00787353 0.00787353 -0.999938 
8.38925 2.25 -3.83489 0.00787353 0.00787353 -0.999938 
13.1253 1.75 -3.8224 0.00787353 0.00787353 -0.999938 
17.6345 1.25 -3.81408 0.00787353 0.00787353 -0.999938 
21.917 0.75 -3.80992 0.00787353 0.00787353 -0.999938 
23.9732 0 -0.0349407 0.999938 0.00787353 0.00787353 
23.9732 0.5 -0.0349407 0.999938 0.00787353 0.00787353 
23.9732 0 -3.8094 0.999938 0.00787353 0.00787353 
23.9732 0.5 -3.8094 0.999938 0.00787353 0.00787353 
23.9732 0.5 -1.92217 0.999938 0.00787353 0.00787353 
5.9362 0 -0.00165962 0.00787353 0.00787353 0.999938 
5.9362 2.5 -0.00165962 0.00787353 0.00787353 0.999938 
10.7856 0 -0.0162201 0.00787353 0.00787353 0.999938 
15.4083 0 -0.0266205 0.00787353 0.00787353 0.999938 
15.4083 1.5 -0.0266205 0.00787353 0.00787353 0.999938 
19.8041 0 -0.0328607 0.00787353 0.00787353 0.999938 
19.8041 1 -0.0328607 0.00787353 0.00787353 0.999938 
23.9732 0 -0.0349407 0.00787353 0.00787353 0.999938 
23.9732 0.5 -0.0349407 0.00787353 0.00787353 0.999938 
5.9362 1.25 -0.00165962 0.00787353 0.00787353 0.999938 
21.917 0.75 -0.0344207 0.00787353 0.00787353 0.999938 
17.6345 1.25 -0.0302606 0.00787353 0.00787353 0.999938 
13.1253 1.75 -0.0219403 0.00787353 0.00787353 0.999938 
10.7856 2 -0.0162201 0.00787353 0.00787353 0.999938 
8.38925 2.25 -0.00945989 0.00787353 0.00787353 0.999938 
5.9362 2.5 -0.00165962 0.0936009 0.995573 0.00850917 
5.9362 2.5 -0.241724 0.0936009 0.995573 0.00850917 
5.9362 2.5 -0.481788 0.0936009 0.995573 0.00850917 
5.9362 2.5 -0.721852 0.0936009 0.995573 0.00850917 
5.9362 2.5 -0.961916 0.0936009 0.995573 0.00850917 
5.9362 2.5 -1.20198 0.0936009 0.995573 0.00850917 
5.9362 2.5 -1.44204 0.0936009 0.995573 0.00850917 
5.9362 2.5 -1.68211 0.0936009 0.995573 0.00850917 
5.9362 2.5 -1.92217 0.0936009 0.995573 0.00850917 
5.9362 2.5 -2.16224 0.0936009 0.995573 0.00850917 
5.9362 2.5 -2.4023 0.0936009 0.995573 0.00850917 
5.9362 2.5 -2.64236 0.0936009 0.995573 0.00850917 
5.9362 2.5 -2.88243 0.0936009 0.995573 0.00850917 
5.9362 2.5 -3.12249 0.0936009 0.995573 0.00850917 
5.9362 2.5 -3.36256 0.0936009 0.995573 0.00850917 
5.9362 2.5 -3.60262 0.0936009 0.995573 0.00850917 
5.9362 2.5 -3.84269 0.0936009 0.995573 0.00850917 
8.38925 2.25 -3.83489 0.0936009 0.995573 0.00850917 
10.7856 2 -3.82813 0.112324 0.993634 0.0086403 
13.1253 1.75 -3.8224 0.112324 0.993634 0.0086403 
15.4083 1.5 -3.81772 0.112324 0.993634 0.0086403 
17.6345 1.25 -3.81408 0.112324 0.993634 0.0086403 
19.8041 1 -3.81148 0.112324 0.993634 0.0086403 
21.917 0.75 -3.80992 0.112324 0.993634 0.0086403 
23.9732 0.5 -3.8094 0.112324 0.993634 0.0086403 
23.9732 0.5 -1.92217 0.112324 0.993634 0.0086403 
23.9732 0.5 -0.0349407 0.112324 0.993634 0.0086403 
21.917 0.75 -0.0344207 0.112324 0.993634 0.0086403 
19.8041 1 -0.0328607 0.112324 0.993634 0.0086403 
17.6345 1.25 -0.0302606 0.112324 0.993634 0.0086403 
15.4083 1.5 -0.0266205 0.112324 0.993634 0.0086403 
13.1253 1.75 -0.0219403 0.112324 0.993634 0.0086403 
10.7856 2 -0.0162201 0.112324 0.993634 0.0086403 
8.38925 2.25 -0.00945989 0.0936009 0.995573 0.00850917 
3.83809 0 -1.92217 -0.985105 0.00903766 -0.171716 
3.78553 0 -1.77691 -0.798637 0.0109402 -0.601713 
3.65862 2.5 -1.71673 0.0754122 0.00837914 -0.997117 
3.65862 0 -1.71673 -0.0754122 0.00837914 -0.997117 
3.59256 0 -1.73116 0.352208 0.0100631 -0.935868 
3.53172 2.5 -1.77691 0.798637 0.0109402 -0.601713 
3.49176 0 -1.84655 0.915872 0.0102907 -0.401337 
3.47916 2.5 -1.92217 0.998297 0.00825039 0.0577527 
3.47916 0 -1.92217 0.998297 0.00825039 -0.0577527 
3.49176 0 -1.99779 0.959629 0.00969322 0.281103 
3.59256 0 -2.11319 0.501849 0.0106776 0.864889 
3.65862 2.5 -2.12761 -0.0754122 0.00837914 0.997117 
3.65862 0 -2.12761 0.0754122 0.00837914 0.997117 
3.72468 0 -2.11319 -0.352208 0.0100631 0.935868 
3.78553 0 -2.06744 -0.695931 0.0110465 0.718024 
3.82549 0 -1.99779 -0.915872 0.0102907 0.401337 
3.83809 2.5 -1.92217 -0.985105 0.00903766 0.171716 
3.83809 0 -1.92217 -0.985105 0.00903766 0.171716 
3.53172 0 -2.06744 0.798637 0.0109402 0.601713 
3.53172 0 -1.77691 0.695931 0.0110465 -0.718024 
3.72468 0 -1.73116 -0.501849 0.0106776 -0.864889 
3.82549 0 -1.84655 -0.959629 0.00969322 -0.281103 
3.83809 2.5 -1.92217 -0.985105 0.00903766 -0.171716 
3.82549 2.5 -1.84655 -0.915872 0.0102907 -0.401337 
3.78553 2.5 -1.77691 -0.695931 0.0110465 -0.718024 
3.72468 2.5 -1.73116 -0.352208 0.0100631 -0.935868 
3.59256 2.5 -1.73116 0.501849 0.0106776 -0.864889 
3.49176 2.5 -1.84655 0.959629 0.00969322 -0.281103 
3.49176 2.5 -1.99779 0.915872 0.0102907 0.401337 
3.53172 2.5 -2.06744 0.695931 0.0110465 0.718024 
3.59256 2.5 -2.11319 0.352208 0.0100631 0.935868 
3.72468 2.5 -2.11319 -0.501849 0.0106776 0.864889 
3.78553 2.5 -2.06744 -0.798637 0.0109402 0.601713 
3.82549 2.5 -1.99779 -0.959629 0.00969322 0.281103 
1.85865 0 -1.92217 -0.985105 0.00903766 -0.171716 
1.84604 0 -1.84655 -0.959629 0.00969322 -0.281103 
1.80608 0 -1.77691 -0.798637 0.0109402 -0.601713 
1.74524 0 -1.73116 -0.501849 0.0106776 -0.864889 
1.67918 0 -1.71673 -0.0754122 0.00837914 -0.997117 
1.61312 0 -1.73116 0.352208 0.0100631 -0.935868 
1.55228 0 -1.77691 0.695931 0.0110465 -0.718024 
1.49971 0 -1.92217 0.998297 0.00825039 -0.0577527 
1.61312 0 -2.11319 0.501849 0.0106776 0.864889 
1.67918 0 -2.12761 0.0754122 0.00837914 0.997117 
1.74524 0 -2.11319 -0.352208 0.0100631 0.935868 
1.84604 0 -1.99779 -0.915872 0.0102907 0.401337 
1.85865 2.5 -1.92217 -0.985105 0.00903766 0.171716 
1.85865 0 -1.92217 -0.985105 0.00903766 0.171716 
1.80608 0 -2.06744 -0.695931 0.0110465 0.718024 
1.55228 0 -2.06744 0.798637 0.0109402 0.601713 
1.51231 0 -1.99779 0.959629 0.00969322 0.281103 
1.51231 0 -1.84655 0.915872 0.0102907 -0.401337 
1.85865 2.5 -1.92217 -0.985105 0.00903766 -0.171716 
1.84604 2.5 -1.84655 -0.915872 0.0102907 -0.401337 
1.80608 2.5 -1.77691 -0.695931 0.0110465 -0.718024 
1.74524 2.5 -1.73116 -0.352208 0.0100631 -0.935868 
1.67918 2.5 -1.71673 0.0754122 0.00837914 -0.997117 
1.61312 2.5 -1.73116 0.501849 0.0106776 -0.864889 
1.55228 2.5 -1.77691 0.798637 0.0109402 -0.601713 
1.51231 2.5 -1.84655 0.959629 0.00969322 -0.281103 
1.49971 2.5 -1.92217 0.998297 0.00825039 0.0577527 
1.51231 2.5 -1.99779 0.915872 0.0102907 0.401337 
1.55228 2.5 -2.06744 0.695931 0.0110465 0.718024 
1.61312 2.5 -2.11319 0.352208 0.0100631 0.935868 
1.67918 2.5 -2.12761 -0.0754122 0.00837914 0.997117 
1.74524 2.5 -2.11319 -0.501849 0.0106776 0.864889 
1.80608 2.5 -2.06744 -0.798637 0.0109402 0.601713 
1.84604 2.5 -1.99779 -0.959629 0.00969322 0.281103 
3 8 1 0 
3 8 0 7 
3 9 2 1 
3 9 1 8 
3 10 3 2 
3 10 2 9 
3 11 4 3 
3 11 3 10 
3 12 5 4 
3 12 4 11 
3 13 6 5 
3 13 5 12 
3 15 8 7 
3 15 7 14 
3 16 9 8 
3 16 8 15 
3 17 10 9 
3 17 9 16 
3 18 11 10 
3 18 10 17 
3 19 12 11 
3 19 11 18 
3 20 13 12 
3 20 12 19 
3 22 15 14 
3 22 14 21 
3 23 16 15 
3 23 15 22 
3 25 19 18 
3 25 18 24 
3 26 20 19 
3 26 19 25 
3 28 23 22 
3 28 22 27 
3 31 25 24 
3 31 24 30 
3 33 28 27 
3 33 27 32 
3 34 29 28 
3 34 28 33 
3 35 30 29 
3 35 29 34 
3 36 31 30 
3 36 30 35 
3 38 33 32 
3 38 32 37 
3 39 34 33 
3 39 33 38 
3 40 35 34 
3 40 34 39 
3 41 36 35 
3 41 35 40 
3 43 38 37 
3 43 37 42 
3 45 41 40 
3 45 40 44 
3 47 43 42 
3 47 42 46 
3 50 45 44 
3 50 44 49 
3 52 47 46 
3 52 46 51 
3 53 48 47 
3 53 47 52 
3 54 49 48 
3 54 48 53 
3 55 50 49 
3 55 49 54 
3 58 52 51 
3 58 51 57 
3 59 53 52 
3 59 52 58 
3 60 54 53 
3 60 53 59 
3 61 55 54 
3 61 54 60 
3 64 57 56 
3 64 56 63 
3 65 58 57 
3 65 57 64 
3 66 59 58 
3 66 58 65 
3 67 60 59 
3 67 59 66 
3 68 61 60 
3 68 60 67 
3 69 62 61 
3 69 61 68 
3 1 98 0 
3 7 0 98 
3 2 98 1 
3 14 7 89 
3 98 89 7 
3 3 98 2 
3 134 17 133 
3 16 133 17 
3 135 17 134 
3 132 23 131 
3 23 130 131 
3 16 132 133 
3 132 16 23 
3 21 14 89 
3 99 98 3 
3 21 90 91 
3 91 22 21 
3 22 91 27 
3 89 90 21 
3 27 92 93 
3 93 32 27 
3 32 93 37 
3 91 92 27 
3 129 23 28 
3 28 128 129 
3 128 28 29 
3 130 23 129 
3 117 118 38 
3 118 39 38 
3 37 93 94 
3 29 127 128 
3 136 137 17 
3 17 137 18 
3 136 17 135 
3 18 137 138 
3 139 24 138 
3 24 18 138 
3 140 24 139 
3 99 5 6 
3 100 99 6 
3 100 6 13 
3 4 5 99 
3 26 109 20 
3 20 109 100 
3 13 20 100 
3 24 140 141 
3 3 4 99 
3 142 127 29 
3 142 30 141 
3 29 30 142 
3 120 39 119 
3 118 119 39 
3 39 120 40 
3 108 25 107 
3 31 107 25 
3 109 26 108 
3 25 108 26 
3 106 31 36 
3 36 41 106 
3 107 31 106 
3 121 40 120 
3 141 30 24 
3 105 106 41 
3 105 41 45 
3 46 42 94 
3 37 94 42 
3 46 94 51 
3 43 116 38 
3 57 51 96 
3 97 56 96 
3 94 95 51 
3 96 51 95 
3 115 116 43 
3 115 43 114 
3 116 117 38 
3 112 113 47 
3 114 47 113 
3 47 48 112 
3 43 47 114 
3 48 111 112 
3 56 57 96 
3 63 87 88 
3 87 63 97 
3 63 88 71 
3 88 70 71 
3 63 72 73 
3 63 71 72 
3 73 64 63 
3 77 66 65 
3 65 64 75 
3 64 74 75 
3 65 76 77 
3 65 75 76 
3 74 64 73 
3 78 66 77 
3 97 63 56 
3 40 122 44 
3 122 123 44 
3 124 44 123 
3 126 111 48 
3 49 44 124 
3 49 124 125 
3 126 49 125 
3 45 50 105 
3 50 55 105 
3 103 55 61 
3 55 103 104 
3 103 61 62 
3 105 55 104 
3 126 48 49 
3 122 40 121 
3 66 79 67 
3 67 81 68 
3 80 67 79 
3 67 80 81 
3 68 82 83 
3 68 81 82 
3 69 68 83 
3 102 62 69 
3 69 101 102 
3 101 69 110 
3 103 62 102 
3 69 85 110 
3 85 86 110 
3 84 85 69 
3 69 83 84 
3 66 78 79 
3 150 143 145 
3 150 146 144 
3 146 150 145 
3 145 149 146 
3 149 148 146 
3 147 149 145 
3 172 151 153 
3 157 158 156 
3 157 156 155 
3 159 160 158 
3 159 158 157 
3 155 156 154 
3 155 154 153 
3 152 172 154 
3 154 172 153 
3 160 159 161 
3 160 161 162 
3 163 164 162 
3 163 162 161 
3 167 168 166 
3 167 166 165 
3 171 167 169 
3 165 166 164 
3 165 164 163 
3 170 168 171 
3 171 168 167 
3 178 173 175 
3 178 175 177 
3 174 178 177 
3 174 177 176 
3 184 179 181 
3 184 181 183 
3 180 184 183 
3 180 183 182 
3 190 185 187 
3 190 187 189 
3 186 190 189 
3 186 189 188 
3 212 191 193 
3 197 198 196 
3 197 196 195 
3 199 200 198 
3 199 198 197 
3 195 196 194 
3 195 194 193 
3 192 212 194 
3 194 212 193 
3 200 199 201 
3 200 201 202 
3 203 204 202 
3 203 202 201 
3 207 208 206 
3 207 206 205 
3 211 207 209 
3 205 206 204 
3 205 204 203 
3 210 208 211 
3 211 208 207 
3 219 213 215 
3 219 216 214 
3 216 219 215 
3 215 220 216 
3 220 218 216 
3 217 220 215 
3 229 228 221 
3 229 221 222 
3 230 229 222 
3 230 222 223 
3 231 230 223 
3 231 223 224 
3 232 231 224 
3 232 224 225 
3 233 232 225 
3 233 225 226 
3 234 233 226 
3 234 226 227 
3 236 235 228 
3 236 228 229 
3 237 236 229 
3 237 229 230 
3 238 237 230 
3 238 230 231 
3 239 238 231 
3 239 231 232 
3 240 239 232 
3 240 232 233 
3 241 240 233 
3 241 233 234 
3 243 242 235 
3 243 235 236 
3 244 243 236 
3 244 236 237 
3 246 245 239 
3 246 239 240 
3 247 246 240 
3 247 240 241 
3 249 248 243 
3 249 243 244 
3 252 251 245 
3 252 245 246 
3 254 253 248 
3 254 248 249 
3 255 254 249 
3 255 249 250 
3 256 255 250 
3 256 250 251 
3 257 256 251 
3 257 251 252 
3 259 258 253 
3 259 253 254 
3 260 259 254 
3 260 254 255 
3 261 260 255 
3 261 255 256 
3 262 261 256 
3 262 256 257 
3 264 263 258 
3 264 258 259 
3 266 265 261 
3 266 261 262 
3 268 267 263 
3 268 263 264 
3 271 270 265 
3 271 265 266 
3 273 272 267 
3 273 267 268 
3 274 273 268 
3 274 268 269 
3 275 274 269 
3 275 269 270 
3 276 275 270 
3 276 270 271 
3 279 278 272 
3 279 272 273 
3 280 279 273 
3 280 273 274 
3 281 280 274 
3 281 274 275 
3 282 281 275 
3 282 275 276 
3 285 284 277 
3 285 277 278 
3 286 285 278 
3 286 278 279 
3 287 286 279 
3 287 279 280 
3 288 287 280 
3 288 280 281 
3 289 288 281 
3 289 281 282 
3 290 289 282 
3 290 282 283 
3 222 221 320 
3 228 320 221 
3 223 222 320 
3 235 321 228 
3 320 228 321 
3 224 223 320 
3 355 354 238 
3 237 238 354 
3 356 355 238 
3 352 351 244 
3 237 354 353 
3 353 352 244 
3 353 244 237 
3 242 321 235 
3 319 224 320 
3 242 323 322 
3 323 242 243 
3 243 248 323 
3 321 242 322 
3 248 325 324 
3 325 248 253 
3 253 258 325 
3 323 248 324 
3 350 249 244 
3 249 350 349 
3 349 250 249 
3 351 350 244 
3 338 259 339 
3 339 259 260 
3 258 326 325 
3 250 349 348 
3 357 238 358 
3 238 239 358 
3 357 356 238 
3 239 359 358 
3 360 359 245 
3 245 359 239 
3 361 360 245 
3 319 227 226 
3 318 234 227 
3 318 227 319 
3 225 319 226 
3 247 241 317 
3 241 318 317 
3 234 318 241 
3 245 362 361 
3 224 319 225 
3 363 250 348 
3 363 362 251 
3 250 363 251 
3 341 340 260 
3 339 260 340 
3 260 261 341 
3 316 315 246 
3 252 246 315 
3 317 316 247 
3 246 247 316 
3 314 257 252 
3 257 314 262 
3 315 314 252 
3 342 341 261 
3 362 245 251 
3 313 266 262 
3 313 262 314 
3 267 326 263 
3 258 263 326 
3 267 272 326 
3 264 259 337 
3 278 328 272 
3 329 328 277 
3 326 272 327 
3 328 327 272 
3 335 264 336 
3 337 259 338 
3 336 264 337 
3 333 268 334 
3 335 334 268 
3 268 333 269 
3 264 335 268 
3 269 333 332 
3 277 328 278 
3 284 331 330 
3 330 329 284 
3 284 292 331 
3 331 292 291 
3 284 294 293 
3 284 293 292 
3 294 284 285 
3 298 286 287 
3 286 296 285 
3 285 296 295 
3 286 298 297 
3 286 297 296 
3 295 294 285 
3 299 298 287 
3 329 277 284 
3 261 265 343 
3 343 265 344 
3 345 344 265 
3 347 269 332 
3 270 345 265 
3 270 346 345 
3 347 346 270 
3 266 313 271 
3 271 313 276 
3 311 282 276 
3 276 312 311 
3 311 283 282 
3 313 312 276 
3 347 270 269 
3 343 342 261 
3 287 288 300 
3 288 289 302 
3 301 300 288 
3 288 302 301 
3 289 304 303 
3 289 303 302 
3 290 304 289 
3 310 290 283 
3 290 310 309 
3 309 308 290 
3 311 310 283 
3 290 308 306 
3 306 308 307 
3 305 290 306 
3 290 305 304 
3 287 300 299 
3 381 377 378 
3 378 379 381 
3 376 377 381 
3 381 374 375 
3 376 381 375 
3 372 373 382 
3 374 382 373 
3 370 371 387 
3 371 372 387 
3 369 370 388 
3 379 380 381 
3 368 388 367 
3 381 382 374 
3 387 372 382 
3 382 383 387 
3 370 387 388 
3 384 385 386 
3 384 386 383 
3 364 365 388 
3 366 388 365 
3 386 387 383 
3 367 388 366 
3 388 368 369 
3 403 389 391 
3 402 391 393 
3 389 403 390 
3 391 402 392 
3 392 403 391 
3 402 393 394 
3 401 394 393 
3 395 401 393 
3 395 397 399 
3 399 400 395 
3 395 396 401 
3 399 398 400 
3 400 396 395 
3 408 405 404 
3 407 408 406 
3 404 406 408 
3 418 409 411 
3 423 418 411 
3 418 423 410 
3 411 421 422 
3 422 423 411 
3 421 411 412 
3 421 412 413 
3 412 420 413 
3 414 420 412 
3 416 419 414 
3 414 415 420 
3 416 417 419 
3 419 415 414 
3 433 432 441 
3 438 437 441 
3 441 437 436 
3 435 434 441 
3 434 433 441 
3 436 435 441 
3 438 441 439 
3 431 430 457 
3 430 429 457 
3 457 432 431 
3 457 427 426 
3 424 457 425 
3 427 457 428 
3 457 426 425 
3 429 428 457 
3 440 439 441 
3 457 442 441 
3 455 444 443 
3 456 443 442 
3 453 446 445 
3 449 448 447 
3 452 447 446 
3 454 445 444 
3 454 444 455 
3 456 442 457 
3 455 443 456 
3 451 450 449 
3 452 446 453 
3 451 447 452 
3 445 454 453 
3 449 447 451 
3 432 457 441 
3 480 458 479 
3 480 479 481 
3 482 459 478 
3 482 478 483 
3 481 479 459 
3 481 459 482 
3 460 461 462 
3 460 462 484 
3 463 477 464 
3 463 464 485 
3 484 462 477 
3 484 477 463 
3 483 478 461 
3 483 461 460 
3 466 465 485 
3 466 485 464 
3 486 467 476 
3 486 476 487 
3 488 468 470 
3 488 470 469 
3 487 476 468 
3 487 468 488 
3 489 471 472 
3 489 472 490 
3 491 473 475 
3 491 475 474 
3 490 472 473 
3 490 473 491 
3 469 470 471 
3 469 471 489 
3 467 486 465 
3 467 465 466 
3 510 492 493 
3 510 493 511 
3 512 494 495 
3 512 495 513 
3 511 493 494 
3 511 494 512 
3 514 496 497 
3 514 497 515 
3 516 498 509 
3 516 509 517 
3 515 497 498 
3 515 498 516 
3 513 495 496 
3 513 496 514 
3 499 518 517 
3 499 517 509 
3 519 508 507 
3 519 507 520 
3 521 500 501 
3 521 501 522 
3 520 507 500 
3 520 500 521 
3 523 502 506 
3 523 506 524 
3 525 503 505 
3 525 505 504 
3 524 506 503 
3 524 503 525 
3 522 501 502 
3 522 502 523 
3 508 519 518 
3 508 518 499 
