ply
format ascii 1.0
comment Author: CloudCompare (TELECOM PARISTECH/EDF R&D)
comment obj_info Generated by CloudCompare!
element vertex 486
property float x
property float y
property float z
property float nx
property float ny
property float nz
element face 602
property list uchar int vertex_indices
end_header
-1.28102 0 0.318807 0.00787353 -0.999938 0.00787353 
-1.12065 0 0.479176 0.00787353 -0.999938 0.00787353 
-0.960284 0 0.639545 0.00787353 -0.999938 0.00787353 
-0.799914 0 0.799914 0.00787353 -0.999938 0.00787353 
-0.639545 0 0.960284 0.00787353 -0.999938 0.00787353 
-0.479176 0 1.12065 0.00787353 -0.999938 0.00787353 
-0.318807 0 1.28102 0.00787353 -0.999938 0.00787353 
-1.11635 0 0.154135 0.00787353 -0.999938 0.00787353 
-0.955981 0 0.314504 0.00787353 -0.999938 0.00787353 
-0.795611 0 0.474873 0.00787353 -0.999938 0.00787353 
-0.635242 0 0.635242 0.00787353 -0.999938 0.00787353 
-0.474873 0 0.795611 0.00787353 -0.999938 0.00787353 
-0.314504 0 0.955981 0.00787353 -0.999938 0.00787353 
-0.154135 0 1.11635 0.00787353 -0.999938 0.00787353 
-0.951678 0 -0.0105375 0.00787353 -0.999938 0.00787353 
-0.791309 0 0.149832 0.00787353 -0.999938 0.00787353 
-0.630939 0 0.310201 0.00787353 -0.999938 0.00787353 
-0.47057 0 0.47057 0.00787353 -0.999938 0.00787353 
-0.310201 0 0.630939 0.00787353 -0.999938 0.00787353 
-0.149832 0 0.791309 0.00787353 -0.999938 0.00787353 
0.0105375 0 0.951678 0.00787353 -0.999938 0.00787353 
-0.787006 0 -0.17521 0.00787353 -0.999938 0.00787353 
-0.626636 0 -0.0148404 0.00787353 -0.999938 0.00787353 
-0.466267 0 0.145529 0.00787353 -0.999938 0.00787353 
-0.145529 0 0.466267 0.00787353 -0.999938 0.00787353 
0.0148404 0 0.626636 0.00787353 -0.999938 0.00787353 
0.17521 0 0.787006 0.00787353 -0.999938 0.00787353 
-0.461964 0 -0.179513 0.00787353 -0.999938 0.00787353 
-0.301595 0 -0.0191433 0.00787353 -0.999938 0.00787353 
-0.141226 0 0.141226 0.00787353 -0.999938 0.00787353 
0.0191433 0 0.301595 0.00787353 -0.999938 0.00787353 
0.179513 0 0.461964 0.00787353 -0.999938 0.00787353 
-0.297292 0 -0.344185 0.00787353 -0.999938 0.00787353 
-0.136923 0 -0.183815 0.00787353 -0.999938 0.00787353 
0.0234462 0 -0.0234462 0.00787353 -0.999938 0.00787353 
0.183815 0 0.136923 0.00787353 -0.999938 0.00787353 
0.344185 0 0.297292 0.00787353 -0.999938 0.00787353 
-0.13262 0 -0.508857 0.00787353 -0.999938 0.00787353 
0.0277491 0 -0.348487 0.00787353 -0.999938 0.00787353 
0.188118 0 -0.188118 0.00787353 -0.999938 0.00787353 
0.348487 0 -0.0277491 0.00787353 -0.999938 0.00787353 
0.508857 0 0.13262 0.00787353 -0.999938 0.00787353 
0.032052 0 -0.673529 0.00787353 -0.999938 0.00787353 
0.192421 0 -0.51316 0.00787353 -0.999938 0.00787353 
0.51316 0 -0.192421 0.00787353 -0.999938 0.00787353 
0.673529 0 -0.032052 0.00787353 -0.999938 0.00787353 
0.196724 0 -0.838201 0.00787353 -0.999938 0.00787353 
0.357093 0 -0.677832 0.00787353 -0.999938 0.00787353 
0.517462 0 -0.517462 0.00787353 -0.999938 0.00787353 
0.677832 0 -0.357093 0.00787353 -0.999938 0.00787353 
0.838201 0 -0.196724 0.00787353 -0.999938 0.00787353 
0.361396 0 -1.00287 0.00787353 -0.999938 0.00787353 
0.521765 0 -0.842504 0.00787353 -0.999938 0.00787353 
0.682135 0 -0.682135 0.00787353 -0.999938 0.00787353 
0.842504 0 -0.521765 0.00787353 -0.999938 0.00787353 
1.00287 0 -0.361396 0.00787353 -0.999938 0.00787353 
0.365699 0 -1.32791 0.00787353 -0.999938 0.00787353 
0.526068 0 -1.16755 0.00787353 -0.999938 0.00787353 
0.686437 0 -1.00718 0.00787353 -0.999938 0.00787353 
0.846807 0 -0.846807 0.00787353 -0.999938 0.00787353 
1.00718 0 -0.686437 0.00787353 -0.999938 0.00787353 
1.16755 0 -0.526068 0.00787353 -0.999938 0.00787353 
1.32791 0 -0.365699 0.00787353 -0.999938 0.00787353 
0.530371 0 -1.49259 0.00787353 -0.999938 0.00787353 
0.69074 0 -1.33222 0.00787353 -0.999938 0.00787353 
0.85111 0 -1.17185 0.00787353 -0.999938 0.00787353 
1.01148 0 -1.01148 0.00787353 -0.999938 0.00787353 
1.17185 0 -0.85111 0.00787353 -0.999938 0.00787353 
1.33222 0 -0.69074 0.00787353 -0.999938 0.00787353 
1.49259 0 -0.530371 0.00787353 -0.999938 0.00787353 
0.526807 0 -1.78352 0.00787353 -0.999938 0.00787353 
0.605352 0 -1.70497 0.00787353 -0.999938 0.00787353 
0.683896 0 -1.62643 0.00787353 -0.999938 0.00787353 
0.762441 0 -1.54789 0.00787353 -0.999938 0.00787353 
0.840985 0 -1.46934 0.00787353 -0.999938 0.00787353 
0.91953 0 -1.3908 0.00787353 -0.999938 0.00787353 
0.998074 0 -1.31225 0.00787353 -0.999938 0.00787353 
1.07662 0 -1.23371 0.00787353 -0.999938 0.00787353 
1.15516 0 -1.15516 0.00787353 -0.999938 0.00787353 
1.23371 0 -1.07662 0.00787353 -0.999938 0.00787353 
1.31225 0 -0.998074 0.00787353 -0.999938 0.00787353 
1.3908 0 -0.91953 0.00787353 -0.999938 0.00787353 
1.46934 0 -0.840985 0.00787353 -0.999938 0.00787353 
1.54789 0 -0.762441 0.00787353 -0.999938 0.00787353 
1.62643 0 -0.683896 0.00787353 -0.999938 0.00787353 
1.70497 0 -0.605352 0.00787353 -0.999938 0.00787353 
1.78352 0 -0.526807 0.00787353 -0.999938 0.00787353 
0.35301 0 -1.61081 0.00787353 -0.999938 0.00787353 
-1.01168 0 -0.246122 0.00787353 -0.999938 0.00787353 
-0.69652 0 -0.302255 0.00787353 -0.999938 0.00787353 
-0.567241 0 -0.344101 0.00787353 -0.999938 0.00787353 
-0.492398 0 -0.38806 0.00787353 -0.999938 0.00787353 
0.0988886 0 -0.979347 0.00787353 -0.999938 0.00787353 
0.206985 0 -1.11103 0.00787353 -0.999938 0.00787353 
0.285371 0 -1.26016 0.00787353 -0.999938 0.00787353 
0.334046 0 -1.42676 0.00787353 -0.999938 0.00787353 
-1.5725 0 0.3147 0.00787353 -0.999938 0.00787353 
-0.3147 0 1.5725 0.00787353 -0.999938 0.00787353 
0.246122 0 1.01168 0.00787353 -0.999938 0.00787353 
1.61081 0 -0.35301 0.00787353 -0.999938 0.00787353 
1.42676 0 -0.334046 0.00787353 -0.999938 0.00787353 
1.26016 0 -0.285371 0.00787353 -0.999938 0.00787353 
1.11103 0 -0.206985 0.00787353 -0.999938 0.00787353 
0.979347 0 -0.0988886 0.00787353 -0.999938 0.00787353 
0.346453 0 0.534005 0.00787353 -0.999938 0.00787353 
0.299732 0 0.611611 0.00787353 -0.999938 0.00787353 
0.265818 0 0.732957 0.00787353 -0.999938 0.00787353 
0.413371 0 -0.413371 0.00787353 -0.999938 0.00787353 
0.384174 0 -0.433658 0.00787353 -0.999938 0.00787353 
0.347258 0 -0.442315 0.00787353 -0.999938 0.00787353 
0.31078 0 -0.435772 0.00787353 -0.999938 0.00787353 
0.282704 0 -0.417135 0.00787353 -0.999938 0.00787353 
0.264068 0 -0.38906 0.00787353 -0.999938 0.00787353 
0.257524 0 -0.352581 0.00787353 -0.999938 0.00787353 
0.266182 0 -0.315665 0.00787353 -0.999938 0.00787353 
0.286468 0 -0.286468 0.00787353 -0.999938 0.00787353 
0.315665 0 -0.266182 0.00787353 -0.999938 0.00787353 
0.352581 0 -0.257524 0.00787353 -0.999938 0.00787353 
0.38906 0 -0.264068 0.00787353 -0.999938 0.00787353 
0.417135 0 -0.282704 0.00787353 -0.999938 0.00787353 
0.435772 0 -0.31078 0.00787353 -0.999938 0.00787353 
0.442315 0 -0.347258 0.00787353 -0.999938 0.00787353 
0.433658 0 -0.384174 0.00787353 -0.999938 0.00787353 
-0.286468 0 0.286468 0.00787353 -0.999938 0.00787353 
-0.315665 0 0.266182 0.00787353 -0.999938 0.00787353 
-0.352581 0 0.257524 0.00787353 -0.999938 0.00787353 
-0.38906 0 0.264068 0.00787353 -0.999938 0.00787353 
-0.417135 0 0.282704 0.00787353 -0.999938 0.00787353 
-0.435772 0 0.31078 0.00787353 -0.999938 0.00787353 
-0.442315 0 0.347258 0.00787353 -0.999938 0.00787353 
-0.433658 0 0.384174 0.00787353 -0.999938 0.00787353 
-0.413371 0 0.413371 0.00787353 -0.999938 0.00787353 
-0.384174 0 0.433658 0.00787353 -0.999938 0.00787353 
-0.347258 0 0.442315 0.00787353 -0.999938 0.00787353 
-0.31078 0 0.435772 0.00787353 -0.999938 0.00787353 
-0.282704 0 0.417135 0.00787353 -0.999938 0.00787353 
-0.264068 0 0.38906 0.00787353 -0.999938 0.00787353 
-0.257524 0 0.352581 0.00787353 -0.999938 0.00787353 
-0.266182 0 0.315665 0.00787353 -0.999938 0.00787353 
1.61081 0 -0.35301 0.718024 0.0110465 0.695931 
1.61081 1.25 -0.35301 0.718024 0.0110465 0.695931 
1.78352 0 -0.526807 0.718024 0.0110465 0.695931 
1.78352 1.25 -0.526807 0.718024 0.0110465 0.695931 
1.78352 0.625 -0.526807 0.718024 0.0110465 0.695931 
1.61081 0.625 -0.35301 0.718024 0.0110465 0.695931 
0.246122 0 1.01168 0.997117 0.00837914 0.0754122 
0.246122 1.25 1.01168 0.997117 0.00837914 0.0754122 
0.265818 0 0.732957 0.993634 0.0086403 0.112324 
0.265818 1.25 0.732957 0.988435 0.00890482 0.151382 
0.299732 0 0.611611 0.944584 0.00994299 0.328119 
0.299732 1.25 0.611611 0.904534 0.0103969 0.426275 
0.346453 0 0.534005 0.739395 0.0110358 0.673181 
0.346453 1.25 0.534005 0.718024 0.0110465 0.695931 
0.979347 0 -0.0988886 0.695931 0.0110465 0.718024 
0.979347 1.25 -0.0988886 0.695931 0.0110465 0.718024 
1.11103 0 -0.206985 0.577076 0.0108882 0.816618 
1.11103 1.25 -0.206985 0.527065 0.0107564 0.849757 
1.26016 0 -0.285371 0.401337 0.0102907 0.915872 
1.26016 1.25 -0.285371 0.352208 0.0100631 0.935868 
1.42676 0 -0.334046 0.19258 0.00917045 0.981239 
1.42676 1.25 -0.334046 0.171716 0.00903766 0.985105 
1.61081 0 -0.35301 0.0936009 0.00850917 0.995573 
1.61081 1.25 -0.35301 0.0936009 0.00850917 0.995573 
1.61081 0.625 -0.35301 0.0936009 0.00850917 0.995573 
0.246122 0.625 1.01168 0.997117 0.00837914 0.0754122 
-0.3147 0 1.5725 0.695931 0.0110465 0.718024 
-0.3147 1.25 1.5725 0.695931 0.0110465 0.718024 
0.246122 0 1.01168 0.695931 0.0110465 0.718024 
0.246122 1.25 1.01168 0.695931 0.0110465 0.718024 
0.246122 0.625 1.01168 0.695931 0.0110465 0.718024 
-0.3147 0.625 1.5725 0.695931 0.0110465 0.718024 
-1.5725 0 0.3147 -0.707062 0.0112232 0.707062 
-1.5725 1.25 0.3147 -0.707062 0.0112232 0.707062 
-0.3147 0 1.5725 -0.707062 0.0112232 0.707062 
-0.3147 1.25 1.5725 -0.707062 0.0112232 0.707062 
-0.3147 0.625 1.5725 -0.707062 0.0112232 0.707062 
-1.5725 0.625 0.3147 -0.707062 0.0112232 0.707062 
-1.01168 0 -0.246122 -0.718024 0.0110465 -0.695931 
-1.01168 1.25 -0.246122 -0.718024 0.0110465 -0.695931 
-1.5725 0 0.3147 -0.718024 0.0110465 -0.695931 
-1.5725 1.25 0.3147 -0.718024 0.0110465 -0.695931 
-1.5725 0.625 0.3147 -0.718024 0.0110465 -0.695931 
-1.01168 0.625 -0.246122 -0.718024 0.0110465 -0.695931 
0.35301 0 -1.61081 -0.995573 0.00850917 -0.0936009 
0.35301 1.25 -1.61081 -0.995573 0.00850917 -0.0936009 
0.334046 0 -1.42676 -0.985105 0.00903766 -0.171716 
0.334046 1.25 -1.42676 -0.981239 0.00917045 -0.19258 
0.285371 0 -1.26016 -0.935868 0.0100631 -0.352208 
0.285371 1.25 -1.26016 -0.915872 0.0102907 -0.401337 
0.206985 0 -1.11103 -0.849757 0.0107564 -0.527065 
0.206985 1.25 -1.11103 -0.816618 0.0108882 -0.577076 
0.0988886 0 -0.979347 -0.718024 0.0110465 -0.695931 
0.0988886 1.25 -0.979347 -0.718024 0.0110465 -0.695931 
-0.492398 0 -0.38806 -0.695931 0.0110465 -0.718024 
-0.492398 1.25 -0.38806 -0.673181 0.0110358 -0.739395 
-0.567241 0 -0.344101 -0.426275 0.0103969 -0.904534 
-0.567241 1.25 -0.344101 -0.352208 0.0100631 -0.935868 
-0.69652 0 -0.302255 -0.213965 0.00930283 -0.976797 
-0.69652 1.25 -0.302255 -0.213965 0.00930283 -0.976797 
-1.01168 0 -0.246122 -0.171716 0.00903766 -0.985105 
-1.01168 1.25 -0.246122 -0.171716 0.00903766 -0.985105 
-1.01168 0.625 -0.246122 -0.171716 0.00903766 -0.985105 
0.35301 0.625 -1.61081 -0.995573 0.00850917 -0.0936009 
0.526807 0 -1.78352 -0.695931 0.0110465 -0.718024 
0.526807 1.25 -1.78352 -0.695931 0.0110465 -0.718024 
0.35301 0 -1.61081 -0.695931 0.0110465 -0.718024 
0.35301 1.25 -1.61081 -0.695931 0.0110465 -0.718024 
0.526807 0.625 -1.78352 -0.695931 0.0110465 -0.718024 
0.35301 0.625 -1.61081 -0.695931 0.0110465 -0.718024 
-1.28102 1.25 0.318807 0.00787353 0.999938 0.00787353 
-1.12065 1.25 0.479176 0.00787353 0.999938 0.00787353 
-0.960284 1.25 0.639545 0.00787353 0.999938 0.00787353 
-0.799914 1.25 0.799914 0.00787353 0.999938 0.00787353 
-0.639545 1.25 0.960284 0.00787353 0.999938 0.00787353 
-0.479176 1.25 1.12065 0.00787353 0.999938 0.00787353 
-0.318807 1.25 1.28102 0.00787353 0.999938 0.00787353 
-1.11635 1.25 0.154135 0.00787353 0.999938 0.00787353 
-0.955981 1.25 0.314504 0.00787353 0.999938 0.00787353 
-0.795611 1.25 0.474873 0.00787353 0.999938 0.00787353 
-0.635242 1.25 0.635242 0.00787353 0.999938 0.00787353 
-0.474873 1.25 0.795611 0.00787353 0.999938 0.00787353 
-0.314504 1.25 0.955981 0.00787353 0.999938 0.00787353 
-0.154135 1.25 1.11635 0.00787353 0.999938 0.00787353 
-0.951678 1.25 -0.0105375 0.00787353 0.999938 0.00787353 
-0.791309 1.25 0.149832 0.00787353 0.999938 0.00787353 
-0.630939 1.25 0.310201 0.00787353 0.999938 0.00787353 
-0.47057 1.25 0.47057 0.00787353 0.999938 0.00787353 
-0.310201 1.25 0.630939 0.00787353 0.999938 0.00787353 
-0.149832 1.25 0.791309 0.00787353 0.999938 0.00787353 
0.0105375 1.25 0.951678 0.00787353 0.999938 0.00787353 
-0.787006 1.25 -0.17521 0.00787353 0.999938 0.00787353 
-0.626636 1.25 -0.0148404 0.00787353 0.999938 0.00787353 
-0.466267 1.25 0.145529 0.00787353 0.999938 0.00787353 
-0.145529 1.25 0.466267 0.00787353 0.999938 0.00787353 
0.0148404 1.25 0.626636 0.00787353 0.999938 0.00787353 
0.17521 1.25 0.787006 0.00787353 0.999938 0.00787353 
-0.461964 1.25 -0.179513 0.00787353 0.999938 0.00787353 
-0.301595 1.25 -0.0191433 0.00787353 0.999938 0.00787353 
-0.141226 1.25 0.141226 0.00787353 0.999938 0.00787353 
0.0191433 1.25 0.301595 0.00787353 0.999938 0.00787353 
0.179513 1.25 0.461964 0.00787353 0.999938 0.00787353 
-0.297292 1.25 -0.344185 0.00787353 0.999938 0.00787353 
-0.136923 1.25 -0.183815 0.00787353 0.999938 0.00787353 
0.0234462 1.25 -0.0234462 0.00787353 0.999938 0.00787353 
0.183815 1.25 0.136923 0.00787353 0.999938 0.00787353 
0.344185 1.25 0.297292 0.00787353 0.999938 0.00787353 
-0.13262 1.25 -0.508857 0.00787353 0.999938 0.00787353 
0.0277491 1.25 -0.348487 0.00787353 0.999938 0.00787353 
0.188118 1.25 -0.188118 0.00787353 0.999938 0.00787353 
0.348487 1.25 -0.0277491 0.00787353 0.999938 0.00787353 
0.508857 1.25 0.13262 0.00787353 0.999938 0.00787353 
0.032052 1.25 -0.673529 0.00787353 0.999938 0.00787353 
0.192421 1.25 -0.51316 0.00787353 0.999938 0.00787353 
0.51316 1.25 -0.192421 0.00787353 0.999938 0.00787353 
0.673529 1.25 -0.032052 0.00787353 0.999938 0.00787353 
0.196724 1.25 -0.838201 0.00787353 0.999938 0.00787353 
0.357093 1.25 -0.677832 0.00787353 0.999938 0.00787353 
0.517462 1.25 -0.517462 0.00787353 0.999938 0.00787353 
0.677832 1.25 -0.357093 0.00787353 0.999938 0.00787353 
0.838201 1.25 -0.196724 0.00787353 0.999938 0.00787353 
0.361396 1.25 -1.00287 0.00787353 0.999938 0.00787353 
0.521765 1.25 -0.842504 0.00787353 0.999938 0.00787353 
0.682135 1.25 -0.682135 0.00787353 0.999938 0.00787353 
0.842504 1.25 -0.521765 0.00787353 0.999938 0.00787353 
1.00287 1.25 -0.361396 0.00787353 0.999938 0.00787353 
0.365699 1.25 -1.32791 0.00787353 0.999938 0.00787353 
0.526068 1.25 -1.16755 0.00787353 0.999938 0.00787353 
0.686437 1.25 -1.00718 0.00787353 0.999938 0.00787353 
0.846807 1.25 -0.846807 0.00787353 0.999938 0.00787353 
1.00718 1.25 -0.686437 0.00787353 0.999938 0.00787353 
1.16755 1.25 -0.526068 0.00787353 0.999938 0.00787353 
1.32791 1.25 -0.365699 0.00787353 0.999938 0.00787353 
0.530371 1.25 -1.49259 0.00787353 0.999938 0.00787353 
0.69074 1.25 -1.33222 0.00787353 0.999938 0.00787353 
0.85111 1.25 -1.17185 0.00787353 0.999938 0.00787353 
1.01148 1.25 -1.01148 0.00787353 0.999938 0.00787353 
1.17185 1.25 -0.85111 0.00787353 0.999938 0.00787353 
1.33222 1.25 -0.69074 0.00787353 0.999938 0.00787353 
1.49259 1.25 -0.530371 0.00787353 0.999938 0.00787353 
0.526807 1.25 -1.78352 0.00787353 0.999938 0.00787353 
0.605352 1.25 -1.70497 0.00787353 0.999938 0.00787353 
0.683896 1.25 -1.62643 0.00787353 0.999938 0.00787353 
0.762441 1.25 -1.54789 0.00787353 0.999938 0.00787353 
0.840985 1.25 -1.46934 0.00787353 0.999938 0.00787353 
0.91953 1.25 -1.3908 0.00787353 0.999938 0.00787353 
0.998074 1.25 -1.31225 0.00787353 0.999938 0.00787353 
1.07662 1.25 -1.23371 0.00787353 0.999938 0.00787353 
1.15516 1.25 -1.15516 0.00787353 0.999938 0.00787353 
1.23371 1.25 -1.07662 0.00787353 0.999938 0.00787353 
1.31225 1.25 -0.998074 0.00787353 0.999938 0.00787353 
1.3908 1.25 -0.91953 0.00787353 0.999938 0.00787353 
1.46934 1.25 -0.840985 0.00787353 0.999938 0.00787353 
1.54789 1.25 -0.762441 0.00787353 0.999938 0.00787353 
1.62643 1.25 -0.683896 0.00787353 0.999938 0.00787353 
1.70497 1.25 -0.605352 0.00787353 0.999938 0.00787353 
1.78352 1.25 -0.526807 0.00787353 0.999938 0.00787353 
1.61081 1.25 -0.35301 0.00787353 0.999938 0.00787353 
1.42676 1.25 -0.334046 0.00787353 0.999938 0.00787353 
1.26016 1.25 -0.285371 0.00787353 0.999938 0.00787353 
1.11103 1.25 -0.206985 0.00787353 0.999938 0.00787353 
0.979347 1.25 -0.0988886 0.00787353 0.999938 0.00787353 
0.346453 1.25 0.534005 0.00787353 0.999938 0.00787353 
0.299732 1.25 0.611611 0.00787353 0.999938 0.00787353 
0.265818 1.25 0.732957 0.00787353 0.999938 0.00787353 
0.246122 1.25 1.01168 0.00787353 0.999938 0.00787353 
-0.3147 1.25 1.5725 0.00787353 0.999938 0.00787353 
-1.5725 1.25 0.3147 0.00787353 0.999938 0.00787353 
-1.01168 1.25 -0.246122 0.00787353 0.999938 0.00787353 
-0.69652 1.25 -0.302255 0.00787353 0.999938 0.00787353 
-0.567241 1.25 -0.344101 0.00787353 0.999938 0.00787353 
-0.492398 1.25 -0.38806 0.00787353 0.999938 0.00787353 
0.0988886 1.25 -0.979347 0.00787353 0.999938 0.00787353 
0.206985 1.25 -1.11103 0.00787353 0.999938 0.00787353 
0.285371 1.25 -1.26016 0.00787353 0.999938 0.00787353 
0.334046 1.25 -1.42676 0.00787353 0.999938 0.00787353 
0.35301 1.25 -1.61081 0.00787353 0.999938 0.00787353 
0.413371 1.25 -0.413371 0.00787353 0.999938 0.00787353 
0.384174 1.25 -0.433658 0.00787353 0.999938 0.00787353 
0.347258 1.25 -0.442315 0.00787353 0.999938 0.00787353 
0.31078 1.25 -0.435772 0.00787353 0.999938 0.00787353 
0.282704 1.25 -0.417135 0.00787353 0.999938 0.00787353 
0.264068 1.25 -0.38906 0.00787353 0.999938 0.00787353 
0.257524 1.25 -0.352581 0.00787353 0.999938 0.00787353 
0.266182 1.25 -0.315665 0.00787353 0.999938 0.00787353 
0.286468 1.25 -0.286468 0.00787353 0.999938 0.00787353 
0.315665 1.25 -0.266182 0.00787353 0.999938 0.00787353 
0.352581 1.25 -0.257524 0.00787353 0.999938 0.00787353 
0.38906 1.25 -0.264068 0.00787353 0.999938 0.00787353 
0.417135 1.25 -0.282704 0.00787353 0.999938 0.00787353 
0.435772 1.25 -0.31078 0.00787353 0.999938 0.00787353 
0.442315 1.25 -0.347258 0.00787353 0.999938 0.00787353 
0.433658 1.25 -0.384174 0.00787353 0.999938 0.00787353 
-0.286468 1.25 0.286468 0.00787353 0.999938 0.00787353 
-0.315665 1.25 0.266182 0.00787353 0.999938 0.00787353 
-0.352581 1.25 0.257524 0.00787353 0.999938 0.00787353 
-0.38906 1.25 0.264068 0.00787353 0.999938 0.00787353 
-0.417135 1.25 0.282704 0.00787353 0.999938 0.00787353 
-0.435772 1.25 0.31078 0.00787353 0.999938 0.00787353 
-0.442315 1.25 0.347258 0.00787353 0.999938 0.00787353 
-0.433658 1.25 0.384174 0.00787353 0.999938 0.00787353 
-0.413371 1.25 0.413371 0.00787353 0.999938 0.00787353 
-0.384174 1.25 0.433658 0.00787353 0.999938 0.00787353 
-0.347258 1.25 0.442315 0.00787353 0.999938 0.00787353 
-0.31078 1.25 0.435772 0.00787353 0.999938 0.00787353 
-0.282704 1.25 0.417135 0.00787353 0.999938 0.00787353 
-0.264068 1.25 0.38906 0.00787353 0.999938 0.00787353 
-0.257524 1.25 0.352581 0.00787353 0.999938 0.00787353 
-0.266182 1.25 0.315665 0.00787353 0.999938 0.00787353 
1.78352 0 -0.526807 0.00787353 -0.999938 0.00787353 
1.70497 0 -0.605352 0.00787353 -0.999938 0.00787353 
1.62643 0 -0.683896 0.00787353 -0.999938 0.00787353 
1.54789 0 -0.762441 0.00787353 -0.999938 0.00787353 
1.46934 0 -0.840985 0.00787353 -0.999938 0.00787353 
1.3908 0 -0.91953 0.00787353 -0.999938 0.00787353 
1.31225 0 -0.998074 0.00787353 -0.999938 0.00787353 
1.23371 0 -1.07662 0.00787353 -0.999938 0.00787353 
1.15516 0 -1.15516 0.00787353 -0.999938 0.00787353 
1.07662 0 -1.23371 0.00787353 -0.999938 0.00787353 
0.998074 0 -1.31225 0.00787353 -0.999938 0.00787353 
0.91953 0 -1.3908 0.00787353 -0.999938 0.00787353 
0.840985 0 -1.46934 0.00787353 -0.999938 0.00787353 
0.762441 0 -1.54789 0.00787353 -0.999938 0.00787353 
0.683896 0 -1.62643 0.00787353 -0.999938 0.00787353 
0.605352 0 -1.70497 0.00787353 -0.999938 0.00787353 
0.526807 0 -1.78352 0.00787353 -0.999938 0.00787353 
3.88386 0 -5.12423 0.00787353 -0.999938 0.00787353 
6.91476 0 -8.14969 0.00787353 -0.999938 0.00787353 
8.14969 0 -6.91476 0.00787353 -0.999938 0.00787353 
5.12423 0 -3.88386 0.00787353 -0.999938 0.00787353 
6.91476 0 -8.14969 -0.707062 0.0112232 -0.707062 
6.91476 0.25 -8.14969 -0.695931 0.0110465 -0.718024 
3.88386 0 -5.12423 -0.695931 0.0110465 -0.718024 
3.88386 0.75 -5.12423 -0.695931 0.0110465 -0.718024 
0.526807 0 -1.78352 -0.695931 0.0110465 -0.718024 
0.526807 1.25 -1.78352 -0.695931 0.0110465 -0.718024 
0.526807 0.625 -1.78352 -0.695931 0.0110465 -0.718024 
2.2461 1 -3.49328 -0.695931 0.0110465 -0.718024 
5.44007 0.5 -6.67637 -0.695931 0.0110465 -0.718024 
8.14969 0 -6.91476 0.707062 0.0112232 -0.707062 
8.14969 0.25 -6.91476 0.695931 0.0110465 -0.718024 
6.91476 0 -8.14969 0.707062 0.0112232 -0.707062 
6.91476 0.25 -8.14969 0.718024 0.0110465 -0.695931 
7.53222 0.25 -7.53222 0.707062 0.0112232 -0.707062 
1.78352 0 -0.526807 0.718024 0.0110465 0.695931 
1.78352 1.25 -0.526807 0.718024 0.0110465 0.695931 
5.12423 0 -3.88386 0.718024 0.0110465 0.695931 
5.12423 0.75 -3.88386 0.718024 0.0110465 0.695931 
8.14969 0 -6.91476 0.707062 0.0112232 0.707062 
8.14969 0.25 -6.91476 0.718024 0.0110465 0.695931 
1.78352 0.625 -0.526807 0.718024 0.0110465 0.695931 
6.67637 0.5 -5.44007 0.718024 0.0110465 0.695931 
3.49328 1 -2.2461 0.718024 0.0110465 0.695931 
1.78352 1.25 -0.526807 0.0805532 0.99349 -0.0805532 
1.70497 1.25 -0.605352 0.0805532 0.99349 -0.0805532 
1.62643 1.25 -0.683896 0.0805532 0.99349 -0.0805532 
1.54789 1.25 -0.762441 0.0805532 0.99349 -0.0805532 
1.46934 1.25 -0.840985 0.0805532 0.99349 -0.0805532 
1.3908 1.25 -0.91953 0.0805532 0.99349 -0.0805532 
1.31225 1.25 -0.998074 0.062733 0.994766 -0.0806567 
1.23371 1.25 -1.07662 0.0805532 0.99349 -0.0805532 
1.15516 1.25 -1.15516 0.0805532 0.99349 -0.0805532 
1.07662 1.25 -1.23371 0.0805532 0.99349 -0.0805532 
0.998074 1.25 -1.31225 0.0806567 0.994766 -0.062733 
0.91953 1.25 -1.3908 0.0805532 0.99349 -0.0805532 
0.840985 1.25 -1.46934 0.0805532 0.99349 -0.0805532 
0.762441 1.25 -1.54789 0.0805532 0.99349 -0.0805532 
0.683896 1.25 -1.62643 0.0805532 0.99349 -0.0805532 
0.605352 1.25 -1.70497 0.0805532 0.99349 -0.0805532 
0.526807 1.25 -1.78352 0.0805532 0.99349 -0.0805532 
2.2461 1 -3.49328 0.0806567 0.994766 -0.062733 
3.88386 0.75 -5.12423 0.0805532 0.99349 -0.0805532 
5.44007 0.5 -6.67637 0.0820116 0.993251 -0.0820116 
6.91476 0.25 -8.14969 0.0820116 0.993251 -0.0820116 
7.53222 0.25 -7.53222 0.0820116 0.993251 -0.0820116 
8.14969 0.25 -6.91476 0.0820116 0.993251 -0.0820116 
6.67637 0.5 -5.44007 0.0820116 0.993251 -0.0820116 
5.12423 0.75 -3.88386 0.0805532 0.99349 -0.0805532 
3.49328 1 -2.2461 0.062733 0.994766 -0.0806567 
0.413371 0 -0.413371 -0.816618 0.0108882 0.577076 
0.433658 0 -0.384174 -0.892269 0.0104973 0.451383 
0.442315 0 -0.347258 -0.995573 0.00850917 0.0936009 
0.417135 1.25 -0.282704 -0.649844 0.0110143 -0.759987 
0.417135 0 -0.282704 -0.759987 0.0110143 -0.649844 
0.38906 0 -0.264068 -0.426275 0.0103969 -0.904534 
0.352581 0 -0.257524 -0.0406155 0.0081231 -0.999142 
0.315665 0 -0.266182 0.352208 0.0100631 -0.935868 
0.286468 1.25 -0.286468 0.707062 0.0112232 -0.707062 
0.286468 0 -0.286468 0.707062 0.0112232 -0.707062 
0.266182 1.25 -0.315665 0.892269 0.0104973 -0.451383 
0.266182 0 -0.315665 0.935868 0.0100631 -0.352208 
0.257524 1.25 -0.352581 0.99968 0.00799744 -0.0239923 
0.257524 0 -0.352581 0.99968 0.00799744 -0.0239923 
0.264068 0 -0.38906 0.952492 0.00981951 0.304405 
0.282704 1.25 -0.417135 0.649844 0.0110143 0.759987 
0.282704 0 -0.417135 0.759987 0.0110143 0.649844 
0.31078 0 -0.435772 0.426275 0.0103969 0.904534 
0.347258 0 -0.442315 0.0406155 0.0081231 0.999142 
0.384174 0 -0.433658 -0.352208 0.0100631 0.935868 
0.413371 1.25 -0.413371 -0.577076 0.0108882 0.816618 
0.413371 0 -0.413371 -0.577076 0.0108882 0.816618 
0.435772 0 -0.31078 -0.952492 0.00981951 -0.304405 
0.413371 1.25 -0.413371 -0.816618 0.0108882 0.577076 
0.433658 1.25 -0.384174 -0.935868 0.0100631 0.352208 
0.442315 1.25 -0.347258 -0.999142 0.0081231 -0.0406155 
0.435772 1.25 -0.31078 -0.904534 0.0103969 -0.426275 
0.38906 1.25 -0.264068 -0.304405 0.00981951 -0.952492 
0.352581 1.25 -0.257524 0.0936009 0.00850917 -0.995573 
0.315665 1.25 -0.266182 0.451383 0.0104973 -0.892269 
0.264068 1.25 -0.38906 0.904534 0.0103969 0.426275 
0.31078 1.25 -0.435772 0.304405 0.00981951 0.952492 
0.347258 1.25 -0.442315 -0.0936009 0.00850917 0.995573 
0.384174 1.25 -0.433658 -0.451383 0.0104973 0.892269 
-0.286468 0 0.286468 -0.816618 0.0108882 0.577076 
-0.266182 0 0.315665 -0.892269 0.0104973 0.451383 
-0.257524 0 0.352581 -0.995573 0.00850917 0.0936009 
-0.264068 0 0.38906 -0.952492 0.00981951 -0.304405 
-0.282704 0 0.417135 -0.759987 0.0110143 -0.649844 
-0.347258 0 0.442315 -0.0406155 0.0081231 -0.999142 
-0.384174 0 0.433658 0.352208 0.0100631 -0.935868 
-0.413371 0 0.413371 0.707062 0.0112232 -0.707062 
-0.433658 0 0.384174 0.915872 0.0102907 -0.401337 
-0.442315 0 0.347258 0.995573 0.00850917 -0.0936009 
-0.435772 0 0.31078 0.952492 0.00981951 0.304405 
-0.417135 0 0.282704 0.759987 0.0110143 0.649844 
-0.38906 0 0.264068 0.426275 0.0103969 0.904534 
-0.315665 0 0.266182 -0.352208 0.0100631 0.935868 
-0.286468 1.25 0.286468 -0.577076 0.0108882 0.816618 
-0.286468 0 0.286468 -0.577076 0.0108882 0.816618 
-0.352581 0 0.257524 0.0406155 0.0081231 0.999142 
-0.31078 0 0.435772 -0.426275 0.0103969 -0.904534 
-0.286468 1.25 0.286468 -0.816618 0.0108882 0.577076 
-0.266182 1.25 0.315665 -0.935868 0.0100631 0.352208 
-0.257524 1.25 0.352581 -0.999142 0.0081231 -0.0406155 
-0.264068 1.25 0.38906 -0.904534 0.0103969 -0.426275 
-0.282704 1.25 0.417135 -0.649844 0.0110143 -0.759987 
-0.31078 1.25 0.435772 -0.304405 0.00981951 -0.952492 
-0.347258 1.25 0.442315 0.0936009 0.00850917 -0.995573 
-0.384174 1.25 0.433658 0.451383 0.0104973 -0.892269 
-0.413371 1.25 0.413371 0.707062 0.0112232 -0.707062 
-0.433658 1.25 0.384174 0.915872 0.0102907 -0.401337 
-0.442315 1.25 0.347258 0.999142 0.0081231 0.0406155 
-0.435772 1.25 0.31078 0.904534 0.0103969 0.426275 
-0.417135 1.25 0.282704 0.649844 0.0110143 0.759987 
-0.38906 1.25 0.264068 0.304405 0.00981951 0.952492 
-0.352581 1.25 0.257524 -0.0936009 0.00850917 0.995573 
-0.315665 1.25 0.266182 -0.451383 0.0104973 0.892269 
3 8 1 0 
3 8 0 7 
3 9 2 1 
3 9 1 8 
3 10 3 2 
3 10 2 9 
3 11 4 3 
3 11 3 10 
3 12 5 4 
3 12 4 11 
3 13 6 5 
3 13 5 12 
3 15 8 7 
3 15 7 14 
3 16 9 8 
3 16 8 15 
3 17 10 9 
3 17 9 16 
3 18 11 10 
3 18 10 17 
3 19 12 11 
3 19 11 18 
3 20 13 12 
3 20 12 19 
3 22 15 14 
3 22 14 21 
3 23 16 15 
3 23 15 22 
3 25 19 18 
3 25 18 24 
3 26 20 19 
3 26 19 25 
3 28 23 22 
3 28 22 27 
3 31 25 24 
3 31 24 30 
3 33 28 27 
3 33 27 32 
3 34 29 28 
3 34 28 33 
3 35 30 29 
3 35 29 34 
3 36 31 30 
3 36 30 35 
3 38 33 32 
3 38 32 37 
3 39 34 33 
3 39 33 38 
3 40 35 34 
3 40 34 39 
3 41 36 35 
3 41 35 40 
3 43 38 37 
3 43 37 42 
3 45 41 40 
3 45 40 44 
3 47 43 42 
3 47 42 46 
3 50 45 44 
3 50 44 49 
3 52 47 46 
3 52 46 51 
3 53 48 47 
3 53 47 52 
3 54 49 48 
3 54 48 53 
3 55 50 49 
3 55 49 54 
3 58 52 51 
3 58 51 57 
3 59 53 52 
3 59 52 58 
3 60 54 53 
3 60 53 59 
3 61 55 54 
3 61 54 60 
3 64 57 56 
3 64 56 63 
3 65 58 57 
3 65 57 64 
3 66 59 58 
3 66 58 65 
3 67 60 59 
3 67 59 66 
3 68 61 60 
3 68 60 67 
3 69 62 61 
3 69 61 68 
3 1 96 0 
3 7 0 96 
3 2 96 1 
3 14 7 88 
3 96 88 7 
3 3 96 2 
3 130 17 129 
3 16 129 17 
3 131 17 130 
3 128 23 127 
3 23 126 127 
3 16 128 129 
3 128 16 23 
3 21 14 88 
3 97 96 3 
3 22 21 89 
3 88 89 21 
3 27 22 89 
3 27 90 91 
3 91 32 27 
3 32 91 37 
3 89 90 27 
3 125 23 28 
3 28 124 125 
3 124 28 29 
3 126 23 125 
3 113 114 38 
3 114 39 38 
3 92 37 91 
3 29 123 124 
3 132 17 131 
3 133 17 132 
3 18 17 133 
3 135 24 134 
3 134 18 133 
3 136 24 135 
3 97 5 6 
3 98 97 6 
3 98 6 13 
3 4 5 97 
3 134 24 18 
3 13 20 98 
3 20 26 98 
3 24 136 137 
3 3 4 97 
3 138 123 29 
3 138 30 137 
3 29 30 138 
3 116 39 115 
3 114 115 39 
3 39 116 40 
3 106 25 105 
3 31 105 25 
3 98 26 106 
3 25 106 26 
3 104 31 36 
3 36 41 104 
3 105 31 104 
3 117 40 116 
3 137 30 24 
3 41 103 104 
3 92 46 42 
3 43 112 38 
3 51 93 94 
3 46 92 51 
3 93 51 92 
3 92 42 37 
3 111 112 43 
3 111 43 110 
3 112 113 38 
3 108 109 47 
3 110 47 109 
3 47 48 108 
3 43 47 110 
3 48 107 108 
3 57 51 94 
3 63 95 87 
3 95 63 56 
3 63 87 71 
3 94 95 56 
3 87 70 71 
3 63 72 73 
3 63 71 72 
3 73 64 63 
3 77 66 65 
3 65 64 75 
3 64 74 75 
3 65 76 77 
3 65 75 76 
3 74 64 73 
3 78 66 77 
3 94 56 57 
3 44 118 119 
3 40 118 44 
3 122 107 48 
3 49 120 121 
3 121 122 49 
3 44 119 120 
3 120 49 44 
3 103 45 50 
3 102 103 55 
3 50 55 103 
3 55 101 102 
3 101 55 61 
3 41 45 103 
3 122 48 49 
3 118 40 117 
3 81 68 67 
3 67 66 79 
3 67 79 80 
3 68 81 82 
3 67 80 81 
3 83 68 82 
3 100 62 69 
3 69 99 100 
3 99 69 85 
3 101 62 100 
3 69 83 84 
3 99 85 86 
3 69 84 85 
3 69 68 83 
3 101 61 62 
3 66 78 79 
3 144 139 141 
3 144 141 143 
3 140 144 143 
3 140 143 142 
3 164 145 147 
3 151 152 150 
3 151 150 149 
3 152 151 153 
3 152 153 154 
3 149 150 148 
3 149 148 147 
3 148 146 164 
3 147 148 164 
3 157 158 156 
3 157 156 155 
3 163 159 161 
3 159 160 158 
3 159 158 157 
3 159 163 160 
3 155 156 154 
3 155 154 153 
3 163 162 160 
3 170 165 167 
3 170 167 169 
3 166 170 169 
3 166 169 168 
3 176 171 173 
3 176 173 175 
3 172 176 175 
3 172 175 174 
3 182 177 179 
3 182 179 181 
3 178 182 181 
3 178 181 180 
3 202 183 185 
3 189 190 188 
3 189 188 187 
3 190 189 191 
3 190 191 192 
3 187 188 186 
3 187 186 185 
3 186 184 202 
3 185 186 202 
3 195 196 194 
3 195 194 193 
3 201 197 199 
3 197 198 196 
3 197 196 195 
3 197 201 198 
3 193 194 192 
3 193 192 191 
3 201 200 198 
3 207 203 205 
3 207 205 208 
3 204 207 208 
3 204 208 206 
3 217 216 209 
3 217 209 210 
3 218 217 210 
3 218 210 211 
3 219 218 211 
3 219 211 212 
3 220 219 212 
3 220 212 213 
3 221 220 213 
3 221 213 214 
3 222 221 214 
3 222 214 215 
3 224 223 216 
3 224 216 217 
3 225 224 217 
3 225 217 218 
3 226 225 218 
3 226 218 219 
3 227 226 219 
3 227 219 220 
3 228 227 220 
3 228 220 221 
3 229 228 221 
3 229 221 222 
3 231 230 223 
3 231 223 224 
3 232 231 224 
3 232 224 225 
3 234 233 227 
3 234 227 228 
3 235 234 228 
3 235 228 229 
3 237 236 231 
3 237 231 232 
3 240 239 233 
3 240 233 234 
3 242 241 236 
3 242 236 237 
3 243 242 237 
3 243 237 238 
3 244 243 238 
3 244 238 239 
3 245 244 239 
3 245 239 240 
3 247 246 241 
3 247 241 242 
3 248 247 242 
3 248 242 243 
3 249 248 243 
3 249 243 244 
3 250 249 244 
3 250 244 245 
3 252 251 246 
3 252 246 247 
3 254 253 249 
3 254 249 250 
3 256 255 251 
3 256 251 252 
3 259 258 253 
3 259 253 254 
3 261 260 255 
3 261 255 256 
3 262 261 256 
3 262 256 257 
3 263 262 257 
3 263 257 258 
3 264 263 258 
3 264 258 259 
3 267 266 260 
3 267 260 261 
3 268 267 261 
3 268 261 262 
3 269 268 262 
3 269 262 263 
3 270 269 263 
3 270 263 264 
3 273 272 265 
3 273 265 266 
3 274 273 266 
3 274 266 267 
3 275 274 267 
3 275 267 268 
3 276 275 268 
3 276 268 269 
3 277 276 269 
3 277 269 270 
3 278 277 270 
3 278 270 271 
3 210 209 306 
3 216 306 209 
3 211 210 306 
3 223 307 216 
3 306 216 307 
3 212 211 306 
3 339 338 226 
3 225 226 338 
3 340 339 226 
3 336 335 232 
3 225 338 337 
3 337 336 232 
3 337 232 225 
3 230 307 223 
3 305 212 306 
3 231 308 230 
3 307 230 308 
3 236 308 231 
3 236 310 309 
3 310 236 241 
3 241 246 310 
3 308 236 309 
3 334 237 232 
3 237 334 333 
3 333 238 237 
3 335 334 232 
3 322 247 323 
3 323 247 248 
3 311 310 246 
3 238 333 332 
3 341 340 226 
3 342 341 226 
3 227 342 226 
3 344 343 233 
3 343 342 227 
3 345 344 233 
3 305 215 214 
3 304 222 215 
3 304 215 305 
3 213 305 214 
3 343 227 233 
3 222 304 229 
3 229 304 235 
3 233 346 345 
3 212 305 213 
3 347 238 332 
3 347 346 239 
3 238 347 239 
3 325 324 248 
3 323 248 324 
3 248 249 325 
3 303 302 234 
3 240 234 302 
3 304 303 235 
3 234 235 303 
3 301 245 240 
3 245 301 250 
3 302 301 240 
3 326 325 249 
3 346 233 239 
3 250 301 300 
3 311 251 255 
3 252 247 321 
3 260 313 312 
3 255 260 311 
3 312 311 260 
3 311 246 251 
3 319 252 320 
3 321 247 322 
3 320 252 321 
3 317 256 318 
3 319 318 256 
3 256 317 257 
3 252 319 256 
3 257 317 316 
3 266 313 260 
3 272 315 314 
3 314 265 272 
3 272 280 315 
3 313 265 314 
3 315 280 279 
3 272 282 281 
3 272 281 280 
3 282 272 273 
3 286 274 275 
3 274 284 273 
3 273 284 283 
3 274 286 285 
3 274 285 284 
3 283 282 273 
3 287 286 275 
3 313 266 265 
3 253 328 327 
3 249 253 327 
3 331 257 316 
3 258 330 329 
3 330 258 331 
3 253 329 328 
3 329 253 258 
3 300 259 254 
3 299 264 300 
3 259 300 264 
3 264 299 298 
3 298 270 264 
3 250 300 254 
3 331 258 257 
3 327 326 249 
3 290 276 277 
3 276 288 275 
3 276 289 288 
3 277 291 290 
3 276 290 289 
3 292 291 277 
3 297 278 271 
3 278 297 296 
3 296 294 278 
3 298 297 271 
3 278 293 292 
3 296 295 294 
3 278 294 293 
3 278 292 277 
3 298 271 270 
3 275 288 287 
3 363 365 362 
3 360 361 365 
3 361 362 365 
3 359 360 365 
3 365 358 359 
3 358 365 357 
3 356 357 365 
3 355 356 368 
3 363 364 365 
3 354 368 353 
3 354 355 368 
3 352 353 368 
3 366 368 365 
3 368 356 365 
3 349 350 368 
3 351 368 350 
3 349 368 348 
3 352 368 351 
3 368 366 367 
3 377 369 371 
3 369 377 370 
3 377 371 372 
3 371 375 376 
3 376 372 371 
3 375 374 376 
3 375 371 373 
3 382 379 378 
3 381 382 380 
3 378 380 382 
3 385 391 389 
3 389 391 384 
3 385 389 383 
3 390 385 387 
3 385 390 386 
3 387 388 390 
3 391 385 386 
3 406 409 407 
3 404 403 409 
3 404 409 405 
3 403 402 409 
3 406 405 409 
3 400 410 401 
3 402 401 410 
3 398 397 417 
3 397 396 417 
3 399 398 416 
3 416 400 399 
3 408 407 409 
3 400 416 410 
3 409 402 410 
3 417 416 398 
3 413 412 411 
3 410 413 411 
3 413 410 416 
3 392 417 393 
3 394 393 417 
3 415 413 416 
3 395 394 417 
3 417 396 395 
3 415 414 413 
3 441 418 419 
3 441 419 442 
3 443 420 440 
3 443 440 444 
3 442 419 420 
3 442 420 443 
3 421 422 423 
3 421 423 445 
3 446 424 425 
3 446 425 447 
3 445 423 424 
3 445 424 446 
3 444 440 422 
3 444 422 421 
3 427 426 447 
3 427 447 425 
3 430 428 429 
3 430 429 431 
3 448 432 434 
3 448 434 433 
3 430 431 432 
3 430 432 448 
3 449 435 436 
3 449 436 450 
3 451 437 439 
3 451 439 438 
3 450 436 437 
3 450 437 451 
3 433 434 435 
3 433 435 449 
3 428 426 427 
3 428 427 429 
3 470 452 453 
3 470 453 471 
3 472 454 455 
3 472 455 473 
3 471 453 454 
3 471 454 472 
3 474 456 469 
3 474 469 475 
3 476 457 458 
3 476 458 477 
3 475 469 457 
3 475 457 476 
3 473 455 456 
3 473 456 474 
3 477 458 459 
3 477 459 478 
3 479 460 461 
3 479 461 480 
3 481 462 463 
3 481 463 482 
3 480 461 462 
3 480 462 481 
3 483 464 468 
3 483 468 484 
3 485 465 467 
3 485 467 466 
3 484 468 465 
3 484 465 485 
3 482 463 464 
3 482 464 483 
3 479 478 459 
3 479 459 460 
