ply
format ascii 1.0
comment Author: CloudCompare (TELECOM PARISTECH/EDF R&D)
obj_info Generated by CloudCompare!
element vertex 545
property float x
property float y
property float z
element face 711
property list uchar int vertex_indices
end_header
4.43271 -14.1989 3.49458 
0.978666 -1.72855 2.28798 
0.978666 -1.72855 0.874256 
1.48256 -3.15912 1.09578 
1.95982 -4.59732 1.31016 
2.4104 -6.04247 1.52466 
2.83428 -7.49388 1.74654 
3.23141 -8.95087 1.98304 
3.60175 -10.4128 2.24143 
3.94527 -11.8789 2.52896 
4.26193 -13.3486 2.85288 
4.43271 -14.1989 3.05955 
0.978666 -1.72855 1.58112 
4.43376 -14.1989 3.27757 
4.26193 -13.3486 3.3165 
3.94527 -11.8789 3.05524 
3.60175 -10.4128 2.84701 
3.23141 -8.95087 2.68427 
2.83428 -7.49388 2.55943 
2.4104 -6.04247 2.46495 
1.95982 -4.59732 2.39326 
1.48256 -3.15912 2.33679 
0.749556 1.4939 0.874256 
0.500031 1.4939 0.874256 
0.250505 1.4939 0.874256 
0.000980079 1.4939 0.874256 
-0.248545 1.4939 0.874256 
-0.498071 1.4939 0.874256 
-0.747596 1.4939 0.874256 
0.749556 1.22248 0.874256 
0.500031 1.22248 0.874256 
0.250505 1.22248 0.874256 
0.000980079 1.22248 0.874256 
-0.248545 1.22248 0.874256 
-0.498071 1.22248 0.874256 
-0.747596 1.22248 0.874256 
0.749556 0.951063 0.874256 
0.500031 0.951063 0.874256 
0.250505 0.951063 0.874256 
0.000980079 0.951063 0.874256 
-0.248545 0.951063 0.874256 
-0.498071 0.951063 0.874256 
-0.747596 0.951063 0.874256 
0.749556 0.679642 0.874256 
0.500031 0.679642 0.874256 
0.250505 0.679642 0.874256 
-0.248545 0.679642 0.874256 
-0.498071 0.679642 0.874256 
-0.747596 0.679642 0.874256 
0.500031 0.408221 0.874256 
0.250505 0.408221 0.874256 
0.000980079 0.408221 0.874256 
-0.248545 0.408221 0.874256 
-0.498071 0.408221 0.874256 
0.500031 0.136801 0.874256 
0.250505 0.136801 0.874256 
0.000980079 0.136801 0.874256 
-0.248545 0.136801 0.874256 
-0.498071 0.136801 0.874256 
0.500031 -0.13462 0.874256 
0.250505 -0.13462 0.874256 
0.000980079 -0.13462 0.874256 
-0.248545 -0.13462 0.874256 
-0.498071 -0.13462 0.874256 
0.500031 -0.40604 0.874256 
0.250505 -0.40604 0.874256 
-0.248545 -0.40604 0.874256 
-0.498071 -0.40604 0.874256 
0.500031 -0.677461 0.874256 
0.250505 -0.677461 0.874256 
0.000980079 -0.677461 0.874256 
-0.248545 -0.677461 0.874256 
-0.498071 -0.677461 0.874256 
0.500031 -0.948881 0.874256 
0.250505 -0.948881 0.874256 
0.000980079 -0.948881 0.874256 
-0.248545 -0.948881 0.874256 
-0.498071 -0.948881 0.874256 
0.749556 -1.2203 0.874256 
0.500031 -1.2203 0.874256 
0.250505 -1.2203 0.874256 
0.000980079 -1.2203 0.874256 
-0.248545 -1.2203 0.874256 
-0.498071 -1.2203 0.874256 
-0.747596 -1.2203 0.874256 
0.749556 -1.49172 0.874256 
0.500031 -1.49172 0.874256 
0.250505 -1.49172 0.874256 
0.000980079 -1.49172 0.874256 
-0.248545 -1.49172 0.874256 
-0.498071 -1.49172 0.874256 
-0.747596 -1.49172 0.874256 
-0.977551 0.806357 0.874256 
-0.977551 1.73073 0.874256 
0.979511 1.73073 0.874256 
0.979511 0.806357 0.874256 
0.978666 -1.72855 0.874256 
0.761402 -1.72855 0.874256 
0.544139 -1.72855 0.874256 
0.326875 -1.72855 0.874256 
0.109612 -1.72855 0.874256 
-0.107652 -1.72855 0.874256 
-0.324915 -1.72855 0.874256 
-0.542179 -1.72855 0.874256 
-0.759442 -1.72855 0.874256 
-0.976706 -1.72855 0.874256 
0.000980079 0.647617 0.874256 
0.0394767 0.65496 0.874256 
0.0749317 0.678249 0.874256 
0.0982206 0.713704 0.874256 
0.105564 0.752201 0.874256 
0.0982206 0.790697 0.874256 
0.0749317 0.826152 0.874256 
0.0394767 0.849441 0.874256 
0.000980079 0.856784 0.874256 
-0.0375165 0.849441 0.874256 
-0.0729716 0.826152 0.874256 
-0.0962604 0.790697 0.874256 
-0.103603 0.752201 0.874256 
-0.0962604 0.713704 0.874256 
-0.0729716 0.678249 0.874256 
-0.0375165 0.65496 0.874256 
0.000980079 -0.505892 0.874256 
0.0394767 -0.498549 0.874256 
0.0749317 -0.47526 0.874256 
0.0982206 -0.439805 0.874256 
0.105564 -0.401309 0.874256 
0.0982206 -0.362812 0.874256 
0.0749317 -0.327357 0.874256 
0.0394767 -0.304068 0.874256 
0.000980079 -0.296725 0.874256 
-0.0375165 -0.304068 0.874256 
-0.0729716 -0.327357 0.874256 
-0.0962604 -0.362812 0.874256 
-0.103603 -0.401309 0.874256 
-0.0962604 -0.439805 0.874256 
-0.0729716 -0.47526 0.874256 
-0.0375165 -0.498549 0.874256 
0.979511 -1.44298 0.874256 
0.777999 0.500369 0.874256 
0.685952 0.261433 0.874256 
0.685952 -0.713154 0.874256 
0.759341 -1.09827 0.874256 
-0.977551 -1.44298 0.874256 
-0.757381 -1.09827 0.874256 
-0.683991 -0.713154 0.874256 
-0.683991 0.330012 0.874256 
-0.708019 0.432473 0.874256 
-0.977126 -1.58583 0.874256 
0.749556 1.4939 2.28798 
0.500031 1.4939 2.28798 
0.250505 1.4939 2.28798 
0.000980079 1.4939 2.28798 
-0.248545 1.4939 2.28798 
-0.498071 1.4939 2.28798 
-0.747596 1.4939 2.28798 
0.749556 1.22248 2.28798 
0.500031 1.22248 2.28798 
0.250505 1.22248 2.28798 
0.000980079 1.22248 2.28798 
-0.248545 1.22248 2.28798 
-0.498071 1.22248 2.28798 
-0.747596 1.22248 2.28798 
0.749556 0.951063 2.28798 
0.500031 0.951063 2.28798 
0.250505 0.951063 2.28798 
0.000980079 0.951063 2.28798 
-0.248545 0.951063 2.28798 
-0.498071 0.951063 2.28798 
-0.747596 0.951063 2.28798 
0.749556 0.679642 2.28798 
0.500031 0.679642 2.28798 
0.250505 0.679642 2.28798 
-0.248545 0.679642 2.28798 
-0.498071 0.679642 2.28798 
-0.747596 0.679642 2.28798 
0.500031 0.408221 2.28798 
0.250505 0.408221 2.28798 
0.000980079 0.408221 2.28798 
-0.248545 0.408221 2.28798 
-0.498071 0.408221 2.28798 
0.500031 0.136801 2.28798 
0.250505 0.136801 2.28798 
0.000980079 0.136801 2.28798 
-0.248545 0.136801 2.28798 
-0.498071 0.136801 2.28798 
0.500031 -0.13462 2.28798 
0.250505 -0.13462 2.28798 
0.000980079 -0.13462 2.28798 
-0.248545 -0.13462 2.28798 
-0.498071 -0.13462 2.28798 
0.500031 -0.40604 2.28798 
0.250505 -0.40604 2.28798 
-0.248545 -0.40604 2.28798 
-0.498071 -0.40604 2.28798 
0.500031 -0.677461 2.28798 
0.250505 -0.677461 2.28798 
0.000980079 -0.677461 2.28798 
-0.248545 -0.677461 2.28798 
-0.498071 -0.677461 2.28798 
0.500031 -0.948881 2.28798 
0.250505 -0.948881 2.28798 
0.000980079 -0.948881 2.28798 
-0.248545 -0.948881 2.28798 
-0.498071 -0.948881 2.28798 
0.749556 -1.2203 2.28798 
0.500031 -1.2203 2.28798 
0.250505 -1.2203 2.28798 
0.000980079 -1.2203 2.28798 
-0.248545 -1.2203 2.28798 
-0.498071 -1.2203 2.28798 
-0.747596 -1.2203 2.28798 
0.749556 -1.49172 2.28798 
0.500031 -1.49172 2.28798 
0.250505 -1.49172 2.28798 
0.000980079 -1.49172 2.28798 
-0.248545 -1.49172 2.28798 
-0.498071 -1.49172 2.28798 
-0.747596 -1.49172 2.28798 
0.978666 -1.72855 2.28798 
0.761402 -1.72855 2.28798 
0.544139 -1.72855 2.28798 
0.326875 -1.72855 2.28798 
0.109612 -1.72855 2.28798 
-0.107652 -1.72855 2.28798 
-0.324915 -1.72855 2.28798 
-0.542179 -1.72855 2.28798 
-0.759442 -1.72855 2.28798 
-0.976706 -1.72855 2.28798 
0.979511 1.73073 2.28798 
0.979511 0.806357 2.28798 
-0.977551 1.73073 2.28798 
-0.977551 0.806357 2.28798 
0.000980079 0.647617 2.28798 
0.0394767 0.65496 2.28798 
0.0749317 0.678249 2.28798 
0.0982206 0.713704 2.28798 
0.105564 0.752201 2.28798 
0.0982206 0.790697 2.28798 
0.0749317 0.826152 2.28798 
0.0394767 0.849441 2.28798 
0.000980079 0.856784 2.28798 
-0.0375165 0.849441 2.28798 
-0.0729716 0.826152 2.28798 
-0.0962604 0.790697 2.28798 
-0.103603 0.752201 2.28798 
-0.0962604 0.713704 2.28798 
-0.0729716 0.678249 2.28798 
-0.0375165 0.65496 2.28798 
0.000980079 -0.505892 2.28798 
0.0394767 -0.498549 2.28798 
0.0749317 -0.47526 2.28798 
0.0982206 -0.439805 2.28798 
0.105564 -0.401309 2.28798 
0.0982206 -0.362812 2.28798 
0.0749317 -0.327357 2.28798 
0.0394767 -0.304068 2.28798 
0.000980079 -0.296725 2.28798 
-0.0375165 -0.304068 2.28798 
-0.0729716 -0.327357 2.28798 
-0.0962604 -0.362812 2.28798 
-0.103603 -0.401309 2.28798 
-0.0962604 -0.439805 2.28798 
-0.0729716 -0.47526 2.28798 
-0.0375165 -0.498549 2.28798 
0.979511 -1.44298 2.28798 
0.777999 0.500369 2.28798 
0.685952 0.261433 2.28798 
0.685952 -0.713154 2.28798 
0.759341 -1.09827 2.28798 
-0.977551 -1.44298 2.28798 
-0.757381 -1.09827 2.28798 
-0.683991 -0.713154 2.28798 
-0.683991 0.330012 2.28798 
-0.708019 0.432473 2.28798 
-0.977126 -1.58583 2.28798 
-0.976706 -1.72855 0.874256 
-0.976706 -1.72855 2.28798 
-0.431081 -3.20282 2.33808 
0.0865603 -4.6856 2.39612 
0.576346 -6.17589 2.47011 
1.03841 -7.6727 2.56806 
1.47287 -9.17504 2.69799 
1.87986 -10.6819 2.86792 
2.25952 -12.1923 3.08586 
2.61196 -13.7053 3.35983 
2.72102 -14.1989 3.4626 
-0.976706 -1.72855 1.58112 
2.72102 -14.1989 3.01577 
2.61196 -13.7053 2.89621 
2.25952 -12.1923 2.55958 
1.87986 -10.6819 2.26234 
1.47287 -9.17504 1.99677 
1.03841 -7.6727 1.75516 
0.576346 -6.17589 1.52982 
0.0865603 -4.6856 1.31302 
-0.431081 -3.20282 1.09707 
4.43271 -14.1989 3.49458 
1.87986 -10.6819 2.86792 
2.08192 -10.6623 2.86427 
2.27109 -10.6304 2.86222 
2.45898 -10.5972 2.86031 
2.64686 -10.5639 2.85841 
2.83475 -10.5307 2.85651 
3.02264 -10.4975 2.85461 
3.21052 -10.4643 2.85271 
3.3997 -10.4324 2.85065 
3.60175 -10.4128 2.84701 
1.03841 -7.6727 2.56806 
1.24683 -7.66186 2.56656 
1.4446 -7.64019 2.56571 
1.64129 -7.61743 2.56492 
1.83799 -7.59467 2.56414 
2.03469 -7.57191 2.56335 
2.23139 -7.54915 2.56257 
2.42809 -7.52639 2.56179 
2.62585 -7.50472 2.56094 
2.83428 -7.49388 2.55943 
0.0865603 -4.6856 2.39612 
0.300187 -4.68166 2.39562 
0.507229 -4.67068 2.39534 
0.713613 -4.65899 2.39508 
0.919996 -4.64731 2.39482 
1.12638 -4.63562 2.39456 
1.33276 -4.62393 2.3943 
1.53915 -4.61225 2.39404 
1.74619 -4.60126 2.39376 
1.95982 -4.59732 2.39326 
-0.976706 -1.72855 2.28798 
-0.759442 -1.72855 2.28798 
-0.542179 -1.72855 2.28798 
-0.324915 -1.72855 2.28798 
-0.107652 -1.72855 2.28798 
0.109612 -1.72855 2.28798 
0.326875 -1.72855 2.28798 
0.544139 -1.72855 2.28798 
0.761402 -1.72855 2.28798 
0.978666 -1.72855 2.28798 
2.72102 -14.1989 3.4626 
2.61196 -13.7053 3.35983 
2.25952 -12.1923 3.08586 
1.47287 -9.17504 2.69799 
0.576346 -6.17589 2.47011 
-0.431081 -3.20282 2.33808 
4.23366 -14.1989 3.4966 
4.04599 -14.1989 3.49186 
3.85926 -14.1989 3.48649 
3.67232 -14.1989 3.48115 
3.48516 -14.1989 3.47584 
3.2978 -14.1989 3.47057 
3.11023 -14.1989 3.46534 
2.92134 -14.1989 3.46077 
1.48256 -3.15912 2.33679 
2.4104 -6.04247 2.46495 
3.23141 -8.95087 2.68427 
3.94527 -11.8789 3.05524 
4.26193 -13.3486 3.3165 
4.43271 -14.1989 3.05955 
2.25011 -11.3217 2.3839 
2.43747 -11.2875 2.38146 
2.62351 -11.2521 2.3792 
2.80955 -11.2167 2.37694 
2.99559 -11.1813 2.37469 
3.18164 -11.1459 2.37243 
3.36768 -11.1105 2.37017 
3.55503 -11.0763 2.36773 
1.376 -8.09993 1.82213 
1.57247 -8.07672 1.82115 
1.76783 -8.05239 1.82025 
1.96319 -8.02806 1.81935 
2.15855 -8.00374 1.81845 
2.35391 -7.97941 1.81754 
2.54928 -7.95508 1.81664 
2.74575 -7.93187 1.81566 
0.37328 -4.89893 1.34397 
0.579615 -4.88715 1.34366 
0.785253 -4.87463 1.34337 
0.990891 -4.86212 1.34309 
1.19653 -4.8496 1.3428 
1.40217 -4.83708 1.34252 
1.60781 -4.82456 1.34223 
1.81414 -4.81279 1.34192 
-0.976706 -1.72855 0.874256 
-0.759442 -1.72855 0.874256 
-0.542179 -1.72855 0.874256 
-0.324915 -1.72855 0.874256 
-0.107652 -1.72855 0.874256 
0.109612 -1.72855 0.874256 
0.326875 -1.72855 0.874256 
0.544139 -1.72855 0.874256 
0.761402 -1.72855 0.874256 
0.978666 -1.72855 0.874256 
1.48256 -3.15912 1.09578 
1.95982 -4.59732 1.31016 
2.4104 -6.04247 1.52466 
2.83428 -7.49388 1.74654 
3.23141 -8.95087 1.98304 
3.60175 -10.4128 2.24143 
3.94527 -11.8789 2.52896 
4.26193 -13.3486 2.85288 
4.23366 -14.1989 3.0606 
4.04599 -14.1989 3.0545 
3.85926 -14.1989 3.04772 
3.67232 -14.1989 3.04097 
3.48516 -14.1989 3.03425 
3.2978 -14.1989 3.02755 
3.11023 -14.1989 3.02089 
2.92134 -14.1989 3.01493 
2.72102 -14.1989 3.01577 
2.61196 -13.7053 2.89621 
2.25952 -12.1923 2.55958 
1.87986 -10.6819 2.26234 
1.47287 -9.17504 1.99677 
1.03841 -7.6727 1.75516 
0.576346 -6.17589 1.52982 
0.0865603 -4.6856 1.31302 
-0.431081 -3.20282 1.09707 
0.000980079 0.647617 0.874256 
-0.103603 0.752201 2.28798 
0.0982206 0.790697 2.28798 
0.000980079 0.647617 2.28798 
0.0394767 0.65496 2.28798 
0.0749317 0.678249 2.28798 
0.0982206 0.713704 2.28798 
0.105564 0.752201 2.28798 
0.0749317 0.826152 2.28798 
0.0394767 0.849441 2.28798 
0.000980079 0.856784 2.28798 
-0.0375165 0.849441 2.28798 
-0.0729716 0.826152 2.28798 
-0.0962604 0.790697 2.28798 
-0.0962604 0.713704 2.28798 
-0.0729716 0.678249 2.28798 
-0.0375165 0.65496 2.28798 
0.000980079 0.647617 2.28798 
-0.0375165 0.65496 0.874256 
-0.0729716 0.678249 0.874256 
-0.0962604 0.713704 0.874256 
-0.103603 0.752201 0.874256 
-0.0962604 0.790697 0.874256 
-0.0729716 0.826152 0.874256 
-0.0375165 0.849441 0.874256 
0.000980079 0.856784 0.874256 
0.0394767 0.849441 0.874256 
0.0749317 0.826152 0.874256 
0.0982206 0.790697 0.874256 
0.105564 0.752201 0.874256 
0.0982206 0.713704 0.874256 
0.0749317 0.678249 0.874256 
0.0394767 0.65496 0.874256 
0.000980079 0.647617 0.874256 
0.000980079 -0.505892 0.874256 
-0.0962604 -0.439805 2.28798 
-0.103603 -0.401309 2.28798 
0.000980079 -0.505892 2.28798 
0.0394767 -0.498549 2.28798 
0.0749317 -0.47526 2.28798 
0.0982206 -0.439805 2.28798 
0.105564 -0.401309 2.28798 
0.0982206 -0.362812 2.28798 
0.0749317 -0.327357 2.28798 
0.0394767 -0.304068 2.28798 
0.000980079 -0.296725 2.28798 
-0.0375165 -0.304068 2.28798 
-0.0729716 -0.327357 2.28798 
-0.0962604 -0.362812 2.28798 
-0.0729716 -0.47526 2.28798 
-0.0375165 -0.498549 2.28798 
0.000980079 -0.505892 2.28798 
-0.0375165 -0.498549 0.874256 
-0.0729716 -0.47526 0.874256 
-0.0962604 -0.439805 0.874256 
-0.103603 -0.401309 0.874256 
-0.0962604 -0.362812 0.874256 
-0.0729716 -0.327357 0.874256 
-0.0375165 -0.304068 0.874256 
0.000980079 -0.296725 0.874256 
0.0394767 -0.304068 0.874256 
0.0749317 -0.327357 0.874256 
0.0982206 -0.362812 0.874256 
0.105564 -0.401309 0.874256 
0.0982206 -0.439805 0.874256 
0.0749317 -0.47526 0.874256 
0.0394767 -0.498549 0.874256 
0.000980079 -0.505892 0.874256 
0.978666 -1.72855 2.28798 
0.978666 -1.72855 0.874256 
0.979511 -1.44298 2.28798 
0.979511 -1.44298 0.874256 
0.978666 -1.72855 1.58112 
0.979511 -1.44298 1.58112 
0.979511 -1.44298 2.28798 
0.979511 -1.44298 0.874256 
0.759341 -1.09827 2.28798 
0.759341 -1.09827 0.874256 
0.685952 -0.713154 2.28798 
0.685952 -0.713154 0.874256 
0.685952 0.261433 2.28798 
0.685952 0.261433 0.874256 
0.777999 0.500369 2.28798 
0.777999 0.500369 0.874256 
0.979511 0.806357 2.28798 
0.979511 0.806357 0.874256 
0.979511 -1.44298 1.58112 
0.979511 0.806357 1.58112 
0.979511 0.806357 2.28798 
0.979511 0.806357 0.874256 
0.979511 1.73073 2.28798 
0.979511 1.73073 0.874256 
0.979511 0.806357 1.58112 
0.979511 1.73073 1.58112 
0.979511 1.73073 2.28798 
0.979511 1.73073 0.874256 
-0.977551 1.73073 2.28798 
-0.977551 1.73073 0.874256 
0.979511 1.73073 1.58112 
-0.977551 1.73073 1.58112 
-0.977551 1.73073 2.28798 
-0.977551 1.73073 0.874256 
-0.977551 0.806357 2.28798 
-0.977551 0.806357 0.874256 
-0.977551 1.73073 1.58112 
-0.977551 0.806357 1.58112 
-0.977551 0.806357 2.28798 
-0.977551 0.806357 0.874256 
-0.708019 0.432473 2.28798 
-0.708019 0.432473 0.874256 
-0.683991 0.330012 2.28798 
-0.683991 0.330012 0.874256 
-0.683991 -0.713154 2.28798 
-0.683991 -0.713154 0.874256 
-0.757381 -1.09827 2.28798 
-0.757381 -1.09827 0.874256 
-0.977551 -1.44298 2.28798 
-0.977551 -1.44298 0.874256 
-0.977551 0.806357 1.58112 
-0.977551 -1.44298 1.58112 
-0.977551 -1.44298 2.28798 
-0.977551 -1.44298 0.874256 
-0.977126 -1.58583 2.28798 
-0.977126 -1.58583 0.874256 
-0.976706 -1.72855 2.28798 
-0.976706 -1.72855 0.874256 
-0.977551 -1.44298 1.58112 
-0.976706 -1.72855 1.58112 
3 13 14 0 
3 13 16 15 
3 16 8 7 
3 16 7 17 
3 13 15 14 
3 11 10 13 
3 9 13 10 
3 13 9 8 
3 16 13 8 
3 17 7 6 
3 17 6 18 
3 18 6 5 
3 18 5 19 
3 12 21 20 
3 12 1 21 
3 19 5 4 
3 19 4 20 
3 2 12 3 
3 4 3 12 
3 20 4 12 
3 30 23 22 
3 30 22 29 
3 31 24 23 
3 31 23 30 
3 32 25 24 
3 32 24 31 
3 33 26 25 
3 33 25 32 
3 34 27 26 
3 34 26 33 
3 35 28 27 
3 35 27 34 
3 37 30 29 
3 37 29 36 
3 38 31 30 
3 38 30 37 
3 39 32 31 
3 39 31 38 
3 40 33 32 
3 40 32 39 
3 41 34 33 
3 41 33 40 
3 42 35 34 
3 42 34 41 
3 44 37 36 
3 44 36 43 
3 45 38 37 
3 45 37 44 
3 47 41 40 
3 47 40 46 
3 48 42 41 
3 48 41 47 
3 50 45 44 
3 50 44 49 
3 53 47 46 
3 53 46 52 
3 55 50 49 
3 55 49 54 
3 56 51 50 
3 56 50 55 
3 57 52 51 
3 57 51 56 
3 58 53 52 
3 58 52 57 
3 60 55 54 
3 60 54 59 
3 61 56 55 
3 61 55 60 
3 62 57 56 
3 62 56 61 
3 63 58 57 
3 63 57 62 
3 65 60 59 
3 65 59 64 
3 67 63 62 
3 67 62 66 
3 69 65 64 
3 69 64 68 
3 72 67 66 
3 72 66 71 
3 74 69 68 
3 74 68 73 
3 75 70 69 
3 75 69 74 
3 76 71 70 
3 76 70 75 
3 77 72 71 
3 77 71 76 
3 80 74 73 
3 80 73 79 
3 81 75 74 
3 81 74 80 
3 82 76 75 
3 82 75 81 
3 83 77 76 
3 83 76 82 
3 86 79 78 
3 86 78 85 
3 87 80 79 
3 87 79 86 
3 88 81 80 
3 88 80 87 
3 89 82 81 
3 89 81 88 
3 90 83 82 
3 90 82 89 
3 91 84 83 
3 91 83 90 
3 23 94 22 
3 29 22 94 
3 24 94 23 
3 36 29 95 
3 94 95 29 
3 94 24 25 
3 111 45 110 
3 39 38 112 
3 38 111 112 
3 38 45 111 
3 39 112 113 
3 43 36 95 
3 93 94 25 
3 44 43 139 
3 95 139 43 
3 49 44 139 
3 54 49 140 
3 139 140 49 
3 140 59 54 
3 141 59 140 
3 108 109 45 
3 45 109 110 
3 50 108 45 
3 50 51 107 
3 107 51 106 
3 108 50 107 
3 114 39 113 
3 114 115 39 
3 39 115 116 
3 117 40 116 
3 116 40 39 
3 117 46 40 
3 28 93 27 
3 26 27 93 
3 35 93 28 
3 35 42 92 
3 92 42 48 
3 93 35 92 
3 117 118 46 
3 25 26 93 
3 46 119 120 
3 52 46 120 
3 120 121 52 
3 51 52 121 
3 48 47 147 
3 53 147 47 
3 92 48 147 
3 58 63 146 
3 53 58 146 
3 147 53 146 
3 62 61 131 
3 46 118 119 
3 106 51 121 
3 61 60 129 
3 127 60 65 
3 126 127 65 
3 125 126 65 
3 124 125 69 
3 69 125 65 
3 141 68 64 
3 141 64 59 
3 128 129 60 
3 127 128 60 
3 123 124 69 
3 137 122 70 
3 123 70 122 
3 123 69 70 
3 141 73 68 
3 129 130 61 
3 78 142 138 
3 85 78 138 
3 78 79 142 
3 85 96 97 
3 97 98 85 
3 138 96 85 
3 85 98 86 
3 142 79 73 
3 100 87 99 
3 86 99 87 
3 101 88 100 
3 87 100 88 
3 99 86 98 
3 141 142 73 
3 133 62 132 
3 131 132 62 
3 71 136 137 
3 135 136 71 
3 62 133 66 
3 134 66 133 
3 66 134 135 
3 67 72 145 
3 72 77 145 
3 63 67 145 
3 66 135 71 
3 137 70 71 
3 131 61 130 
3 83 144 77 
3 89 102 90 
3 102 103 90 
3 101 102 89 
3 90 103 91 
3 143 144 84 
3 83 84 144 
3 91 143 84 
3 148 91 104 
3 103 104 91 
3 104 105 148 
3 143 91 148 
3 145 77 144 
3 88 101 89 
3 63 145 146 
3 157 156 149 
3 157 149 150 
3 158 157 150 
3 158 150 151 
3 159 158 151 
3 159 151 152 
3 160 159 152 
3 160 152 153 
3 161 160 153 
3 161 153 154 
3 162 161 154 
3 162 154 155 
3 164 163 156 
3 164 156 157 
3 165 164 157 
3 165 157 158 
3 166 165 158 
3 166 158 159 
3 167 166 159 
3 167 159 160 
3 168 167 160 
3 168 160 161 
3 169 168 161 
3 169 161 162 
3 171 170 163 
3 171 163 164 
3 172 171 164 
3 172 164 165 
3 174 173 167 
3 174 167 168 
3 175 174 168 
3 175 168 169 
3 177 176 171 
3 177 171 172 
3 180 179 173 
3 180 173 174 
3 182 181 176 
3 182 176 177 
3 183 182 177 
3 183 177 178 
3 184 183 178 
3 184 178 179 
3 185 184 179 
3 185 179 180 
3 187 186 181 
3 187 181 182 
3 188 187 182 
3 188 182 183 
3 189 188 183 
3 189 183 184 
3 190 189 184 
3 190 184 185 
3 192 191 186 
3 192 186 187 
3 194 193 189 
3 194 189 190 
3 196 195 191 
3 196 191 192 
3 199 198 193 
3 199 193 194 
3 201 200 195 
3 201 195 196 
3 202 201 196 
3 202 196 197 
3 203 202 197 
3 203 197 198 
3 204 203 198 
3 204 198 199 
3 207 206 200 
3 207 200 201 
3 208 207 201 
3 208 201 202 
3 209 208 202 
3 209 202 203 
3 210 209 203 
3 210 203 204 
3 213 212 205 
3 213 205 206 
3 214 213 206 
3 214 206 207 
3 215 214 207 
3 215 207 208 
3 216 215 208 
3 216 208 209 
3 217 216 209 
3 217 209 210 
3 218 217 210 
3 218 210 211 
3 150 149 229 
3 156 229 149 
3 151 150 229 
3 163 230 156 
3 229 156 230 
3 229 152 151 
3 238 237 172 
3 166 239 165 
3 165 239 238 
3 165 238 172 
3 166 240 239 
3 170 230 163 
3 231 152 229 
3 171 266 170 
3 230 170 266 
3 176 266 171 
3 181 267 176 
3 266 176 267 
3 267 181 186 
3 268 267 186 
3 235 172 236 
3 172 237 236 
3 177 172 235 
3 177 234 178 
3 234 233 178 
3 235 234 177 
3 240 166 241 
3 241 166 242 
3 166 243 242 
3 244 243 167 
3 243 166 167 
3 244 167 173 
3 155 154 231 
3 153 231 154 
3 162 155 231 
3 162 232 169 
3 232 175 169 
3 231 232 162 
3 244 173 245 
3 152 231 153 
3 173 247 246 
3 179 247 173 
3 247 179 248 
3 178 248 179 
3 175 274 174 
3 180 174 274 
3 232 274 175 
3 185 273 190 
3 180 273 185 
3 274 273 180 
3 189 258 188 
3 173 246 245 
3 248 178 233 
3 188 256 187 
3 192 254 253 
3 255 254 187 
3 192 187 254 
3 251 196 252 
3 192 252 196 
3 253 252 192 
3 195 268 191 
3 257 188 258 
3 255 187 256 
3 250 196 251 
3 250 249 197 
3 250 197 196 
3 197 249 264 
3 256 188 257 
3 269 268 200 
3 265 269 205 
3 269 206 205 
3 212 219 265 
3 219 212 220 
3 205 212 265 
3 220 212 221 
3 206 269 200 
3 214 222 221 
3 214 221 213 
3 222 214 215 
3 222 215 223 
3 212 213 221 
3 195 200 268 
3 268 186 191 
3 189 193 260 
3 260 259 189 
3 198 264 263 
3 193 262 261 
3 262 198 263 
3 193 261 260 
3 272 194 190 
3 271 204 272 
3 199 272 204 
3 194 272 199 
3 198 262 193 
3 198 197 264 
3 259 258 189 
3 224 215 216 
3 216 217 225 
3 225 217 226 
3 224 216 225 
3 224 223 215 
3 226 217 218 
3 270 211 271 
3 210 271 211 
3 218 211 270 
3 275 227 218 
3 226 218 227 
3 227 275 228 
3 270 275 218 
3 204 271 210 
3 190 273 272 
3 288 286 285 
3 288 285 289 
3 290 284 283 
3 290 283 291 
3 291 283 282 
3 291 282 292 
3 289 285 284 
3 289 284 290 
3 281 293 292 
3 281 292 282 
3 293 281 280 
3 293 280 294 
3 287 296 295 
3 287 276 296 
3 294 280 279 
3 294 279 295 
3 277 287 278 
3 279 278 287 
3 295 279 287 
3 310 309 299 
3 310 299 300 
3 311 310 300 
3 311 300 301 
3 312 311 301 
3 312 301 302 
3 313 312 302 
3 313 302 303 
3 314 313 303 
3 314 303 304 
3 315 314 304 
3 315 304 305 
3 316 315 305 
3 316 305 306 
3 320 319 309 
3 320 309 310 
3 321 320 310 
3 321 310 311 
3 322 321 311 
3 322 311 312 
3 323 322 312 
3 323 312 313 
3 324 323 313 
3 324 313 314 
3 325 324 314 
3 325 314 315 
3 326 325 315 
3 326 315 316 
3 339 338 351 
3 300 299 351 
3 300 351 350 
3 301 300 350 
3 301 350 349 
3 348 302 349 
3 351 340 339 
3 299 298 340 
3 299 341 298 
3 341 299 309 
3 299 340 351 
3 301 349 302 
3 305 304 346 
3 305 346 345 
3 306 305 345 
3 306 345 344 
3 356 344 297 
3 344 356 355 
3 306 344 355 
3 304 303 347 
3 304 347 346 
3 348 347 303 
3 316 306 354 
3 306 307 354 
3 355 307 306 
3 303 302 348 
3 341 309 308 
3 342 309 319 
3 308 309 342 
3 318 342 319 
3 320 330 329 
3 320 329 319 
3 321 331 330 
3 321 330 320 
3 319 343 318 
3 329 328 343 
3 322 332 331 
3 322 331 321 
3 332 322 323 
3 332 323 333 
3 329 343 319 
3 324 334 333 
3 324 333 323 
3 325 335 334 
3 325 334 324 
3 354 317 316 
3 353 316 317 
3 327 326 353 
3 316 353 326 
3 326 336 335 
3 326 335 325 
3 352 326 327 
3 352 337 336 
3 326 352 336 
3 367 359 358 
3 367 358 366 
3 368 360 359 
3 368 359 367 
3 369 361 360 
3 369 360 368 
3 370 362 361 
3 370 361 369 
3 371 363 362 
3 371 362 370 
3 372 364 363 
3 372 363 371 
3 373 365 364 
3 373 364 372 
3 375 367 366 
3 375 366 374 
3 376 368 367 
3 376 367 375 
3 377 369 368 
3 377 368 376 
3 378 370 369 
3 378 369 377 
3 379 371 370 
3 379 370 378 
3 380 372 371 
3 380 371 379 
3 381 373 372 
3 381 372 380 
3 409 407 408 
3 359 406 407 
3 359 407 358 
3 360 405 406 
3 360 406 359 
3 361 404 405 
3 361 405 360 
3 407 409 410 
3 358 410 411 
3 358 411 412 
3 366 358 412 
3 366 412 413 
3 358 407 410 
3 402 364 401 
3 401 365 400 
3 399 357 400 
3 400 398 399 
3 365 398 400 
3 363 402 403 
3 362 403 404 
3 362 404 361 
3 403 362 363 
3 401 364 365 
3 365 373 396 
3 365 396 397 
3 398 365 397 
3 402 363 364 
3 374 366 413 
3 374 413 414 
3 415 374 414 
3 376 375 384 
3 376 384 385 
3 377 376 385 
3 377 385 386 
3 375 374 383 
3 375 383 384 
3 383 374 415 
3 383 415 416 
3 383 416 382 
3 386 387 378 
3 386 378 377 
3 379 378 387 
3 379 387 388 
3 380 379 388 
3 380 388 389 
3 396 373 395 
3 394 395 373 
3 393 394 381 
3 373 381 394 
3 381 380 389 
3 381 389 390 
3 392 393 381 
3 392 390 391 
3 381 390 392 
3 417 435 433 
3 417 433 434 
3 436 437 431 
3 436 431 432 
3 435 436 432 
3 435 432 433 
3 438 439 430 
3 438 430 418 
3 440 441 428 
3 440 428 429 
3 439 440 429 
3 439 429 430 
3 437 438 418 
3 437 418 431 
3 427 428 441 
3 427 441 442 
3 443 444 425 
3 443 425 426 
3 445 446 424 
3 445 424 419 
3 444 445 419 
3 444 419 425 
3 447 448 422 
3 447 422 423 
3 449 450 420 
3 449 420 421 
3 448 449 421 
3 448 421 422 
3 446 447 423 
3 446 423 424 
3 426 427 442 
3 426 442 443 
3 451 469 467 
3 451 467 468 
3 470 471 452 
3 470 452 466 
3 469 470 466 
3 469 466 467 
3 472 473 465 
3 472 465 453 
3 474 475 463 
3 474 463 464 
3 473 474 464 
3 473 464 465 
3 471 472 453 
3 471 453 452 
3 462 463 475 
3 462 475 476 
3 477 478 460 
3 477 460 461 
3 479 480 458 
3 479 458 459 
3 478 479 459 
3 478 459 460 
3 481 482 456 
3 481 456 457 
3 483 484 454 
3 483 454 455 
3 482 483 455 
3 482 455 456 
3 480 481 457 
3 480 457 458 
3 461 462 476 
3 461 476 477 
3 489 490 487 
3 489 487 485 
3 486 488 490 
3 486 490 489 
3 503 493 491 
3 495 493 494 
3 495 494 496 
3 494 503 492 
3 493 503 494 
3 496 498 497 
3 496 497 495 
3 499 497 498 
3 499 498 500 
3 504 501 499 
3 500 502 504 
3 500 504 499 
3 509 510 507 
3 509 507 505 
3 506 508 510 
3 506 510 509 
3 515 516 513 
3 515 513 511 
3 512 514 516 
3 512 516 515 
3 521 522 519 
3 521 519 517 
3 518 520 522 
3 518 522 521 
3 535 525 523 
3 527 525 526 
3 527 526 528 
3 526 535 524 
3 525 535 526 
3 528 530 529 
3 528 529 527 
3 531 529 530 
3 531 530 532 
3 536 533 531 
3 532 534 536 
3 532 536 531 
3 543 539 537 
3 543 538 540 
3 540 539 543 
3 539 540 544 
3 544 540 542 
3 541 539 544 
