ply
format ascii 1.0
comment Author: CloudCompare (TELECOM PARISTECH/EDF R&D)
obj_info Generated by CloudCompare!
element vertex 494
property float x
property float y
property float z
property float nx
property float ny
property float nz
element face 610
property list uchar int vertex_indices
end_header
2.42024 -10 -17.65 0.00787353 -0.999938 0.00787353 
2.42024 -10 -15.1 0.00787353 -0.999938 0.00787353 
2.42024 -10 -12.55 0.00787353 -0.999938 0.00787353 
2.42024 -10 -10 0.00787353 -0.999938 0.00787353 
2.42024 -10 -7.45 0.00787353 -0.999938 0.00787353 
2.42024 -10 -4.9 0.00787353 -0.999938 0.00787353 
2.42024 -10 -2.35 0.00787353 -0.999938 0.00787353 
5.19399 -10 -17.65 0.00787353 -0.999938 0.00787353 
5.19399 -10 -15.1 0.00787353 -0.999938 0.00787353 
5.19399 -10 -12.55 0.00787353 -0.999938 0.00787353 
5.19399 -10 -10 0.00787353 -0.999938 0.00787353 
5.19399 -10 -7.45 0.00787353 -0.999938 0.00787353 
5.19399 -10 -4.9 0.00787353 -0.999938 0.00787353 
5.19399 -10 -2.35 0.00787353 -0.999938 0.00787353 
7.96775 -10 -17.65 0.00787353 -0.999938 0.00787353 
7.96775 -10 -15.1 0.00787353 -0.999938 0.00787353 
7.96775 -10 -12.55 0.00787353 -0.999938 0.00787353 
7.96775 -10 -10 0.00787353 -0.999938 0.00787353 
7.96775 -10 -7.45 0.00787353 -0.999938 0.00787353 
7.96775 -10 -4.9 0.00787353 -0.999938 0.00787353 
7.96775 -10 -2.35 0.00787353 -0.999938 0.00787353 
10.7415 -10 -17.65 0.00787353 -0.999938 0.00787353 
10.7415 -10 -15.1 0.00787353 -0.999938 0.00787353 
10.7415 -10 -12.55 0.00787353 -0.999938 0.00787353 
10.7415 -10 -7.45 0.00787353 -0.999938 0.00787353 
10.7415 -10 -4.9 0.00787353 -0.999938 0.00787353 
10.7415 -10 -2.35 0.00787353 -0.999938 0.00787353 
13.5153 -10 -15.1 0.00787353 -0.999938 0.00787353 
13.5153 -10 -12.55 0.00787353 -0.999938 0.00787353 
13.5153 -10 -10 0.00787353 -0.999938 0.00787353 
13.5153 -10 -7.45 0.00787353 -0.999938 0.00787353 
13.5153 -10 -4.9 0.00787353 -0.999938 0.00787353 
16.289 -10 -15.1 0.00787353 -0.999938 0.00787353 
16.289 -10 -12.55 0.00787353 -0.999938 0.00787353 
16.289 -10 -10 0.00787353 -0.999938 0.00787353 
16.289 -10 -7.45 0.00787353 -0.999938 0.00787353 
16.289 -10 -4.9 0.00787353 -0.999938 0.00787353 
19.0628 -10 -15.1 0.00787353 -0.999938 0.00787353 
19.0628 -10 -12.55 0.00787353 -0.999938 0.00787353 
19.0628 -10 -10 0.00787353 -0.999938 0.00787353 
19.0628 -10 -7.45 0.00787353 -0.999938 0.00787353 
19.0628 -10 -4.9 0.00787353 -0.999938 0.00787353 
21.8365 -10 -15.1 0.00787353 -0.999938 0.00787353 
21.8365 -10 -12.55 0.00787353 -0.999938 0.00787353 
21.8365 -10 -7.45 0.00787353 -0.999938 0.00787353 
21.8365 -10 -4.9 0.00787353 -0.999938 0.00787353 
24.6103 -10 -15.1 0.00787353 -0.999938 0.00787353 
24.6103 -10 -12.55 0.00787353 -0.999938 0.00787353 
24.6103 -10 -10 0.00787353 -0.999938 0.00787353 
24.6103 -10 -7.45 0.00787353 -0.999938 0.00787353 
24.6103 -10 -4.9 0.00787353 -0.999938 0.00787353 
27.384 -10 -15.1 0.00787353 -0.999938 0.00787353 
27.384 -10 -12.55 0.00787353 -0.999938 0.00787353 
27.384 -10 -10 0.00787353 -0.999938 0.00787353 
27.384 -10 -7.45 0.00787353 -0.999938 0.00787353 
27.384 -10 -4.9 0.00787353 -0.999938 0.00787353 
30.1578 -10 -17.65 0.00787353 -0.999938 0.00787353 
30.1578 -10 -15.1 0.00787353 -0.999938 0.00787353 
30.1578 -10 -12.55 0.00787353 -0.999938 0.00787353 
30.1578 -10 -10 0.00787353 -0.999938 0.00787353 
30.1578 -10 -7.45 0.00787353 -0.999938 0.00787353 
30.1578 -10 -4.9 0.00787353 -0.999938 0.00787353 
30.1578 -10 -2.35 0.00787353 -0.999938 0.00787353 
32.9316 -10 -17.65 0.00787353 -0.999938 0.00787353 
32.9316 -10 -15.1 0.00787353 -0.999938 0.00787353 
32.9316 -10 -12.55 0.00787353 -0.999938 0.00787353 
32.9316 -10 -10 0.00787353 -0.999938 0.00787353 
32.9316 -10 -7.45 0.00787353 -0.999938 0.00787353 
32.9316 -10 -4.9 0.00787353 -0.999938 0.00787353 
32.9316 -10 -2.35 0.00787353 -0.999938 0.00787353 
35.3518 -10 -19.9914 0.00787353 -0.999938 0.00787353 
35.3518 -10 -18.7424 0.00787353 -0.999938 0.00787353 
35.3518 -10 -17.4935 0.00787353 -0.999938 0.00787353 
35.3518 -10 -16.2446 0.00787353 -0.999938 0.00787353 
35.3518 -10 -14.9957 0.00787353 -0.999938 0.00787353 
35.3518 -10 -13.7468 0.00787353 -0.999938 0.00787353 
35.3518 -10 -12.4978 0.00787353 -0.999938 0.00787353 
35.3518 -10 -11.2489 0.00787353 -0.999938 0.00787353 
35.3518 -10 -10 0.00787353 -0.999938 0.00787353 
35.3518 -10 -8.75108 0.00787353 -0.999938 0.00787353 
35.3518 -10 -7.50216 0.00787353 -0.999938 0.00787353 
35.3518 -10 -6.25324 0.00787353 -0.999938 0.00787353 
35.3518 -10 -5.00432 0.00787353 -0.999938 0.00787353 
35.3518 -10 -3.7554 0.00787353 -0.999938 0.00787353 
35.3518 -10 -2.50648 0.00787353 -0.999938 0.00787353 
35.3518 -10 -1.25755 0.00787353 -0.999938 0.00787353 
35.3518 -10 -0.00863411 0.00787353 -0.999938 0.00787353 
32.4335 -10 -20 0.00787353 -0.999938 0.00787353 
33.8933 -10 -19.9957 0.00787353 -0.999938 0.00787353 
9.44655 -10 -20 0.00787353 -0.999938 0.00787353 
12.5736 -10 -17.9407 0.00787353 -0.999938 0.00787353 
14.0148 -10 -17.2455 0.00787353 -0.999938 0.00787353 
15.0154 -10 -17 0.00787353 -0.999938 0.00787353 
24.9751 -10 -17 0.00787353 -0.999938 0.00787353 
26.9945 -10 -17.1875 0.00787353 -0.999938 0.00787353 
28.9107 -10 -17.75 0.00787353 -0.999938 0.00787353 
30.7237 -10 -18.6875 0.00787353 -0.999938 0.00787353 
0 -10 -20 0.00787353 -0.999938 0.00787353 
0 -10 3.55271e-15 0.00787353 -0.999938 0.00787353 
9.44655 -10 3.55271e-15 0.00787353 -0.999938 0.00787353 
32.4335 -10 3.55271e-15 0.00787353 -0.999938 0.00787353 
30.7237 -10 -1.3125 0.00787353 -0.999938 0.00787353 
28.9107 -10 -2.25 0.00787353 -0.999938 0.00787353 
26.9945 -10 -2.8125 0.00787353 -0.999938 0.00787353 
24.9751 -10 -3 0.00787353 -0.999938 0.00787353 
14.3145 -10 -3 0.00787353 -0.999938 0.00787353 
13.2674 -10 -2.75446 0.00787353 -0.999938 0.00787353 
11.9598 -10 -2.05933 0.00787353 -0.999938 0.00787353 
33.8933 -10 -0.0043403 0.00787353 -0.999938 0.00787353 
22.857 -10 -10 0.00787353 -0.999938 0.00787353 
22.7819 -10 -10.3934 0.00787353 -0.999938 0.00787353 
22.5439 -10 -10.7557 0.00787353 -0.999938 0.00787353 
22.1816 -10 -10.9937 0.00787353 -0.999938 0.00787353 
21.7882 -10 -11.0688 0.00787353 -0.999938 0.00787353 
21.3948 -10 -10.9937 0.00787353 -0.999938 0.00787353 
21.0324 -10 -10.7557 0.00787353 -0.999938 0.00787353 
20.7944 -10 -10.3934 0.00787353 -0.999938 0.00787353 
20.7194 -10 -10 0.00787353 -0.999938 0.00787353 
20.7944 -10 -9.60659 0.00787353 -0.999938 0.00787353 
21.0324 -10 -9.24426 0.00787353 -0.999938 0.00787353 
21.3948 -10 -9.00626 0.00787353 -0.999938 0.00787353 
21.7882 -10 -8.93122 0.00787353 -0.999938 0.00787353 
22.1816 -10 -9.00626 0.00787353 -0.999938 0.00787353 
22.5439 -10 -9.24426 0.00787353 -0.999938 0.00787353 
22.7819 -10 -9.60659 0.00787353 -0.999938 0.00787353 
11.0688 -10 -10 0.00787353 -0.999938 0.00787353 
10.9937 -10 -10.3934 0.00787353 -0.999938 0.00787353 
10.7557 -10 -10.7557 0.00787353 -0.999938 0.00787353 
10.3934 -10 -10.9937 0.00787353 -0.999938 0.00787353 
10 -10 -11.0688 0.00787353 -0.999938 0.00787353 
9.60659 -10 -10.9937 0.00787353 -0.999938 0.00787353 
9.24426 -10 -10.7557 0.00787353 -0.999938 0.00787353 
9.00626 -10 -10.3934 0.00787353 -0.999938 0.00787353 
8.93122 -10 -10 0.00787353 -0.999938 0.00787353 
9.00626 -10 -9.60659 0.00787353 -0.999938 0.00787353 
9.24426 -10 -9.24426 0.00787353 -0.999938 0.00787353 
9.60659 -10 -9.00626 0.00787353 -0.999938 0.00787353 
10 -10 -8.93122 0.00787353 -0.999938 0.00787353 
10.3934 -10 -9.00626 0.00787353 -0.999938 0.00787353 
10.7557 -10 -9.24426 0.00787353 -0.999938 0.00787353 
10.9937 -10 -9.60659 0.00787353 -0.999938 0.00787353 
32.4335 -10 3.55271e-15 0.00787353 0.00787353 0.999938 
32.4335 0 3.55271e-15 0.00787353 -0.00787353 0.999938 
33.8933 -10 -0.0043403 0.00787353 0.00787353 0.999938 
33.8933 0 -0.0043403 0.00787353 -0.00787353 0.999938 
35.3518 -10 -0.00863411 0.00787353 0.00787353 0.999938 
35.3518 0 -0.00863411 0.00787353 0.00787353 0.999938 
35.3518 -5 -0.00863411 0.00787353 0.00787353 0.999938 
32.4335 -5 1.77636e-15 0.00787353 0.00787353 0.999938 
9.44655 -10 3.55271e-15 0.625996 0.0109824 0.779749 
9.44655 0 3.55271e-15 0.625996 0.0109824 0.779749 
11.9598 -10 -2.05933 0.601713 0.0109402 0.798637 
11.9598 0 -2.05933 0.577076 0.0108882 0.816618 
13.2674 -10 -2.75446 0.401337 0.0102907 0.915872 
13.2674 0 -2.75446 0.328119 0.00994299 0.944584 
14.3145 -10 -3 0.0406155 0.0081231 0.999142 
14.3145 0 -3 0.00787353 0.00787353 0.999938 
24.9751 -10 -3 -0.00787353 0.00787353 0.999938 
24.9751 0 -3 -0.0239923 0.00799744 0.99968 
26.9945 -10 -2.8125 -0.151382 0.00890482 0.988435 
26.9945 0 -2.8125 -0.213965 0.00930283 0.976797 
28.9107 -10 -2.25 -0.352208 0.0100631 0.935868 
28.9107 0 -2.25 -0.401337 0.0102907 0.915872 
30.7237 -10 -1.3125 -0.527065 0.0107564 0.849757 
30.7237 0 -1.3125 -0.552167 -0.0108268 0.833663 
32.4335 -10 3.55271e-15 -0.601713 0.0109402 0.798637 
32.4335 0 3.55271e-15 -0.601713 -0.0109402 0.798637 
32.4335 -5 1.77636e-15 -0.601713 0.0109402 0.798637 
9.44655 -5 1.77636e-15 0.625996 0.0109824 0.779749 
0 -10 3.55271e-15 0.00787353 0.00787353 0.999938 
0 0 0 -0.00787353 0.00787353 0.999938 
9.44655 -10 3.55271e-15 0.00787353 0.00787353 0.999938 
9.44655 0 3.55271e-15 -0.00787353 -0.00787353 0.999938 
9.44655 -5 1.77636e-15 -0.00787353 0.00787353 0.999938 
0 -5 1.77636e-15 0.00787353 0.00787353 0.999938 
0 -10 -20 -0.999938 0.00787353 0.00787353 
0 0 -20 -0.999938 0.00787353 0.00787353 
0 -10 3.55271e-15 -0.999938 0.00787353 0.00787353 
0 0 0 -0.999938 0.00787353 0.00787353 
0 -5 1.77636e-15 -0.999938 0.00787353 0.00787353 
0 -5 -20 -0.999938 0.00787353 0.00787353 
9.44655 -10 -20 0.00787353 0.00787353 -0.999938 
9.44655 0 -20 0.00787353 0.00787353 -0.999938 
0 -10 -20 0.00787353 0.00787353 -0.999938 
0 0 -20 0.00787353 0.00787353 -0.999938 
0 -5 -20 0.00787353 0.00787353 -0.999938 
9.44655 -5 -20 0.00787353 0.00787353 -0.999938 
32.4335 -10 -20 -0.601713 0.0109402 -0.798637 
32.4335 0 -20 -0.601713 0.0109402 -0.798637 
30.7237 -10 -18.6875 -0.552167 0.0108268 -0.833663 
30.7237 0 -18.6875 -0.527065 0.0107564 -0.849757 
28.9107 -10 -17.75 -0.401337 0.0102907 -0.915872 
28.9107 0 -17.75 -0.352208 0.0100631 -0.935868 
26.9945 -10 -17.1875 -0.213965 0.00930283 -0.976797 
26.9945 0 -17.1875 -0.151382 0.00890482 -0.988435 
24.9751 -10 -17 -0.0239923 0.00799744 -0.99968 
24.9751 0 -17 -0.00787353 0.00787353 -0.999938 
15.0154 -10 -17 0.00787353 0.00787353 -0.999938 
15.0154 0 -17 0.0406155 0.0081231 -0.999142 
14.0148 -10 -17.2455 0.328119 0.00994299 -0.944584 
14.0148 0 -17.2455 0.376631 0.0101792 -0.926308 
12.5736 -10 -17.9407 0.501849 0.0106776 -0.864889 
12.5736 0 -17.9407 0.527065 0.0107564 -0.849757 
9.44655 -10 -20 0.552167 0.0108268 -0.833663 
9.44655 0 -20 0.552167 0.0108268 -0.833663 
9.44655 -5 -20 0.552167 0.0108268 -0.833663 
32.4335 -5 -20 -0.601713 0.0109402 -0.798637 
35.3518 -10 -19.9914 0.00787353 0.00787353 -0.999938 
35.3518 0 -19.9914 0.00787353 0.00787353 -0.999938 
33.8933 -10 -19.9957 0.00787353 0.00787353 -0.999938 
33.8933 0 -19.9957 0.00787353 0.00787353 -0.999938 
32.4335 -10 -20 0.00787353 0.00787353 -0.999938 
32.4335 0 -20 0.00787353 0.00787353 -0.999938 
35.3518 -5 -19.9914 0.00787353 0.00787353 -0.999938 
32.4335 -5 -20 0.00787353 0.00787353 -0.999938 
2.42024 0 -17.65 0.00787353 0.999938 0.00787353 
2.42024 0 -15.1 0.00787353 0.999938 0.00787353 
2.42024 0 -12.55 0.00787353 0.999938 0.00787353 
2.42024 0 -10 0.00787353 0.999938 0.00787353 
2.42024 0 -7.45 0.00787353 0.999938 0.00787353 
2.42024 0 -4.9 0.00787353 0.999938 0.00787353 
2.42024 0 -2.35 0.00787353 0.999938 0.00787353 
5.19399 0 -17.65 0.00787353 0.999938 0.00787353 
5.19399 0 -15.1 0.00787353 0.999938 0.00787353 
5.19399 0 -12.55 0.00787353 0.999938 0.00787353 
5.19399 0 -10 0.00787353 0.999938 0.00787353 
5.19399 0 -7.45 0.00787353 0.999938 0.00787353 
5.19399 0 -4.9 0.00787353 0.999938 0.00787353 
5.19399 0 -2.35 0.00787353 0.999938 0.00787353 
7.96775 0 -17.65 0.00787353 0.999938 0.00787353 
7.96775 0 -15.1 0.00787353 0.999938 0.00787353 
7.96775 0 -12.55 -0.00787353 0.999938 -0.00787353 
7.96775 0 -10 -0.00787353 0.999938 0.00787353 
7.96775 0 -7.45 -0.00787353 0.999938 0.00787353 
7.96775 0 -4.9 0.00787353 0.999938 0.00787353 
7.96775 0 -2.35 0.00787353 0.999938 0.00787353 
10.7415 0 -17.65 0.00787353 0.999938 0.00787353 
10.7415 0 -15.1 0.00787353 0.999938 0.00787353 
10.7415 0 -12.55 0.00787353 0.999938 -0.00787353 
10.7415 0 -7.45 0.00787353 0.999938 0.00787353 
10.7415 0 -4.9 0.00787353 0.999938 0.00787353 
10.7415 0 -2.35 0.00787353 0.999938 0.00787353 
13.5153 0 -15.1 0.00787353 0.999938 0.00787353 
13.5153 0 -12.55 -0.00787353 0.999938 0.00787353 
13.5153 0 -10 -0.00787353 0.999938 -0.00787353 
13.5153 0 -7.45 0.00787353 0.999938 0.00787353 
13.5153 0 -4.9 0.00787353 0.999938 0.00787353 
16.289 0 -15.1 0.00787353 0.999938 0.00787353 
16.289 0 -12.55 0.00787353 0.999938 0.00787353 
16.289 0 -10 0.00787353 0.999938 0.00787353 
16.289 0 -7.45 0.00787353 0.999938 0.00787353 
16.289 0 -4.9 0.00787353 0.999938 0.00787353 
19.0628 0 -15.1 0.00787353 0.999938 0.00787353 
19.0628 0 -12.55 -0.00787353 0.999938 -0.00787353 
19.0628 0 -10 -0.00787353 0.999938 0.00787353 
19.0628 0 -7.45 -0.00787353 0.999938 0.00787353 
19.0628 0 -4.9 0.00787353 0.999938 0.00787353 
21.8365 0 -15.1 0.00787353 0.999938 0.00787353 
21.8365 0 -12.55 0.00787353 0.999938 -0.00787353 
21.8365 0 -7.45 0.00787353 0.999938 0.00787353 
21.8365 0 -4.9 0.00787353 0.999938 0.00787353 
24.6103 0 -15.1 0.00787353 0.999938 0.00787353 
24.6103 0 -12.55 0.00787353 0.999938 -0.00787353 
24.6103 0 -10 -0.00787353 0.999938 -0.00787353 
24.6103 0 -7.45 0.00787353 0.999938 0.00787353 
24.6103 0 -4.9 0.00787353 0.999938 0.00787353 
27.384 0 -15.1 0.00787353 0.999938 0.00787353 
27.384 0 -12.55 0.00787353 0.999938 0.00787353 
27.384 0 -10 0.00787353 0.999938 0.00787353 
27.384 0 -7.45 0.00787353 0.999938 0.00787353 
27.384 0 -4.9 0.00787353 0.999938 0.00787353 
30.1578 0 -17.65 0.00787353 0.999938 0.00787353 
30.1578 0 -15.1 0.00787353 0.999938 0.00787353 
30.1578 0 -12.55 0.00787353 0.999938 0.00787353 
30.1578 0 -10 0.00787353 0.999938 0.00787353 
30.1578 0 -7.45 0.00787353 0.999938 0.00787353 
30.1578 0 -4.9 0.00787353 0.999938 0.00787353 
30.1578 0 -2.35 0.00787353 0.999938 0.00787353 
32.9316 0 -17.65 0.00787353 0.999938 0.00787353 
32.9316 0 -15.1 0.00787353 0.999938 0.00787353 
32.9316 0 -12.55 0.00787353 0.999938 0.00787353 
32.9316 0 -10 0.00787353 0.999938 0.00787353 
32.9316 0 -7.45 0.00787353 0.999938 0.00787353 
32.9316 0 -4.9 0.00787353 0.999938 0.00787353 
32.9316 0 -2.35 0.00787353 0.999938 0.00787353 
35.3518 0 -19.9914 0.00787353 0.999938 0.00787353 
35.3518 0 -18.7424 0.00787353 0.999938 0.00787353 
35.3518 0 -17.4935 0.00787353 0.999938 0.00787353 
35.3518 0 -16.2446 0.00787353 0.999938 0.00787353 
35.3518 0 -14.9957 0.00787353 0.999938 0.00787353 
35.3518 0 -13.7468 0.00787353 0.999938 0.00787353 
35.3518 0 -12.4978 0.00787353 0.999938 0.00787353 
35.3518 0 -11.2489 0.00787353 0.999938 0.00787353 
35.3518 0 -10 0.00787353 0.999938 0.00787353 
35.3518 0 -8.75108 0.00787353 0.999938 0.00787353 
35.3518 0 -7.50216 0.00787353 0.999938 0.00787353 
35.3518 0 -6.25324 0.00787353 0.999938 0.00787353 
35.3518 0 -5.00432 0.00787353 0.999938 0.00787353 
35.3518 0 -3.7554 0.00787353 0.999938 0.00787353 
35.3518 0 -2.50648 0.00787353 0.999938 0.00787353 
35.3518 0 -1.25755 0.00787353 0.999938 0.00787353 
35.3518 0 -0.00863411 0.00787353 0.999938 0.00787353 
33.8933 0 -0.0043403 0.00787353 0.999938 0.00787353 
32.4335 0 3.55271e-15 0.00787353 0.999938 0.00787353 
30.7237 0 -1.3125 0.00787353 0.999938 0.00787353 
28.9107 0 -2.25 0.00787353 0.999938 0.00787353 
26.9945 0 -2.8125 0.00787353 0.999938 0.00787353 
24.9751 0 -3 0.00787353 0.999938 0.00787353 
14.3145 0 -3 0.00787353 0.999938 0.00787353 
13.2674 0 -2.75446 0.00787353 0.999938 0.00787353 
11.9598 0 -2.05933 0.00787353 0.999938 0.00787353 
9.44655 0 3.55271e-15 0.00787353 0.999938 0.00787353 
0 0 0 0.00787353 0.999938 0.00787353 
0 0 -20 0.00787353 0.999938 0.00787353 
9.44655 0 -20 0.00787353 0.999938 0.00787353 
12.5736 0 -17.9407 0.00787353 0.999938 0.00787353 
14.0148 0 -17.2455 0.00787353 0.999938 0.00787353 
15.0154 0 -17 0.00787353 0.999938 0.00787353 
24.9751 0 -17 0.00787353 0.999938 0.00787353 
26.9945 0 -17.1875 0.00787353 0.999938 0.00787353 
28.9107 0 -17.75 0.00787353 0.999938 0.00787353 
30.7237 0 -18.6875 0.00787353 0.999938 0.00787353 
32.4335 0 -20 0.00787353 0.999938 0.00787353 
33.8933 0 -19.9957 0.00787353 0.999938 0.00787353 
22.857 0 -10 0.00787353 0.999938 -0.00787353 
22.7819 -2.49442e-16 -10.3934 -0.00787353 0.999938 0.00787353 
22.5439 0 -10.7557 0.00787353 0.999938 0.00787353 
22.1816 7.48326e-16 -10.9937 0.00787353 0.999938 -0.00787353 
21.7882 1.77636e-15 -11.0688 0.00787353 0.999938 -0.00787353 
21.3948 1.24721e-15 -10.9937 -0.00787353 0.999938 -0.00787353 
21.0324 1.04057e-15 -10.7557 -0.00787353 0.999938 -0.00787353 
20.7944 1.24721e-15 -10.3934 -0.00787353 0.999938 -0.00787353 
20.7194 1.77636e-15 -10 -0.00787353 0.999938 0.00787353 
20.7944 1.24721e-15 -9.60659 -0.00787353 0.999938 0.00787353 
21.0324 1.04057e-15 -9.24426 -0.00787353 0.999938 0.00787353 
21.3948 1.24721e-15 -9.00626 -0.00787353 0.999938 0.00787353 
21.7882 1.77636e-15 -8.93122 0.00787353 0.999938 0.00787353 
22.1816 1.12249e-15 -9.00626 0.00787353 0.999938 0.00787353 
22.5439 5.20283e-16 -9.24426 0.00787353 0.999938 -0.00787353 
22.7819 1.24721e-16 -9.60659 0.00787353 0.999938 -0.00787353 
11.0688 0 -10 0.00787353 0.999938 -0.00787353 
10.9937 -2.49442e-16 -10.3934 -0.00787353 0.999938 0.00787353 
10.7557 0 -10.7557 0.00787353 0.999938 0.00787353 
10.3934 7.48326e-16 -10.9937 0.00787353 0.999938 0.00787353 
10 1.77636e-15 -11.0688 0.00787353 0.999938 -0.00787353 
9.60659 1.24721e-15 -10.9937 -0.00787353 0.999938 -0.00787353 
9.24426 1.04057e-15 -10.7557 -0.00787353 0.999938 -0.00787353 
9.00626 1.24721e-15 -10.3934 -0.00787353 0.999938 -0.00787353 
8.93122 1.77636e-15 -10 -0.00787353 0.999938 0.00787353 
9.00626 1.24721e-15 -9.60659 -0.00787353 0.999938 0.00787353 
9.24426 1.04057e-15 -9.24426 -0.00787353 0.999938 0.00787353 
9.60659 1.24721e-15 -9.00626 -0.00787353 0.999938 0.00787353 
10 1.77636e-15 -8.93122 0.00787353 0.999938 0.00787353 
10.3934 1.12249e-15 -9.00626 0.00787353 0.999938 0.00787353 
10.7557 5.20283e-16 -9.24426 0.00787353 0.999938 0.00787353 
10.9937 1.24721e-16 -9.60659 0.00787353 0.999938 -0.00787353 
35.3518 -10 -0.00863411 0.00787353 -0.999938 0.00787353 
35.3518 -10 -1.25755 0.00787353 -0.999938 0.00787353 
35.3518 -10 -2.50648 0.00787353 -0.999938 0.00787353 
35.3518 -10 -3.7554 0.00787353 -0.999938 0.00787353 
35.3518 -10 -5.00432 0.00787353 -0.999938 0.00787353 
35.3518 -10 -6.25324 0.00787353 -0.999938 0.00787353 
35.3518 -10 -7.50216 0.00787353 -0.999938 0.00787353 
35.3518 -10 -8.75108 0.00787353 -0.999938 0.00787353 
35.3518 -10 -10 0.00787353 -0.999938 0.00787353 
35.3518 -10 -11.2489 0.00787353 -0.999938 0.00787353 
35.3518 -10 -12.4978 0.00787353 -0.999938 0.00787353 
35.3518 -10 -13.7468 0.00787353 -0.999938 0.00787353 
35.3518 -10 -14.9957 0.00787353 -0.999938 0.00787353 
35.3518 -10 -16.2446 0.00787353 -0.999938 0.00787353 
35.3518 -10 -17.4935 0.00787353 -0.999938 0.00787353 
35.3518 -10 -18.7424 0.00787353 -0.999938 0.00787353 
35.3518 -10 -19.9914 0.00787353 -0.999938 0.00787353 
91.7607 -10 -19.8615 0.00787353 -0.999938 0.00787353 
142.768 -10 -19.8182 0.00787353 -0.999938 0.00787353 
142.768 -10 -0.181777 0.00787353 -0.999938 0.00787353 
91.7607 -10 -0.138492 0.00787353 -0.999938 0.00787353 
142.768 -10 -19.8182 0.00787353 0.00787353 -0.999938 
142.768 -8 -19.8182 0.00787353 0.00787353 -0.999938 
91.7607 -10 -19.8615 0.00787353 0.00787353 -0.999938 
91.7607 -4 -19.8615 0.00787353 0.00787353 -0.999938 
35.3518 -10 -19.9914 0.00787353 0.00787353 -0.999938 
35.3518 0 -19.9914 0.00787353 0.00787353 -0.999938 
35.3518 -5 -19.9914 0.00787353 0.00787353 -0.999938 
64.2315 -2 -19.9156 0.00787353 0.00787353 -0.999938 
117.939 -6 -19.829 0.00787353 0.00787353 -0.999938 
142.768 -10 -0.181777 0.999938 0.00787353 0.00787353 
142.768 -8 -0.181777 0.999938 0.00787353 0.00787353 
142.768 -10 -19.8182 0.999938 0.00787353 0.00787353 
142.768 -8 -19.8182 0.999938 0.00787353 0.00787353 
142.768 -8 -10 0.999938 0.00787353 0.00787353 
35.3518 -10 -0.00863411 0.00787353 0.00787353 0.999938 
35.3518 0 -0.00863411 0.00787353 0.00787353 0.999938 
91.7607 -10 -0.138492 0.00787353 0.00787353 0.999938 
91.7607 -4 -0.138492 0.00787353 0.00787353 0.999938 
142.768 -10 -0.181777 0.00787353 0.00787353 0.999938 
142.768 -8 -0.181777 0.00787353 0.00787353 0.999938 
35.3518 -5 -0.00863411 0.00787353 0.00787353 0.999938 
117.939 -6 -0.170956 0.00787353 0.00787353 0.999938 
64.2315 -2 -0.0843843 0.00787353 0.00787353 0.999938 
35.3518 0 -0.00863411 0.0754122 0.997117 0.00837914 
35.3518 0 -1.25755 0.0754122 0.997117 0.00837914 
35.3518 0 -2.50648 0.0754122 0.997117 0.00837914 
35.3518 0 -3.7554 0.0754122 0.997117 0.00837914 
35.3518 0 -5.00432 0.0754122 0.997117 0.00837914 
35.3518 0 -6.25324 0.0754122 0.997117 0.00837914 
35.3518 0 -7.50216 0.0754122 0.997117 0.00837914 
35.3518 0 -8.75108 0.0754122 0.997117 0.00837914 
35.3518 0 -10 0.0754122 0.997117 0.00837914 
35.3518 0 -11.2489 0.0754122 0.997117 0.00837914 
35.3518 0 -12.4978 0.0754122 0.997117 0.00837914 
35.3518 0 -13.7468 0.0754122 0.997117 0.00837914 
35.3518 0 -14.9957 0.0754122 0.997117 0.00837914 
35.3518 0 -16.2446 0.0754122 0.997117 0.00837914 
35.3518 0 -17.4935 0.0754122 0.997117 0.00837914 
35.3518 0 -18.7424 0.0754122 0.997117 0.00837914 
35.3518 0 -19.9914 0.0754122 0.997117 0.00837914 
64.2315 -2 -19.9156 0.0754122 0.997117 0.00837914 
91.7607 -4 -19.8615 0.0754122 0.997117 0.00837914 
117.939 -6 -19.829 0.0754122 0.997117 0.00837914 
142.768 -8 -19.8182 0.0754122 0.997117 0.00837914 
142.768 -8 -10 0.0754122 0.997117 0.00837914 
142.768 -8 -0.181777 0.0754122 0.997117 0.00837914 
117.939 -6 -0.170956 0.0754122 0.997117 0.00837914 
91.7607 -4 -0.138492 0.0754122 0.997117 0.00837914 
64.2315 -2 -0.0843843 0.0754122 0.997117 0.00837914 
22.857 -10 -10 -0.981239 0.00917045 -0.19258 
22.5439 -10 -9.24426 -0.759987 0.0110143 -0.649844 
21.7882 1.77636e-15 -8.93122 0.0577527 0.00825039 -0.998297 
21.7882 -10 -8.93122 -0.0577527 0.00825039 -0.998297 
21.3948 -10 -9.00626 0.328119 0.00994299 -0.944584 
21.0324 -10 -9.24426 0.649844 0.0110143 -0.759987 
20.7944 -10 -9.60659 0.892269 0.0104973 -0.451383 
20.7194 1.77636e-15 -10 0.998297 0.00825039 0.0577527 
20.7194 -10 -10 0.998297 0.00825039 -0.0577527 
20.7944 -10 -10.3934 0.944584 0.00994299 0.328119 
21.3948 -10 -10.9937 0.451383 0.0104973 0.892269 
21.7882 1.77636e-15 -11.0688 -0.0577527 0.00825039 0.998297 
21.7882 -10 -11.0688 0.0577527 0.00825039 0.998297 
22.1816 -10 -10.9937 -0.328119 0.00994299 0.944584 
22.5439 -10 -10.7557 -0.649844 0.0110143 0.759987 
22.7819 -10 -10.3934 -0.892269 0.0104973 0.451383 
22.857 0 -10 -0.981239 0.00917045 0.19258 
22.857 -10 -10 -0.981239 0.00917045 0.19258 
21.0324 -10 -10.7557 0.759987 0.0110143 0.649844 
22.1816 -10 -9.00626 -0.451383 0.0104973 -0.892269 
22.7819 -10 -9.60659 -0.944584 0.00994299 -0.328119 
22.857 0 -10 -0.981239 0.00917045 -0.19258 
22.7819 1.24721e-16 -9.60659 -0.892269 0.0104973 -0.451383 
22.5439 5.20283e-16 -9.24426 -0.649844 0.0110143 -0.759987 
22.1816 1.12249e-15 -9.00626 -0.328119 0.00994299 -0.944584 
21.3948 1.24721e-15 -9.00626 0.451383 0.0104973 -0.892269 
21.0324 1.04057e-15 -9.24426 0.759987 0.0110143 -0.649844 
20.7944 1.24721e-15 -9.60659 0.944584 0.00994299 -0.328119 
20.7944 1.24721e-15 -10.3934 0.892269 0.0104973 0.451383 
21.0324 1.04057e-15 -10.7557 0.649844 0.0110143 0.759987 
21.3948 1.24721e-15 -10.9937 0.328119 0.00994299 0.944584 
22.1816 7.48326e-16 -10.9937 -0.451383 0.0104973 0.892269 
22.5439 0 -10.7557 -0.759987 0.0110143 0.649844 
22.7819 -2.49442e-16 -10.3934 -0.944584 0.00994299 0.328119 
11.0688 -10 -10 -0.981239 0.00917045 -0.19258 
10.9937 -10 -9.60659 -0.944584 0.00994299 -0.328119 
10.7557 -10 -9.24426 -0.759987 0.0110143 -0.649844 
10.3934 -10 -9.00626 -0.451383 0.0104973 -0.892269 
10 -10 -8.93122 -0.0577527 0.00825039 -0.998297 
9.60659 -10 -9.00626 0.328119 0.00994299 -0.944584 
9.24426 -10 -9.24426 0.649844 0.0110143 -0.759987 
9.00626 -10 -9.60659 0.892269 0.0104973 -0.451383 
8.93122 -10 -10 0.998297 0.00825039 -0.0577527 
9.00626 -10 -10.3934 0.944584 0.00994299 0.328119 
9.24426 1.04057e-15 -10.7557 0.649844 0.0110143 0.759987 
9.24426 -10 -10.7557 0.759987 0.0110143 0.649844 
9.60659 -10 -10.9937 0.451383 0.0104973 0.892269 
10 -10 -11.0688 0.0577527 0.00825039 0.998297 
10.7557 -10 -10.7557 -0.649844 0.0110143 0.759987 
10.9937 -10 -10.3934 -0.892269 0.0104973 0.451383 
11.0688 0 -10 -0.981239 0.00917045 0.19258 
11.0688 -10 -10 -0.981239 0.00917045 0.19258 
10.3934 -10 -10.9937 -0.328119 0.00994299 0.944584 
11.0688 0 -10 -0.981239 0.00917045 -0.19258 
10.9937 1.24721e-16 -9.60659 -0.892269 0.0104973 -0.451383 
10.7557 5.20283e-16 -9.24426 -0.649844 0.0110143 -0.759987 
10.3934 1.12249e-15 -9.00626 -0.328119 0.00994299 -0.944584 
10 1.77636e-15 -8.93122 0.0577527 0.00825039 -0.998297 
9.60659 1.24721e-15 -9.00626 0.451383 0.0104973 -0.892269 
9.24426 1.04057e-15 -9.24426 0.759987 0.0110143 -0.649844 
9.00626 1.24721e-15 -9.60659 0.944584 0.00994299 -0.328119 
8.93122 1.77636e-15 -10 0.998297 0.00825039 0.0577527 
9.00626 1.24721e-15 -10.3934 0.892269 0.0104973 0.451383 
9.60659 1.24721e-15 -10.9937 0.328119 0.00994299 0.944584 
10 1.77636e-15 -11.0688 -0.0577527 0.00825039 0.998297 
10.3934 7.48326e-16 -10.9937 -0.451383 0.0104973 0.892269 
10.7557 0 -10.7557 -0.759987 0.0110143 0.649844 
10.9937 -2.49442e-16 -10.3934 -0.944584 0.00994299 0.328119 
3 8 1 0 
3 8 0 7 
3 9 2 1 
3 9 1 8 
3 10 3 2 
3 10 2 9 
3 11 4 3 
3 11 3 10 
3 12 5 4 
3 12 4 11 
3 13 6 5 
3 13 5 12 
3 15 8 7 
3 15 7 14 
3 16 9 8 
3 16 8 15 
3 17 10 9 
3 17 9 16 
3 18 11 10 
3 18 10 17 
3 19 12 11 
3 19 11 18 
3 20 13 12 
3 20 12 19 
3 22 15 14 
3 22 14 21 
3 23 16 15 
3 23 15 22 
3 25 19 18 
3 25 18 24 
3 26 20 19 
3 26 19 25 
3 28 23 22 
3 28 22 27 
3 31 25 24 
3 31 24 30 
3 33 28 27 
3 33 27 32 
3 34 29 28 
3 34 28 33 
3 35 30 29 
3 35 29 34 
3 36 31 30 
3 36 30 35 
3 38 33 32 
3 38 32 37 
3 39 34 33 
3 39 33 38 
3 40 35 34 
3 40 34 39 
3 41 36 35 
3 41 35 40 
3 43 38 37 
3 43 37 42 
3 45 41 40 
3 45 40 44 
3 47 43 42 
3 47 42 46 
3 50 45 44 
3 50 44 49 
3 52 47 46 
3 52 46 51 
3 53 48 47 
3 53 47 52 
3 54 49 48 
3 54 48 53 
3 55 50 49 
3 55 49 54 
3 58 52 51 
3 58 51 57 
3 59 53 52 
3 59 52 58 
3 60 54 53 
3 60 53 59 
3 61 55 54 
3 61 54 60 
3 64 57 56 
3 64 56 63 
3 65 58 57 
3 65 57 64 
3 66 59 58 
3 66 58 65 
3 67 60 59 
3 67 59 66 
3 68 61 60 
3 68 60 67 
3 69 62 61 
3 69 61 68 
3 1 97 0 
3 7 0 97 
3 2 97 1 
3 14 7 89 
3 97 89 7 
3 3 97 2 
3 132 17 131 
3 16 131 17 
3 133 17 132 
3 130 23 129 
3 23 128 129 
3 16 130 131 
3 130 16 23 
3 21 14 89 
3 98 97 3 
3 22 21 90 
3 89 90 21 
3 90 27 22 
3 27 90 91 
3 27 92 32 
3 92 37 32 
3 93 37 92 
3 91 92 27 
3 127 23 28 
3 28 126 127 
3 126 28 29 
3 128 23 127 
3 116 38 115 
3 38 114 115 
3 116 39 38 
3 29 125 126 
3 134 17 133 
3 135 17 134 
3 18 17 135 
3 137 24 136 
3 136 18 135 
3 138 24 137 
3 98 5 6 
3 99 98 6 
3 99 6 13 
3 4 5 98 
3 136 24 18 
3 13 20 99 
3 20 26 99 
3 24 138 139 
3 3 4 98 
3 140 125 29 
3 140 30 139 
3 29 30 140 
3 118 39 117 
3 116 117 39 
3 39 118 40 
3 107 25 106 
3 31 106 25 
3 99 26 107 
3 25 107 26 
3 105 31 36 
3 36 41 105 
3 106 31 105 
3 119 40 118 
3 139 30 24 
3 41 104 105 
3 46 42 93 
3 37 93 42 
3 51 46 93 
3 57 51 95 
3 96 56 95 
3 93 94 51 
3 95 51 94 
3 112 113 43 
3 114 43 113 
3 112 43 47 
3 43 114 38 
3 110 111 47 
3 112 47 111 
3 109 110 48 
3 47 48 110 
3 56 57 95 
3 63 87 88 
3 87 63 96 
3 63 88 71 
3 88 70 71 
3 63 72 73 
3 63 71 72 
3 73 64 63 
3 77 66 65 
3 65 64 75 
3 64 74 75 
3 65 76 77 
3 65 75 76 
3 74 64 73 
3 78 66 77 
3 96 63 56 
3 40 120 44 
3 120 121 44 
3 122 44 121 
3 124 109 48 
3 49 44 122 
3 49 122 123 
3 124 49 123 
3 45 50 104 
3 50 55 104 
3 41 45 104 
3 102 55 61 
3 55 102 103 
3 102 61 62 
3 104 55 103 
3 124 48 49 
3 120 40 119 
3 66 79 67 
3 67 81 68 
3 80 67 79 
3 67 80 81 
3 68 82 83 
3 68 81 82 
3 69 68 83 
3 101 62 69 
3 69 100 101 
3 100 69 108 
3 102 62 101 
3 69 85 108 
3 85 86 108 
3 84 85 69 
3 69 83 84 
3 66 78 79 
3 148 141 143 
3 148 144 142 
3 144 148 143 
3 143 147 144 
3 147 146 144 
3 145 147 143 
3 168 149 151 
3 155 156 154 
3 155 154 153 
3 156 155 157 
3 156 157 158 
3 153 154 152 
3 153 152 151 
3 152 150 168 
3 151 152 168 
3 161 162 160 
3 161 160 159 
3 167 163 165 
3 163 164 162 
3 163 162 161 
3 163 167 164 
3 159 160 158 
3 159 158 157 
3 167 166 164 
3 174 169 171 
3 174 171 173 
3 170 174 173 
3 170 173 172 
3 180 175 177 
3 180 177 179 
3 176 180 179 
3 176 179 178 
3 186 181 183 
3 186 183 185 
3 182 186 185 
3 182 185 184 
3 206 187 189 
3 193 194 192 
3 193 192 191 
3 194 193 195 
3 194 195 196 
3 191 192 190 
3 191 190 189 
3 190 188 206 
3 189 190 206 
3 199 200 198 
3 199 198 197 
3 205 201 203 
3 201 202 200 
3 201 200 199 
3 201 205 202 
3 197 198 196 
3 197 196 195 
3 205 204 202 
3 213 207 209 
3 213 210 208 
3 210 213 209 
3 209 214 210 
3 214 212 210 
3 211 214 209 
3 223 222 215 
3 223 215 216 
3 224 223 216 
3 224 216 217 
3 225 224 217 
3 225 217 218 
3 226 225 218 
3 226 218 219 
3 227 226 219 
3 227 219 220 
3 228 227 220 
3 228 220 221 
3 230 229 222 
3 230 222 223 
3 231 230 223 
3 231 223 224 
3 232 231 224 
3 232 224 225 
3 233 232 225 
3 233 225 226 
3 234 233 226 
3 234 226 227 
3 235 234 227 
3 235 227 228 
3 237 236 229 
3 237 229 230 
3 238 237 230 
3 238 230 231 
3 240 239 233 
3 240 233 234 
3 241 240 234 
3 241 234 235 
3 243 242 237 
3 243 237 238 
3 246 245 239 
3 246 239 240 
3 248 247 242 
3 248 242 243 
3 249 248 243 
3 249 243 244 
3 250 249 244 
3 250 244 245 
3 251 250 245 
3 251 245 246 
3 253 252 247 
3 253 247 248 
3 254 253 248 
3 254 248 249 
3 255 254 249 
3 255 249 250 
3 256 255 250 
3 256 250 251 
3 258 257 252 
3 258 252 253 
3 260 259 255 
3 260 255 256 
3 262 261 257 
3 262 257 258 
3 265 264 259 
3 265 259 260 
3 267 266 261 
3 267 261 262 
3 268 267 262 
3 268 262 263 
3 269 268 263 
3 269 263 264 
3 270 269 264 
3 270 264 265 
3 273 272 266 
3 273 266 267 
3 274 273 267 
3 274 267 268 
3 275 274 268 
3 275 268 269 
3 276 275 269 
3 276 269 270 
3 279 278 271 
3 279 271 272 
3 280 279 272 
3 280 272 273 
3 281 280 273 
3 281 273 274 
3 282 281 274 
3 282 274 275 
3 283 282 275 
3 283 275 276 
3 284 283 276 
3 284 276 277 
3 216 215 313 
3 222 313 215 
3 217 216 313 
3 229 314 222 
3 313 222 314 
3 218 217 313 
3 347 346 232 
3 231 232 346 
3 348 347 232 
3 344 343 238 
3 231 346 345 
3 345 344 238 
3 345 238 231 
3 236 314 229 
3 312 218 313 
3 237 315 236 
3 314 236 315 
3 315 237 242 
3 242 316 315 
3 242 247 317 
3 317 247 252 
3 318 317 252 
3 316 242 317 
3 342 243 238 
3 243 342 341 
3 341 244 243 
3 343 342 238 
3 331 330 253 
3 253 330 329 
3 331 253 254 
3 244 341 340 
3 349 348 232 
3 350 349 232 
3 233 350 232 
3 352 351 239 
3 351 350 233 
3 353 352 239 
3 312 221 220 
3 311 228 221 
3 311 221 312 
3 219 312 220 
3 351 233 239 
3 228 311 235 
3 235 311 241 
3 239 354 353 
3 218 312 219 
3 355 244 340 
3 355 354 245 
3 244 355 245 
3 333 332 254 
3 331 254 332 
3 254 255 333 
3 310 309 240 
3 246 240 309 
3 311 310 241 
3 240 241 310 
3 308 251 246 
3 251 308 256 
3 309 308 246 
3 334 333 255 
3 354 239 245 
3 256 308 307 
3 261 318 257 
3 252 257 318 
3 266 318 261 
3 272 320 266 
3 321 320 271 
3 318 266 319 
3 320 319 266 
3 327 258 328 
3 329 328 258 
3 327 262 258 
3 258 253 329 
3 325 262 326 
3 327 326 262 
3 324 263 325 
3 262 325 263 
3 271 320 272 
3 278 323 322 
3 322 321 278 
3 278 286 323 
3 323 286 285 
3 278 288 287 
3 278 287 286 
3 288 278 279 
3 292 280 281 
3 280 290 279 
3 279 290 289 
3 280 292 291 
3 280 291 290 
3 289 288 279 
3 293 292 281 
3 321 271 278 
3 255 259 335 
3 335 259 336 
3 337 336 259 
3 339 263 324 
3 264 337 259 
3 264 338 337 
3 339 338 264 
3 260 307 265 
3 265 307 270 
3 256 307 260 
3 305 276 270 
3 270 306 305 
3 305 277 276 
3 307 306 270 
3 339 264 263 
3 335 334 255 
3 281 282 294 
3 282 283 296 
3 295 294 282 
3 282 296 295 
3 283 298 297 
3 283 297 296 
3 284 298 283 
3 304 284 277 
3 284 304 303 
3 303 302 284 
3 305 304 277 
3 284 302 300 
3 300 302 301 
3 299 284 300 
3 284 299 298 
3 281 294 293 
3 371 373 370 
3 368 369 373 
3 369 370 373 
3 368 373 367 
3 373 366 367 
3 366 373 365 
3 364 365 373 
3 363 364 376 
3 373 371 372 
3 362 376 361 
3 362 363 376 
3 360 361 376 
3 374 376 373 
3 376 364 373 
3 357 358 376 
3 359 376 358 
3 357 376 356 
3 360 376 359 
3 376 374 375 
3 385 377 379 
3 377 385 378 
3 385 379 380 
3 383 384 379 
3 384 380 379 
3 383 382 384 
3 381 383 379 
3 390 387 386 
3 389 390 388 
3 386 388 390 
3 393 399 397 
3 397 399 392 
3 393 397 391 
3 398 393 395 
3 393 398 394 
3 395 396 398 
3 399 393 394 
3 414 417 415 
3 412 411 417 
3 412 417 413 
3 417 411 410 
3 417 414 413 
3 408 417 409 
3 408 407 425 
3 406 405 425 
3 405 404 425 
3 407 406 425 
3 409 417 410 
3 415 417 416 
3 425 404 403 
3 417 408 425 
3 417 425 418 
3 421 420 419 
3 424 419 418 
3 419 423 421 
3 400 425 401 
3 402 401 425 
3 423 419 424 
3 403 402 425 
3 424 418 425 
3 423 422 421 
3 447 426 446 
3 447 446 448 
3 449 427 445 
3 449 445 450 
3 448 446 427 
3 448 427 449 
3 428 429 430 
3 428 430 451 
3 452 431 432 
3 452 432 453 
3 451 430 431 
3 451 431 452 
3 450 445 429 
3 450 429 428 
3 453 432 434 
3 453 434 433 
3 454 435 444 
3 454 444 455 
3 456 436 438 
3 456 438 437 
3 455 444 436 
3 455 436 456 
3 457 439 440 
3 457 440 458 
3 459 441 443 
3 459 443 442 
3 458 440 441 
3 458 441 459 
3 437 438 439 
3 437 439 457 
3 435 454 433 
3 435 433 434 
3 479 460 461 
3 479 461 480 
3 481 462 463 
3 481 463 482 
3 480 461 462 
3 480 462 481 
3 483 464 465 
3 483 465 484 
3 485 466 467 
3 485 467 486 
3 484 465 466 
3 484 466 485 
3 482 463 464 
3 482 464 483 
3 468 487 486 
3 468 486 467 
3 488 469 471 
3 488 471 470 
3 489 472 473 
3 489 473 490 
3 470 471 472 
3 470 472 489 
3 491 478 474 
3 491 474 492 
3 493 475 477 
3 493 477 476 
3 492 474 475 
3 492 475 493 
3 490 473 478 
3 490 478 491 
3 469 488 487 
3 469 487 468 
