ply
format ascii 1.0
comment Author: CloudCompare (TELECOM PARISTECH/EDF R&D)
obj_info Generated by CloudCompare!
element vertex 708
property float x
property float y
property float z
property float nx
property float ny
property float nz
element face 846
property list uchar int vertex_indices
end_header
23.9732 0.5 1.53774 0.0577527 0.00825039 0.998297 
23.9732 0.25 1.53774 0.0936009 0.00850917 0.995573 
23.9732 0 1.53774 0.0577527 0.00825039 0.998297 
24.2693 0.475514 1.5211 0.11628 -0.0268339 0.992854 
24.2695 0 1.52108 0.11628 0.0268339 0.992854 
24.5625 0.451264 1.47137 0.213965 -0.00930283 0.976797 
24.5629 0 1.47127 0.23586 -0.00943438 0.971741 
24.85 0.42748 1.38897 0.304405 -0.00981951 0.952492 
24.8506 0 1.38875 0.352208 -0.0100631 0.935868 
25.1292 0.404391 1.27474 0.401337 -0.0102907 0.915872 
25.1299 0 1.27438 0.451383 -0.0104973 0.892269 
25.3972 0.382222 1.12972 0.501849 -0.0106776 0.864889 
25.398 0 1.1292 0.527065 -0.0107564 0.849757 
25.6516 0.361182 0.955339 0.601713 -0.0109402 0.798637 
25.6525 0 0.95465 0.625996 0.0109824 0.779749 
25.8898 0.341475 0.753202 0.673181 0.0110358 0.739395 
25.8907 0 0.752373 0.695931 -0.0110465 0.718024 
26.1097 0.323291 0.525299 0.739395 0.0110358 0.673181 
26.1105 0 0.524355 0.759987 -0.0110143 0.649844 
26.309 0.306808 0.273785 0.798637 -0.0109402 0.601713 
26.3097 0 0.27277 0.816618 0.0108882 0.577076 
26.4858 0.292182 0.00108897 0.849757 -0.0107564 0.527065 
26.4864 0 6.41561e-05 0.864889 0.0106776 0.501849 
26.6384 0.279558 -0.2902 0.904534 -0.0103969 0.426275 
26.6389 0 -0.291175 0.915872 0.0102907 0.401337 
26.7654 0.269055 -0.597248 0.935868 -0.0100631 0.352208 
26.7657 0 -0.598118 0.944584 0.00994299 0.328119 
26.8654 0.260781 -0.917106 0.959629 -0.00969322 0.281103 
26.8656 0 -0.917811 0.971741 0.00943438 0.23586 
26.9376 0.25481 -1.24667 0.981239 -0.00917045 0.19258 
26.9377 0 -1.24716 0.988435 0.00890482 0.151382 
26.9812 0.251206 -1.58278 0.995573 -0.00850917 0.0936009 
26.9812 0 -1.58303 0.997117 -0.00837914 0.0754122 
26.9958 0.249999 -1.92218 0.999938 -0.00787353 0.00787353 
26.9958 0 -1.92216 0.999938 -0.00787353 -0.00787353 
26.9812 0.251206 -2.26156 0.997117 -0.00837914 -0.0754122 
26.9812 0 -2.26129 0.995573 -0.00850917 -0.0936009 
26.9376 0.25481 -2.59767 0.988435 0.00890482 -0.151382 
26.9377 0 -2.59717 0.981239 -0.00917045 -0.19258 
26.8654 0.260781 -2.92724 0.971741 0.00943438 -0.23586 
26.8656 0 -2.92654 0.959629 0.00969322 -0.281103 
26.7654 0.269055 -3.24709 0.944584 -0.00994299 -0.328119 
26.7657 0 -3.24623 0.935868 0.0100631 -0.352208 
26.6384 0.279558 -3.55414 0.915872 -0.0102907 -0.401337 
26.6389 0 -3.55316 0.904534 0.0103969 -0.426275 
26.4858 0.292181 -3.84542 0.864889 -0.0106776 -0.501849 
26.4864 0 -3.8444 0.849757 0.0107564 -0.527065 
26.309 0.306807 -4.11812 0.816618 -0.0108882 -0.577076 
26.3097 0 -4.11711 0.798637 0.0109402 -0.601713 
26.1097 0.323291 -4.36965 0.759987 -0.0110143 -0.649844 
26.1105 0 -4.36871 0.739395 -0.0110358 -0.673181 
25.8898 0.341475 -4.59755 0.695931 0.0110465 -0.718024 
25.8907 0 -4.59672 0.673181 0.0110358 -0.739395 
25.6516 0.36118 -4.79967 0.625996 -0.0109824 -0.779749 
25.6525 0 -4.79899 0.601713 0.0109402 -0.798637 
25.3972 0.382221 -4.97406 0.527065 -0.0107564 -0.849757 
25.3981 0 -4.97353 0.501849 0.0106776 -0.864889 
25.1292 0.404392 -5.11908 0.451383 -0.0104973 -0.892269 
25.1299 0 -5.11872 0.401337 0.0102907 -0.915872 
24.85 0.42748 -5.23331 0.352208 -0.0100631 -0.935868 
24.8506 0 -5.2331 0.304405 0.00981951 -0.952492 
24.5625 0.451263 -5.31571 0.23586 -0.00943438 -0.971741 
24.5629 0 -5.31561 0.213965 -0.00930283 -0.976797 
24.2693 0.475514 -5.36545 0.131584 -0.00877227 -0.991266 
24.2695 0 -5.36542 0.0936009 0.00850917 -0.995573 
23.9732 0.5 -5.38208 0.0577527 -0.00825039 -0.998297 
23.9732 0.25 -5.38208 0.0577527 -0.00825039 -0.998297 
23.9732 0 -5.38208 0.0577527 0.00825039 -0.998297 
24.5627 0.225632 1.47132 0.171716 -0.00903766 0.985105 
25.1295 0.202196 1.27456 0.426275 -0.0103969 0.904534 
24.8503 0.21374 1.38886 0.328119 -0.00994299 0.944584 
25.3976 0.191111 1.12946 0.527065 -0.0107564 0.849757 
25.652 0.180591 0.954994 0.601713 0.0109402 0.798637 
25.8903 0.170737 0.752788 0.673181 0.0110358 0.739395 
26.1101 0.161645 0.524827 0.759987 -0.0110143 0.649844 
26.4861 0.146091 0.000576563 0.864889 0.0106776 0.501849 
26.3093 0.153404 0.273277 0.816618 -0.0108882 0.577076 
26.6386 0.139779 -0.290687 0.904534 0.0103969 0.426275 
26.7655 0.134528 -0.597683 0.935868 0.0100631 0.352208 
26.8655 0.13039 -0.917458 0.966032 0.00956467 0.258246 
26.9376 0.127405 -1.24691 0.985105 0.00903766 0.171716 
26.9812 0.125603 -1.5829 0.995573 0.00850917 0.0936009 
26.9958 0.125 -1.92217 0.999938 -0.00787353 0.00787353 
26.9812 0.125603 -2.26143 0.995573 0.00850917 -0.0936009 
26.9377 0.127405 -2.59742 0.985105 0.00903766 -0.171716 
26.8655 0.13039 -2.92689 0.966032 -0.00956467 -0.258246 
26.6386 0.139779 -3.55365 0.904534 0.0103969 -0.426275 
26.7655 0.134528 -3.24666 0.935868 -0.0100631 -0.352208 
26.4861 0.146091 -3.84491 0.864889 0.0106776 -0.501849 
26.3093 0.153404 -4.11762 0.816618 -0.0108882 -0.577076 
26.1101 0.161646 -4.36918 0.759987 0.0110143 -0.649844 
25.8903 0.170737 -4.59713 0.673181 -0.0110358 -0.739395 
25.652 0.18059 -4.79933 0.601713 -0.0109402 -0.798637 
25.3976 0.191111 -4.9738 0.527065 0.0107564 -0.849757 
25.1295 0.202196 -5.1189 0.426275 -0.0103969 -0.904534 
24.8503 0.21374 -5.2332 0.328119 -0.00994299 -0.944584 
24.5627 0.225632 -5.31566 0.213965 -0.00930283 -0.976797 
24.2694 0.237757 -5.36543 0.112324 -0.0086403 -0.993634 
23.9732 0.5 1.53774 0.0754122 0.997117 0.00837914 
24.2693 0.475514 1.5211 0.0754122 0.997117 -0.00837914 
24.5625 0.451264 1.47137 0.0754122 0.997117 -0.00837914 
24.85 0.42748 1.38897 0.0754122 0.997117 -0.00837914 
25.1292 0.404391 1.27474 0.0754122 0.997117 -0.00837914 
25.3972 0.382222 1.12972 0.0754122 0.997117 -0.00837914 
25.6516 0.361182 0.955339 0.0754122 0.997117 -0.00837914 
25.8898 0.341475 0.753202 0.0754122 0.997117 -0.00837914 
26.1097 0.323291 0.525299 0.0754122 0.997117 0.00837914 
26.309 0.306808 0.273785 0.0754122 0.997117 -0.00837914 
26.4858 0.292182 0.00108897 0.0754122 0.997117 -0.00837914 
26.6384 0.279558 -0.2902 0.0754122 0.997117 -0.00837914 
26.7654 0.269055 -0.597248 0.0754122 0.997117 0.00837914 
26.8654 0.260781 -0.917106 0.0754122 0.997117 0.00837914 
26.9376 0.25481 -1.24667 0.0754122 0.997117 0.00837914 
26.9812 0.251206 -1.58278 0.0754122 0.997117 0.00837914 
26.9958 0.249999 -1.92218 0.0754122 0.997117 0.00837914 
26.9812 0.251206 -2.26156 0.0754122 0.997117 0.00837914 
26.9376 0.25481 -2.59767 0.0754122 0.997117 0.00837914 
26.8654 0.260781 -2.92724 0.0754122 0.997117 0.00837914 
26.7654 0.269055 -3.24709 0.0754122 0.997117 0.00837914 
26.6384 0.279558 -3.55414 0.0754122 0.997117 0.00837914 
26.4858 0.292181 -3.84542 0.0754122 0.997117 -0.00837914 
26.309 0.306807 -4.11812 0.0754122 0.997117 -0.00837914 
26.1097 0.323291 -4.36965 0.0754122 0.997117 -0.00837914 
25.8898 0.341475 -4.59755 0.0754122 0.997117 0.00837914 
25.6516 0.36118 -4.79967 0.0754122 0.997117 -0.00837914 
25.3972 0.382221 -4.97406 0.0754122 0.997117 0.00837914 
25.1292 0.404392 -5.11908 0.0754122 0.997117 0.00837914 
24.85 0.42748 -5.23331 0.0754122 0.997117 -0.00837914 
24.5625 0.451263 -5.31571 0.0754122 0.997117 0.00837914 
24.2693 0.475514 -5.36545 0.0754122 0.997117 0.00837914 
23.9732 0.5 -5.38208 0.0754122 0.997117 0.00837914 
23.9732 0.5 -4.59574 0.0754122 0.997117 0.00837914 
23.9732 0.5 -3.8094 0.0754122 0.997117 -0.00837914 
23.9732 0.5 -0.0349407 0.0754122 0.997117 -0.00837914 
23.9732 0.5 0.751399 0.0754122 0.997117 -0.00837914 
23.9732 0.5 -1.92217 0.0754122 0.997117 0.00837914 
23.9732 0 1.53774 0.00787353 -0.999938 0.00787353 
24.2695 0 1.52108 0.00787353 -0.999938 0.00787353 
24.5629 0 1.47127 0.00787353 -0.999938 0.00787353 
24.8506 0 1.38875 0.00787353 -0.999938 0.00787353 
25.1299 0 1.27438 0.00787353 -0.999938 0.00787353 
25.398 0 1.1292 0.00787353 -0.999938 0.00787353 
25.6525 0 0.95465 0.00787353 -0.999938 0.00787353 
25.8907 0 0.752373 0.00787353 -0.999938 0.00787353 
26.1105 0 0.524355 0.00787353 -0.999938 0.00787353 
26.3097 0 0.27277 0.00787353 -0.999938 0.00787353 
26.4864 0 6.41561e-05 0.00787353 -0.999938 0.00787353 
26.6389 0 -0.291175 0.00787353 -0.999938 0.00787353 
26.7657 0 -0.598118 0.00787353 -0.999938 0.00787353 
26.8656 0 -0.917811 0.00787353 -0.999938 0.00787353 
26.9377 0 -1.24716 0.00787353 -0.999938 0.00787353 
26.9812 0 -1.58303 0.00787353 -0.999938 0.00787353 
26.9958 0 -1.92216 0.00787353 -0.999938 0.00787353 
26.9812 0 -2.26129 0.00787353 -0.999938 0.00787353 
26.9377 0 -2.59717 0.00787353 -0.999938 0.00787353 
26.8656 0 -2.92654 0.00787353 -0.999938 0.00787353 
26.7657 0 -3.24623 0.00787353 -0.999938 0.00787353 
26.6389 0 -3.55316 0.00787353 -0.999938 0.00787353 
26.4864 0 -3.8444 0.00787353 -0.999938 0.00787353 
26.3097 0 -4.11711 0.00787353 -0.999938 0.00787353 
26.1105 0 -4.36871 0.00787353 -0.999938 0.00787353 
25.8907 0 -4.59672 0.00787353 -0.999938 0.00787353 
25.6525 0 -4.79899 0.00787353 -0.999938 0.00787353 
25.3981 0 -4.97353 0.00787353 -0.999938 0.00787353 
25.1299 0 -5.11872 0.00787353 -0.999938 0.00787353 
24.8506 0 -5.2331 0.00787353 -0.999938 0.00787353 
24.5629 0 -5.31561 0.00787353 -0.999938 0.00787353 
24.2695 0 -5.36542 0.00787353 -0.999938 0.00787353 
23.9732 0 -5.38208 0.00787353 -0.999938 0.00787353 
23.9732 0 -4.59574 0.00787353 -0.999938 0.00787353 
23.9732 0 -3.8094 0.00787353 -0.999938 0.00787353 
23.9732 0 -0.0349407 0.00787353 -0.999938 0.00787353 
23.9732 0 0.751399 0.00787353 -0.999938 0.00787353 
23.9732 0 -3.8094 -0.999938 0.00787353 0.00787353 
23.9732 0.5 -3.8094 -0.999938 0.00787353 0.00787353 
23.9732 0 -5.38208 -0.999938 0.00787353 0.00787353 
23.9732 0.5 -5.38208 -0.999938 0.00787353 0.00787353 
23.9732 0.25 -5.38208 -0.999938 0.00787353 0.00787353 
23.9732 0 -4.59574 -0.999938 0.00787353 0.00787353 
23.9732 0.5 -4.59574 -0.999938 0.00787353 0.00787353 
23.9732 0 1.53774 -0.999938 0.00787353 0.00787353 
23.9732 0.5 1.53774 -0.999938 0.00787353 0.00787353 
23.9732 0 -0.0349407 -0.999938 0.00787353 0.00787353 
23.9732 0.5 -0.0349407 -0.999938 0.00787353 0.00787353 
23.9732 0.25 1.53774 -0.999938 0.00787353 0.00787353 
23.9732 0 0.751399 -0.999938 0.00787353 0.00787353 
23.9732 0.5 0.751399 -0.999938 0.00787353 0.00787353 
0.406401 0 -3.39263 0.00787353 -0.999938 0.00787353 
0.406401 0 -2.90248 0.00787353 -0.999938 0.00787353 
0.406401 0 -2.41233 0.00787353 -0.999938 0.00787353 
0.406401 0 -1.92217 0.00787353 -0.999938 0.00787353 
0.406401 0 -1.43202 0.00787353 -0.999938 0.00787353 
0.406401 0 -0.941865 0.00787353 -0.999938 0.00787353 
0.406401 0 -0.451711 0.00787353 -0.999938 0.00787353 
0.872164 0 -3.39263 0.00787353 -0.999938 0.00787353 
0.872164 0 -2.90248 0.00787353 -0.999938 0.00787353 
0.872164 0 -2.41233 0.00787353 -0.999938 0.00787353 
0.872164 0 -1.92217 0.00787353 -0.999938 0.00787353 
0.872164 0 -1.43202 0.00787353 -0.999938 0.00787353 
0.872164 0 -0.941865 0.00787353 -0.999938 0.00787353 
0.872164 0 -0.451711 0.00787353 -0.999938 0.00787353 
1.33793 0 -3.39263 0.00787353 -0.999938 0.00787353 
1.33793 0 -2.90248 0.00787353 -0.999938 0.00787353 
1.33793 0 -2.41233 0.00787353 -0.999938 0.00787353 
1.33793 0 -1.92217 0.00787353 -0.999938 0.00787353 
1.33793 0 -1.43202 0.00787353 -0.999938 0.00787353 
1.33793 0 -0.941865 0.00787353 -0.999938 0.00787353 
1.33793 0 -0.451711 0.00787353 -0.999938 0.00787353 
1.80369 0 -3.39263 0.00787353 -0.999938 0.00787353 
1.80369 0 -2.90248 0.00787353 -0.999938 0.00787353 
1.80369 0 -2.41233 0.00787353 -0.999938 0.00787353 
1.80369 0 -1.43202 0.00787353 -0.999938 0.00787353 
1.80369 0 -0.941865 0.00787353 -0.999938 0.00787353 
1.80369 0 -0.451711 0.00787353 -0.999938 0.00787353 
2.26945 0 -2.90248 0.00787353 -0.999938 0.00787353 
2.26945 0 -2.41233 0.00787353 -0.999938 0.00787353 
2.26945 0 -1.92217 0.00787353 -0.999938 0.00787353 
2.26945 0 -1.43202 0.00787353 -0.999938 0.00787353 
2.26945 0 -0.941865 0.00787353 -0.999938 0.00787353 
2.73522 0 -2.90248 0.00787353 -0.999938 0.00787353 
2.73522 0 -2.41233 0.00787353 -0.999938 0.00787353 
2.73522 0 -1.92217 0.00787353 -0.999938 0.00787353 
2.73522 0 -1.43202 0.00787353 -0.999938 0.00787353 
2.73522 0 -0.941865 0.00787353 -0.999938 0.00787353 
3.20098 0 -2.90248 0.00787353 -0.999938 0.00787353 
3.20098 0 -2.41233 0.00787353 -0.999938 0.00787353 
3.20098 0 -1.92217 0.00787353 -0.999938 0.00787353 
3.20098 0 -1.43202 0.00787353 -0.999938 0.00787353 
3.20098 0 -0.941865 0.00787353 -0.999938 0.00787353 
3.66674 0 -2.90248 0.00787353 -0.999938 0.00787353 
3.66674 0 -2.41233 0.00787353 -0.999938 0.00787353 
3.66674 0 -1.43202 0.00787353 -0.999938 0.00787353 
3.66674 0 -0.941865 0.00787353 -0.999938 0.00787353 
4.13251 0 -2.90248 0.00787353 -0.999938 0.00787353 
4.13251 0 -2.41233 0.00787353 -0.999938 0.00787353 
4.13251 0 -1.92217 0.00787353 -0.999938 0.00787353 
4.13251 0 -1.43202 0.00787353 -0.999938 0.00787353 
4.13251 0 -0.941865 0.00787353 -0.999938 0.00787353 
4.59827 0 -2.90248 0.00787353 -0.999938 0.00787353 
4.59827 0 -2.41233 0.00787353 -0.999938 0.00787353 
4.59827 0 -1.92217 0.00787353 -0.999938 0.00787353 
4.59827 0 -1.43202 0.00787353 -0.999938 0.00787353 
4.59827 0 -0.941865 0.00787353 -0.999938 0.00787353 
5.06403 0 -3.39263 0.00787353 -0.999938 0.00787353 
5.06403 0 -2.90248 0.00787353 -0.999938 0.00787353 
5.06403 0 -2.41233 0.00787353 -0.999938 0.00787353 
5.06403 0 -1.92217 0.00787353 -0.999938 0.00787353 
5.06403 0 -1.43202 0.00787353 -0.999938 0.00787353 
5.06403 0 -0.941865 0.00787353 -0.999938 0.00787353 
5.06403 0 -0.451711 0.00787353 -0.999938 0.00787353 
5.52979 0 -3.39263 0.00787353 -0.999938 0.00787353 
5.52979 0 -2.90248 0.00787353 -0.999938 0.00787353 
5.52979 0 -2.41233 0.00787353 -0.999938 0.00787353 
5.52979 0 -1.92217 0.00787353 -0.999938 0.00787353 
5.52979 0 -1.43202 0.00787353 -0.999938 0.00787353 
5.52979 0 -0.941865 0.00787353 -0.999938 0.00787353 
5.52979 0 -0.451711 0.00787353 -0.999938 0.00787353 
5.9362 0 -3.84269 0.00787353 -0.999938 0.00787353 
5.9362 0 -3.60262 0.00787353 -0.999938 0.00787353 
5.9362 0 -3.36256 0.00787353 -0.999938 0.00787353 
5.9362 0 -3.12249 0.00787353 -0.999938 0.00787353 
5.9362 0 -2.88243 0.00787353 -0.999938 0.00787353 
5.9362 0 -2.64236 0.00787353 -0.999938 0.00787353 
5.9362 0 -2.4023 0.00787353 -0.999938 0.00787353 
5.9362 0 -2.16224 0.00787353 -0.999938 0.00787353 
5.9362 0 -1.92217 0.00787353 -0.999938 0.00787353 
5.9362 0 -1.68211 0.00787353 -0.999938 0.00787353 
5.9362 0 -1.44204 0.00787353 -0.999938 0.00787353 
5.9362 0 -1.20198 0.00787353 -0.999938 0.00787353 
5.9362 0 -0.961916 0.00787353 -0.999938 0.00787353 
5.9362 0 -0.721852 0.00787353 -0.999938 0.00787353 
5.9362 0 -0.481788 0.00787353 -0.999938 0.00787353 
5.9362 0 -0.241724 0.00787353 -0.999938 0.00787353 
5.9362 0 -0.00165962 0.00787353 -0.999938 0.00787353 
5.44616 0 -3.84435 0.00787353 -0.999938 0.00787353 
5.69128 0 -3.84351 0.00787353 -0.999938 0.00787353 
1.58624 0 -3.84435 0.00787353 -0.999938 0.00787353 
1.84124 0 -3.63793 0.00787353 -0.999938 0.00787353 
2.11133 0 -3.44851 0.00787353 -0.999938 0.00787353 
2.35333 0 -3.31489 0.00787353 -0.999938 0.00787353 
2.52134 0 -3.26769 0.00787353 -0.999938 0.00787353 
4.19376 0 -3.26769 0.00787353 -0.999938 0.00787353 
4.53285 0 -3.30373 0.00787353 -0.999938 0.00787353 
4.85462 0 -3.41186 0.00787353 -0.999938 0.00787353 
5.15905 0 -3.59206 0.00787353 -0.999938 0.00787353 
0 0 -3.84435 0.00787353 -0.999938 0.00787353 
0 0 0 0.00787353 -0.999938 0.00787353 
1.58624 0 8.88178e-16 0.00787353 -0.999938 0.00787353 
5.44616 0 8.88178e-16 0.00787353 -0.999938 0.00787353 
5.15905 0 -0.252285 0.00787353 -0.999938 0.00787353 
4.85462 0 -0.432489 0.00787353 -0.999938 0.00787353 
4.53285 0 -0.540611 0.00787353 -0.999938 0.00787353 
4.19376 0 -0.576652 0.00787353 -0.999938 0.00787353 
2.40366 0 -0.576652 0.00787353 -0.999938 0.00787353 
2.22784 0 -0.529454 0.00787353 -0.999938 0.00787353 
2.00827 0 -0.39584 0.00787353 -0.999938 0.00787353 
1.78391 0 -0.206414 0.00787353 -0.999938 0.00787353 
5.69128 0 -0.000834282 0.00787353 -0.999938 0.00787353 
3.83809 0 -1.92217 0.00787353 -0.999938 0.00787353 
3.82549 0 -1.99779 0.00787353 -0.999938 0.00787353 
3.78553 0 -2.06744 0.00787353 -0.999938 0.00787353 
3.72468 0 -2.11319 0.00787353 -0.999938 0.00787353 
3.65862 0 -2.12761 0.00787353 -0.999938 0.00787353 
3.59256 0 -2.11319 0.00787353 -0.999938 0.00787353 
3.53172 0 -2.06744 0.00787353 -0.999938 0.00787353 
3.49176 0 -1.99779 0.00787353 -0.999938 0.00787353 
3.47916 0 -1.92217 0.00787353 -0.999938 0.00787353 
3.49176 0 -1.84655 0.00787353 -0.999938 0.00787353 
3.53172 0 -1.77691 0.00787353 -0.999938 0.00787353 
3.59256 0 -1.73116 0.00787353 -0.999938 0.00787353 
3.65862 0 -1.71673 0.00787353 -0.999938 0.00787353 
3.72468 0 -1.73116 0.00787353 -0.999938 0.00787353 
3.78553 0 -1.77691 0.00787353 -0.999938 0.00787353 
3.82549 0 -1.84655 0.00787353 -0.999938 0.00787353 
1.85865 0 -1.92217 0.00787353 -0.999938 0.00787353 
1.84604 0 -1.99779 0.00787353 -0.999938 0.00787353 
1.80608 0 -2.06744 0.00787353 -0.999938 0.00787353 
1.74524 0 -2.11319 0.00787353 -0.999938 0.00787353 
1.67918 0 -2.12761 0.00787353 -0.999938 0.00787353 
1.61312 0 -2.11319 0.00787353 -0.999938 0.00787353 
1.55228 0 -2.06744 0.00787353 -0.999938 0.00787353 
1.51231 0 -1.99779 0.00787353 -0.999938 0.00787353 
1.49971 0 -1.92217 0.00787353 -0.999938 0.00787353 
1.51231 0 -1.84655 0.00787353 -0.999938 0.00787353 
1.55228 0 -1.77691 0.00787353 -0.999938 0.00787353 
1.61312 0 -1.73116 0.00787353 -0.999938 0.00787353 
1.67918 0 -1.71673 0.00787353 -0.999938 0.00787353 
1.74524 0 -1.73116 0.00787353 -0.999938 0.00787353 
1.80608 0 -1.77691 0.00787353 -0.999938 0.00787353 
1.84604 0 -1.84655 0.00787353 -0.999938 0.00787353 
5.44616 0 8.88178e-16 0.00787353 0.00787353 0.999938 
5.44616 2.5 8.88178e-16 0.00787353 -0.00787353 0.999938 
5.69128 0 -0.000834282 0.00787353 0.00787353 0.999938 
5.69128 2.5 -0.000834282 0.00787353 -0.00787353 0.999938 
5.9362 0 -0.00165962 0.00787353 0.00787353 0.999938 
5.9362 2.5 -0.00165962 0.00787353 0.00787353 0.999938 
5.9362 1.25 -0.00165962 0.00787353 0.00787353 0.999938 
5.44616 1.25 -3.33067e-16 0.00787353 0.00787353 0.999938 
1.58624 0 8.88178e-16 0.718024 0.0110465 0.695931 
1.58624 2.5 8.88178e-16 0.718024 -0.0110465 0.695931 
1.78391 0 -0.206414 0.695931 0.0110465 0.718024 
1.78391 2.5 -0.206414 0.673181 -0.0110358 0.739395 
2.00827 0 -0.39584 0.601713 0.0109402 0.798637 
2.00827 2.5 -0.39584 0.577076 0.0108882 0.816618 
2.22784 0 -0.529454 0.451383 0.0104973 0.892269 
2.22784 2.5 -0.529454 0.376631 0.0101792 0.926308 
2.40366 0 -0.576652 0.0406155 0.0081231 0.999142 
2.40366 2.5 -0.576652 0.00787353 0.00787353 0.999938 
4.19376 0 -0.576652 -0.00787353 0.00787353 0.999938 
4.19376 2.5 -0.576652 -0.0239923 0.00799744 0.99968 
4.53285 0 -0.540611 -0.171716 0.00903766 0.985105 
4.53285 2.5 -0.540611 -0.258246 0.00956467 0.966032 
4.85462 0 -0.432489 -0.376631 0.0101792 0.926308 
4.85462 2.5 -0.432489 -0.451383 0.0104973 0.892269 
5.15905 0 -0.252285 -0.577076 0.0108882 0.816618 
5.15905 2.5 -0.252285 -0.601713 -0.0109402 0.798637 
5.44616 0 8.88178e-16 -0.649844 0.0110143 0.759987 
5.44616 2.5 8.88178e-16 -0.649844 -0.0110143 0.759987 
5.44616 1.25 -3.33067e-16 -0.649844 0.0110143 0.759987 
1.58624 1.25 -3.33067e-16 0.718024 0.0110465 0.695931 
0 0 0 -0.00787353 0.00787353 0.999938 
0 2.5 8.88178e-16 0.00787353 -0.00787353 0.999938 
1.58624 0 8.88178e-16 -0.00787353 0.00787353 0.999938 
1.58624 2.5 8.88178e-16 0.00787353 -0.00787353 0.999938 
1.58624 1.25 -3.33067e-16 0.00787353 -0.00787353 0.999938 
0 1.25 -3.33067e-16 -0.00787353 0.00787353 0.999938 
0 0 -3.84435 -0.999938 0.00787353 0.00787353 
0 2.5 -3.84435 -0.999938 0.00787353 0.00787353 
0 0 0 -0.999938 0.00787353 0.00787353 
0 2.5 8.88178e-16 -0.999938 0.00787353 0.00787353 
0 1.25 -3.33067e-16 -0.999938 0.00787353 0.00787353 
0 1.25 -3.84435 -0.999938 0.00787353 0.00787353 
1.58624 0 -3.84435 0.00787353 0.00787353 -0.999938 
1.58624 2.5 -3.84435 0.00787353 0.00787353 -0.999938 
0 0 -3.84435 0.00787353 0.00787353 -0.999938 
0 2.5 -3.84435 0.00787353 0.00787353 -0.999938 
0 1.25 -3.84435 0.00787353 0.00787353 -0.999938 
1.58624 1.25 -3.84435 0.00787353 0.00787353 -0.999938 
5.44616 0 -3.84435 -0.649844 0.0110143 -0.759987 
5.44616 2.5 -3.84435 -0.649844 0.0110143 -0.759987 
5.15905 0 -3.59206 -0.601713 0.0109402 -0.798637 
5.15905 2.5 -3.59206 -0.577076 0.0108882 -0.816618 
4.85462 0 -3.41186 -0.451383 0.0104973 -0.892269 
4.85462 2.5 -3.41186 -0.376631 0.0101792 -0.926308 
4.53285 0 -3.30373 -0.258246 0.00956467 -0.966032 
4.53285 2.5 -3.30373 -0.171716 0.00903766 -0.985105 
4.19376 0 -3.26769 -0.0239923 0.00799744 -0.99968 
4.19376 2.5 -3.26769 -0.00787353 0.00787353 -0.999938 
2.52134 0 -3.26769 0.00787353 0.00787353 -0.999938 
2.52134 2.5 -3.26769 0.0406155 0.0081231 -0.999142 
2.35333 0 -3.31489 0.376631 0.0101792 -0.926308 
2.35333 2.5 -3.31489 0.426275 0.0103969 -0.904534 
2.11133 0 -3.44851 0.527065 0.0107564 -0.849757 
2.11133 2.5 -3.44851 0.552167 0.0108268 -0.833663 
1.84124 0 -3.63793 0.601713 0.0109402 -0.798637 
1.84124 2.5 -3.63793 0.601713 0.0109402 -0.798637 
1.58624 0 -3.84435 0.625996 0.0109824 -0.779749 
1.58624 2.5 -3.84435 0.625996 0.0109824 -0.779749 
1.58624 1.25 -3.84435 0.625996 0.0109824 -0.779749 
5.44616 1.25 -3.84435 -0.649844 0.0110143 -0.759987 
5.9362 0 -3.84269 0.00787353 0.00787353 -0.999938 
5.9362 2.5 -3.84269 0.00787353 0.00787353 -0.999938 
5.69128 0 -3.84351 0.00787353 0.00787353 -0.999938 
5.69128 2.5 -3.84351 0.00787353 0.00787353 -0.999938 
5.44616 0 -3.84435 0.00787353 0.00787353 -0.999938 
5.44616 2.5 -3.84435 0.00787353 0.00787353 -0.999938 
5.9362 1.25 -3.84269 0.00787353 0.00787353 -0.999938 
5.44616 1.25 -3.84435 0.00787353 0.00787353 -0.999938 
0.406401 2.5 -3.39263 0.00787353 0.999938 0.00787353 
0.406401 2.5 -2.90248 0.00787353 0.999938 0.00787353 
0.406401 2.5 -2.41233 0.00787353 0.999938 0.00787353 
0.406401 2.5 -1.92217 0.00787353 0.999938 0.00787353 
0.406401 2.5 -1.43202 0.00787353 0.999938 0.00787353 
0.406401 2.5 -0.941865 0.00787353 0.999938 0.00787353 
0.406401 2.5 -0.451711 0.00787353 0.999938 0.00787353 
0.872164 2.5 -3.39263 0.00787353 0.999938 0.00787353 
0.872164 2.5 -2.90248 0.00787353 0.999938 0.00787353 
0.872164 2.5 -2.41233 0.00787353 0.999938 0.00787353 
0.872164 2.5 -1.92217 0.00787353 0.999938 0.00787353 
0.872164 2.5 -1.43202 0.00787353 0.999938 0.00787353 
0.872164 2.5 -0.941865 0.00787353 0.999938 0.00787353 
0.872164 2.5 -0.451711 0.00787353 0.999938 0.00787353 
1.33793 2.5 -3.39263 0.00787353 0.999938 0.00787353 
1.33793 2.5 -2.90248 0.00787353 0.999938 0.00787353 
1.33793 2.5 -2.41233 0.00787353 0.999938 0.00787353 
1.33793 2.5 -1.92217 0.00787353 0.999938 0.00787353 
1.33793 2.5 -1.43202 0.00787353 0.999938 0.00787353 
1.33793 2.5 -0.941865 0.00787353 0.999938 0.00787353 
1.33793 2.5 -0.451711 0.00787353 0.999938 0.00787353 
1.80369 2.5 -3.39263 0.00787353 0.999938 0.00787353 
1.80369 2.5 -2.90248 0.00787353 0.999938 0.00787353 
1.80369 2.5 -2.41233 0.00787353 0.999938 0.00787353 
1.80369 2.5 -1.43202 0.00787353 0.999938 0.00787353 
1.80369 2.5 -0.941865 0.00787353 0.999938 0.00787353 
1.80369 2.5 -0.451711 0.00787353 0.999938 0.00787353 
2.26945 2.5 -2.90248 0.00787353 0.999938 0.00787353 
2.26945 2.5 -2.41233 0.00787353 0.999938 0.00787353 
2.26945 2.5 -1.92217 0.00787353 0.999938 0.00787353 
2.26945 2.5 -1.43202 0.00787353 0.999938 0.00787353 
2.26945 2.5 -0.941865 0.00787353 0.999938 0.00787353 
2.73522 2.5 -2.90248 0.00787353 0.999938 0.00787353 
2.73522 2.5 -2.41233 0.00787353 0.999938 0.00787353 
2.73522 2.5 -1.92217 0.00787353 0.999938 0.00787353 
2.73522 2.5 -1.43202 0.00787353 0.999938 0.00787353 
2.73522 2.5 -0.941865 0.00787353 0.999938 0.00787353 
3.20098 2.5 -2.90248 0.00787353 0.999938 0.00787353 
3.20098 2.5 -2.41233 0.00787353 0.999938 0.00787353 
3.20098 2.5 -1.92217 0.00787353 0.999938 0.00787353 
3.20098 2.5 -1.43202 0.00787353 0.999938 0.00787353 
3.20098 2.5 -0.941865 0.00787353 0.999938 0.00787353 
3.66674 2.5 -2.90248 0.00787353 0.999938 0.00787353 
3.66674 2.5 -2.41233 0.00787353 0.999938 0.00787353 
3.66674 2.5 -1.43202 0.00787353 0.999938 0.00787353 
3.66674 2.5 -0.941865 0.00787353 0.999938 0.00787353 
4.13251 2.5 -2.90248 0.00787353 0.999938 0.00787353 
4.13251 2.5 -2.41233 0.00787353 0.999938 0.00787353 
4.13251 2.5 -1.92217 0.00787353 0.999938 0.00787353 
4.13251 2.5 -1.43202 0.00787353 0.999938 0.00787353 
4.13251 2.5 -0.941865 0.00787353 0.999938 0.00787353 
4.59827 2.5 -2.90248 0.00787353 0.999938 0.00787353 
4.59827 2.5 -2.41233 0.00787353 0.999938 0.00787353 
4.59827 2.5 -1.92217 0.00787353 0.999938 0.00787353 
4.59827 2.5 -1.43202 0.00787353 0.999938 0.00787353 
4.59827 2.5 -0.941865 0.00787353 0.999938 0.00787353 
5.06403 2.5 -3.39263 0.00787353 0.999938 0.00787353 
5.06403 2.5 -2.90248 0.00787353 0.999938 0.00787353 
5.06403 2.5 -2.41233 0.00787353 0.999938 0.00787353 
5.06403 2.5 -1.92217 0.00787353 0.999938 0.00787353 
5.06403 2.5 -1.43202 0.00787353 0.999938 0.00787353 
5.06403 2.5 -0.941865 0.00787353 0.999938 0.00787353 
5.06403 2.5 -0.451711 0.00787353 0.999938 0.00787353 
5.52979 2.5 -3.39263 0.00787353 0.999938 0.00787353 
5.52979 2.5 -2.90248 0.00787353 0.999938 0.00787353 
5.52979 2.5 -2.41233 0.00787353 0.999938 0.00787353 
5.52979 2.5 -1.92217 0.00787353 0.999938 0.00787353 
5.52979 2.5 -1.43202 0.00787353 0.999938 0.00787353 
5.52979 2.5 -0.941865 0.00787353 0.999938 0.00787353 
5.52979 2.5 -0.451711 0.00787353 0.999938 0.00787353 
5.9362 2.5 -3.84269 0.00787353 0.999938 0.00787353 
5.9362 2.5 -3.60262 0.00787353 0.999938 0.00787353 
5.9362 2.5 -3.36256 0.00787353 0.999938 0.00787353 
5.9362 2.5 -3.12249 0.00787353 0.999938 0.00787353 
5.9362 2.5 -2.88243 0.00787353 0.999938 0.00787353 
5.9362 2.5 -2.64236 0.00787353 0.999938 0.00787353 
5.9362 2.5 -2.4023 0.00787353 0.999938 0.00787353 
5.9362 2.5 -2.16224 0.00787353 0.999938 0.00787353 
5.9362 2.5 -1.92217 0.00787353 0.999938 0.00787353 
5.9362 2.5 -1.68211 0.00787353 0.999938 0.00787353 
5.9362 2.5 -1.44204 0.00787353 0.999938 0.00787353 
5.9362 2.5 -1.20198 0.00787353 0.999938 0.00787353 
5.9362 2.5 -0.961916 0.00787353 0.999938 0.00787353 
5.9362 2.5 -0.721852 0.00787353 0.999938 0.00787353 
5.9362 2.5 -0.481788 0.00787353 0.999938 0.00787353 
5.9362 2.5 -0.241724 0.00787353 0.999938 0.00787353 
5.9362 2.5 -0.00165962 0.00787353 0.999938 0.00787353 
5.69128 2.5 -0.000834282 0.00787353 0.999938 0.00787353 
5.44616 2.5 8.88178e-16 0.00787353 0.999938 0.00787353 
5.15905 2.5 -0.252285 0.00787353 0.999938 0.00787353 
4.85462 2.5 -0.432489 0.00787353 0.999938 0.00787353 
4.53285 2.5 -0.540611 0.00787353 0.999938 0.00787353 
4.19376 2.5 -0.576652 0.00787353 0.999938 0.00787353 
2.40366 2.5 -0.576652 0.00787353 0.999938 0.00787353 
2.22784 2.5 -0.529454 0.00787353 0.999938 0.00787353 
2.00827 2.5 -0.39584 0.00787353 0.999938 0.00787353 
1.78391 2.5 -0.206414 0.00787353 0.999938 0.00787353 
1.58624 2.5 8.88178e-16 0.00787353 0.999938 0.00787353 
0 2.5 8.88178e-16 0.00787353 0.999938 0.00787353 
0 2.5 -3.84435 0.00787353 0.999938 0.00787353 
1.58624 2.5 -3.84435 0.00787353 0.999938 0.00787353 
1.84124 2.5 -3.63793 0.00787353 0.999938 0.00787353 
2.11133 2.5 -3.44851 0.00787353 0.999938 0.00787353 
2.35333 2.5 -3.31489 0.00787353 0.999938 0.00787353 
2.52134 2.5 -3.26769 0.00787353 0.999938 0.00787353 
4.19376 2.5 -3.26769 0.00787353 0.999938 0.00787353 
4.53285 2.5 -3.30373 0.00787353 0.999938 0.00787353 
4.85462 2.5 -3.41186 0.00787353 0.999938 0.00787353 
5.15905 2.5 -3.59206 0.00787353 0.999938 0.00787353 
5.44616 2.5 -3.84435 0.00787353 0.999938 0.00787353 
5.69128 2.5 -3.84351 0.00787353 0.999938 0.00787353 
3.83809 2.5 -1.92217 0.00787353 0.999938 0.00787353 
3.82549 2.5 -1.99779 0.00787353 0.999938 0.00787353 
3.78553 2.5 -2.06744 0.00787353 0.999938 0.00787353 
3.72468 2.5 -2.11319 0.00787353 0.999938 0.00787353 
3.65862 2.5 -2.12761 0.00787353 0.999938 0.00787353 
3.59256 2.5 -2.11319 0.00787353 0.999938 0.00787353 
3.53172 2.5 -2.06744 0.00787353 0.999938 0.00787353 
3.49176 2.5 -1.99779 0.00787353 0.999938 0.00787353 
3.47916 2.5 -1.92217 0.00787353 0.999938 0.00787353 
3.49176 2.5 -1.84655 0.00787353 0.999938 0.00787353 
3.53172 2.5 -1.77691 0.00787353 0.999938 0.00787353 
3.59256 2.5 -1.73116 0.00787353 0.999938 0.00787353 
3.65862 2.5 -1.71673 0.00787353 0.999938 0.00787353 
3.72468 2.5 -1.73116 0.00787353 0.999938 0.00787353 
3.78553 2.5 -1.77691 0.00787353 0.999938 0.00787353 
3.82549 2.5 -1.84655 0.00787353 0.999938 0.00787353 
1.85865 2.5 -1.92217 0.00787353 0.999938 0.00787353 
1.84604 2.5 -1.99779 0.00787353 0.999938 0.00787353 
1.80608 2.5 -2.06744 0.00787353 0.999938 0.00787353 
1.74524 2.5 -2.11319 0.00787353 0.999938 0.00787353 
1.67918 2.5 -2.12761 0.00787353 0.999938 0.00787353 
1.61312 2.5 -2.11319 0.00787353 0.999938 0.00787353 
1.55228 2.5 -2.06744 0.00787353 0.999938 0.00787353 
1.51231 2.5 -1.99779 0.00787353 0.999938 0.00787353 
1.49971 2.5 -1.92217 0.00787353 0.999938 0.00787353 
1.51231 2.5 -1.84655 0.00787353 0.999938 0.00787353 
1.55228 2.5 -1.77691 0.00787353 0.999938 0.00787353 
1.61312 2.5 -1.73116 0.00787353 0.999938 0.00787353 
1.67918 2.5 -1.71673 0.00787353 0.999938 0.00787353 
1.74524 2.5 -1.73116 0.00787353 0.999938 0.00787353 
1.80608 2.5 -1.77691 0.00787353 0.999938 0.00787353 
1.84604 2.5 -1.84655 0.00787353 0.999938 0.00787353 
5.9362 0 -0.00165962 0.00787353 -0.999938 0.00787353 
5.9362 0 -0.241724 0.00787353 -0.999938 0.00787353 
5.9362 0 -0.481788 0.00787353 -0.999938 0.00787353 
5.9362 0 -0.721852 0.00787353 -0.999938 0.00787353 
5.9362 0 -0.961916 0.00787353 -0.999938 0.00787353 
5.9362 0 -1.20198 0.00787353 -0.999938 0.00787353 
5.9362 0 -1.44204 0.00787353 -0.999938 0.00787353 
5.9362 0 -1.68211 0.00787353 -0.999938 0.00787353 
5.9362 0 -1.92217 0.00787353 -0.999938 0.00787353 
5.9362 0 -2.16224 0.00787353 -0.999938 0.00787353 
5.9362 0 -2.4023 0.00787353 -0.999938 0.00787353 
5.9362 0 -2.64236 0.00787353 -0.999938 0.00787353 
5.9362 0 -2.88243 0.00787353 -0.999938 0.00787353 
5.9362 0 -3.12249 0.00787353 -0.999938 0.00787353 
5.9362 0 -3.36256 0.00787353 -0.999938 0.00787353 
5.9362 0 -3.60262 0.00787353 -0.999938 0.00787353 
5.9362 0 -3.84269 0.00787353 -0.999938 0.00787353 
10.7856 0 -3.82813 0.00787353 -0.999938 0.00787353 
15.4083 0 -3.81772 0.00787353 -0.999938 0.00787353 
19.8041 0 -3.81148 0.00787353 -0.999938 0.00787353 
23.9732 0 -3.8094 0.00787353 -0.999938 0.00787353 
23.9732 0 -0.0349407 0.00787353 -0.999938 0.00787353 
19.8041 0 -0.0328607 0.00787353 -0.999938 0.00787353 
15.4083 0 -0.0266205 0.00787353 -0.999938 0.00787353 
10.7856 0 -0.0162201 0.00787353 -0.999938 0.00787353 
23.9732 0 -3.8094 0.00787353 0.00787353 -0.999938 
23.9732 0.5 -3.8094 0.00787353 0.00787353 -0.999938 
19.8041 0 -3.81148 0.00787353 0.00787353 -0.999938 
19.8041 1 -3.81148 0.00787353 0.00787353 -0.999938 
15.4083 0 -3.81772 0.00787353 0.00787353 -0.999938 
15.4083 1.5 -3.81772 0.00787353 0.00787353 -0.999938 
10.7856 0 -3.82813 0.00787353 0.00787353 -0.999938 
10.7856 2 -3.82813 0.00787353 0.00787353 -0.999938 
5.9362 0 -3.84269 0.00787353 0.00787353 -0.999938 
5.9362 2.5 -3.84269 0.00787353 0.00787353 -0.999938 
5.9362 1.25 -3.84269 0.00787353 0.00787353 -0.999938 
8.38925 2.25 -3.83489 0.00787353 0.00787353 -0.999938 
13.1253 1.75 -3.8224 0.00787353 0.00787353 -0.999938 
17.6345 1.25 -3.81408 0.00787353 0.00787353 -0.999938 
21.917 0.75 -3.80992 0.00787353 0.00787353 -0.999938 
5.9362 0 -0.00165962 0.00787353 0.00787353 0.999938 
5.9362 2.5 -0.00165962 0.00787353 0.00787353 0.999938 
10.7856 0 -0.0162201 0.00787353 0.00787353 0.999938 
15.4083 0 -0.0266205 0.00787353 0.00787353 0.999938 
15.4083 1.5 -0.0266205 0.00787353 0.00787353 0.999938 
19.8041 0 -0.0328607 0.00787353 0.00787353 0.999938 
19.8041 1 -0.0328607 0.00787353 0.00787353 0.999938 
23.9732 0 -0.0349407 0.00787353 0.00787353 0.999938 
23.9732 0.5 -0.0349407 0.00787353 0.00787353 0.999938 
5.9362 1.25 -0.00165962 0.00787353 0.00787353 0.999938 
21.917 0.75 -0.0344207 0.00787353 0.00787353 0.999938 
17.6345 1.25 -0.0302606 0.00787353 0.00787353 0.999938 
13.1253 1.75 -0.0219403 0.00787353 0.00787353 0.999938 
10.7856 2 -0.0162201 0.00787353 0.00787353 0.999938 
8.38925 2.25 -0.00945989 0.00787353 0.00787353 0.999938 
23.9732 0.5 -3.8094 0.112324 0.993634 0.0086403 
23.9732 0.5 -1.92217 0.112324 0.993634 0.0086403 
23.9732 0.5 -0.0349407 0.112324 0.993634 0.0086403 
5.9362 2.5 -0.00165962 0.0936009 0.995573 0.00850917 
5.9362 2.5 -0.241724 0.0936009 0.995573 0.00850917 
5.9362 2.5 -0.481788 0.0936009 0.995573 0.00850917 
5.9362 2.5 -0.721852 0.0936009 0.995573 0.00850917 
5.9362 2.5 -0.961916 0.0936009 0.995573 0.00850917 
5.9362 2.5 -1.20198 0.0936009 0.995573 0.00850917 
5.9362 2.5 -1.44204 0.0936009 0.995573 0.00850917 
5.9362 2.5 -1.68211 0.0936009 0.995573 0.00850917 
5.9362 2.5 -1.92217 0.0936009 0.995573 0.00850917 
5.9362 2.5 -2.16224 0.0936009 0.995573 0.00850917 
5.9362 2.5 -2.4023 0.0936009 0.995573 0.00850917 
5.9362 2.5 -2.64236 0.0936009 0.995573 0.00850917 
5.9362 2.5 -2.88243 0.0936009 0.995573 0.00850917 
5.9362 2.5 -3.12249 0.0936009 0.995573 0.00850917 
5.9362 2.5 -3.36256 0.0936009 0.995573 0.00850917 
5.9362 2.5 -3.60262 0.0936009 0.995573 0.00850917 
5.9362 2.5 -3.84269 0.0936009 0.995573 0.00850917 
8.38925 2.25 -3.83489 0.0936009 0.995573 0.00850917 
10.7856 2 -3.82813 0.112324 0.993634 0.0086403 
13.1253 1.75 -3.8224 0.112324 0.993634 0.0086403 
15.4083 1.5 -3.81772 0.112324 0.993634 0.0086403 
17.6345 1.25 -3.81408 0.112324 0.993634 0.0086403 
19.8041 1 -3.81148 0.112324 0.993634 0.0086403 
21.917 0.75 -3.80992 0.112324 0.993634 0.0086403 
21.917 0.75 -0.0344207 0.112324 0.993634 0.0086403 
19.8041 1 -0.0328607 0.112324 0.993634 0.0086403 
17.6345 1.25 -0.0302606 0.112324 0.993634 0.0086403 
15.4083 1.5 -0.0266205 0.112324 0.993634 0.0086403 
13.1253 1.75 -0.0219403 0.112324 0.993634 0.0086403 
10.7856 2 -0.0162201 0.112324 0.993634 0.0086403 
8.38925 2.25 -0.00945989 0.0936009 0.995573 0.00850917 
3.83809 2.5 -1.92217 -0.985105 0.00903766 -0.171716 
3.65862 0 -1.71673 -0.0754122 0.00837914 -0.997117 
3.49176 0 -1.99779 0.959629 0.00969322 0.281103 
3.53172 0 -2.06744 0.798637 0.0109402 0.601713 
3.78553 0 -2.06744 -0.759987 0.0110143 0.649844 
3.82549 0 -1.99779 -0.959629 0.00969322 0.281103 
3.83809 0 -1.92217 -0.985105 0.00903766 0.171716 
3.72468 0 -2.11319 -0.352208 0.0100631 0.935868 
3.65862 0 -2.12761 0.0754122 0.00837914 0.997117 
3.59256 0 -2.11319 0.501849 0.0106776 0.864889 
3.47916 0 -1.92217 0.999938 0.00787353 0.00787353 
3.49176 0 -1.84655 0.935868 0.0100631 -0.352208 
3.53172 0 -1.77691 0.695931 0.0110465 -0.718024 
3.59256 0 -1.73116 0.352208 0.0100631 -0.935868 
3.72468 0 -1.73116 -0.501849 0.0106776 -0.864889 
3.78553 0 -1.77691 -0.798637 0.0109402 -0.601713 
3.82549 0 -1.84655 -0.959629 0.00969322 -0.281103 
3.83809 0 -1.92217 -0.985105 0.00903766 -0.171716 
3.82549 2.5 -1.84655 -0.915872 0.0102907 -0.401337 
3.78553 2.5 -1.77691 -0.695931 0.0110465 -0.718024 
3.72468 2.5 -1.73116 -0.352208 0.0100631 -0.935868 
3.65862 2.5 -1.71673 0.0754122 0.00837914 -0.997117 
3.59256 2.5 -1.73116 0.501849 0.0106776 -0.864889 
3.53172 2.5 -1.77691 0.798637 0.0109402 -0.601713 
3.49176 2.5 -1.84655 0.935868 0.0100631 -0.352208 
3.47916 2.5 -1.92217 0.999938 0.00787353 0.00787353 
3.49176 2.5 -1.99779 0.915872 0.0102907 0.401337 
3.53172 2.5 -2.06744 0.695931 0.0110465 0.718024 
3.59256 2.5 -2.11319 0.352208 0.0100631 0.935868 
3.65862 2.5 -2.12761 -0.0754122 0.00837914 0.997117 
3.72468 2.5 -2.11319 -0.501849 0.0106776 0.864889 
3.78553 2.5 -2.06744 -0.759987 0.0110143 0.649844 
3.82549 2.5 -1.99779 -0.915872 0.0102907 0.401337 
3.83809 2.5 -1.92217 -0.985105 0.00903766 0.171716 
1.85865 2.5 -1.92217 -0.985105 0.00903766 -0.171716 
1.67918 0 -1.71673 -0.0754122 0.00837914 -0.997117 
1.51231 0 -1.99779 0.959629 0.00969322 0.281103 
1.80608 0 -2.06744 -0.759987 0.0110143 0.649844 
1.84604 0 -1.99779 -0.959629 0.00969322 0.281103 
1.85865 0 -1.92217 -0.985105 0.00903766 0.171716 
1.74524 0 -2.11319 -0.352208 0.0100631 0.935868 
1.67918 0 -2.12761 0.0754122 0.00837914 0.997117 
1.61312 0 -2.11319 0.501849 0.0106776 0.864889 
1.55228 0 -2.06744 0.798637 0.0109402 0.601713 
1.49971 0 -1.92217 0.998297 0.00825039 -0.0577527 
1.51231 0 -1.84655 0.915872 0.0102907 -0.401337 
1.55228 0 -1.77691 0.695931 0.0110465 -0.718024 
1.61312 0 -1.73116 0.352208 0.0100631 -0.935868 
1.74524 0 -1.73116 -0.501849 0.0106776 -0.864889 
1.80608 0 -1.77691 -0.798637 0.0109402 -0.601713 
1.84604 0 -1.84655 -0.959629 0.00969322 -0.281103 
1.85865 0 -1.92217 -0.985105 0.00903766 -0.171716 
1.84604 2.5 -1.84655 -0.915872 0.0102907 -0.401337 
1.80608 2.5 -1.77691 -0.695931 0.0110465 -0.718024 
1.74524 2.5 -1.73116 -0.352208 0.0100631 -0.935868 
1.67918 2.5 -1.71673 0.0754122 0.00837914 -0.997117 
1.61312 2.5 -1.73116 0.501849 0.0106776 -0.864889 
1.55228 2.5 -1.77691 0.798637 0.0109402 -0.601713 
1.51231 2.5 -1.84655 0.959629 0.00969322 -0.281103 
1.49971 2.5 -1.92217 0.998297 0.00825039 0.0577527 
1.51231 2.5 -1.99779 0.915872 0.0102907 0.401337 
1.55228 2.5 -2.06744 0.695931 0.0110465 0.718024 
1.61312 2.5 -2.11319 0.352208 0.0100631 0.935868 
1.67918 2.5 -2.12761 -0.0754122 0.00837914 0.997117 
1.74524 2.5 -2.11319 -0.501849 0.0106776 0.864889 
1.80608 2.5 -2.06744 -0.759987 0.0110143 0.649844 
1.84604 2.5 -1.99779 -0.915872 0.0102907 0.401337 
1.85865 2.5 -1.92217 -0.985105 0.00903766 0.171716 
3 1 3 0 
3 68 5 3 
3 9 7 70 
3 9 70 69 
3 11 9 69 
3 11 69 71 
3 7 5 68 
3 7 68 70 
3 4 68 1 
3 68 3 1 
3 70 68 6 
3 70 6 8 
3 13 11 71 
3 13 71 72 
3 71 69 10 
3 71 10 12 
3 69 70 8 
3 69 8 10 
3 73 74 17 
3 73 17 15 
3 21 19 76 
3 21 76 75 
3 23 21 75 
3 23 75 77 
3 19 17 74 
3 19 74 76 
3 15 13 72 
3 15 72 73 
3 25 23 77 
3 25 77 78 
3 27 25 78 
3 27 78 79 
3 73 72 14 
3 73 14 16 
3 29 27 79 
3 29 79 80 
3 31 29 80 
3 31 80 81 
3 33 31 81 
3 33 81 82 
3 72 71 12 
3 72 12 14 
3 4 1 2 
3 6 68 4 
3 76 74 18 
3 76 18 20 
3 16 18 74 
3 16 74 73 
3 20 22 75 
3 20 75 76 
3 77 75 22 
3 77 22 24 
3 78 77 24 
3 78 24 26 
3 80 79 28 
3 80 28 30 
3 81 80 30 
3 81 30 32 
3 79 78 26 
3 79 26 28 
3 82 81 32 
3 82 32 34 
3 82 83 35 
3 82 35 33 
3 37 35 83 
3 37 83 84 
3 39 37 84 
3 39 84 85 
3 43 41 87 
3 43 87 86 
3 45 43 86 
3 45 86 88 
3 41 39 85 
3 41 85 87 
3 84 83 36 
3 84 36 38 
3 85 84 38 
3 85 38 40 
3 86 87 42 
3 86 42 44 
3 88 86 44 
3 88 44 46 
3 87 85 40 
3 87 40 42 
3 88 89 47 
3 88 47 45 
3 34 36 83 
3 34 83 82 
3 49 47 89 
3 49 89 90 
3 90 91 51 
3 90 51 49 
3 53 51 91 
3 53 91 92 
3 55 53 92 
3 55 92 93 
3 57 55 93 
3 57 93 94 
3 59 57 94 
3 59 94 95 
3 90 89 48 
3 90 48 50 
3 61 59 95 
3 61 95 96 
3 63 61 96 
3 63 96 97 
3 65 63 97 
3 65 97 66 
3 89 88 46 
3 89 46 48 
3 52 54 92 
3 52 92 91 
3 50 52 91 
3 50 91 90 
3 94 93 56 
3 94 56 58 
3 95 94 58 
3 95 58 60 
3 97 96 62 
3 97 62 64 
3 66 97 64 
3 66 64 67 
3 96 95 60 
3 96 60 62 
3 93 92 54 
3 93 54 56 
3 134 98 99 
3 134 100 133 
3 100 134 99 
3 101 102 133 
3 103 135 102 
3 102 135 133 
3 100 101 133 
3 104 135 103 
3 132 128 131 
3 130 131 129 
3 131 128 129 
3 126 132 135 
3 135 125 126 
3 132 127 128 
3 127 132 126 
3 135 124 125 
3 124 135 104 
3 124 104 105 
3 105 106 122 
3 107 122 106 
3 121 107 108 
3 110 118 109 
3 112 116 111 
3 118 110 111 
3 120 108 109 
3 113 116 112 
3 109 119 120 
3 122 107 121 
3 120 121 108 
3 105 122 123 
3 113 115 116 
3 111 117 118 
3 117 111 116 
3 109 118 119 
3 113 114 115 
3 124 105 123 
3 172 137 136 
3 172 171 138 
3 138 137 172 
3 139 171 140 
3 163 141 171 
3 141 140 171 
3 138 171 139 
3 142 141 163 
3 166 169 167 
3 169 168 167 
3 166 170 169 
3 170 164 163 
3 170 166 165 
3 165 164 170 
3 171 170 163 
3 163 162 142 
3 162 143 142 
3 143 160 144 
3 145 144 159 
3 159 146 145 
3 148 147 157 
3 150 149 155 
3 155 149 148 
3 158 147 146 
3 151 150 153 
3 147 158 157 
3 160 159 144 
3 158 146 159 
3 143 161 160 
3 150 154 153 
3 148 156 155 
3 155 154 150 
3 148 157 156 
3 151 153 152 
3 162 161 143 
3 173 174 179 
3 173 179 178 
3 178 179 177 
3 177 179 176 
3 175 178 177 
3 185 180 184 
3 186 184 181 
3 182 185 186 
3 182 186 183 
3 184 186 185 
3 195 188 187 
3 195 187 194 
3 196 189 188 
3 196 188 195 
3 197 190 189 
3 197 189 196 
3 198 191 190 
3 198 190 197 
3 199 192 191 
3 199 191 198 
3 200 193 192 
3 200 192 199 
3 202 195 194 
3 202 194 201 
3 203 196 195 
3 203 195 202 
3 204 197 196 
3 204 196 203 
3 205 198 197 
3 205 197 204 
3 206 199 198 
3 206 198 205 
3 207 200 199 
3 207 199 206 
3 209 202 201 
3 209 201 208 
3 210 203 202 
3 210 202 209 
3 212 206 205 
3 212 205 211 
3 213 207 206 
3 213 206 212 
3 215 210 209 
3 215 209 214 
3 218 212 211 
3 218 211 217 
3 220 215 214 
3 220 214 219 
3 221 216 215 
3 221 215 220 
3 222 217 216 
3 222 216 221 
3 223 218 217 
3 223 217 222 
3 225 220 219 
3 225 219 224 
3 226 221 220 
3 226 220 225 
3 227 222 221 
3 227 221 226 
3 228 223 222 
3 228 222 227 
3 230 225 224 
3 230 224 229 
3 232 228 227 
3 232 227 231 
3 234 230 229 
3 234 229 233 
3 237 232 231 
3 237 231 236 
3 239 234 233 
3 239 233 238 
3 240 235 234 
3 240 234 239 
3 241 236 235 
3 241 235 240 
3 242 237 236 
3 242 236 241 
3 245 239 238 
3 245 238 244 
3 246 240 239 
3 246 239 245 
3 247 241 240 
3 247 240 246 
3 248 242 241 
3 248 241 247 
3 251 244 243 
3 251 243 250 
3 252 245 244 
3 252 244 251 
3 253 246 245 
3 253 245 252 
3 254 247 246 
3 254 246 253 
3 255 248 247 
3 255 247 254 
3 256 249 248 
3 256 248 255 
3 188 285 187 
3 194 187 285 
3 189 285 188 
3 201 194 276 
3 285 276 194 
3 190 285 189 
3 321 204 320 
3 203 320 204 
3 322 204 321 
3 319 210 318 
3 210 317 318 
3 203 319 320 
3 319 203 210 
3 208 201 276 
3 286 285 190 
3 208 277 278 
3 278 209 208 
3 209 278 214 
3 276 277 208 
3 214 279 280 
3 280 219 214 
3 219 280 224 
3 278 279 214 
3 317 210 316 
3 215 315 316 
3 314 315 216 
3 210 215 316 
3 225 304 305 
3 215 216 315 
3 225 305 226 
3 224 280 281 
3 323 324 204 
3 204 324 205 
3 323 204 322 
3 205 324 325 
3 326 211 325 
3 211 205 325 
3 327 211 326 
3 286 192 193 
3 287 286 193 
3 287 193 200 
3 191 192 286 
3 213 296 207 
3 207 296 287 
3 200 207 287 
3 211 327 328 
3 190 191 286 
3 217 329 216 
3 329 217 328 
3 307 226 306 
3 305 306 226 
3 226 307 227 
3 295 212 294 
3 218 294 212 
3 296 213 295 
3 212 295 213 
3 293 218 223 
3 223 228 293 
3 294 218 293 
3 308 227 307 
3 328 217 211 
3 329 314 216 
3 292 293 228 
3 292 228 232 
3 281 233 229 
3 301 230 234 
3 230 303 225 
3 238 282 283 
3 233 281 238 
3 282 238 281 
3 281 229 224 
3 230 302 303 
3 301 302 230 
3 303 304 225 
3 299 300 234 
3 313 298 235 
3 299 235 298 
3 300 301 234 
3 234 235 299 
3 244 238 283 
3 250 284 274 
3 284 250 243 
3 250 274 275 
3 283 284 243 
3 258 275 257 
3 258 259 250 
3 275 258 250 
3 259 260 250 
3 260 251 250 
3 251 262 252 
3 261 251 260 
3 251 261 262 
3 252 263 264 
3 252 262 263 
3 283 243 244 
3 264 253 252 
3 227 309 231 
3 309 310 231 
3 311 231 310 
3 236 312 313 
3 231 311 236 
3 312 236 311 
3 292 232 237 
3 292 242 291 
3 242 292 237 
3 290 242 248 
3 289 290 249 
3 248 249 290 
3 291 242 290 
3 236 313 235 
3 309 227 308 
3 266 254 253 
3 264 265 253 
3 254 268 255 
3 265 266 253 
3 254 266 267 
3 255 268 269 
3 254 267 268 
3 270 255 269 
3 288 289 256 
3 289 249 256 
3 256 297 288 
3 297 256 272 
3 256 270 271 
3 297 272 273 
3 256 271 272 
3 256 255 270 
3 337 330 332 
3 337 333 331 
3 333 337 332 
3 332 336 333 
3 336 335 333 
3 334 336 332 
3 359 338 340 
3 344 345 343 
3 344 343 342 
3 346 347 345 
3 346 345 344 
3 342 343 341 
3 342 341 340 
3 339 359 341 
3 341 359 340 
3 347 346 348 
3 347 348 349 
3 350 351 349 
3 350 349 348 
3 354 355 353 
3 354 353 352 
3 358 354 356 
3 352 353 351 
3 352 351 350 
3 357 355 358 
3 358 355 354 
3 365 360 362 
3 365 362 364 
3 361 365 364 
3 361 364 363 
3 371 366 368 
3 371 368 370 
3 367 371 370 
3 367 370 369 
3 377 372 374 
3 377 374 376 
3 373 377 376 
3 373 376 375 
3 399 378 380 
3 384 385 383 
3 384 383 382 
3 386 387 385 
3 386 385 384 
3 382 383 381 
3 382 381 380 
3 379 399 381 
3 381 399 380 
3 387 386 388 
3 387 388 389 
3 390 391 389 
3 390 389 388 
3 394 395 393 
3 394 393 392 
3 398 394 396 
3 392 393 391 
3 392 391 390 
3 397 395 398 
3 398 395 394 
3 406 400 402 
3 406 403 401 
3 403 406 402 
3 402 407 403 
3 407 405 403 
3 404 407 402 
3 416 415 408 
3 416 408 409 
3 417 416 409 
3 417 409 410 
3 418 417 410 
3 418 410 411 
3 419 418 411 
3 419 411 412 
3 420 419 412 
3 420 412 413 
3 421 420 413 
3 421 413 414 
3 423 422 415 
3 423 415 416 
3 424 423 416 
3 424 416 417 
3 425 424 417 
3 425 417 418 
3 426 425 418 
3 426 418 419 
3 427 426 419 
3 427 419 420 
3 428 427 420 
3 428 420 421 
3 430 429 422 
3 430 422 423 
3 431 430 423 
3 431 423 424 
3 433 432 426 
3 433 426 427 
3 434 433 427 
3 434 427 428 
3 436 435 430 
3 436 430 431 
3 439 438 432 
3 439 432 433 
3 441 440 435 
3 441 435 436 
3 442 441 436 
3 442 436 437 
3 443 442 437 
3 443 437 438 
3 444 443 438 
3 444 438 439 
3 446 445 440 
3 446 440 441 
3 447 446 441 
3 447 441 442 
3 448 447 442 
3 448 442 443 
3 449 448 443 
3 449 443 444 
3 451 450 445 
3 451 445 446 
3 453 452 448 
3 453 448 449 
3 455 454 450 
3 455 450 451 
3 458 457 452 
3 458 452 453 
3 460 459 454 
3 460 454 455 
3 461 460 455 
3 461 455 456 
3 462 461 456 
3 462 456 457 
3 463 462 457 
3 463 457 458 
3 466 465 459 
3 466 459 460 
3 467 466 460 
3 467 460 461 
3 468 467 461 
3 468 461 462 
3 469 468 462 
3 469 462 463 
3 472 471 464 
3 472 464 465 
3 473 472 465 
3 473 465 466 
3 474 473 466 
3 474 466 467 
3 475 474 467 
3 475 467 468 
3 476 475 468 
3 476 468 469 
3 477 476 469 
3 477 469 470 
3 409 408 507 
3 415 507 408 
3 410 409 507 
3 422 508 415 
3 507 415 508 
3 508 422 429 
3 429 509 508 
3 425 542 541 
3 541 424 425 
3 507 411 410 
3 540 539 431 
3 431 539 538 
3 424 541 540 
3 540 431 424 
3 506 411 507 
3 429 430 510 
3 510 430 435 
3 435 511 510 
3 509 429 510 
3 435 440 512 
3 512 440 445 
3 511 435 512 
3 445 513 512 
3 538 537 431 
3 436 537 536 
3 535 437 536 
3 431 537 436 
3 447 526 446 
3 525 446 526 
3 436 536 437 
3 527 526 447 
3 544 543 425 
3 542 425 543 
3 544 425 545 
3 545 425 426 
3 546 426 432 
3 546 545 426 
3 546 432 547 
3 506 414 413 
3 505 421 414 
3 505 414 506 
3 412 506 413 
3 434 428 504 
3 428 505 504 
3 421 505 428 
3 548 547 432 
3 411 506 412 
3 438 550 549 
3 549 432 438 
3 548 432 549 
3 437 550 438 
3 448 528 447 
3 527 447 528 
3 503 502 433 
3 439 433 502 
3 504 503 434 
3 433 434 503 
3 501 444 439 
3 444 501 449 
3 502 501 439 
3 529 528 448 
3 550 437 535 
3 500 453 449 
3 500 449 501 
3 513 450 454 
3 522 455 451 
3 451 446 524 
3 459 515 514 
3 454 459 513 
3 514 513 459 
3 513 445 450 
3 451 524 523 
3 522 451 523 
3 524 446 525 
3 520 455 521 
3 534 456 519 
3 520 519 456 
3 521 455 522 
3 455 520 456 
3 465 515 459 
3 471 517 516 
3 516 464 471 
3 471 518 517 
3 515 464 516 
3 479 478 518 
3 479 471 480 
3 518 471 479 
3 480 471 481 
3 481 471 472 
3 472 473 483 
3 482 481 472 
3 472 483 482 
3 473 485 484 
3 473 484 483 
3 515 465 464 
3 485 473 474 
3 448 452 530 
3 530 452 531 
3 532 531 452 
3 457 534 533 
3 452 457 532 
3 533 532 457 
3 500 458 453 
3 500 499 463 
3 463 458 500 
3 498 469 463 
3 497 470 498 
3 469 498 470 
3 499 498 463 
3 457 456 534 
3 530 529 448 
3 487 474 475 
3 485 474 486 
3 475 476 489 
3 486 474 487 
3 475 488 487 
3 476 490 489 
3 475 489 488 
3 491 490 476 
3 496 477 497 
3 497 477 470 
3 477 496 495 
3 495 493 477 
3 477 492 491 
3 495 494 493 
3 477 493 492 
3 477 491 476 
3 568 564 565 
3 565 566 568 
3 563 564 568 
3 568 561 562 
3 562 563 568 
3 559 560 569 
3 561 569 560 
3 556 557 575 
3 557 558 574 
3 558 559 574 
3 568 566 567 
3 555 575 554 
3 568 569 561 
3 574 559 569 
3 569 570 574 
3 557 574 575 
3 571 572 573 
3 571 573 570 
3 551 552 575 
3 553 575 552 
3 573 574 570 
3 554 575 553 
3 575 555 556 
3 590 576 578 
3 589 578 580 
3 576 590 577 
3 578 589 579 
3 579 590 578 
3 589 580 581 
3 588 581 580 
3 582 588 580 
3 582 584 586 
3 586 587 582 
3 582 583 588 
3 586 585 587 
3 587 583 582 
3 600 591 593 
3 605 600 593 
3 600 605 592 
3 593 603 604 
3 604 605 593 
3 603 593 594 
3 603 594 595 
3 594 602 595 
3 596 602 594 
3 598 601 596 
3 596 597 602 
3 598 599 601 
3 601 597 596 
3 622 621 626 
3 617 626 618 
3 626 623 622 
3 626 621 620 
3 619 618 626 
3 626 620 619 
3 624 623 626 
3 616 615 639 
3 615 614 639 
3 639 617 616 
3 639 612 611 
3 609 639 610 
3 612 639 613 
3 639 611 610 
3 614 613 639 
3 625 624 626 
3 639 627 626 
3 637 629 628 
3 638 628 627 
3 635 631 630 
3 607 606 632 
3 634 632 631 
3 636 630 629 
3 636 629 637 
3 638 627 639 
3 637 628 638 
3 633 608 607 
3 634 631 635 
3 633 632 634 
3 630 636 635 
3 607 632 633 
3 617 639 626 
3 640 657 656 
3 640 656 658 
3 659 655 654 
3 659 654 660 
3 658 656 655 
3 658 655 659 
3 661 641 653 
3 661 653 662 
3 663 652 651 
3 663 651 664 
3 662 653 652 
3 662 652 663 
3 660 654 641 
3 660 641 661 
3 665 664 651 
3 665 651 650 
3 666 642 643 
3 666 643 667 
3 668 649 648 
3 668 648 669 
3 667 643 649 
3 667 649 668 
3 670 647 644 
3 670 644 671 
3 673 672 645 
3 673 645 646 
3 672 671 644 
3 672 644 645 
3 669 648 647 
3 669 647 670 
3 642 666 665 
3 642 665 650 
3 674 691 690 
3 674 690 692 
3 693 689 688 
3 693 688 694 
3 692 690 689 
3 692 689 693 
3 695 675 687 
3 695 687 696 
3 697 686 685 
3 697 685 698 
3 696 687 686 
3 696 686 697 
3 694 688 675 
3 694 675 695 
3 698 685 684 
3 698 684 699 
3 700 676 683 
3 700 683 701 
3 702 682 681 
3 702 681 703 
3 701 683 682 
3 701 682 702 
3 704 680 677 
3 704 677 705 
3 707 706 678 
3 707 678 679 
3 706 705 677 
3 706 677 678 
3 703 681 680 
3 703 680 704 
3 676 700 699 
3 676 699 684 
