ply
format ascii 1.0
comment File exported by Rhinoceros Version 5.0
element vertex 274
property float x
property float y
property float z
element face 232
property list uchar int vertex_indices
end_header
5.080000 -0.086809 365.760010
5.080000 -0.086809 60.959999
4.995191 -1.011181 365.760010
4.995191 -1.011181 60.959999
4.723325 -1.956730 365.760010
4.723325 -1.956730 60.959999
4.251937 -2.866634 365.760010
4.251937 -2.866634 60.959999
3.592103 -3.678911 365.760010
3.592103 -3.678911 60.959999
2.779825 -4.338746 365.760010
2.779825 -4.338746 60.959999
1.869921 -4.810133 365.760010
1.869921 -4.810133 60.959999
0.924372 -5.082000 365.760010
0.924372 -5.082000 60.959999
0.000000 -5.166809 365.760010
0.000000 -5.166809 60.959999
-0.924372 -5.082000 365.760010
-0.924372 -5.082000 60.959999
-1.869921 -4.810133 365.760010
-1.869921 -4.810133 60.959999
-2.779825 -4.338746 365.760010
-2.779825 -4.338746 60.959999
-3.592103 -3.678911 365.760010
-3.592103 -3.678911 60.959999
-4.251937 -2.866634 365.760010
-4.251937 -2.866634 60.959999
-4.723325 -1.956730 365.760010
-4.723325 -1.956730 60.959999
-4.995191 -1.011181 365.760010
-4.995191 -1.011181 60.959999
-5.080000 -0.086809 365.760010
-5.080000 -0.086809 60.959999
-4.995191 0.837564 365.760010
-4.995191 0.837564 60.959999
-4.723325 1.783113 365.760010
-4.723325 1.783113 60.959999
-4.251937 2.693017 365.760010
-4.251937 2.693017 60.959999
-3.592103 3.505294 365.760010
-3.592103 3.505294 60.959999
-2.779825 4.165129 365.760010
-2.779825 4.165129 60.959999
-1.869921 4.636516 365.760010
-1.869921 4.636516 60.959999
-0.924372 4.908383 365.760010
-0.924372 4.908383 60.959999
-0.000000 4.993191 365.760010
-0.000000 4.993191 60.959999
0.924372 4.908383 365.760010
0.924372 4.908383 60.959999
1.869921 4.636516 365.760010
1.869921 4.636516 60.959999
2.779825 4.165129 365.760010
2.779825 4.165129 60.959999
3.592103 3.505294 365.760010
3.592103 3.505294 60.959999
4.251937 2.693017 365.760010
4.251937 2.693017 60.959999
4.723325 1.783113 365.760010
4.723325 1.783113 60.959999
4.995191 0.837564 365.760010
4.995191 0.837564 60.959999
5.080000 -0.086809 365.760010
5.080000 -0.086809 60.959999
5.080000 -0.086809 365.760010
4.995191 -1.011181 365.760010
4.723325 -1.956730 365.760010
4.251937 -2.866634 365.760010
3.592103 -3.678911 365.760010
2.779825 -4.338746 365.760010
1.869921 -4.810133 365.760010
0.924372 -5.082000 365.760010
0.000000 -5.166809 365.760010
-0.924372 -5.082000 365.760010
-1.869921 -4.810133 365.760010
-2.779825 -4.338746 365.760010
-3.592103 -3.678911 365.760010
-4.251937 -2.866634 365.760010
-4.723325 -1.956730 365.760010
-4.995191 -1.011181 365.760010
-5.080000 -0.086809 365.760010
-4.995191 0.837564 365.760010
-4.723325 1.783113 365.760010
-4.251937 2.693017 365.760010
-3.592103 3.505294 365.760010
-2.779825 4.165129 365.760010
-1.869921 4.636516 365.760010
-0.924372 4.908383 365.760010
-0.000000 4.993191 365.760010
0.924372 4.908383 365.760010
1.869921 4.636516 365.760010
2.779825 4.165129 365.760010
3.592103 3.505294 365.760010
4.251937 2.693017 365.760010
4.723325 1.783113 365.760010
4.995191 0.837564 365.760010
-30.480000 -30.566809 0.000000
-30.480000 -30.566809 60.959999
30.480000 -30.566809 0.000000
30.480000 -30.566809 60.959999
0.000000 -30.566809 0.000000
30.480000 -30.566809 30.480000
24.384001 -30.566809 60.959999
18.288000 -30.566809 60.959999
12.192000 -30.566809 60.959999
6.096000 -30.566809 60.959999
0.000000 -30.566809 60.959999
-6.096000 -30.566809 60.959999
-12.192000 -30.566809 60.959999
-18.288000 -30.566809 60.959999
-24.384001 -30.566809 60.959999
-30.480000 -30.566809 30.480000
30.480000 -30.566809 0.000000
30.480000 -30.566809 60.959999
30.480000 30.393192 0.000000
30.480000 30.393192 60.959999
30.480000 -30.566809 30.480000
30.480000 -0.086809 0.000000
30.480000 30.393192 30.480000
30.480000 24.297192 60.959999
30.480000 18.201191 60.959999
30.480000 12.105191 60.959999
30.480000 6.009192 60.959999
30.480000 -0.086809 60.959999
30.480000 -6.182808 60.959999
30.480000 -12.278809 60.959999
30.480000 -18.374809 60.959999
30.480000 -24.470808 60.959999
30.480000 30.393192 0.000000
30.480000 30.393192 60.959999
-30.480000 30.393192 0.000000
-30.480000 30.393192 60.959999
30.480000 30.393192 30.480000
0.000000 30.393192 0.000000
-30.480000 30.393192 30.480000
-24.384001 30.393192 60.959999
-18.288000 30.393192 60.959999
-12.192000 30.393192 60.959999
-6.096000 30.393192 60.959999
0.000000 30.393192 60.959999
6.096000 30.393192 60.959999
12.192000 30.393192 60.959999
18.288000 30.393192 60.959999
24.384001 30.393192 60.959999
-30.480000 30.393192 0.000000
-30.480000 30.393192 60.959999
-30.480000 -30.566809 0.000000
-30.480000 -30.566809 60.959999
-30.480000 -30.566809 30.480000
-30.480000 30.393192 30.480000
-30.480000 -0.086809 0.000000
-30.480000 -24.470808 60.959999
-30.480000 -18.374809 60.959999
-30.480000 -12.278809 60.959999
-30.480000 -6.182808 60.959999
-30.480000 -0.086809 60.959999
-30.480000 6.009192 60.959999
-30.480000 12.105191 60.959999
-30.480000 18.201191 60.959999
-30.480000 24.297192 60.959999
-30.480000 -30.566809 0.000000
-30.480000 30.393192 0.000000
30.480000 -30.566809 0.000000
30.480000 30.393192 0.000000
0.000000 -30.566809 0.000000
30.480000 -0.086809 0.000000
0.000000 30.393192 0.000000
-30.480000 -0.086809 0.000000
-30.480000 -30.566809 60.959999
-30.480000 30.393192 60.959999
-21.771429 -21.858236 60.959999
-21.771429 -13.149666 60.959999
-21.771429 -4.441094 60.959999
-21.771429 4.267477 60.959999
-21.771429 12.976048 60.959999
-21.771429 21.684620 60.959999
-13.062857 -21.858236 60.959999
-13.062857 -13.149666 60.959999
-13.062857 -4.441094 60.959999
-13.062857 4.267477 60.959999
-13.062857 12.976048 60.959999
-13.062857 21.684620 60.959999
-4.354286 -21.858236 60.959999
-4.354286 -13.149666 60.959999
-4.354286 12.976048 60.959999
-4.354286 21.684620 60.959999
4.354286 -21.858236 60.959999
4.354286 -13.149666 60.959999
4.354286 12.976048 60.959999
4.354286 21.684620 60.959999
13.062857 -21.858236 60.959999
13.062857 -13.149666 60.959999
13.062857 -4.441094 60.959999
13.062857 4.267477 60.959999
13.062857 12.976048 60.959999
13.062857 21.684620 60.959999
21.771429 -21.858236 60.959999
21.771429 -13.149666 60.959999
21.771429 -4.441094 60.959999
21.771429 4.267477 60.959999
21.771429 12.976048 60.959999
21.771429 21.684620 60.959999
30.480000 -30.566809 60.959999
30.480000 30.393192 60.959999
5.080000 -0.086809 60.959999
4.995191 -1.011181 60.959999
4.723325 -1.956730 60.959999
4.251937 -2.866634 60.959999
3.592103 -3.678911 60.959999
2.779825 -4.338746 60.959999
1.869921 -4.810133 60.959999
0.924372 -5.082000 60.959999
0.000000 -5.166809 60.959999
-0.924372 -5.082000 60.959999
-1.869921 -4.810133 60.959999
-2.779825 -4.338746 60.959999
-3.592103 -3.678911 60.959999
-4.251937 -2.866634 60.959999
-4.723325 -1.956730 60.959999
-4.995191 -1.011181 60.959999
-5.080000 -0.086809 60.959999
-4.995191 0.837564 60.959999
-4.723325 1.783113 60.959999
-4.251937 2.693017 60.959999
-3.592103 3.505294 60.959999
-2.779825 4.165129 60.959999
-1.869921 4.636516 60.959999
-0.924372 4.908383 60.959999
-0.000000 4.993191 60.959999
0.924372 4.908383 60.959999
1.869921 4.636516 60.959999
2.779825 4.165129 60.959999
3.592103 3.505294 60.959999
4.251937 2.693017 60.959999
4.723325 1.783113 60.959999
4.995191 0.837564 60.959999
-24.384001 -30.566809 60.959999
-18.288000 -30.566809 60.959999
-12.192000 -30.566809 60.959999
-6.096000 -30.566809 60.959999
0.000000 -30.566809 60.959999
6.096000 -30.566809 60.959999
12.192000 -30.566809 60.959999
18.288000 -30.566809 60.959999
24.384001 -30.566809 60.959999
30.480000 -24.470808 60.959999
30.480000 -18.374809 60.959999
30.480000 -12.278809 60.959999
30.480000 -6.182808 60.959999
30.480000 -0.086809 60.959999
30.480000 6.009192 60.959999
30.480000 12.105191 60.959999
30.480000 18.201191 60.959999
30.480000 24.297192 60.959999
24.384001 30.393192 60.959999
18.288000 30.393192 60.959999
12.192000 30.393192 60.959999
6.096000 30.393192 60.959999
0.000000 30.393192 60.959999
-6.096000 30.393192 60.959999
-12.192000 30.393192 60.959999
-18.288000 30.393192 60.959999
-24.384001 30.393192 60.959999
-30.480000 24.297192 60.959999
-30.480000 18.201191 60.959999
-30.480000 12.105191 60.959999
-30.480000 6.009192 60.959999
-30.480000 -0.086809 60.959999
-30.480000 -6.182808 60.959999
-30.480000 -12.278809 60.959999
-30.480000 -18.374809 60.959999
-30.480000 -24.470808 60.959999
4 2 3 1 0
4 6 7 5 4
4 4 5 3 2
4 10 11 9 8
4 14 15 13 12
4 12 13 11 10
4 8 9 7 6
4 18 19 17 16
4 22 23 21 20
4 20 21 19 18
4 26 27 25 24
4 30 31 29 28
4 28 29 27 26
4 24 25 23 22
4 16 17 15 14
4 32 33 31 30
4 36 37 35 34
4 40 41 39 38
4 38 39 37 36
4 44 45 43 42
4 48 49 47 46
4 46 47 45 44
4 42 43 41 40
4 52 53 51 50
4 56 57 55 54
4 54 55 53 52
4 60 61 59 58
4 64 65 63 62
4 62 63 61 60
4 58 59 57 56
4 50 51 49 48
4 34 35 33 32
3 84 86 85
3 86 84 83
3 81 86 83
3 87 90 89
3 89 88 87
3 81 87 86
3 81 95 87
3 78 81 79
3 81 80 79
3 81 83 82
3 77 81 78
3 76 81 77
3 81 76 95
3 75 74 76
3 90 87 95
3 93 92 91
3 91 94 93
3 90 95 94
3 97 96 95
3 95 66 97
3 95 76 71
3 66 95 68
3 73 72 71
3 71 74 73
3 74 71 76
3 95 69 68
3 69 71 70
3 69 95 71
3 67 66 68
3 94 91 90
3 102 113 98
3 113 108 109
3 99 113 112
3 113 111 112
3 113 109 110
3 110 111 113
3 103 113 102
3 103 107 108
3 113 103 108
3 103 102 100
3 106 107 103
3 103 105 106
3 103 101 104
3 104 105 103
3 119 118 114
3 118 125 126
3 115 118 129
3 118 128 129
3 118 126 127
3 127 128 118
3 120 118 119
3 120 124 125
3 118 120 125
3 120 119 116
3 123 124 120
3 120 122 123
3 120 117 121
3 121 122 120
3 135 134 130
3 134 141 142
3 131 134 145
3 134 144 145
3 134 142 143
3 143 144 134
3 136 134 135
3 136 140 141
3 134 136 141
3 136 135 132
3 139 140 136
3 136 138 139
3 136 133 137
3 137 138 136
3 152 151 146
3 151 157 158
3 147 151 161
3 151 160 161
3 151 158 159
3 159 160 151
3 157 151 152
3 150 156 157
3 152 150 157
3 150 152 148
3 155 156 150
3 150 154 155
3 150 149 153
3 153 154 150
3 166 169 168
3 169 163 168
3 166 162 169
3 167 164 166
3 167 168 165
3 166 168 167
4 179 173 172 178
4 180 174 173 179
4 181 175 174 180
4 182 176 175 181
4 183 177 176 182
4 185 179 178 184
3 180 179 185
3 186 182 181
4 187 183 182 186
4 189 185 184 188
4 191 187 186 190
4 193 189 188 192
3 189 193 194
3 195 196 190
4 197 191 190 196
4 199 193 192 198
4 200 194 193 199
4 201 195 194 200
4 202 196 195 201
4 203 197 196 202
3 273 170 238
3 172 273 238
4 178 172 239 240
3 238 239 172
3 272 273 172
3 173 271 272
4 270 271 173 174
3 269 270 174
4 174 175 268 269
3 173 272 172
4 184 178 240 241
3 242 184 241
3 214 215 185
3 215 216 185
3 221 180 220
3 219 220 180
3 217 218 185
3 180 218 219
3 185 218 180
3 217 185 216
3 221 222 180
4 267 268 175 176
3 176 266 267
3 177 266 176
3 171 265 264
3 177 264 265
4 177 183 262 263
3 264 177 263
3 177 265 266
3 224 225 181
3 224 181 223
3 186 226 227
3 181 226 186
3 225 226 181
4 261 262 183 187
3 261 187 260
3 191 260 187
3 229 230 186
3 228 229 186
3 186 227 228
3 222 223 181
3 180 222 181
3 184 242 188
3 189 213 214
3 189 214 185
4 192 188 243 244
3 212 213 189
3 188 242 243
3 189 194 210
3 189 211 212
3 189 210 211
3 209 194 208
3 208 194 207
3 194 209 210
4 198 192 244 245
3 246 198 245
3 247 246 204
3 198 246 247
3 248 198 247
4 200 199 249 250
3 199 248 249
3 200 250 251
3 248 199 198
3 206 207 194
3 200 251 201
3 195 190 234
3 190 233 234
3 236 237 195
3 236 195 235
3 235 195 234
3 190 231 232
3 190 230 231
4 191 197 258 259
3 191 259 260
3 190 232 233
3 190 186 230
3 195 237 206
3 194 195 206
4 202 201 252 253
3 202 253 254
3 203 202 254
3 257 258 197
3 203 257 197
3 256 203 255
3 254 255 203
3 255 205 256
3 257 203 256
3 201 251 252
