ply
format ascii 1.0
comment Author: CloudCompare (TELECOM PARISTECH/EDF R&D)
comment obj_info Generated by CloudCompare!
element vertex 374
property float x
property float y
property float z
element face 424
property list uchar int vertex_indices
end_header
2.01018 -1.10603 -0.936136 
2.47767 -1.03236 -0.84206 
2.94515 -0.958679 -0.747985 
3.41264 -0.885002 -0.653909 
1.48502 -1.15081 -0.695139 
1.95251 -1.07713 -0.601063 
2.42 -1.00346 -0.506988 
2.88749 -0.92978 -0.412913 
3.35498 -0.856103 -0.318837 
3.82247 -0.782427 -0.224762 
0.959865 -1.19559 -0.454142 
1.42735 -1.12191 -0.360066 
1.89484 -1.04823 -0.265991 
3.7648 -0.753528 0.11031 
0.902198 -1.16669 -0.11907 
3.23964 -0.798305 0.351307 
3.70713 -0.724629 0.445383 
1.31202 -1.06411 0.310078 
1.77951 -0.990435 0.404153 
2.247 -0.916759 0.498229 
2.71449 -0.843082 0.592304 
3.18198 -0.769406 0.686379 
3.64947 -0.69573 0.780455 
0.786864 -1.10889 0.551075 
1.25435 -1.03521 0.64515 
1.72184 -0.961536 0.739226 
2.18933 -0.88786 0.833301 
2.65682 -0.814183 0.927376 
3.12431 -0.740507 1.02145 
0.729198 -1.07999 0.886147 
1.19669 -1.00631 0.980223 
0.464012 -1.08678 1.15227 
0.913566 -1.02939 1.11987 
1.31734 -0.975132 1.11554 
1.50685 -0.948914 1.12037 
1.79655 -0.908234 1.13324 
2.0817 -0.868045 1.14728 
2.18491 -0.853383 1.1534 
2.63353 -0.784961 1.22287 
2.94934 -0.739778 1.24455 
3.31797 -0.692372 1.22118 
3.43175 -0.67921 1.20054 
3.52375 -0.670292 1.16812 
3.61567 -0.662807 1.12272 
3.71447 -0.656086 1.06183 
3.81433 -0.651154 0.983313 
3.92348 -0.648601 0.871586 
4.03043 -0.6507 0.720129 
4.07882 -0.654256 0.627827 
4.12094 -0.659883 0.524363 
4.17577 -0.67774 0.293571 
4.18227 -0.703112 0.0539849 
4.14409 -0.73223 -0.164514 
4.07694 -0.761117 -0.345082 
3.99645 -0.78756 -0.486828 
3.89285 -0.816031 -0.618494 
3.81086 -0.835984 -0.69918 
3.73166 -0.853765 -0.763466 
3.579 -0.885136 -0.860917 
3.42943 -0.913188 -0.931907 
3.28155 -0.939067 -0.985145 
3.13486 -0.963398 -1.02573 
2.87508 -1.00411 -1.07592 
2.56336 -1.04983 -1.10755 
2.24165 -1.09379 -1.11077 
2.07779 -1.11482 -1.10001 
1.78697 -1.14956 -1.05731 
1.51565 -1.17913 -0.991458 
1.27238 -1.2038 -0.915673 
1.10159 -1.22074 -0.859043 
1.05943 -1.22502 -0.845892 
1.00961 -1.23023 -0.831884 
0.971248 -1.23446 -0.822979 
0.940394 -1.23806 -0.81765 
0.911831 -1.2416 -0.814671 
0.87969 -1.24584 -0.813613 
0.838476 -1.25157 -0.814874 
0.783931 -1.25951 -0.819864 
0.625134 -1.2839 -0.846002 
0.399819 -1.19873 0.210009 
0.431915 -1.14275 0.681139 
0.464778 -1.20354 0.0857453 
0.734238 -1.16253 0.126677 
0.993376 -1.12748 0.125983 
1.24728 -1.09887 0.0729243 
1.47482 -1.07611 -0.000770076 
1.73714 -1.04946 -0.0821393 
1.99959 -1.02021 -0.139817 
2.26199 -0.987417 -0.165146 
2.53004 -0.950631 -0.161029 
2.78893 -0.912345 -0.131885 
3.04262 -0.871579 -0.0736775 
3.28004 -0.826622 0.0429113 
3.27885 -0.805485 0.237277 
3.01992 -0.835959 0.279473 
2.75379 -0.872543 0.274822 
2.49711 -0.909219 0.257646 
2.22371 -0.948896 0.233744 
1.97995 -0.984414 0.211156 
1.7104 -1.02332 0.189551 
1.44838 -1.06039 0.175358 
1.18568 -1.09661 0.169758 
0.930404 -1.13082 0.173388 
0.66792 -1.16494 0.18665 
0.544956 -1.24372 -0.380128 
0.625134 -1.2839 -0.846002 
0.39656 0.402381 -1.03078 
0.783931 -1.25951 -0.819864 
0.555357 0.42677 -1.00464 
0.838476 -1.25157 -0.814874 
0.609901 0.434711 -0.999649 
0.87969 -1.24584 -0.813613 
0.651116 0.440435 -0.998388 
0.911831 -1.2416 -0.814671 
0.683257 0.444676 -0.999446 
0.940394 -1.23806 -0.81765 
0.711819 0.448221 -1.00242 
0.971248 -1.23446 -0.822979 
0.742673 0.45182 -1.00775 
1.00961 -1.23023 -0.831884 
0.781035 0.456044 -1.01666 
1.05943 -1.22502 -0.845892 
0.830852 0.461261 -1.03067 
1.10159 -1.22074 -0.859043 
0.873017 0.465536 -1.04382 
1.27238 -1.2038 -0.915673 
1.04381 0.482481 -1.10045 
1.51565 -1.17913 -0.991458 
1.28707 0.507152 -1.17623 
1.78697 -1.14956 -1.05731 
1.55839 0.536713 -1.24208 
2.07779 -1.11482 -1.10001 
1.84921 0.571455 -1.28479 
2.24165 -1.09379 -1.11077 
2.01307 0.592487 -1.29554 
2.56336 -1.04983 -1.10755 
2.33478 0.636447 -1.29233 
2.87508 -1.00411 -1.07592 
2.64651 0.682167 -1.2607 
3.13486 -0.963398 -1.02573 
2.90629 0.72288 -1.21051 
3.28155 -0.939067 -0.985145 
3.05298 0.747211 -1.16992 
3.42943 -0.913188 -0.931907 
3.20086 0.77309 -1.11668 
3.579 -0.885136 -0.860917 
3.35043 0.801143 -1.04569 
3.73166 -0.853765 -0.763466 
3.50309 0.832514 -0.948241 
3.81086 -0.835984 -0.69918 
3.58229 0.850294 -0.883955 
3.89285 -0.816031 -0.618494 
3.66427 0.870248 -0.803269 
3.99645 -0.78756 -0.486828 
3.76787 0.898719 -0.671603 
4.07694 -0.761117 -0.345082 
3.84837 0.925161 -0.529857 
4.14409 -0.73223 -0.164514 
3.91551 0.954048 -0.349289 
4.18227 -0.703112 0.0539849 
3.95369 0.983166 -0.13079 
4.17577 -0.67774 0.293571 
3.9472 1.00854 0.108796 
4.12094 -0.659883 0.524363 
3.89236 1.0264 0.339588 
4.07882 -0.654256 0.627827 
3.85024 1.03202 0.443051 
4.03043 -0.6507 0.720129 
3.80186 1.03558 0.535353 
3.92348 -0.648601 0.871586 
3.69491 1.03768 0.686811 
3.81433 -0.651154 0.983313 
3.58575 1.03512 0.798538 
3.71447 -0.656086 1.06183 
3.4859 1.03019 0.877057 
3.61567 -0.662807 1.12272 
3.3871 1.02347 0.937941 
3.52375 -0.670292 1.16812 
3.29517 1.01599 0.983344 
3.43175 -0.67921 1.20054 
3.20317 1.00707 1.01577 
3.31797 -0.692372 1.22118 
3.08939 0.993907 1.0364 
2.94934 -0.739778 1.24455 
2.72076 0.9465 1.05978 
2.63353 -0.784961 1.22287 
2.40496 0.901318 1.0381 
2.18491 -0.853383 1.1534 
1.95634 0.832895 0.968629 
2.0817 -0.868045 1.14728 
1.85312 0.818233 0.962507 
1.79655 -0.908234 1.13324 
1.56798 0.778044 0.948468 
1.50685 -0.948914 1.12037 
1.27828 0.737365 0.935598 
1.31734 -0.975132 1.11554 
1.08876 0.711147 0.930768 
0.913566 -1.02939 1.11987 
0.684991 0.65689 0.935094 
0.464012 -1.08678 1.15227 
0.235438 0.599503 0.967494 
0.349725 -0.243636 1.05988 
0.510847 -0.440758 -0.93839 
0.464778 -1.20354 0.0857453 
0.236203 0.482742 -0.0990298 
0.544956 -1.24372 -0.380128 
0.316382 0.442562 -0.564904 
0.625134 -1.2839 -0.846002 
0.39656 0.402381 -1.03078 
0.510847 -0.440758 -0.93839 
0.350491 -0.360397 -0.00664224 
0.399819 -1.19873 0.210009 
0.171244 0.487553 0.0252335 
0.66792 -1.16494 0.18665 
0.439345 0.521334 0.00187479 
0.930404 -1.13082 0.173388 
0.70183 0.555461 -0.0113873 
1.18568 -1.09661 0.169758 
0.957109 0.589666 -0.0150176 
1.44838 -1.06039 0.175358 
1.21981 0.625888 -0.00941698 
1.7104 -1.02332 0.189551 
1.48183 0.66296 0.00477573 
1.97995 -0.984414 0.211156 
1.75137 0.701864 0.0263813 
2.22371 -0.948896 0.233744 
1.99514 0.737382 0.0489692 
2.49711 -0.909219 0.257646 
2.26853 0.77706 0.0728705 
2.75379 -0.872543 0.274822 
2.52522 0.813736 0.090047 
3.01992 -0.835959 0.279473 
2.79135 0.850319 0.0946974 
3.27885 -0.805485 0.237277 
3.05028 0.880793 0.0525022 
3.28004 -0.826622 0.0429113 
3.05147 0.859656 -0.141864 
3.04262 -0.871579 -0.0736775 
2.81405 0.814699 -0.258453 
2.78893 -0.912345 -0.131885 
2.56036 0.773933 -0.31666 
2.53004 -0.950631 -0.161029 
2.30147 0.735647 -0.345804 
2.26199 -0.987417 -0.165146 
2.03341 0.698861 -0.349922 
1.99959 -1.02021 -0.139817 
1.77101 0.666069 -0.324592 
1.73714 -1.04946 -0.0821393 
1.50856 0.636813 -0.266914 
1.47482 -1.07611 -0.000770076 
1.24625 0.610173 -0.185545 
1.24728 -1.09887 0.0729243 
1.01871 0.587405 -0.111851 
0.993376 -1.12748 0.125983 
0.764801 0.558802 -0.0587923 
0.734238 -1.16253 0.126677 
0.505664 0.523752 -0.0580985 
0.464778 -1.20354 0.0857453 
0.236203 0.482742 -0.0990298 
0.350491 -0.360397 -0.00664224 
0.285531 -0.355586 0.117621 
0.464012 -1.08678 1.15227 
0.235438 0.599503 0.967494 
0.431915 -1.14275 0.681139 
0.203341 0.543528 0.496364 
0.399819 -1.19873 0.210009 
0.171244 0.487553 0.0252335 
0.349725 -0.243636 1.05988 
0.285531 -0.355586 0.117621 
1.7816 0.580247 -1.12091 
2.24909 0.653923 -1.02684 
2.71658 0.7276 -0.93276 
3.18407 0.801276 -0.838685 
1.25645 0.53547 -0.879914 
1.72394 0.609146 -0.785838 
2.19142 0.682822 -0.691763 
2.65891 0.756499 -0.597688 
3.1264 0.830175 -0.503612 
3.59389 0.903851 -0.409537 
0.73129 0.490692 -0.638917 
1.19878 0.564369 -0.544842 
1.66627 0.638045 -0.450766 
3.53622 0.93275 -0.0744648 
0.673624 0.519591 -0.303845 
3.01107 0.887973 0.166532 
3.47856 0.961649 0.260607 
1.08345 0.622167 0.125303 
1.55093 0.695843 0.219378 
2.01842 0.769519 0.313454 
2.48591 0.843196 0.407529 
2.9534 0.916872 0.501604 
3.42089 0.990549 0.59568 
0.55829 0.577389 0.3663 
1.02578 0.651066 0.460375 
1.49327 0.724742 0.554451 
1.96076 0.798419 0.648526 
2.42825 0.872095 0.742601 
2.89574 0.945771 0.836677 
0.500623 0.606288 0.701372 
0.968112 0.679965 0.795447 
0.235438 0.599503 0.967494 
0.684991 0.65689 0.935094 
1.08876 0.711147 0.930768 
1.27828 0.737365 0.935598 
1.56798 0.778044 0.948468 
1.85312 0.818233 0.962507 
1.95634 0.832895 0.968629 
2.40496 0.901318 1.0381 
2.72076 0.9465 1.05978 
3.08939 0.993907 1.0364 
3.20317 1.00707 1.01577 
3.29517 1.01599 0.983344 
3.3871 1.02347 0.937941 
3.4859 1.03019 0.877057 
3.58575 1.03512 0.798538 
3.69491 1.03768 0.686811 
3.80186 1.03558 0.535353 
3.85024 1.03202 0.443051 
3.89236 1.0264 0.339588 
3.9472 1.00854 0.108796 
3.95369 0.983166 -0.13079 
3.91551 0.954048 -0.349289 
3.84837 0.925161 -0.529857 
3.76787 0.898719 -0.671603 
3.66427 0.870248 -0.803269 
3.58229 0.850294 -0.883955 
3.50309 0.832514 -0.948241 
3.35043 0.801143 -1.04569 
3.20086 0.77309 -1.11668 
3.05298 0.747211 -1.16992 
2.90629 0.72288 -1.21051 
2.64651 0.682167 -1.2607 
2.33478 0.636447 -1.29233 
2.01307 0.592487 -1.29554 
1.84921 0.571455 -1.28479 
1.55839 0.536713 -1.24208 
1.28707 0.507152 -1.17623 
1.04381 0.482481 -1.10045 
0.873017 0.465536 -1.04382 
0.830852 0.461261 -1.03067 
0.781035 0.456044 -1.01666 
0.742673 0.45182 -1.00775 
0.711819 0.448221 -1.00242 
0.683257 0.444676 -0.999446 
0.651116 0.440435 -0.998388 
0.609901 0.434711 -0.999649 
0.555357 0.42677 -1.00464 
0.39656 0.402381 -1.03078 
0.316382 0.442562 -0.564904 
0.236203 0.482742 -0.0990298 
0.505664 0.523752 -0.0580985 
0.764801 0.558802 -0.0587923 
1.01871 0.587405 -0.111851 
1.24625 0.610173 -0.185545 
1.50856 0.636813 -0.266914 
1.77101 0.666069 -0.324592 
2.03341 0.698861 -0.349922 
2.30147 0.735647 -0.345804 
2.56036 0.773933 -0.31666 
2.81405 0.814699 -0.258453 
3.05147 0.859656 -0.141864 
3.05028 0.880793 0.0525022 
2.79135 0.850319 0.0946974 
2.52522 0.813736 0.090047 
2.26853 0.77706 0.0728705 
1.99514 0.737382 0.0489692 
1.75137 0.701864 0.0263813 
1.48183 0.66296 0.00477573 
1.21981 0.625888 -0.00941698 
0.957109 0.589666 -0.0150176 
0.70183 0.555461 -0.0113873 
0.439345 0.521334 0.00187479 
0.171244 0.487553 0.0252335 
0.203341 0.543528 0.496364 
3 6 5 0 
3 6 0 1 
3 7 6 1 
3 7 1 2 
3 8 7 2 
3 8 2 3 
3 3 9 8 
3 10 4 11 
3 12 11 4 
3 12 4 5 
3 13 8 9 
3 11 14 10 
3 22 21 15 
3 22 15 16 
3 25 24 17 
3 25 17 18 
3 26 25 18 
3 26 18 19 
3 27 26 19 
3 27 19 20 
3 28 27 20 
3 28 20 21 
3 30 29 23 
3 30 23 24 
3 70 69 4 
3 68 4 69 
3 73 72 10 
3 72 71 10 
3 71 70 4 
3 65 64 0 
3 66 65 0 
3 5 67 0 
3 64 1 0 
3 67 4 68 
3 66 0 67 
3 63 1 64 
3 10 74 73 
3 10 77 76 
3 10 76 75 
3 10 104 78 
3 77 10 78 
3 71 4 10 
3 67 5 4 
3 87 86 12 
3 11 12 86 
3 12 88 87 
3 5 88 12 
3 85 11 86 
3 14 104 10 
3 75 74 10 
3 88 5 6 
3 2 61 60 
3 62 61 2 
3 59 3 60 
3 62 2 1 
3 2 60 3 
3 1 63 62 
3 56 3 57 
3 58 57 3 
3 9 55 54 
3 56 55 3 
3 54 53 9 
3 55 9 3 
3 3 59 58 
3 90 89 7 
3 6 7 89 
3 91 90 7 
3 8 91 7 
3 89 88 6 
3 92 91 8 
3 52 9 53 
3 51 9 52 
3 16 13 50 
3 92 8 13 
3 13 51 50 
3 16 93 13 
3 9 51 13 
3 13 93 92 
3 83 14 84 
3 82 14 83 
3 23 102 17 
3 14 82 81 
3 81 104 14 
3 17 102 101 
3 14 85 84 
3 18 17 100 
3 98 18 99 
3 100 99 18 
3 100 17 101 
3 18 98 19 
3 23 79 103 
3 80 79 23 
3 17 24 23 
3 29 31 80 
3 32 31 29 
3 23 29 80 
3 25 30 24 
3 34 30 25 
3 30 33 32 
3 25 35 34 
3 30 34 33 
3 30 32 29 
3 23 103 102 
3 35 25 36 
3 20 96 95 
3 20 95 94 
3 96 20 19 
3 19 98 97 
3 97 96 19 
3 21 20 94 
3 50 49 16 
3 16 15 93 
3 48 16 49 
3 22 16 47 
3 28 21 22 
3 47 16 48 
3 47 46 22 
3 21 94 15 
3 15 94 93 
3 37 26 27 
3 39 27 28 
3 22 43 28 
3 26 37 36 
3 38 27 39 
3 37 27 38 
3 40 39 28 
3 22 45 44 
3 45 22 46 
3 28 42 41 
3 42 28 43 
3 43 22 44 
3 28 41 40 
3 26 36 25 
3 14 11 85 
3 202 107 105 
3 109 107 108 
3 109 108 110 
3 113 111 112 
3 113 112 114 
3 115 113 114 
3 115 114 116 
3 111 109 110 
3 111 110 112 
3 119 117 118 
3 119 118 120 
3 121 119 120 
3 121 120 122 
3 125 123 124 
3 125 124 126 
3 127 125 126 
3 127 126 128 
3 123 121 122 
3 123 122 124 
3 117 115 116 
3 117 116 118 
3 131 129 130 
3 131 130 132 
3 133 131 132 
3 133 132 134 
3 137 135 136 
3 137 136 138 
3 139 137 138 
3 139 138 140 
3 135 133 134 
3 135 134 136 
3 143 141 142 
3 143 142 144 
3 145 143 144 
3 145 144 146 
3 149 147 148 
3 149 148 150 
3 151 149 150 
3 151 150 152 
3 147 145 146 
3 147 146 148 
3 141 139 140 
3 141 140 142 
3 129 127 128 
3 129 128 130 
3 106 108 202 
3 108 107 202 
3 152 154 153 
3 152 153 151 
3 155 153 154 
3 155 154 156 
3 157 155 156 
3 157 156 158 
3 161 159 160 
3 161 160 162 
3 163 161 162 
3 163 162 164 
3 159 157 158 
3 159 158 160 
3 167 165 166 
3 167 166 168 
3 169 167 168 
3 169 168 170 
3 173 171 172 
3 173 172 174 
3 175 173 174 
3 175 174 176 
3 171 169 170 
3 171 170 172 
3 165 163 164 
3 165 164 166 
3 179 177 178 
3 179 178 180 
3 181 179 180 
3 181 180 182 
3 185 183 184 
3 185 184 186 
3 187 185 186 
3 187 186 188 
3 183 181 182 
3 183 182 184 
3 191 189 190 
3 191 190 192 
3 193 191 192 
3 193 192 194 
3 197 195 196 
3 197 196 198 
3 201 199 197 
3 195 193 194 
3 195 194 196 
3 189 187 188 
3 189 188 190 
3 177 175 176 
3 177 176 178 
3 201 198 200 
3 198 201 197 
3 210 205 203 
3 210 204 206 
3 206 205 210 
3 205 206 209 
3 209 206 208 
3 207 205 209 
3 260 213 211 
3 215 213 214 
3 215 214 216 
3 219 217 218 
3 219 218 220 
3 221 219 220 
3 221 220 222 
3 217 215 216 
3 217 216 218 
3 225 223 224 
3 225 224 226 
3 227 225 226 
3 227 226 228 
3 231 229 230 
3 231 230 232 
3 233 231 232 
3 233 232 234 
3 229 227 228 
3 229 228 230 
3 223 221 222 
3 223 222 224 
3 212 214 260 
3 214 213 260 
3 234 236 235 
3 234 235 233 
3 237 235 236 
3 237 236 238 
3 239 237 238 
3 239 238 240 
3 243 241 242 
3 243 242 244 
3 245 243 244 
3 245 244 246 
3 241 239 240 
3 241 240 242 
3 249 247 248 
3 249 248 250 
3 251 249 250 
3 251 250 252 
3 255 253 254 
3 255 254 256 
3 259 257 255 
3 253 251 252 
3 253 252 254 
3 247 245 246 
3 247 246 248 
3 259 256 258 
3 256 259 255 
3 267 263 261 
3 267 262 264 
3 264 263 267 
3 264 266 268 
3 264 268 263 
3 265 263 268 
3 275 270 269 
3 275 269 274 
3 276 271 270 
3 276 270 275 
3 277 272 271 
3 277 271 276 
3 272 277 278 
3 279 280 273 
3 281 274 273 
3 281 273 280 
3 282 278 277 
3 280 279 283 
3 291 285 284 
3 291 284 290 
3 294 287 286 
3 294 286 293 
3 295 288 287 
3 295 287 294 
3 296 289 288 
3 296 288 295 
3 297 290 289 
3 297 289 296 
3 299 293 292 
3 299 292 298 
3 339 273 338 
3 337 338 273 
3 342 279 341 
3 341 279 340 
3 340 273 339 
3 334 269 333 
3 335 269 334 
3 274 269 336 
3 333 269 270 
3 336 337 273 
3 335 336 269 
3 332 333 270 
3 279 342 343 
3 279 345 346 
3 279 344 345 
3 279 347 348 
3 346 347 279 
3 340 279 273 
3 336 273 274 
3 355 281 354 
3 280 354 281 
3 281 355 356 
3 274 281 356 
3 353 354 280 
3 283 279 348 
3 344 279 343 
3 356 275 274 
3 271 329 330 
3 331 271 330 
3 328 329 272 
3 331 270 271 
3 271 272 329 
3 270 331 332 
3 325 326 272 
3 327 272 326 
3 278 323 324 
3 325 272 324 
3 323 278 322 
3 324 272 278 
3 272 327 328 
3 358 276 357 
3 275 357 276 
3 359 276 358 
3 277 276 359 
3 357 275 356 
3 360 277 359 
3 321 322 278 
3 320 321 278 
3 285 319 282 
3 360 282 277 
3 282 319 320 
3 285 282 361 
3 278 282 320 
3 282 360 361 
3 351 352 283 
3 350 351 283 
3 292 286 370 
3 283 349 350 
3 349 283 348 
3 286 369 370 
3 283 352 353 
3 287 368 286 
3 366 367 287 
3 368 287 367 
3 368 369 286 
3 287 288 366 
3 292 371 372 
3 373 292 372 
3 286 292 293 
3 298 373 300 
3 301 298 300 
3 292 373 298 
3 294 293 299 
3 303 294 299 
3 299 301 302 
3 294 303 304 
3 299 302 303 
3 299 298 301 
3 292 370 371 
3 304 305 294 
3 289 363 364 
3 289 362 363 
3 364 288 289 
3 288 365 366 
3 365 288 364 
3 290 362 289 
3 319 285 318 
3 285 361 284 
3 317 318 285 
3 291 316 285 
3 297 291 290 
3 316 317 285 
3 316 291 315 
3 290 284 362 
3 284 361 362 
3 306 296 295 
3 308 297 296 
3 291 297 312 
3 295 305 306 
3 307 308 296 
3 306 307 296 
3 309 297 308 
3 291 313 314 
3 314 315 291 
3 297 310 311 
3 311 312 297 
3 312 313 291 
3 297 309 310 
3 295 294 305 
3 283 353 280 
