ply
format ascii 1.0
comment Created by Blender 2.75 (sub 0) - www.blender.org, source file: ''
element vertex 88
property float x
property float y
property float z
property float nx
property float ny
property float nz
element face 26
property list uchar uint vertex_indices
end_header
0.481565 0.501047 0.043804 0.000000 0.000000 -1.000000
0.481565 -0.511956 0.043804 0.000000 0.000000 -1.000000
-0.531439 -0.511956 0.043804 0.000000 0.000000 -1.000000
-0.531438 0.501047 0.043804 0.000000 0.000000 -1.000000
0.481565 0.501047 1.056807 0.000000 -0.000000 1.000000
-0.531439 0.501047 1.056807 0.000000 -0.000000 1.000000
-0.531439 -0.511956 1.056807 0.000000 -0.000000 1.000000
0.481565 -0.511957 1.056807 0.000000 -0.000000 1.000000
0.481565 0.501047 0.043804 1.000000 -0.000000 0.000000
0.481565 0.501047 1.056807 1.000000 -0.000000 0.000000
0.481565 -0.511957 1.056807 1.000000 -0.000000 0.000000
0.481565 -0.511956 0.043804 1.000000 -0.000000 0.000000
0.481565 -0.511956 0.043804 -0.000000 -1.000000 -0.000000
0.481565 -0.511957 1.056807 -0.000000 -1.000000 -0.000000
-0.531439 -0.511956 1.056807 -0.000000 -1.000000 -0.000000
-0.531439 -0.511956 0.043804 -0.000000 -1.000000 -0.000000
-0.531439 -0.511956 0.043804 -1.000000 0.000000 -0.000000
-0.531439 -0.511956 1.056807 -1.000000 0.000000 -0.000000
-0.531439 0.501047 1.056807 -1.000000 0.000000 -0.000000
-0.531438 0.501047 0.043804 -1.000000 0.000000 -0.000000
0.481565 0.501047 1.056807 0.000000 1.000000 0.000000
0.481565 0.501047 0.043804 0.000000 1.000000 0.000000
-0.531438 0.501047 0.043804 0.000000 1.000000 0.000000
-0.531439 0.501047 1.056807 0.000000 1.000000 0.000000
-0.001080 0.088803 1.108434 0.401065 0.916048 0.001538
-0.001071 0.076933 8.178424 0.401065 0.916048 0.001538
0.055018 0.052376 8.178383 0.401065 0.916048 0.001538
0.055010 0.064246 1.108393 0.401065 0.916048 0.001538
0.055010 0.064246 1.108393 0.931340 0.364150 0.000610
0.055018 0.052376 8.178383 0.931340 0.364150 0.000610
0.077315 -0.004650 8.178287 0.931340 0.364150 0.000610
0.077306 0.007221 1.108297 0.931340 0.364150 0.000610
0.077306 0.007221 1.108297 0.916050 -0.401064 -0.000674
0.077315 -0.004650 8.178287 0.916050 -0.401064 -0.000674
0.052758 -0.060739 8.178193 0.916050 -0.401064 -0.000674
0.052749 -0.048868 1.108203 0.916050 -0.401064 -0.000674
0.052749 -0.048868 1.108203 0.364151 -0.931339 -0.001564
0.052758 -0.060739 8.178193 0.364151 -0.931339 -0.001564
-0.004268 -0.083035 8.178156 0.364151 -0.931339 -0.001564
-0.004276 -0.071165 1.108166 0.364151 -0.931339 -0.001564
-0.004276 -0.071165 1.108166 -0.401065 -0.916048 -0.001538
-0.004268 -0.083035 8.178156 -0.401065 -0.916048 -0.001538
-0.060357 -0.058478 8.178197 -0.401065 -0.916048 -0.001538
-0.060365 -0.046608 1.108207 -0.401065 -0.916048 -0.001538
-0.060365 -0.046608 1.108207 -0.931340 -0.364150 -0.000610
-0.060357 -0.058478 8.178197 -0.931340 -0.364150 -0.000610
-0.082654 -0.001453 8.178292 -0.931340 -0.364150 -0.000610
-0.082662 0.010418 1.108303 -0.931340 -0.364150 -0.000610
0.055018 0.052376 8.178383 0.000028 -0.001678 0.999999
0.052758 -0.060739 8.178193 0.000028 -0.001678 0.999999
0.077315 -0.004650 8.178287 0.000028 -0.001678 0.999999
-0.060357 -0.058478 8.178197 0.000000 -0.001669 0.999999
-0.004268 -0.083035 8.178156 0.000000 -0.001669 0.999999
0.052758 -0.060739 8.178193 0.000000 -0.001669 0.999999
-0.058097 0.054636 8.178387 -0.000013 -0.001678 0.999999
-0.082654 -0.001453 8.178292 -0.000013 -0.001678 0.999999
-0.060357 -0.058478 8.178197 -0.000013 -0.001678 0.999999
0.055018 0.052376 8.178383 0.000000 -0.001669 0.999999
-0.001071 0.076933 8.178424 0.000000 -0.001669 0.999999
-0.058097 0.054636 8.178387 0.000000 -0.001669 0.999999
0.055018 0.052376 8.178383 0.000000 -0.001678 0.999999
-0.060357 -0.058478 8.178197 0.000000 -0.001678 0.999999
0.052758 -0.060739 8.178193 0.000000 -0.001678 0.999999
-0.058097 0.054636 8.178387 0.000000 -0.001678 0.999999
-0.058105 0.066507 1.108397 -0.364151 0.931338 0.001564
-0.058097 0.054636 8.178387 -0.364151 0.931338 0.001564
-0.001071 0.076933 8.178424 -0.364151 0.931338 0.001564
-0.001080 0.088803 1.108434 -0.364151 0.931338 0.001564
-0.082662 0.010418 1.108303 -0.916050 0.401064 0.000674
-0.082654 -0.001453 8.178292 -0.916050 0.401064 0.000674
-0.058097 0.054636 8.178387 -0.916050 0.401064 0.000674
-0.058105 0.066507 1.108397 -0.916050 0.401064 0.000674
-0.001080 0.088803 1.108434 -0.000005 0.001681 -0.999999
-0.082662 0.010418 1.108303 -0.000005 0.001681 -0.999999
-0.058105 0.066507 1.108397 -0.000005 0.001681 -0.999999
-0.004276 -0.071165 1.108166 0.000001 0.001681 -0.999999
-0.060365 -0.046608 1.108207 0.000001 0.001681 -0.999999
-0.082662 0.010418 1.108303 0.000001 0.001681 -0.999999
0.077306 0.007221 1.108297 -0.000005 0.001681 -0.999999
0.052749 -0.048868 1.108203 -0.000005 0.001681 -0.999999
-0.004276 -0.071165 1.108166 -0.000005 0.001681 -0.999999
-0.001080 0.088803 1.108434 0.000001 0.001681 -0.999999
0.055010 0.064246 1.108393 0.000001 0.001681 -0.999999
0.077306 0.007221 1.108297 0.000001 0.001681 -0.999999
-0.001080 0.088803 1.108434 -0.000002 0.001678 -0.999999
-0.004276 -0.071165 1.108166 -0.000002 0.001678 -0.999999
-0.082662 0.010418 1.108303 -0.000002 0.001678 -0.999999
0.077306 0.007221 1.108297 -0.000002 0.001678 -0.999999
4 0 1 2 3
4 4 5 6 7
4 8 9 10 11
4 12 13 14 15
4 16 17 18 19
4 20 21 22 23
4 24 25 26 27
4 28 29 30 31
4 32 33 34 35
4 36 37 38 39
4 40 41 42 43
4 44 45 46 47
3 48 49 50
3 51 52 53
3 54 55 56
3 57 58 59
3 60 61 62
3 60 63 61
4 64 65 66 67
4 68 69 70 71
3 72 73 74
3 75 76 77
3 78 79 80
3 81 82 83
3 84 85 86
3 84 87 85
